<?xml version="1.0" encoding="utf-8" ?>
<svg xmlns="http://www.w3.org/2000/svg" xmlns:xlink="http://www.w3.org/1999/xlink" width="142.5535" height="32.667" viewBox="0 0 142.5535 32.667">
	<defs>
		<linearGradient id="linearGradient7206240243" gradientTransform="matrix(4.30196e-16 30 -7.02564 1.83697e-15 72.0128 -3.71476e-14)" gradientUnits="userSpaceOnUse" x1="0" y1="0.5" x2="1" y2="0.5">
			<stop offset="0.22499999" stop-color="rgb(255, 255, 255)"/>
			<stop offset="1" stop-color="rgb(255, 255, 255)" stop-opacity="0.69999999"/>
		</linearGradient>
	</defs>
	<path d="M0 2.66667Q0.115253 2.66667 0.230077 2.65672Q0.3449 2.64678 0.458438 2.62697Q0.571975 2.60715 0.68338 2.57762Q0.794784 2.54808 0.903225 2.50904Q1.01167 2.47001 1.11633 2.42176Q1.221 2.37351 1.32112 2.31641Q1.42123 2.25931 1.51605 2.19379Q1.61086 2.12826 1.69967 2.0548Q1.78848 1.98134 1.87062 1.9005Q1.95276 1.81965 2.02762 1.73201Q2.10248 1.64438 2.16949 1.55062Q2.23651 1.45685 2.29519 1.35765Q2.35387 1.25845 2.40377 1.15456Q2.45367 1.05067 2.49442 0.942863Q2.53517 0.835055 2.56647 0.724132Q2.59776 0.613209 2.61937 0.5L3.00334 0.5L3.00334 -0.5L2.61937 -0.5Q2.59776 -0.613209 2.56647 -0.724132Q2.53517 -0.835055 2.49442 -0.942863Q2.45367 -1.05067 2.40377 -1.15456Q2.35387 -1.25845 2.29519 -1.35765Q2.23651 -1.45685 2.16949 -1.55062Q2.10248 -1.64438 2.02762 -1.73201Q1.95276 -1.81965 1.87062 -1.9005Q1.78848 -1.98134 1.69967 -2.0548Q1.61086 -2.12826 1.51605 -2.19379Q1.42123 -2.25931 1.32112 -2.31641Q1.221 -2.37351 1.11633 -2.42176Q1.01167 -2.47001 0.903225 -2.50904Q0.794784 -2.54808 0.68338 -2.57762Q0.571975 -2.60715 0.458438 -2.62697Q0.3449 -2.64678 0.230077 -2.65672Q0.115253 -2.66667 0 -2.66667Q-0.131005 -2.66667 -0.261379 -2.65383Q-0.391753 -2.64099 -0.520241 -2.61543Q-0.648728 -2.58987 -0.774092 -2.55184Q-0.899456 -2.51381 -1.02049 -2.46368Q-1.14152 -2.41355 -1.25706 -2.35179Q-1.37259 -2.29003 -1.48152 -2.21725Q-1.59045 -2.14447 -1.69172 -2.06136Q-1.79298 -1.97825 -1.88562 -1.88562Q-1.97825 -1.79298 -2.06136 -1.69172Q-2.14447 -1.59045 -2.21725 -1.48152Q-2.29003 -1.37259 -2.35179 -1.25706Q-2.41355 -1.14152 -2.46368 -1.02049Q-2.51381 -0.899456 -2.55184 -0.774092Q-2.58987 -0.648728 -2.61543 -0.520241Q-2.64099 -0.391753 -2.65383 -0.261379Q-2.66667 -0.131005 -2.66667 0Q-2.66667 0.131005 -2.65383 0.261379Q-2.64099 0.391753 -2.61543 0.520241Q-2.58987 0.648728 -2.55184 0.774092Q-2.51381 0.899456 -2.46368 1.02049Q-2.41355 1.14152 -2.35179 1.25706Q-2.29003 1.37259 -2.21725 1.48152Q-2.14447 1.59045 -2.06136 1.69172Q-1.97825 1.79298 -1.88562 1.88562Q-1.79298 1.97825 -1.69172 2.06136Q-1.59045 2.14447 -1.48152 2.21725Q-1.37259 2.29003 -1.25706 2.35179Q-1.14152 2.41355 -1.02049 2.46368Q-0.899456 2.51381 -0.774092 2.55184Q-0.648728 2.58987 -0.520241 2.61543Q-0.391753 2.64099 -0.261379 2.65383Q-0.131005 2.66667 0 2.66667ZM4.20135 0.5L5.35106 0.5L5.35106 -0.5L4.20135 -0.5L4.20135 0.5ZM6.54141 0.5L7.74713 0.5L7.74713 -0.5L6.54141 -0.5L6.54141 0.5ZM8.94578 0.5L10.1175 0.5L10.1175 -0.5L8.94578 -0.5L8.94578 0.5ZM11.35 0.5L12.5313 0.5L12.5313 -0.5L11.35 -0.5L11.35 0.5ZM13.6467 0.5L14.9179 0.5L14.9179 -0.5L13.6467 -0.5L13.6467 0.5ZM16.1124 0.5L17.2182 0.5L17.2182 -0.5L16.1124 -0.5L16.1124 0.5ZM18.48 0.5L19.6445 0.5L19.6445 -0.5L18.48 -0.5L18.48 0.5ZM20.8354 0.5L22.052 0.5L22.052 -0.5L20.8354 -0.5L20.8354 0.5ZM23.1542 0.5L24.4168 0.5L24.4168 -0.5L23.1542 -0.5L23.1542 0.5ZM25.5587 0.5L26.8645 0.5L26.8645 -0.5L25.5587 -0.5L25.5587 0.5ZM28.0433 0.5L29.2387 0.5L29.2387 -0.5L28.0433 -0.5L28.0433 0.5ZM30.2977 0.5L31.5224 0.5L31.5224 -0.5L30.2977 -0.5L30.2977 0.5ZM32.7618 0.5L34.0155 0.5L34.0155 -0.5L32.7618 -0.5L32.7618 0.5ZM35.1236 0.5L36.4023 0.5L36.4023 -0.5L35.1236 -0.5L35.1236 0.5ZM37.5314 0.5L38.6697 0.5L38.6697 -0.5L37.5314 -0.5L37.5314 0.5ZM39.8168 0.5L41.138 0.5L41.138 -0.5L39.8168 -0.5L39.8168 0.5ZM42.3026 0.5L43.4747 0.5L43.4747 -0.5L42.3026 -0.5L42.3026 0.5ZM44.654 0.5L45.84 0.5L45.84 -0.5L44.654 -0.5L44.654 0.5ZM47.0324 0.5L48.2307 0.5L48.2307 -0.5L47.0324 -0.5L47.0324 0.5ZM49.4346 0.5L50.6436 0.5L50.6436 -0.5L49.4346 -0.5L49.4346 0.5ZM51.8574 0.5L53.0756 0.5L53.0756 -0.5L51.8574 -0.5L51.8574 0.5ZM54.123 0.5L55.3483 0.5L55.3483 -0.5L54.123 -0.5L54.123 0.5ZM56.5768 0.5L57.8082 0.5L57.8082 -0.5L56.5768 -0.5L56.5768 0.5ZM58.8656 0.5L60.1013 0.5L60.1013 -0.5L58.8656 -0.5L58.8656 0.5ZM61.3386 0.5L62.5773 0.5L62.5773 -0.5L61.3386 -0.5L61.3386 0.5ZM63.6398 0.5L64.8799 0.5L64.8799 -0.5L63.6398 -0.5L63.6398 0.5ZM66.1201 0.5L67.3602 0.5L67.3602 -0.5L66.1201 -0.5L66.1201 0.5ZM68.4227 0.5L69.6614 0.5L69.6614 -0.5L68.4227 -0.5L68.4227 0.5ZM70.8987 0.5L72.1344 0.5L72.1344 -0.5L70.8987 -0.5L70.8987 0.5ZM73.1918 0.5L74.4232 0.5L74.4232 -0.5L73.1918 -0.5L73.1918 0.5ZM75.6517 0.5L76.877 0.5L76.877 -0.5L75.6517 -0.5L75.6517 0.5ZM77.9244 0.5L79.1425 0.5L79.1425 -0.5L77.9244 -0.5L77.9244 0.5ZM80.3564 0.5L81.5654 0.5L81.5654 -0.5L80.3564 -0.5L80.3564 0.5ZM82.7693 0.5L83.9676 0.5L83.9676 -0.5L82.7693 -0.5L82.7693 0.5ZM85.16 0.5L86.346 0.5L86.346 -0.5L85.16 -0.5L85.16 0.5ZM87.5253 0.5L88.6974 0.5L88.6974 -0.5L87.5253 -0.5L87.5253 0.5ZM89.862 0.5L91.1832 0.5L91.1832 -0.5L89.862 -0.5L89.862 0.5ZM92.3303 0.5L93.4686 0.5L93.4686 -0.5L92.3303 -0.5L92.3303 0.5ZM94.5977 0.5L95.8764 0.5L95.8764 -0.5L94.5977 -0.5L94.5977 0.5ZM96.9845 0.5L98.2382 0.5L98.2382 -0.5L96.9845 -0.5L96.9845 0.5ZM99.4776 0.5L100.702 0.5L100.702 -0.5L99.4776 -0.5L99.4776 0.5ZM101.761 0.5L102.957 0.5L102.957 -0.5L101.761 -0.5L101.761 0.5ZM104.136 0.5L105.441 0.5L105.441 -0.5L104.136 -0.5L104.136 0.5ZM106.583 0.5L107.846 0.5L107.846 -0.5L106.583 -0.5L106.583 0.5ZM108.948 0.5L110.165 0.5L110.165 -0.5L108.948 -0.5L108.948 0.5ZM111.356 0.5L112.52 0.5L112.52 -0.5L111.356 -0.5L111.356 0.5ZM113.782 0.5L114.888 0.5L114.888 -0.5L113.782 -0.5L113.782 0.5ZM116.082 0.5L117.353 0.5L117.353 -0.5L116.082 -0.5L116.082 0.5ZM118.469 0.5L119.65 0.5L119.65 -0.5L118.469 -0.5L118.469 0.5ZM120.882 0.5L122.054 0.5L122.054 -0.5L120.882 -0.5L120.882 0.5ZM123.253 0.5L124.459 0.5L124.459 -0.5L123.253 -0.5L123.253 0.5ZM125.649 0.5L126.799 0.5L126.799 -0.5L125.649 -0.5L125.649 0.5ZM127.997 0.5L129.193 0.5L129.193 -0.5L127.997 -0.5L127.997 0.5ZM131 -0.5L130.398 -0.5L130.398 0.5L131 0.5Q131.255 0.5 131.507 0.523002L131.598 -0.472861Q131.3 -0.5 131 -0.5ZM132.572 0.727718C132.914 0.82955 133.242 0.963802 133.553 1.1269L134.018 0.241508C133.65 0.0485541 133.262 -0.110259 132.857 -0.230731L132.572 0.727718ZM134.503 1.75953C134.771 1.98158 135.018 2.22864 135.24 2.49712L136.011 1.85978C135.749 1.54279 135.457 1.25111 135.14 0.98894L134.503 1.75953ZM135.873 3.44729C136.036 3.75795 136.17 4.08612 136.272 4.42826L137.231 4.14299C137.11 3.73823 136.951 3.34997 136.758 2.98245L135.873 3.44729ZM136.477 5.49324Q136.5 5.7453 136.5 6L136.5 6.61726L137.5 6.61726L137.5 6Q137.5 5.69962 137.473 5.4024L136.477 5.49324ZM137.5 8.97606L137.5 7.79376L136.5 7.79376L136.5 8.97606L137.5 8.97606ZM137.5 11.3732L137.5 10.2458L136.5 10.2458L136.5 11.3732L137.5 11.3732ZM137.5 13.8572L137.5 12.5824L136.5 12.5824L136.5 13.8572L137.5 13.8572ZM137.5 16.1975L137.5 15.0138L136.5 15.0138L136.5 16.1975L137.5 16.1975ZM137.5 18.6026L137.5 17.3974L136.5 17.3974L136.5 18.6026L137.5 18.6026ZM137.5 20.9862L137.5 19.8025L136.5 19.8025L136.5 20.9862L137.5 20.9862ZM137.5 23.4176L137.5 22.1428L136.5 22.1428L136.5 23.4176L137.5 23.4176ZM134.113 25L136.5 25L136.5 24.6268L137.5 24.6268L137.5 25L139.887 25L137 30L134.113 25Z" fill-rule="evenodd" transform="matrix(1 0 0 1 2.66675 2.66699)" fill="url(#linearGradient7206240243)" opacity="0.6"/>
</svg>
