<svg width="132" height="43" viewBox="0 0 132 43" fill="none" xmlns="http://www.w3.org/2000/svg">
<path d="M1.9892 1.9973L131.009 1.9973V40.8919H1.9892V1.9973Z" fill="#4027FD" fill-opacity="0.35"/>
<path d="M131.998 5.98649V1L127.052 1V1.88627L131.119 1.88627V5.98649H131.998Z" fill="#7000FF"/>
<path d="M5.94601 1H1V5.98649H1.87908V1.88651H5.94601V1Z" fill="#7000FF"/>
<path d="M127.054 41.8892H132V36.9027H131.121V41.0027H127.054V41.8892Z" fill="#7000FF"/>
<path d="M1 37.0135L1 42H5.94601V41.1137H1.87932L1.87932 37.0135H1Z" fill="#7000FF"/>
<path d="M121 43L132 43L132 32L130 32L130 41L121 41L121 43Z" fill="#A173DB"/>
<path d="M132 11L132 0L121 -3.8992e-07L121 2L130 2L130 11L132 11Z" fill="#A173DB"/>
<path d="M11 0H0V11H2L2 2H11V0Z" fill="#A173DB"/>
<path d="M-4.80825e-07 32L0 43L11 43L11 41L2 41L2 32L-4.80825e-07 32Z" fill="#A173DB"/>
</svg>
