<svg width="389" height="333" viewBox="0 0 389 333" fill="none" xmlns="http://www.w3.org/2000/svg">
<g clip-path="url(#clip0_260_5571)">
<path d="M211.946 109.874C209.735 108.4 209.051 106.697 208.15 104.209C207.249 101.721 207.249 95.29 208.15 92.8019C209.051 90.3137 209.726 88.6112 211.946 87.1375C214.167 85.6637 216.146 84.2406 217.979 84.2406H266.191C268.726 84.2399 271.25 84.5547 273.71 85.1781L275.499 85.6319C276.753 85.9267 277.895 86.5871 278.785 87.5322C279.676 88.4773 280.276 89.6661 280.513 90.9531L280.53 91.045C280.55 91.1669 280.567 91.2887 280.581 91.4106C280.861 93.5875 281.011 98.5075 281.011 98.5075C281.011 98.5075 280.861 103.427 280.581 105.604C280.567 105.726 280.55 105.848 280.53 105.979L280.513 106.071C280.276 107.358 279.676 108.547 278.785 109.492C277.895 110.437 276.753 111.098 275.499 111.392L273.71 111.846C271.25 112.47 268.726 112.784 266.191 112.784H217.979C216.146 112.771 214.167 111.347 211.946 109.874Z" fill="url(#paint0_radial_260_5571)"/>
<path fill-rule="evenodd" clip-rule="evenodd" d="M273.645 111.626C271.168 112.249 268.624 112.563 266.071 112.562H217.504C215.8 112.55 213.972 111.341 211.943 109.998C211.772 109.885 211.6 109.771 211.426 109.657C209.199 108.185 208.51 106.485 207.602 104.001C206.694 101.517 206.694 95.0952 207.602 92.6108C208.51 90.1264 209.189 88.4265 211.426 86.955C211.598 86.8418 211.769 86.7289 211.938 86.6169C213.969 85.2732 215.799 84.0625 217.504 84.0625H266.071C268.624 84.0618 271.168 84.3761 273.645 84.9986L275.448 85.4516C276.711 85.7461 277.861 86.4055 278.758 87.3491C279.655 88.2928 280.26 89.4798 280.499 90.7649L280.516 90.8566C280.536 90.9783 280.553 91.1 280.567 91.2217C281.167 95.8432 281.167 100.772 280.567 105.394C280.553 105.516 280.536 105.637 280.516 105.768L280.499 105.86C280.26 107.145 279.655 108.332 278.758 109.276C277.861 110.22 276.711 110.879 275.448 111.173L273.645 111.626ZM280.318 105.825C280.086 107.074 279.498 108.228 278.626 109.145C277.754 110.063 276.635 110.704 275.407 110.991L275.405 110.991L273.601 111.444C271.138 112.063 268.61 112.376 266.071 112.375H217.505C216.625 112.369 215.697 112.026 214.697 111.491C213.853 111.038 212.974 110.457 212.045 109.842C211.874 109.729 211.701 109.614 211.526 109.5C209.353 108.064 208.681 106.416 207.775 103.936C207.333 102.727 207.106 100.529 207.106 98.3059C207.106 96.0834 207.333 93.8852 207.775 92.6762C208.682 90.195 209.344 88.5481 211.526 87.1125C211.699 86.9986 211.871 86.8852 212.04 86.773C212.971 86.157 213.852 85.5747 214.697 85.1229C215.696 84.5888 216.625 84.25 217.504 84.25H266.071C268.61 84.2493 271.138 84.5618 273.601 85.1806L275.404 85.6337L275.405 85.6341L275.407 85.6344C276.635 85.9208 277.754 86.562 278.626 87.4795C279.498 88.397 280.086 89.5508 280.318 90.7997L280.334 90.8881C280.334 90.8885 280.334 90.8888 280.334 90.8892C280.354 91.0069 280.37 91.1252 280.385 91.2448L280.385 91.2462C280.983 95.8515 280.983 100.764 280.385 105.369L280.385 105.371C280.37 105.49 280.354 105.609 280.334 105.737C280.334 105.738 280.334 105.738 280.334 105.739L280.318 105.825Z" fill="#B073FF"/>
<path d="M211.762 109.84C209.551 108.366 208.867 106.664 207.966 104.176C207.065 101.687 207.065 95.2562 207.966 92.7681C208.867 90.28 209.541 88.5775 211.762 87.1038C213.982 85.63 215.961 84.2069 217.795 84.2069H266.007C268.541 84.2061 271.066 84.521 273.525 85.1444L275.315 85.5981C276.568 85.893 277.71 86.5534 278.601 87.4985C279.492 88.4436 280.092 89.6324 280.329 90.9194L280.345 91.0112C280.366 91.1331 280.382 91.255 280.397 91.3769C280.677 93.5538 280.826 98.4738 280.826 98.4738C280.826 98.4738 280.677 103.394 280.397 105.571C280.382 105.692 280.366 105.814 280.345 105.946L280.329 106.038C280.092 107.324 279.492 108.513 278.601 109.458C277.71 110.403 276.568 111.064 275.315 111.359L273.525 111.812C271.066 112.436 268.541 112.751 266.007 112.75H217.795C215.961 112.737 213.982 111.314 211.762 109.84Z" fill="url(#paint1_radial_260_5571)"/>
<path fill-rule="evenodd" clip-rule="evenodd" d="M210.164 106.393L210.083 106.149C209.635 104.799 209.402 102.889 209.281 101.312C209.221 100.525 209.188 99.8216 209.171 99.3157C209.163 99.0627 209.158 98.859 209.155 98.7186C209.154 98.6484 209.153 98.5941 209.153 98.5573C209.152 98.5389 209.152 98.5249 209.152 98.5155L209.152 98.5049L209.152 98.5016C209.152 98.5016 209.152 98.5014 209.085 98.5019C209.018 98.5023 209.018 98.5024 209.018 98.5024L209.018 98.506L209.018 98.5168C209.018 98.5263 209.018 98.5405 209.018 98.559C209.019 98.5961 209.019 98.6508 209.021 98.7213C209.023 98.8623 209.028 99.0667 209.037 99.3204C209.054 99.8278 209.086 100.533 209.147 101.323C209.261 102.811 209.476 104.606 209.88 105.953L208.201 104.432L208.111 104.534L210.164 106.393Z" fill="white"/>
<path fill-rule="evenodd" clip-rule="evenodd" d="M231.164 111.593C234.669 111.614 248.49 111.696 252.01 111.592C255.456 111.485 261.535 111.086 263.13 110.979C263.198 110.977 263.265 110.958 263.323 110.924C263.383 110.889 263.433 110.84 263.469 110.781C263.505 110.722 263.526 110.654 263.53 110.585C263.534 110.515 263.521 110.446 263.492 110.383L263.491 110.38L263.489 110.377C263.413 110.246 263.274 110.115 263.076 109.983C262.877 109.85 262.613 109.713 262.281 109.573C261.617 109.292 260.672 108.993 259.408 108.682C257.904 108.312 255.4 108.103 252.595 108.03C249.788 107.956 246.673 108.018 243.944 108.189C241.211 108.361 237.834 109.037 235.143 109.669C233.797 109.986 232.621 110.291 231.782 110.518C231.363 110.631 231.027 110.724 230.797 110.79C230.681 110.822 230.592 110.848 230.532 110.865C230.502 110.874 230.479 110.88 230.464 110.885L230.44 110.892C230.44 110.892 230.44 110.892 230.459 110.957L230.44 110.892L230.4 110.904L230.281 111.588H230.361C230.411 111.588 230.696 111.59 231.164 111.593ZM230.518 111.012C230.531 111.008 230.548 111.003 230.569 110.997C230.629 110.979 230.718 110.954 230.833 110.921C231.063 110.856 231.398 110.763 231.817 110.65C232.655 110.424 233.829 110.119 235.173 109.803C237.863 109.171 241.23 108.497 243.952 108.326C246.677 108.154 249.788 108.093 252.591 108.167C255.396 108.24 257.887 108.449 259.376 108.815C260.637 109.125 261.574 109.422 262.229 109.699C262.557 109.838 262.813 109.971 263.002 110.097C263.191 110.223 263.31 110.339 263.372 110.444C263.39 110.485 263.398 110.531 263.396 110.577C263.393 110.624 263.379 110.669 263.355 110.709C263.33 110.749 263.297 110.782 263.257 110.805C263.217 110.828 263.172 110.841 263.126 110.842L263.124 110.842L263.123 110.842C261.528 110.949 255.451 111.349 252.006 111.455C248.49 111.559 234.686 111.477 231.171 111.456C230.815 111.454 230.565 111.452 230.441 111.452L230.518 111.012Z" fill="white"/>
<path fill-rule="evenodd" clip-rule="evenodd" d="M234.242 111.122H246.358L247.946 108.282L247.827 108.285C245.446 108.348 243.373 108.431 241.589 108.692C239.311 109.028 237.52 109.38 236.298 109.649C235.687 109.783 235.218 109.896 234.901 109.976C234.743 110.016 234.623 110.047 234.543 110.069C234.503 110.08 234.472 110.088 234.452 110.094L234.429 110.1L234.423 110.102L234.421 110.102C234.421 110.102 234.421 110.102 234.439 110.168L234.421 110.102L234.379 110.114L234.242 111.122ZM234.5 110.222C234.519 110.217 234.545 110.21 234.577 110.201C234.657 110.18 234.776 110.149 234.934 110.109C235.249 110.03 235.716 109.917 236.326 109.783C237.545 109.515 239.334 109.163 241.608 108.828C243.354 108.572 245.38 108.488 247.711 108.425L246.28 110.985H234.397L234.5 110.222Z" fill="white"/>
<path fill-rule="evenodd" clip-rule="evenodd" d="M248.342 111.104L248.428 111.103C250.581 111.077 254.101 111.013 257.603 110.863L257.651 110.861L258.243 108.863L258.17 108.848C256.089 108.442 253.181 108.157 249.204 108.255H249.001L248.342 111.104ZM248.513 110.965L249.107 108.392H249.207C253.129 108.295 256.007 108.572 258.071 108.969L257.55 110.728C254.112 110.875 250.662 110.938 248.513 110.965Z" fill="white"/>
<path fill-rule="evenodd" clip-rule="evenodd" d="M258.077 110.843L258.173 110.838C259.657 110.773 261.123 110.688 262.461 110.585C262.495 110.583 262.526 110.57 262.552 110.548C262.578 110.526 262.596 110.496 262.604 110.463C262.612 110.43 262.609 110.395 262.596 110.363C262.583 110.331 262.56 110.305 262.531 110.287C262.08 110.015 260.929 109.433 258.73 108.957L258.67 108.945L258.077 110.843ZM258.263 110.697L258.761 109.104C260.909 109.575 262.03 110.144 262.463 110.405C262.467 110.408 262.47 110.411 262.472 110.416C262.474 110.421 262.474 110.426 262.473 110.431C262.472 110.436 262.469 110.44 262.466 110.443C262.462 110.446 262.457 110.448 262.452 110.449L262.451 110.449C261.143 110.549 259.713 110.632 258.263 110.697Z" fill="white"/>
<path fill-rule="evenodd" clip-rule="evenodd" d="M214.396 111.283C214.418 111.292 214.442 111.297 214.466 111.295C214.49 111.293 214.513 111.285 214.533 111.272C214.553 111.259 214.57 111.24 214.581 111.219C214.593 111.198 214.599 111.174 214.599 111.149L214.599 111.149L214.599 110.774L214.599 110.773C214.599 110.698 214.569 110.626 214.517 110.573L214.516 110.573L210.065 106.124L209.706 105.787L209.786 106.036C210.882 109.473 213.797 110.999 214.395 111.282L214.396 111.283ZM214.451 111.158C213.875 110.885 211.138 109.45 210 106.252L214.422 110.67C214.422 110.67 214.422 110.67 214.422 110.67C214.449 110.698 214.464 110.735 214.465 110.774V111.148C214.465 111.15 214.464 111.152 214.463 111.153C214.463 111.154 214.461 111.156 214.46 111.157C214.459 111.158 214.457 111.158 214.455 111.158C214.454 111.158 214.452 111.158 214.451 111.158Z" fill="white"/>
<path fill-rule="evenodd" clip-rule="evenodd" d="M208.875 106.136C208.875 106.136 208.875 106.136 208.819 106.174C208.764 106.213 208.764 106.213 208.764 106.213L208.764 106.213L208.765 106.215L208.77 106.222C208.774 106.228 208.78 106.237 208.788 106.249C208.804 106.272 208.828 106.306 208.858 106.35C208.92 106.438 209.011 106.565 209.127 106.721C209.361 107.034 209.697 107.464 210.112 107.937C210.939 108.881 212.08 109.996 213.325 110.667L213.388 110.546C212.164 109.886 211.036 108.785 210.212 107.846C209.801 107.377 209.466 106.949 209.235 106.638C209.119 106.483 209.029 106.357 208.968 106.27C208.937 106.227 208.914 106.193 208.898 106.17C208.891 106.159 208.885 106.15 208.881 106.145L208.876 106.138L208.875 106.136Z" fill="white"/>
<path fill-rule="evenodd" clip-rule="evenodd" d="M248.43 112.262C240.992 112.359 227.927 112.121 222.908 111.918C220.403 111.817 218.313 111.486 216.85 111.18C216.118 111.027 215.544 110.881 215.152 110.772C214.956 110.718 214.806 110.674 214.705 110.643C214.655 110.627 214.617 110.615 214.591 110.607C214.578 110.603 214.569 110.6 214.562 110.597L214.555 110.595L214.554 110.595L214.553 110.594L214.532 110.659C214.511 110.724 214.511 110.724 214.511 110.724L214.512 110.725L214.514 110.725L214.521 110.728C214.528 110.73 214.538 110.733 214.551 110.737C214.577 110.746 214.615 110.758 214.666 110.774C214.769 110.805 214.92 110.85 215.117 110.904C215.511 111.013 216.088 111.161 216.823 111.314C218.292 111.621 220.389 111.954 222.903 112.055C227.923 112.258 240.992 112.496 248.432 112.398C250.048 112.377 251.739 112.364 253.446 112.35C259.591 112.301 265.942 112.25 269.752 111.836C270.969 111.703 272.347 111.421 273.42 111.173C273.956 111.048 274.417 110.932 274.744 110.847C274.907 110.805 275.037 110.77 275.126 110.746C275.17 110.734 275.204 110.725 275.228 110.718L275.254 110.711L275.263 110.709C275.263 110.708 275.263 110.708 275.245 110.642C275.227 110.576 275.227 110.576 275.227 110.577L275.219 110.579L275.192 110.586C275.169 110.592 275.135 110.602 275.091 110.614C275.002 110.638 274.873 110.672 274.71 110.715C274.385 110.799 273.925 110.915 273.39 111.039C272.319 111.287 270.947 111.568 269.737 111.699C265.935 112.113 259.594 112.164 253.45 112.213C251.742 112.227 250.049 112.24 248.43 112.262Z" fill="white"/>
<path fill-rule="evenodd" clip-rule="evenodd" d="M273.984 111.388L274.396 111.3C274.784 111.217 275.26 111.094 275.638 110.992C275.828 110.941 275.993 110.895 276.111 110.861C276.17 110.845 276.217 110.831 276.249 110.822L276.286 110.811L276.299 110.808L276.299 110.808L276.313 110.804L276.324 110.794C277.242 109.996 277.858 109.03 278.245 108.265C278.438 107.882 278.574 107.549 278.662 107.312C278.706 107.193 278.738 107.098 278.759 107.032C278.77 107 278.778 106.974 278.783 106.957C278.785 106.948 278.787 106.942 278.789 106.937L278.79 106.932L278.791 106.931L278.791 106.93C278.791 106.93 278.791 106.93 278.726 106.911L278.791 106.93L278.819 106.83L277.937 106.947L277.925 106.989C277.742 107.609 277.335 108.161 276.579 109.185C276.553 109.22 276.527 109.256 276.5 109.292C275.905 110.05 275.175 110.688 274.349 111.174L273.984 111.388ZM278.631 106.993C278.61 107.057 278.579 107.148 278.537 107.263C278.45 107.497 278.316 107.825 278.125 108.203C277.745 108.955 277.142 109.899 276.248 110.68L276.213 110.69C276.18 110.7 276.133 110.713 276.075 110.729C275.957 110.763 275.793 110.808 275.604 110.859C275.348 110.929 275.049 111.007 274.764 111.076C275.462 110.614 276.085 110.04 276.606 109.376L276.607 109.375C276.639 109.332 276.67 109.29 276.701 109.248C277.426 108.265 277.845 107.698 278.04 107.071L278.631 106.993Z" fill="white"/>
<path fill-rule="evenodd" clip-rule="evenodd" d="M210.054 106.116C210.054 106.116 210.054 106.116 210.019 106.174C209.984 106.233 209.984 106.233 209.985 106.233L209.986 106.234L209.99 106.236C209.993 106.238 209.999 106.242 210.006 106.246C210.019 106.254 210.04 106.266 210.068 106.282C210.123 106.314 210.205 106.361 210.314 106.421C210.533 106.541 210.859 106.713 211.293 106.923C212.16 107.342 213.454 107.912 215.166 108.515C218.589 109.721 223.68 111.059 230.356 111.588L230.366 111.452C223.703 110.924 218.623 109.588 215.21 108.386C213.503 107.785 212.213 107.217 211.351 106.799C210.919 106.59 210.594 106.419 210.378 106.3C210.27 106.241 210.188 106.195 210.134 106.163C210.107 106.148 210.087 106.136 210.074 106.128C210.067 106.124 210.062 106.121 210.059 106.119L210.055 106.116L210.054 106.116L210.054 106.116Z" fill="white"/>
<path fill-rule="evenodd" clip-rule="evenodd" d="M210.356 103.244L210.321 103.302L210.381 103.18C212.931 104.183 216.388 104.876 219.211 105.319C220.622 105.54 221.873 105.699 222.771 105.802C223.22 105.853 223.581 105.891 223.829 105.916C223.954 105.928 224.05 105.937 224.115 105.943C224.148 105.946 224.172 105.949 224.189 105.95L224.208 105.952L224.214 105.952C224.214 105.952 224.214 105.952 224.208 106.021L224.214 105.952L224.207 106.089C219.278 105.979 215.809 105.284 213.571 104.616C212.452 104.281 211.641 103.954 211.108 103.709C210.842 103.587 210.646 103.485 210.516 103.414C210.451 103.379 210.402 103.351 210.37 103.332C210.354 103.322 210.342 103.315 210.333 103.31L210.324 103.304L210.322 103.302L210.321 103.302L210.321 103.302C210.321 103.302 210.321 103.302 210.356 103.244ZM211.435 103.705C213.837 104.502 216.754 105.072 219.19 105.454C220.33 105.633 221.366 105.771 222.196 105.872C218.332 105.646 215.518 105.055 213.609 104.484C212.672 104.204 211.953 103.93 211.435 103.705Z" fill="white"/>
<path fill-rule="evenodd" clip-rule="evenodd" d="M270.867 107.874L270.869 107.942C270.87 108.011 270.87 108.011 270.87 108.011L270.872 108.011L270.879 108.011C270.884 108.011 270.893 108.01 270.904 108.01C270.926 108.009 270.959 108.008 271.003 108.006C271.09 108.003 271.219 107.997 271.387 107.987C271.722 107.967 272.214 107.932 272.84 107.869C274.09 107.743 275.874 107.509 278.008 107.072L277.981 106.938C275.853 107.373 274.073 107.607 272.827 107.733C272.203 107.795 271.713 107.831 271.379 107.85C271.212 107.86 271.084 107.866 270.997 107.87C270.954 107.871 270.922 107.872 270.9 107.873C270.889 107.873 270.881 107.874 270.875 107.874L270.869 107.874L270.867 107.874Z" fill="white"/>
<path fill-rule="evenodd" clip-rule="evenodd" d="M280.455 105.715L278.94 105.919L278.958 106.055L280.473 105.85L280.455 105.715Z" fill="white"/>
<path fill-rule="evenodd" clip-rule="evenodd" d="M266.763 109.133C266.291 109.079 265.744 109.017 265.044 108.956C263.532 108.826 261.294 108.638 259.434 108.483C258.505 108.406 257.669 108.337 257.066 108.287C256.765 108.262 256.522 108.242 256.354 108.228L256.093 108.206C256.093 108.206 256.093 108.206 256.088 108.274C256.082 108.343 256.082 108.343 256.082 108.343L256.343 108.364C256.511 108.378 256.754 108.398 257.056 108.423C257.658 108.473 258.494 108.542 259.423 108.62C261.283 108.775 263.52 108.962 265.032 109.093C265.73 109.153 266.276 109.215 266.748 109.269C266.787 109.274 266.825 109.278 266.862 109.282C267.361 109.339 267.783 109.385 268.228 109.407C269.119 109.451 270.097 109.397 271.965 109.139C273.83 108.881 275.144 108.722 275.991 108.626C276.415 108.579 276.722 108.547 276.923 108.527C277.023 108.518 277.097 108.511 277.146 108.506C277.171 108.504 277.189 108.503 277.201 108.502L277.214 108.5L277.217 108.5L277.218 108.5L277.213 108.432C277.208 108.364 277.208 108.364 277.208 108.364L277.203 108.364L277.189 108.365C277.177 108.366 277.159 108.368 277.134 108.37C277.085 108.374 277.011 108.381 276.91 108.391C276.708 108.411 276.401 108.442 275.976 108.49C275.128 108.586 273.813 108.746 271.947 109.003C270.083 109.261 269.114 109.314 268.235 109.271C267.795 109.249 267.376 109.203 266.877 109.146C266.84 109.142 266.802 109.138 266.763 109.133Z" fill="white"/>
<path fill-rule="evenodd" clip-rule="evenodd" d="M262.979 110.848C262.979 110.848 262.979 110.848 262.982 110.916C262.984 110.985 262.984 110.985 262.984 110.985L262.993 110.984L263.019 110.983C263.042 110.982 263.076 110.981 263.12 110.979C263.209 110.974 263.34 110.968 263.508 110.958C263.845 110.94 264.331 110.91 264.928 110.865C266.123 110.775 267.765 110.625 269.552 110.386C271.338 110.147 273.092 109.901 274.399 109.714C275.053 109.621 275.594 109.543 275.973 109.488C276.162 109.461 276.311 109.439 276.412 109.424L276.567 109.402C276.567 109.402 276.567 109.401 276.557 109.334C276.548 109.266 276.548 109.266 276.548 109.266L276.393 109.289C276.292 109.303 276.143 109.325 275.954 109.353C275.576 109.407 275.034 109.486 274.38 109.579C273.073 109.765 271.32 110.011 269.535 110.25C267.751 110.489 266.112 110.639 264.918 110.728C264.322 110.773 263.837 110.803 263.501 110.822C263.333 110.831 263.203 110.838 263.114 110.842C263.07 110.844 263.036 110.845 263.013 110.846L262.988 110.848L262.979 110.848Z" fill="white"/>
<path fill-rule="evenodd" clip-rule="evenodd" d="M209.887 105.553L209.889 105.554C209.892 105.556 209.896 105.559 209.902 105.562C209.913 105.569 209.931 105.58 209.955 105.594C210.002 105.621 210.074 105.662 210.17 105.715C210.363 105.821 210.655 105.975 211.052 106.164C211.845 106.542 213.054 107.062 214.719 107.632C218.047 108.773 223.194 110.11 230.466 110.895L230.452 111.031C223.171 110.245 218.014 108.906 214.676 107.762C213.007 107.19 211.792 106.668 210.995 106.287C210.596 106.097 210.301 105.943 210.106 105.836C210.009 105.782 209.936 105.741 209.887 105.712C209.863 105.698 209.845 105.687 209.833 105.68C209.827 105.676 209.822 105.673 209.819 105.671L209.816 105.669L209.814 105.668C209.814 105.668 209.814 105.668 209.849 105.61L209.814 105.668L209.812 105.667L209.809 105.665C209.354 105.321 208.983 104.845 208.727 104.458C208.599 104.264 208.499 104.091 208.43 103.966C208.396 103.904 208.37 103.854 208.353 103.819C208.344 103.802 208.337 103.788 208.333 103.779L208.328 103.769L208.326 103.766L208.326 103.765C208.326 103.765 208.326 103.765 208.386 103.735L208.447 103.705L208.447 103.706L208.448 103.708L208.453 103.718C208.457 103.727 208.464 103.74 208.472 103.756C208.489 103.79 208.515 103.839 208.548 103.9C208.615 104.021 208.713 104.191 208.839 104.381C209.09 104.762 209.45 105.222 209.887 105.553Z" fill="white"/>
<path fill-rule="evenodd" clip-rule="evenodd" d="M209.281 95.6991C209.402 94.1221 209.635 92.2123 210.083 90.8625L210.164 90.6177L208.111 92.477L208.201 92.5792L209.88 91.0585C209.476 92.4047 209.261 94.2006 209.147 95.6885C209.086 96.4785 209.054 97.1834 209.037 97.6908C209.028 97.9445 209.023 98.1489 209.021 98.29C209.019 98.3605 209.019 98.4151 209.018 98.4522C209.018 98.4707 209.018 98.4849 209.018 98.4944L209.018 98.5052L209.018 98.5086C209.018 98.5087 209.018 98.5089 209.085 98.5094C209.152 98.5098 209.152 98.5098 209.152 98.5098L209.152 98.5063L209.152 98.4957C209.152 98.4864 209.152 98.4724 209.153 98.454C209.153 98.4172 209.154 98.3628 209.155 98.2926C209.158 98.1522 209.163 97.9485 209.171 97.6955C209.188 97.1896 209.221 96.4867 209.281 95.6991Z" fill="white"/>
<path fill-rule="evenodd" clip-rule="evenodd" d="M252.591 88.8447C249.788 88.9182 246.677 88.8569 243.952 88.6854C241.23 88.5142 237.863 87.8403 235.173 87.2084C233.829 86.8925 232.655 86.5874 231.817 86.3612C231.398 86.2481 231.063 86.1548 230.833 86.0897C230.718 86.0572 230.629 86.0318 230.569 86.0144C230.548 86.0086 230.531 86.0037 230.518 85.9997L230.441 85.5594C230.565 85.5588 230.815 85.5573 231.171 85.5551C234.686 85.5342 248.49 85.4518 252.006 85.5559C255.451 85.6627 261.528 86.062 263.123 86.1689L263.124 86.169L263.126 86.169C263.172 86.1702 263.217 86.1829 263.257 86.2062C263.297 86.2295 263.33 86.2626 263.355 86.3024C263.379 86.3422 263.393 86.3876 263.396 86.4344C263.398 86.4801 263.39 86.5258 263.372 86.5675C263.31 86.6718 263.191 86.7882 263.002 86.914C262.813 87.0405 262.557 87.1736 262.229 87.3122C261.574 87.5894 260.637 87.886 259.376 88.196C257.887 88.5626 255.396 88.7711 252.591 88.8447ZM230.459 86.0537C230.44 86.1195 230.44 86.1195 230.44 86.1195L230.464 86.1263C230.479 86.1308 230.502 86.1374 230.532 86.1461C230.592 86.1635 230.681 86.189 230.797 86.2216C231.027 86.2868 231.363 86.3803 231.782 86.4935C232.621 86.72 233.797 87.0255 235.143 87.3417C237.834 87.974 241.211 88.6501 243.944 88.822C246.673 88.9937 249.788 89.0552 252.595 88.9815C255.4 88.9079 257.904 88.6993 259.408 88.329C260.672 88.0183 261.617 87.7197 262.281 87.4386C262.613 87.298 262.877 87.1612 263.076 87.0285C263.274 86.8964 263.413 86.7653 263.489 86.6342L263.491 86.6313L263.492 86.6283C263.521 86.5652 263.534 86.4958 263.53 86.4263C263.526 86.3568 263.505 86.2894 263.469 86.2302C263.433 86.1711 263.383 86.122 263.323 86.0874C263.264 86.0531 263.198 86.0341 263.13 86.0322C261.534 85.9252 255.456 85.526 252.01 85.4191C248.49 85.3149 234.669 85.3974 231.164 85.4183C230.696 85.4211 230.411 85.4228 230.361 85.4228H230.281L230.4 86.1077L230.44 86.1195L230.459 86.0537Z" fill="white"/>
<path fill-rule="evenodd" clip-rule="evenodd" d="M247.946 88.7297L246.358 85.8897H234.242L234.379 86.897L234.421 86.9091L234.439 86.8431C234.421 86.9091 234.421 86.909 234.421 86.9091L234.422 86.9092L234.423 86.9096L234.429 86.9112L234.452 86.9176C234.472 86.9232 234.503 86.9315 234.543 86.9423C234.623 86.9638 234.743 86.9953 234.901 87.0352C235.218 87.1149 235.687 87.2281 236.298 87.3624C237.52 87.6308 239.311 87.9831 241.589 88.319C243.373 88.5802 245.446 88.6628 247.827 88.7265L247.946 88.7297ZM234.5 86.7889L234.397 86.0265H246.28L247.711 88.5865C245.38 88.5231 243.354 88.4391 241.608 88.1835C239.334 87.8481 237.545 87.4964 236.326 87.2286C235.716 87.0946 235.249 86.9817 234.934 86.9023C234.776 86.8626 234.657 86.8313 234.577 86.8099C234.545 86.8013 234.519 86.7942 234.5 86.7889Z" fill="white"/>
<path fill-rule="evenodd" clip-rule="evenodd" d="M258.071 88.0426C256.007 88.439 253.129 88.716 249.207 88.6197L249.205 88.6197L249.107 88.6197L248.513 86.0463C250.662 86.0731 254.112 86.1367 257.55 86.2832L258.071 88.0426ZM249.204 88.7565C253.181 88.8541 256.089 88.5689 258.17 88.1628L258.243 88.1485L257.651 86.1505L257.603 86.1485C254.101 85.9984 250.581 85.9347 248.428 85.9084L248.342 85.9074L249.001 88.7565H249.204Z" fill="white"/>
<path fill-rule="evenodd" clip-rule="evenodd" d="M258.67 88.0667L258.73 88.0538C260.929 87.578 262.08 86.9962 262.53 86.7338L262.531 86.7332C262.56 86.7157 262.583 86.6892 262.596 86.6576C262.609 86.6261 262.612 86.5911 262.604 86.5578C262.596 86.5245 262.578 86.4947 262.552 86.4727C262.526 86.4507 262.494 86.4377 262.461 86.4355C261.122 86.3323 259.657 86.2479 258.173 86.1823L258.077 86.178L258.67 88.0667ZM258.761 87.907L258.264 86.3233C259.713 86.3883 261.143 86.4712 262.451 86.572L262.452 86.5721C262.457 86.5724 262.462 86.5743 262.465 86.5775C262.469 86.5807 262.472 86.5851 262.473 86.5899C262.474 86.5948 262.474 86.5999 262.472 86.6045C262.47 86.609 262.467 86.6128 262.463 86.6154C262.029 86.8683 260.908 87.4367 258.761 87.907Z" fill="white"/>
<path fill-rule="evenodd" clip-rule="evenodd" d="M209.705 91.2292L210.066 90.8857L214.517 86.438C214.569 86.3856 214.598 86.3147 214.599 86.2404L214.599 86.2394L214.599 85.8637C214.599 85.8393 214.593 85.8154 214.581 85.7941C214.57 85.7727 214.553 85.7546 214.533 85.7414C214.513 85.7282 214.49 85.7203 214.466 85.7184C214.442 85.7165 214.418 85.7207 214.396 85.7306L214.395 85.7311C213.797 86.0145 210.882 87.5403 209.786 90.977L209.705 91.2292ZM210.002 90.7586C211.14 87.5625 213.876 86.1284 214.451 85.8556C214.452 85.855 214.454 85.8548 214.455 85.8549C214.457 85.855 214.459 85.8556 214.46 85.8565C214.462 85.8574 214.463 85.8587 214.464 85.8602C214.464 85.8616 214.465 85.8632 214.465 85.8649V86.2388C214.464 86.2771 214.449 86.3137 214.422 86.3407C214.422 86.3407 214.422 86.3407 214.422 86.3407L210.002 90.7586Z" fill="white"/>
<path fill-rule="evenodd" clip-rule="evenodd" d="M208.764 90.7984C208.764 90.7984 208.764 90.7984 208.819 90.8369C208.875 90.8753 208.875 90.8753 208.875 90.8753L208.875 90.8748L208.876 90.8732L208.881 90.8667C208.885 90.8609 208.891 90.8522 208.898 90.8408C208.914 90.818 208.937 90.7842 208.968 90.7408C209.029 90.6539 209.119 90.5281 209.235 90.3729C209.466 90.0624 209.801 89.6346 210.212 89.1654C211.036 88.2258 212.164 87.1248 213.388 86.4648L213.325 86.3439C212.08 87.0152 210.939 88.1304 210.112 89.0743C209.697 89.5467 209.361 89.9774 209.127 90.2901C209.011 90.4465 208.92 90.5733 208.858 90.6612C208.828 90.7052 208.804 90.7394 208.788 90.7626C208.78 90.7743 208.774 90.7832 208.77 90.7892L208.765 90.796L208.764 90.7978L208.764 90.7984Z" fill="white"/>
<path fill-rule="evenodd" clip-rule="evenodd" d="M273.42 85.8339C272.347 85.5879 270.969 85.3083 269.752 85.1757C265.942 84.7615 259.591 84.7106 253.446 84.6613C251.739 84.6476 250.048 84.634 248.432 84.6128C240.992 84.5153 227.923 84.7535 222.903 84.956C220.389 85.0574 218.292 85.3899 216.823 85.697C216.088 85.8506 215.511 85.9979 215.117 86.1069C214.92 86.1614 214.769 86.2063 214.666 86.2376C214.615 86.2533 214.577 86.2656 214.551 86.2739C214.538 86.2781 214.528 86.2813 214.521 86.2835L214.514 86.286L214.512 86.2866L214.511 86.2868C214.511 86.2868 214.511 86.2869 214.532 86.3519L214.553 86.4169L214.554 86.4167L214.555 86.4161L214.562 86.4138C214.569 86.4117 214.578 86.4086 214.591 86.4045C214.617 86.3963 214.655 86.3842 214.705 86.3687C214.806 86.3377 214.956 86.2931 215.152 86.239C215.544 86.1307 216.118 85.9841 216.85 85.8311C218.313 85.5252 220.403 85.1938 222.908 85.0928C227.927 84.8903 240.992 84.6522 248.43 84.7497C250.049 84.7709 251.742 84.7845 253.45 84.7982C259.594 84.8475 265.935 84.8984 269.737 85.3118C270.947 85.4436 272.319 85.7218 273.39 85.9675C273.925 86.0902 274.385 86.2048 274.71 86.2886C274.873 86.3305 275.003 86.3647 275.091 86.3885C275.135 86.4003 275.17 86.4096 275.193 86.4159L275.219 86.423L275.227 86.4254C275.227 86.4254 275.227 86.4254 275.245 86.3594C275.263 86.2933 275.263 86.2933 275.263 86.2933L275.262 86.2932L275.254 86.2909L275.227 86.2837C275.204 86.2773 275.17 86.268 275.125 86.2561C275.036 86.2323 274.907 86.1979 274.743 86.1559C274.417 86.0718 273.956 85.957 273.42 85.8339Z" fill="white"/>
<path fill-rule="evenodd" clip-rule="evenodd" d="M278.791 90.0814L278.726 90.1C278.791 90.0814 278.791 90.0814 278.791 90.0814L278.791 90.0808L278.79 90.0794L278.789 90.0742C278.787 90.0697 278.785 90.0631 278.783 90.0544C278.778 90.037 278.77 90.0115 278.759 89.9787C278.738 89.9129 278.706 89.8176 278.662 89.6983C278.574 89.4599 278.438 89.126 278.245 88.7426C277.858 87.9764 277.242 87.0105 276.324 86.2172L276.313 86.2076L276.299 86.2035L276.299 86.2035L276.286 86.1998L276.249 86.1891C276.217 86.1799 276.17 86.1665 276.111 86.1499C275.993 86.1166 275.828 86.0706 275.638 86.0195C275.26 85.9172 274.784 85.794 274.396 85.7111L273.984 85.623L274.349 85.8374C275.175 86.3228 275.905 86.9611 276.5 87.7194C276.527 87.7557 276.553 87.7913 276.579 87.8265C277.335 88.8506 277.742 89.4019 277.924 90.0222L277.937 90.0646L278.819 90.1812L278.791 90.0814ZM276.248 86.3311C277.142 87.1073 277.745 88.052 278.125 88.8052C278.316 89.1831 278.45 89.5122 278.536 89.7465C278.579 89.862 278.61 89.9545 278.631 90.0184L278.04 89.9403C277.845 89.3133 277.426 88.746 276.701 87.7632C276.67 87.7217 276.639 87.6795 276.607 87.6364L276.606 87.6348C276.085 86.9708 275.462 86.3973 274.764 85.9354C275.049 86.0043 275.348 86.0827 275.604 86.1518C275.793 86.2028 275.957 86.2486 276.075 86.2818C276.133 86.2983 276.18 86.3117 276.213 86.3209L276.248 86.3311Z" fill="white"/>
<path fill-rule="evenodd" clip-rule="evenodd" d="M209.985 90.7782C209.984 90.7782 209.984 90.7782 210.019 90.8369C210.054 90.8955 210.054 90.8955 210.054 90.8955L210.054 90.8954L210.055 90.8948L210.059 90.8926C210.062 90.8906 210.067 90.8876 210.074 90.8836C210.087 90.8756 210.107 90.8636 210.134 90.8479C210.188 90.8165 210.27 90.7702 210.378 90.7108C210.594 90.592 210.919 90.4209 211.351 90.2121C212.213 89.7946 213.503 89.2265 215.21 88.6253C218.623 87.4228 223.703 86.0877 230.366 85.5595L230.356 85.423C223.68 85.9523 218.589 87.29 215.166 88.496C213.454 89.0989 212.16 89.669 211.293 90.0885C210.859 90.2983 210.533 90.4705 210.314 90.5903C210.205 90.6502 210.123 90.6971 210.068 90.729C210.04 90.745 210.019 90.7572 210.006 90.7655C209.999 90.7696 209.993 90.7728 209.99 90.7749L209.986 90.7774L209.985 90.778L209.985 90.7782Z" fill="white"/>
<path fill-rule="evenodd" clip-rule="evenodd" d="M210.321 93.7096L210.381 93.8314C212.931 92.8282 216.388 92.1349 219.211 91.6923C220.622 91.4711 221.873 91.3127 222.771 91.2096C223.22 91.1581 223.581 91.1204 223.829 91.0956C223.954 91.0832 224.05 91.074 224.115 91.0679C224.148 91.0648 224.172 91.0626 224.189 91.0611L224.208 91.0594L224.214 91.0588C224.214 91.0588 224.214 91.0588 224.208 90.9907L224.214 91.0588L224.207 90.9222C219.278 91.032 215.809 91.7271 213.571 92.3957C212.452 92.73 211.641 93.0576 211.108 93.3021C210.842 93.4244 210.646 93.5258 210.516 93.5969C210.451 93.6325 210.402 93.6604 210.37 93.6796C210.354 93.6892 210.342 93.6966 210.333 93.7016L210.324 93.7074L210.322 93.7089L210.321 93.7094L210.321 93.7096C210.321 93.7096 210.321 93.7096 210.356 93.7675L210.321 93.7096ZM211.435 93.306C211.953 93.0817 212.672 92.8069 213.609 92.527C215.518 91.9568 218.332 91.3656 222.196 91.1397C221.366 91.2405 220.33 91.3782 219.19 91.557C216.754 91.9391 213.837 92.5089 211.435 93.306Z" fill="white"/>
<path fill-rule="evenodd" clip-rule="evenodd" d="M228.013 109.886C227.432 109.429 226.852 108.475 226.104 106.658C225.359 104.85 225.011 102.813 224.848 101.226C224.767 100.433 224.733 99.7534 224.718 99.2721C224.711 99.0314 224.709 98.8404 224.709 98.7097C224.709 98.6443 224.709 98.594 224.71 98.5601C224.71 98.5432 224.71 98.5303 224.71 98.5218L224.71 98.5121L224.71 98.5097L224.71 98.5092C224.71 98.5091 224.71 98.509 224.643 98.5075C224.71 98.506 224.71 98.506 224.71 98.506L224.71 98.5053L224.71 98.5029L224.71 98.4932C224.71 98.4847 224.71 98.4718 224.71 98.4549C224.709 98.421 224.709 98.3707 224.709 98.3053C224.709 98.1746 224.711 97.9836 224.718 97.7429C224.733 97.2616 224.767 96.5818 224.848 95.7888C225.011 94.2019 225.359 92.1651 226.104 90.3571C226.852 88.5396 227.433 87.5863 228.015 87.1293C228.588 86.6796 229.171 86.7048 229.961 86.8874C230.28 86.9611 230.908 87.122 231.735 87.3339C232.972 87.6508 234.654 88.0816 236.412 88.5053C239.34 89.2109 242.479 89.896 244.093 89.9902L244.094 89.9902C249.458 90.2736 254.833 90.2599 260.196 89.949L260.188 89.8123C254.83 90.1229 249.46 90.1367 244.101 89.8535C242.501 89.7602 239.375 89.0785 236.443 88.3722C234.69 87.9498 233.006 87.5184 231.767 87.201C230.939 86.9887 230.309 86.8274 229.991 86.7539C229.191 86.569 228.555 86.5323 227.933 87.021C227.319 87.5024 226.728 88.4879 225.98 90.3042C225.228 92.1299 224.877 94.1816 224.714 95.7746C224.633 96.5716 224.598 97.2548 224.584 97.7388C224.577 97.9808 224.575 98.1731 224.575 98.3051C224.574 98.371 224.575 98.4219 224.575 98.4563C224.575 98.4735 224.576 98.4866 224.576 98.4955L224.576 98.5055L224.576 98.5075L224.576 98.5095L224.576 98.5195C224.576 98.5284 224.575 98.5415 224.575 98.5587C224.575 98.5931 224.574 98.644 224.575 98.7099C224.575 98.8419 224.577 99.0342 224.584 99.2762C224.598 99.7602 224.633 100.443 224.714 101.24C224.877 102.833 225.228 104.885 225.98 106.711C226.728 108.527 227.318 109.513 227.931 109.995C228.553 110.484 229.189 110.447 229.991 110.261C230.306 110.188 230.925 110.03 231.74 109.822C232.982 109.504 234.678 109.07 236.445 108.646C239.375 107.941 242.501 107.26 244.101 107.161C249.461 106.876 254.833 106.888 260.192 107.197L260.199 107.06C254.835 106.751 249.459 106.739 244.094 107.025L244.093 107.025C242.479 107.124 239.341 107.808 236.414 108.512C234.642 108.939 232.948 109.372 231.708 109.689C230.895 109.896 230.277 110.054 229.961 110.128C229.169 110.311 228.586 110.336 228.013 109.886ZM224.643 98.5075L224.71 98.506L224.71 98.5075L224.71 98.5092L224.643 98.5075Z" fill="white"/>
<path fill-rule="evenodd" clip-rule="evenodd" d="M264.011 107.836C266.207 108.037 268.899 108.193 270.869 108.013L270.9 108.01L270.918 107.984L270.863 107.944C270.918 107.984 270.918 107.984 270.918 107.984L270.918 107.984L270.918 107.984L270.92 107.982L270.925 107.974C270.929 107.968 270.935 107.959 270.944 107.946C270.96 107.921 270.984 107.884 271.015 107.834C271.076 107.735 271.163 107.587 271.268 107.39C271.477 106.995 271.754 106.404 272.032 105.616C272.587 104.038 273.142 101.671 273.142 98.5075C273.142 95.3436 272.587 92.9766 272.032 91.3993C271.754 90.6107 271.477 90.0196 271.268 89.6252C271.163 89.428 271.076 89.2799 271.015 89.1808C270.984 89.1313 270.96 89.094 270.944 89.069C270.935 89.0565 270.929 89.0471 270.925 89.0407L270.92 89.0334L270.918 89.0314L270.918 89.0309L270.918 89.0307C270.918 89.0307 270.918 89.0307 270.915 89.0324C270.911 89.0355 270.899 89.0446 270.863 89.0706L270.918 89.0307L270.9 89.0053L270.869 89.0025C268.898 88.8219 266.206 88.9781 264.01 89.1787C262.912 89.2791 261.936 89.3908 261.235 89.4773C260.884 89.5206 260.602 89.5576 260.408 89.5838C260.311 89.5969 260.235 89.6073 260.184 89.6144C260.159 89.618 260.14 89.6207 260.126 89.6226L260.107 89.6253L260.107 89.6254C260.107 89.6254 260.107 89.6254 260.116 89.6931L260.107 89.6254L260.02 89.6379L260.054 89.7199C261.335 92.7822 261.56 96.2717 261.56 98.5056C261.56 100.74 261.335 104.229 260.054 107.295L260.02 107.377L260.107 107.39L260.116 107.322C260.107 107.39 260.107 107.39 260.107 107.39L260.127 107.392C260.14 107.394 260.159 107.397 260.185 107.401C260.236 107.408 260.311 107.418 260.408 107.431C260.602 107.457 260.884 107.494 261.235 107.538C261.936 107.624 262.912 107.736 264.011 107.836ZM260.212 107.266C261.474 104.195 261.694 100.726 261.694 98.5056C261.694 96.2857 261.474 92.8164 260.212 89.7487C260.263 89.7417 260.334 89.7318 260.426 89.7195C260.619 89.6933 260.901 89.6564 261.251 89.6132C261.951 89.5268 262.925 89.4153 264.022 89.3151C266.206 89.1155 268.871 88.961 270.826 89.136C270.828 89.1389 270.83 89.1421 270.832 89.1456C270.848 89.1694 270.871 89.2054 270.901 89.2537C270.961 89.3503 271.046 89.4957 271.149 89.6901C271.355 90.0789 271.63 90.6637 271.905 91.4454C272.456 93.0088 273.007 95.3602 273.007 98.5075C273.007 101.655 272.456 104.006 271.905 105.57C271.63 106.351 271.355 106.936 271.149 107.325C271.046 107.519 270.961 107.665 270.901 107.761C270.871 107.81 270.848 107.846 270.832 107.869C270.83 107.873 270.828 107.876 270.826 107.879C268.872 108.054 266.207 107.9 264.023 107.7C262.926 107.6 261.951 107.488 261.251 107.402C260.901 107.359 260.62 107.322 260.426 107.296C260.334 107.283 260.263 107.273 260.212 107.266Z" fill="white"/>
<path fill-rule="evenodd" clip-rule="evenodd" d="M260.887 106.865C261.947 103.958 262.177 100.755 262.177 98.5112C262.177 96.2673 261.947 93.0641 260.887 90.1568C262.665 89.9237 267.442 89.3742 270.545 89.6031C271.007 90.3875 272.532 93.3667 272.532 98.5056C272.532 103.646 271.007 106.626 270.545 107.419C267.445 107.643 262.665 107.093 260.887 106.865ZM260.786 106.99C262.497 107.211 267.425 107.788 270.59 107.553L270.625 107.551L270.643 107.52C271.092 106.758 272.666 103.744 272.666 98.5056C272.666 93.2691 271.092 90.2551 270.642 89.502L270.624 89.4719L270.59 89.4692C267.422 89.2286 262.497 89.8053 260.786 90.0321L260.701 90.0433L260.731 90.1241C261.809 93.0304 262.043 96.2535 262.043 98.5112C262.043 100.769 261.809 103.992 260.731 106.898L260.701 106.979L260.786 106.99Z" fill="white"/>
<path fill-rule="evenodd" clip-rule="evenodd" d="M270.87 89.0003C270.87 89.0003 270.87 89.0003 270.869 89.0688L270.867 89.1372L270.869 89.1372L270.875 89.1374C270.881 89.1375 270.889 89.1378 270.9 89.1381C270.922 89.1388 270.954 89.1399 270.997 89.1417C271.084 89.1451 271.212 89.1511 271.379 89.161C271.713 89.1807 272.203 89.2161 272.827 89.2787C274.073 89.4039 275.853 89.6379 277.981 90.0733L278.008 89.9392C275.874 89.5027 274.09 89.268 272.84 89.1424C272.214 89.0797 271.722 89.0441 271.387 89.0243C271.219 89.0144 271.09 89.0084 271.003 89.0049C270.959 89.0031 270.926 89.002 270.904 89.0013C270.893 89.0009 270.884 89.0007 270.879 89.0006L270.872 89.0004L270.87 89.0003Z" fill="white"/>
<path fill-rule="evenodd" clip-rule="evenodd" d="M279.206 104.558C279.412 103.067 279.617 100.963 279.617 98.5056C279.617 96.0484 279.412 93.9438 279.206 92.4532C279.104 91.7079 279.001 91.1161 278.924 90.7104C278.885 90.5075 278.853 90.3512 278.831 90.2454C278.819 90.1926 278.811 90.1523 278.805 90.1253C278.801 90.1118 278.799 90.1015 278.798 90.0946L278.796 90.0868L278.795 90.0848L278.795 90.0843C278.795 90.0843 278.795 90.0841 278.73 90.1C278.664 90.1159 278.664 90.1159 278.664 90.1159L278.664 90.1164L278.665 90.1183L278.667 90.1257C278.668 90.1324 278.67 90.1424 278.673 90.1557C278.679 90.1823 278.688 90.222 278.699 90.2744C278.722 90.3792 278.753 90.5345 278.792 90.7363C278.868 91.14 278.971 91.7295 279.073 92.4722C279.278 93.9578 279.482 96.056 279.482 98.5056C279.482 100.955 279.278 103.053 279.073 104.539C278.971 105.282 278.868 105.871 278.792 106.275C278.753 106.477 278.722 106.632 278.699 106.737C278.688 106.789 278.679 106.829 278.673 106.856C278.67 106.869 278.668 106.879 278.667 106.886L278.665 106.893L278.664 106.895C278.664 106.895 278.664 106.895 278.73 106.911C278.795 106.927 278.795 106.927 278.795 106.927L278.796 106.924L278.798 106.917C278.799 106.91 278.801 106.899 278.805 106.886C278.811 106.859 278.819 106.819 278.831 106.766C278.853 106.66 278.885 106.504 278.924 106.301C279.001 105.895 279.104 105.303 279.206 104.558Z" fill="white"/>
<path fill-rule="evenodd" clip-rule="evenodd" d="M280.473 91.159L278.958 90.9546L278.94 91.0903L280.455 91.2947L280.473 91.159Z" fill="white"/>
<path fill-rule="evenodd" clip-rule="evenodd" d="M256.082 88.6686C256.082 88.6686 256.082 88.6686 256.088 88.7369C256.093 88.8051 256.093 88.8051 256.093 88.8051L256.354 88.7835C256.522 88.7696 256.765 88.7495 257.066 88.7245C257.669 88.6746 258.505 88.6053 259.434 88.5278C261.294 88.3729 263.532 88.1854 265.044 88.0551C265.744 87.9947 266.291 87.9322 266.763 87.8781C266.802 87.8737 266.84 87.8694 266.877 87.8651C267.376 87.8082 267.795 87.7624 268.235 87.7407C269.114 87.6974 270.083 87.7502 271.947 88.0078C273.813 88.2657 275.128 88.4256 275.976 88.5211C276.401 88.5688 276.708 88.6004 276.91 88.6201C277.011 88.6299 277.085 88.6368 277.134 88.6412C277.159 88.6434 277.177 88.645 277.189 88.646L277.203 88.6472L277.208 88.6476C277.208 88.6476 277.208 88.6476 277.213 88.5794L277.218 88.5111L277.214 88.5108L277.201 88.5096C277.189 88.5086 277.171 88.5071 277.146 88.5049C277.097 88.5005 277.023 88.4937 276.923 88.4838C276.722 88.4642 276.415 88.4327 275.991 88.385C275.144 88.2897 273.83 88.1299 271.965 87.8722C270.097 87.6141 269.119 87.5601 268.228 87.604C267.783 87.6259 267.361 87.6722 266.862 87.7291C266.825 87.7334 266.787 87.7377 266.748 87.7421C266.276 87.7961 265.73 87.8585 265.032 87.9187C263.52 88.049 261.283 88.2365 259.423 88.3914C258.494 88.4688 257.658 88.5382 257.056 88.5881C256.754 88.6131 256.511 88.6332 256.343 88.6471L256.082 88.6686Z" fill="white"/>
<path fill-rule="evenodd" clip-rule="evenodd" d="M274.399 87.2968C273.092 87.1105 271.338 86.8644 269.552 86.6253C267.765 86.386 266.123 86.2363 264.928 86.1465C264.331 86.1016 263.845 86.0716 263.508 86.0529C263.34 86.0435 263.209 86.0369 263.12 86.0327C263.076 86.0306 263.042 86.0291 263.019 86.0281L262.993 86.027L262.984 86.0266C262.984 86.0266 262.984 86.0266 262.982 86.095C262.979 86.1634 262.979 86.1634 262.979 86.1634L262.988 86.1637L263.013 86.1648C263.036 86.1658 263.07 86.1673 263.114 86.1695C263.203 86.1737 263.333 86.1802 263.501 86.1896C263.837 86.2083 264.322 86.2382 264.918 86.283C266.112 86.3727 267.751 86.5221 269.535 86.761C271.32 87 273.073 87.2461 274.38 87.4324C275.034 87.5255 275.576 87.6038 275.954 87.6587C276.143 87.6861 276.292 87.7078 276.393 87.7226L276.547 87.7452C276.547 87.7452 276.548 87.7452 276.557 87.6775C276.567 87.6098 276.567 87.6098 276.567 87.6098L276.412 87.5871C276.311 87.5723 276.162 87.5506 275.973 87.5232C275.594 87.4682 275.053 87.39 274.399 87.2968Z" fill="white"/>
<path fill-rule="evenodd" clip-rule="evenodd" d="M227.897 107.953C226.885 106.248 225.868 103.333 225.868 98.5056C225.868 93.678 226.885 90.7635 227.897 89.0582C228.403 88.2054 228.908 87.6541 229.286 87.3167C229.474 87.148 229.631 87.0326 229.74 86.9598C229.795 86.9233 229.837 86.8975 229.866 86.881C229.88 86.8727 229.891 86.8667 229.898 86.8629C229.9 86.8618 229.902 86.8609 229.903 86.8602C229.904 86.8596 229.905 86.8591 229.906 86.8588L229.908 86.8579L229.908 86.8577L229.908 86.8577C229.908 86.8577 229.908 86.8577 229.878 86.7963C229.849 86.7348 229.849 86.7348 229.849 86.7349L229.848 86.735L229.848 86.7354L229.845 86.7368C229.843 86.7379 229.839 86.7396 229.835 86.7419C229.827 86.7463 229.815 86.753 229.799 86.762C229.768 86.7799 229.723 86.8073 229.666 86.8454C229.552 86.9216 229.39 87.0407 229.197 87.2139C228.81 87.5603 228.295 88.1223 227.782 88.9874C226.755 90.7181 225.733 93.6582 225.733 98.5056C225.733 103.353 226.755 106.293 227.782 108.024C228.295 108.889 228.81 109.451 229.197 109.797C229.39 109.971 229.552 110.09 229.666 110.166C229.723 110.204 229.768 110.231 229.799 110.249C229.815 110.258 229.827 110.265 229.835 110.269C229.839 110.272 229.843 110.273 229.845 110.274L229.848 110.276L229.848 110.276L229.849 110.276C229.849 110.276 229.849 110.276 229.878 110.215C229.908 110.154 229.908 110.154 229.908 110.154L229.908 110.154L229.908 110.153L229.906 110.153C229.904 110.152 229.902 110.15 229.898 110.148C229.891 110.145 229.88 110.139 229.866 110.13C229.837 110.114 229.795 110.088 229.74 110.051C229.631 109.979 229.474 109.863 229.286 109.695C228.908 109.357 228.403 108.806 227.897 107.953Z" fill="white"/>
<path fill-rule="evenodd" clip-rule="evenodd" d="M208.308 101.361C208.305 101.332 208.303 101.303 208.3 101.275L208.3 101.274C208.131 99.4325 208.131 97.5787 208.3 95.737L208.3 95.7366L208.304 95.692C208.386 94.7417 208.463 93.8602 208.451 93.3148C208.448 93.176 208.439 93.0565 208.423 92.9619C208.407 92.8711 208.383 92.7894 208.337 92.7401C208.312 92.7129 208.28 92.6936 208.239 92.6912C208.201 92.689 208.165 92.7029 208.134 92.723C208.073 92.7621 208.008 92.8379 207.938 92.9436L208.05 93.0201C208.118 92.9172 208.17 92.8619 208.206 92.8388C208.223 92.8278 208.231 92.8278 208.232 92.8279C208.232 92.8279 208.232 92.8279 208.233 92.8282C208.234 92.8286 208.236 92.8298 208.239 92.8334C208.255 92.8511 208.275 92.897 208.291 92.9856C208.305 93.0703 208.314 93.182 208.317 93.3178C208.328 93.8556 208.252 94.7315 208.169 95.6891L208.166 95.7243C208.166 95.7243 208.166 95.7244 208.166 95.7244C207.997 97.5745 207.997 99.4367 208.166 101.287C208.169 101.313 208.171 101.339 208.173 101.365C208.255 102.306 208.329 103.164 208.318 103.693C208.315 103.829 208.307 103.941 208.292 104.026C208.277 104.114 208.257 104.16 208.241 104.178C208.237 104.181 208.235 104.183 208.234 104.183C208.234 104.183 208.234 104.183 208.233 104.183C208.232 104.183 208.224 104.183 208.207 104.172C208.17 104.149 208.118 104.094 208.05 103.991L207.938 104.068C208.009 104.173 208.074 104.249 208.135 104.288C208.167 104.308 208.203 104.322 208.241 104.32C208.281 104.318 208.314 104.298 208.339 104.271C208.384 104.222 208.409 104.14 208.425 104.049C208.441 103.955 208.45 103.835 208.452 103.696C208.464 103.159 208.389 102.295 208.308 101.361Z" fill="white"/>
<path fill-rule="evenodd" clip-rule="evenodd" d="M208.326 93.2465C208.326 93.2465 208.326 93.2465 208.386 93.2763L208.447 93.306L208.447 93.3053L208.448 93.3029L208.453 93.2932C208.457 93.2845 208.464 93.2716 208.472 93.2548C208.489 93.2213 208.515 93.1725 208.548 93.1117C208.615 92.9901 208.713 92.821 208.839 92.6313C209.09 92.2517 209.45 91.7936 209.887 91.4676L209.889 91.4665C209.892 91.4647 209.896 91.4621 209.902 91.4586C209.913 91.4515 209.931 91.441 209.955 91.4271C210.002 91.3993 210.074 91.3582 210.17 91.3053C210.363 91.1994 210.655 91.0461 211.052 90.8571C211.845 90.4791 213.054 89.9583 214.719 89.3882C218.047 88.2479 223.195 86.9107 230.466 86.1256L230.452 85.9895C223.171 86.7756 218.014 88.1149 214.676 89.2584C213.007 89.8302 211.792 90.353 210.995 90.7332C210.596 90.9233 210.301 91.0777 210.106 91.1848C210.009 91.2384 209.936 91.2801 209.887 91.3085C209.863 91.3227 209.845 91.3336 209.833 91.3409C209.827 91.3446 209.822 91.3474 209.819 91.3493L209.816 91.3515L209.815 91.3521L209.814 91.3522C209.814 91.3523 209.814 91.3523 209.849 91.4106L209.814 91.3522L209.812 91.3538L209.81 91.3554C209.354 91.6949 208.983 92.1687 208.727 92.5548C208.599 92.7483 208.499 92.9208 208.431 93.045C208.396 93.1072 208.37 93.1573 208.353 93.192C208.344 93.2093 208.337 93.2229 208.333 93.2321L208.328 93.2427L208.326 93.2454L208.326 93.2462L208.326 93.2465Z" fill="white"/>
<path fill-rule="evenodd" clip-rule="evenodd" d="M238.872 107.713C238.872 107.713 238.872 107.713 238.856 107.646L238.92 107.624L238.919 107.621L238.916 107.614C238.914 107.607 238.911 107.596 238.906 107.582C238.897 107.554 238.884 107.513 238.867 107.458C238.832 107.348 238.784 107.184 238.725 106.971C238.608 106.544 238.451 105.917 238.295 105.119C237.982 103.524 237.669 101.245 237.669 98.5131C237.669 95.7809 237.982 93.5022 238.295 91.9069C238.451 91.1092 238.608 90.4826 238.725 90.0556C238.784 89.8421 238.832 89.6785 238.867 89.5685C238.884 89.5135 238.897 89.4718 238.906 89.444C238.911 89.4301 238.914 89.4197 238.916 89.4128L238.919 89.405L238.92 89.4027L238.856 89.38C238.872 89.3136 238.872 89.3136 238.872 89.3136L238.872 89.3135L238.781 89.2906C238.722 89.2757 238.634 89.2537 238.523 89.2259C238.3 89.1702 237.98 89.0909 237.595 88.9963C236.824 88.807 235.789 88.5563 234.732 88.3111C233.675 88.0659 232.595 87.8259 231.735 87.658C231.305 87.5741 230.929 87.508 230.638 87.4682C230.493 87.4484 230.367 87.435 230.267 87.4293C230.169 87.4238 230.087 87.4251 230.032 87.4385C229.836 87.4864 229.643 87.6344 229.453 87.8539C229.261 88.0746 229.067 88.3747 228.868 88.7394C228.472 89.469 228.056 90.4669 227.621 91.63C226.746 93.9681 226.682 96.7772 226.682 98.5056C226.682 100.234 226.748 103.045 227.621 105.381C228.055 106.543 228.472 107.541 228.87 108.271C229.069 108.636 229.264 108.936 229.455 109.157C229.645 109.377 229.837 109.525 230.032 109.573C230.086 109.586 230.168 109.587 230.266 109.582C230.366 109.576 230.491 109.563 230.636 109.543C230.927 109.504 231.302 109.438 231.732 109.355C232.592 109.188 233.672 108.95 234.73 108.707C235.787 108.464 236.823 108.215 237.594 108.027C237.98 107.934 238.299 107.855 238.522 107.8C238.634 107.772 238.721 107.75 238.781 107.736L238.872 107.713ZM238.856 89.38L238.872 89.3136L238.944 89.3317L238.92 89.4027L238.856 89.38ZM238.769 89.4286L238.749 89.4235C238.69 89.4086 238.602 89.3867 238.491 89.3588C238.268 89.3032 237.949 89.2239 237.563 89.1293C236.793 88.9401 235.758 88.6896 234.702 88.4446C233.645 88.1995 232.567 87.9599 231.709 87.7924C231.28 87.7087 230.907 87.6431 230.62 87.6039C230.476 87.5843 230.355 87.5714 230.259 87.566C230.162 87.5605 230.097 87.5633 230.064 87.5716C229.907 87.6098 229.737 87.7331 229.554 87.9445C229.371 88.1547 229.182 88.4452 228.986 88.8056C228.594 89.5264 228.181 90.5169 227.747 91.6787C226.882 93.9907 226.817 96.7766 226.817 98.5056C226.817 100.235 226.883 103.022 227.747 105.333C228.18 106.493 228.595 107.484 228.988 108.205C229.184 108.565 229.373 108.856 229.556 109.067C229.739 109.278 229.908 109.401 230.064 109.44C230.097 109.448 230.161 109.451 230.259 109.445C230.354 109.44 230.475 109.427 230.619 109.407C230.905 109.369 231.278 109.303 231.707 109.22C232.565 109.054 233.643 108.817 234.7 108.574C235.757 108.33 236.792 108.082 237.563 107.894C237.948 107.801 238.268 107.722 238.491 107.667C238.602 107.639 238.69 107.617 238.749 107.603L238.769 107.598C238.761 107.572 238.751 107.539 238.738 107.499C238.704 107.388 238.654 107.223 238.595 107.008C238.477 106.578 238.32 105.948 238.163 105.146C237.848 103.544 237.534 101.256 237.534 98.5131C237.534 95.7704 237.848 93.4826 238.163 91.8801C238.32 91.0788 238.477 90.4487 238.595 90.0187C238.654 89.8037 238.704 89.6387 238.738 89.5273C238.751 89.4875 238.761 89.4546 238.769 89.4286ZM238.856 107.646L238.92 107.624L238.944 107.695L238.872 107.713L238.856 107.646Z" fill="white"/>
<path fill-rule="evenodd" clip-rule="evenodd" d="M239.57 89.164C239.57 89.164 239.57 89.164 239.507 89.1419C239.443 89.1198 239.443 89.1198 239.443 89.1199L239.442 89.1216L239.441 89.1267C239.439 89.1312 239.437 89.1379 239.434 89.1468C239.429 89.1644 239.42 89.1907 239.409 89.2254C239.388 89.2947 239.356 89.3973 239.318 89.5313C239.24 89.7992 239.133 90.1924 239.014 90.6942C238.776 91.6977 238.49 93.1358 238.3 94.8751C237.919 98.3533 237.919 103.039 239.443 107.864L239.571 107.822C238.054 103.021 238.054 98.3561 238.433 94.8902C238.623 93.1575 238.908 91.7252 239.145 90.7263C239.263 90.2269 239.37 89.8359 239.447 89.5699C239.485 89.437 239.516 89.3353 239.537 89.2669C239.548 89.2327 239.556 89.2069 239.562 89.1896C239.563 89.1856 239.564 89.182 239.565 89.1789C239.567 89.1754 239.568 89.1725 239.568 89.1702L239.57 89.1654L239.57 89.1643L239.57 89.164Z" fill="white"/>
<path d="M232.003 110.954H233.643L233.827 111.782C233.841 111.841 233.873 111.893 233.919 111.93C233.966 111.967 234.023 111.987 234.082 111.987H234.155C234.201 111.987 234.245 112.001 234.282 112.028C234.319 112.054 234.348 112.092 234.364 112.135L235.338 114.841C235.342 114.851 235.343 114.862 235.341 114.873C235.34 114.883 235.336 114.894 235.33 114.903C235.324 114.912 235.316 114.919 235.306 114.924C235.297 114.929 235.286 114.932 235.276 114.932H234.885C234.624 114.933 234.369 114.86 234.146 114.722C233.924 114.584 233.743 114.386 233.623 114.151L232.003 110.954Z" fill="#021216"/>
<path fill-rule="evenodd" clip-rule="evenodd" d="M234.885 115.001C234.885 115.001 234.885 115.001 234.885 115.001H235.278C235.299 115 235.32 114.995 235.338 114.984C235.357 114.974 235.373 114.959 235.385 114.942C235.397 114.924 235.405 114.904 235.408 114.882C235.411 114.861 235.409 114.839 235.402 114.818L235.402 114.817L234.427 112.111L234.427 112.111C234.406 112.055 234.369 112.006 234.321 111.972C234.272 111.937 234.215 111.919 234.156 111.918L234.155 111.918H234.082L234.081 111.918C234.038 111.919 233.995 111.904 233.961 111.876C233.927 111.849 233.903 111.81 233.893 111.767C233.893 111.767 233.893 111.767 233.893 111.767L233.697 110.885H231.893L233.563 114.182C233.688 114.429 233.878 114.636 234.111 114.78C234.344 114.925 234.612 115.001 234.885 115.001ZM234.885 114.864C234.637 114.864 234.393 114.795 234.181 114.663C233.969 114.532 233.797 114.344 233.683 114.119L232.113 111.022H233.589L233.762 111.798L233.762 111.798C233.779 111.871 233.82 111.937 233.878 111.984C233.936 112.03 234.008 112.056 234.082 112.055C234.082 112.055 234.082 112.055 234.082 112.055H234.155C234.155 112.055 234.155 112.055 234.155 112.055C234.187 112.055 234.218 112.065 234.244 112.084C234.27 112.102 234.29 112.128 234.301 112.159L235.275 114.863C235.275 114.863 235.275 114.863 235.275 114.863L235.338 114.841L235.276 114.864H235.276V114.932L235.274 114.864C235.274 114.864 235.274 114.864 235.274 114.864H234.885ZM235.275 114.864L235.275 114.863C235.275 114.863 235.275 114.863 235.275 114.863C235.275 114.863 235.275 114.864 235.275 114.864C235.275 114.864 235.275 114.864 235.274 114.864C235.274 114.864 235.274 114.864 235.274 114.864H235.275Z" fill="white"/>
<path d="M232.003 86.0575H233.643L233.827 85.2287C233.841 85.1704 233.873 85.1184 233.919 85.0813C233.966 85.0441 234.023 85.0241 234.082 85.0244H234.155C234.201 85.0242 234.245 85.0099 234.282 84.9834C234.319 84.957 234.348 84.9196 234.364 84.8762L235.338 82.1706C235.342 82.1603 235.343 82.1493 235.341 82.1385C235.34 82.1278 235.336 82.1175 235.33 82.1085C235.324 82.0996 235.316 82.0922 235.306 82.0871C235.297 82.0819 235.286 82.079 235.276 82.0787H234.885C234.624 82.0787 234.369 82.1516 234.146 82.2895C233.924 82.4274 233.743 82.625 233.623 82.8606L232.003 86.0575Z" fill="#021216"/>
<path d="M232.003 110.954H233.643L233.827 111.782C233.841 111.841 233.873 111.893 233.919 111.93C233.966 111.967 234.023 111.987 234.082 111.987H234.155C234.201 111.987 234.245 112.001 234.282 112.028C234.319 112.054 234.348 112.092 234.364 112.135L235.338 114.841C235.342 114.851 235.343 114.862 235.341 114.873C235.34 114.883 235.336 114.894 235.33 114.903C235.324 114.912 235.316 114.919 235.306 114.924C235.297 114.929 235.286 114.932 235.276 114.932H234.885C234.624 114.933 234.369 114.86 234.146 114.722C233.924 114.584 233.743 114.386 233.623 114.151L232.003 110.954Z" fill="#7000FF"/>
<path d="M231.983 86.125H233.623L233.807 85.2963C233.82 85.2379 233.853 85.1859 233.899 85.1488C233.945 85.1117 234.003 85.0916 234.061 85.0919H234.135C234.181 85.0917 234.225 85.0774 234.262 85.0509C234.299 85.0245 234.328 84.9871 234.343 84.9438L235.318 82.2381C235.322 82.2278 235.323 82.2168 235.321 82.2061C235.32 82.1953 235.316 82.185 235.31 82.1761C235.304 82.1671 235.296 82.1598 235.286 82.1546C235.277 82.1494 235.266 82.1465 235.256 82.1463H234.865C234.604 82.1462 234.349 82.2192 234.126 82.3571C233.903 82.495 233.722 82.6925 233.603 82.9281L231.983 86.125Z" fill="#7000FF"/>
<path fill-rule="evenodd" clip-rule="evenodd" d="M233.603 82.9281L231.983 86.125H233.623L233.807 85.2963C233.841 85.149 234.01 85.0938 234.057 85.1031C234.105 85.1124 234.296 85.0741 234.343 84.9438L235.318 82.2381C235.322 82.2278 235.323 82.2169 235.321 82.2061C235.32 82.1953 235.316 82.185 235.31 82.1761C235.304 82.1671 235.296 82.1598 235.286 82.1546C235.277 82.1494 235.266 82.1466 235.256 82.1463H234.865C234.781 82.1463 234.697 82.1541 234.616 82.1692C234.567 82.1783 234.518 82.19 234.471 82.2042C234.338 82.2439 234.211 82.3032 234.095 82.3793C234.084 82.3863 234.074 82.3935 234.063 82.4008C233.964 82.4698 233.873 82.5513 233.793 82.6438C233.729 82.7189 233.671 82.8012 233.623 82.8897C233.616 82.9024 233.609 82.9152 233.603 82.9281ZM234.865 82.015C234.773 82.015 234.682 82.0236 234.592 82.0401C234.539 82.05 234.486 82.0628 234.434 82.0783C234.289 82.1216 234.151 82.1861 234.025 82.269C234.013 82.2767 234.002 82.2845 233.99 82.2924C233.882 82.3675 233.783 82.4564 233.696 82.5572C233.626 82.6392 233.563 82.7291 233.51 82.8259C233.503 82.8397 233.495 82.8537 233.488 82.8679L231.771 86.2563H233.726L233.933 85.326C233.933 85.3259 233.933 85.3258 233.933 85.3257C233.939 85.2984 233.959 85.2738 233.992 85.2544C234.008 85.2449 234.024 85.2388 234.036 85.2356C234.039 85.2346 234.042 85.2341 234.044 85.2337C234.076 85.238 234.11 85.2345 234.137 85.2299C234.171 85.2241 234.21 85.2136 234.249 85.1974C234.323 85.1668 234.422 85.105 234.464 84.9893L234.465 84.9889L235.44 82.282L235.44 82.2807C235.45 82.2511 235.453 82.2193 235.449 82.188C235.445 82.1568 235.433 82.1271 235.416 82.1012C235.398 82.0754 235.375 82.0541 235.348 82.0391C235.32 82.0241 235.29 82.0159 235.259 82.0151L235.257 82.015H234.865C234.865 82.015 234.865 82.015 234.865 82.015ZM234.047 85.2333C234.047 85.2333 234.047 85.2333 234.047 85.2333Z" fill="url(#paint2_linear_260_5571)"/>
</g>
<defs>
<radialGradient id="paint0_radial_260_5571" cx="0" cy="0" r="1" gradientUnits="userSpaceOnUse" gradientTransform="translate(244.242 97.8362) scale(50.9576 23.8507)">
<stop stop-color="#45009E"/>
<stop offset="0.03" stop-color="#5204B5"/>
<stop offset="0.65" stop-color="#16042D"/>
<stop offset="1" stop-color="#0D021B"/>
</radialGradient>
<radialGradient id="paint1_radial_260_5571" cx="0" cy="0" r="1" gradientUnits="userSpaceOnUse" gradientTransform="translate(244.058 98.4784) rotate(23.0438) scale(33.9329 88.1147)">
<stop stop-color="#8F4EE3"/>
<stop offset="1" stop-color="#430099"/>
</radialGradient>
<linearGradient id="paint2_linear_260_5571" x1="233.611" y1="86.2563" x2="233.611" y2="82.015" gradientUnits="userSpaceOnUse">
<stop stop-color="white"/>
<stop offset="1" stop-color="white" stop-opacity="0.7"/>
</linearGradient>
<clipPath id="clip0_260_5571">
<rect width="75" height="33" fill="white" transform="matrix(1 0 0 -1 206 115)"/>
</clipPath>
</defs>
</svg>
