<?xml version="1.0" encoding="utf-8" ?>
<svg xmlns="http://www.w3.org/2000/svg" xmlns:xlink="http://www.w3.org/1999/xlink" width="0.5981" height="116.2637" viewBox="0 0 0.5981 116.2637">
	<path d="M0.299184 0L0.299184 0.302757L-0.299184 0.302757L-0.299184 0L0.299184 0ZM0.299184 0.904303L0.299184 1.50513L-0.299184 1.50513L-0.299184 0.904303L0.299184 0.904303ZM0.299184 2.08903L0.299184 2.70248L-0.299184 2.70248L-0.299184 2.08903L0.299184 2.08903ZM0.299184 3.2909L0.299184 3.89721L-0.299184 3.89721L-0.299184 3.2909L0.299184 3.2909ZM0.299184 4.5125L0.299184 5.08905L-0.299184 5.08905L-0.299184 4.5125L0.299184 4.5125ZM0.299184 5.69649L0.299184 6.29075L-0.299184 6.29075L-0.299184 5.69649L0.299184 5.69649ZM0.299184 6.91084L0.299184 7.50932L-0.299184 7.50932L-0.299184 6.91084L0.299184 6.91084ZM0.299184 8.08078L0.299184 8.67017L-0.299184 8.67017L-0.299184 8.08078L0.299184 8.08078ZM0.299184 9.27716L0.299184 9.90141L-0.299184 9.90141L-0.299184 9.27716L0.299184 9.27716ZM0.299184 10.4885L0.299184 11.0897L-0.299184 11.0897L-0.299184 10.4885L0.299184 10.4885ZM0.299184 11.7045L0.299184 12.2752L-0.299184 12.2752L-0.299184 11.7045L0.299184 11.7045ZM0.299184 12.8568L0.299184 13.5091L-0.299184 13.5091L-0.299184 12.8568L0.299184 12.8568ZM0.299184 14.1131L0.299184 14.6656L-0.299184 14.6656L-0.299184 14.1131L0.299184 14.1131ZM0.299184 15.2892L0.299184 15.859L-0.299184 15.859L-0.299184 15.2892L0.299184 15.2892ZM0.299184 16.5014L0.299184 17.0879L-0.299184 17.0879L-0.299184 16.5014L0.299184 16.5014ZM0.299184 17.682L0.299184 18.2837L-0.299184 18.2837L-0.299184 17.682L0.299184 17.682ZM0.299184 18.8928L0.299184 19.5092L-0.299184 19.5092L-0.299184 18.8928L0.299184 18.8928ZM0.299184 20.0631L0.299184 20.6928L-0.299184 20.6928L-0.299184 20.0631L0.299184 20.0631ZM0.299184 21.2584L0.299184 21.901L-0.299184 21.901L-0.299184 21.2584L0.299184 21.2584ZM0.299184 22.4778L0.299184 23.0597L-0.299184 23.0597L-0.299184 22.4778L0.299184 22.4778ZM0.299184 23.6467L0.299184 24.2385L-0.299184 24.2385L-0.299184 23.6467L0.299184 23.6467ZM0.299184 24.8353L0.299184 25.4367L-0.299184 25.4367L-0.299184 24.8353L0.299184 24.8353ZM0.299184 26.0429L0.299184 26.6535L-0.299184 26.6535L-0.299184 26.0429L0.299184 26.0429ZM0.299184 27.2687L0.299184 27.8882L-0.299184 27.8882L-0.299184 27.2687L0.299184 27.2687ZM0.299184 28.4337L0.299184 29.0611L-0.299184 29.0611L-0.299184 28.4337L0.299184 28.4337ZM0.299184 29.6926L0.299184 30.2484L-0.299184 30.2484L-0.299184 29.6926L0.299184 29.6926ZM0.299184 30.8873L0.299184 31.4495L-0.299184 31.4495L-0.299184 30.8873L0.299184 30.8873ZM0.299184 32.0954L0.299184 32.6636L-0.299184 32.6636L-0.299184 32.0954L0.299184 32.0954ZM0.299184 33.2345L0.299184 33.8901L-0.299184 33.8901L-0.299184 33.2345L0.299184 33.2345ZM0.299184 34.4666L0.299184 35.0456L-0.299184 35.0456L-0.299184 34.4666L0.299184 34.4666ZM0.299184 35.627L0.299184 36.2944L-0.299184 36.2944L-0.299184 35.627L0.299184 35.627ZM0.299184 36.8808L0.299184 37.4695L-0.299184 37.4695L-0.299184 36.8808L0.299184 36.8808ZM0.299184 38.0603L0.299184 38.6533L-0.299184 38.6533L-0.299184 38.0603L0.299184 38.0603ZM0.299184 39.2483L0.299184 39.8453L-0.299184 39.8453L-0.299184 39.2483L0.299184 39.2483ZM0.299184 40.4442L0.299184 41.045L-0.299184 41.045L-0.299184 40.4442L0.299184 40.4442ZM0.299184 41.6475L0.299184 42.2518L-0.299184 42.2518L-0.299184 41.6475L0.299184 41.6475ZM0.299184 42.8577L0.299184 43.4652L-0.299184 43.4652L-0.299184 42.8577L0.299184 42.8577ZM0.299184 44.0742L0.299184 44.6848L-0.299184 44.6848L-0.299184 44.0742L0.299184 44.0742ZM0.299184 45.2091L0.299184 45.8222L-0.299184 45.8222L-0.299184 45.2091L0.299184 45.2091ZM0.299184 46.4365L0.299184 47.0521L-0.299184 47.0521L-0.299184 46.4365L0.299184 46.4365ZM0.299184 47.6688L0.299184 48.2866L-0.299184 48.2866L-0.299184 47.6688L0.299184 47.6688ZM0.299184 48.8169L0.299184 49.4365L-0.299184 49.4365L-0.299184 48.8169L0.299184 48.8169ZM0.299184 50.057L0.299184 50.6784L-0.299184 50.6784L-0.299184 50.057L0.299184 50.057ZM0.299184 51.2116L0.299184 51.8344L-0.299184 51.8344L-0.299184 51.2116L0.299184 51.2116ZM0.299184 52.4577L0.299184 53.0817L-0.299184 53.0817L-0.299184 52.4577L0.299184 52.4577ZM0.299184 53.617L0.299184 54.2419L-0.299184 54.2419L-0.299184 53.617L0.299184 53.617ZM0.299184 54.8672L0.299184 55.4034L-0.299184 55.4034L-0.299184 54.8672L0.299184 54.8672ZM0.299184 56.0293L0.299184 56.6554L-0.299184 56.6554L-0.299184 56.0293L0.299184 56.0293ZM0.299184 57.1921L0.299184 57.8185L-0.299184 57.8185L-0.299184 57.1921L0.299184 57.1921ZM0.299184 58.4448L0.299184 59.0711L-0.299184 59.0711L-0.299184 58.4448L0.299184 58.4448ZM0.299184 59.6079L0.299184 60.234L-0.299184 60.234L-0.299184 59.6079L0.299184 59.6079ZM0.299184 60.8599L0.299184 61.3961L-0.299184 61.3961L-0.299184 60.8599L0.299184 60.8599ZM0.299184 62.0214L0.299184 62.6463L-0.299184 62.6463L-0.299184 62.0214L0.299184 62.0214ZM0.299184 63.1815L0.299184 63.8055L-0.299184 63.8055L-0.299184 63.1815L0.299184 63.1815ZM0.299184 64.4289L0.299184 65.0516L-0.299184 65.0516L-0.299184 64.4289L0.299184 64.4289ZM0.299184 65.5849L0.299184 66.2062L-0.299184 66.2062L-0.299184 65.5849L0.299184 65.5849ZM0.299184 66.8267L0.299184 67.4464L-0.299184 67.4464L-0.299184 66.8267L0.299184 66.8267ZM0.299184 67.9767L0.299184 68.5945L-0.299184 68.5945L-0.299184 67.9767L0.299184 67.9767ZM0.299184 69.2112L0.299184 69.8267L-0.299184 69.8267L-0.299184 69.2112L0.299184 69.2112ZM0.299184 70.441L0.299184 71.0541L-0.299184 71.0541L-0.299184 70.441L0.299184 70.441ZM0.299184 71.5785L0.299184 72.189L-0.299184 72.189L-0.299184 71.5785L0.299184 71.5785ZM0.299184 72.798L0.299184 73.4056L-0.299184 73.4056L-0.299184 72.798L0.299184 72.798ZM0.299184 74.0115L0.299184 74.6158L-0.299184 74.6158L-0.299184 74.0115L0.299184 74.0115ZM0.299184 75.2183L0.299184 75.819L-0.299184 75.819L-0.299184 75.2183L0.299184 75.2183ZM0.299184 76.4179L0.299184 77.0149L-0.299184 77.0149L-0.299184 76.4179L0.299184 76.4179ZM0.299184 77.61L0.299184 78.2029L-0.299184 78.2029L-0.299184 77.61L0.299184 77.61ZM0.299184 78.7938L0.299184 79.3824L-0.299184 79.3824L-0.299184 78.7938L0.299184 78.7938ZM0.299184 79.9689L0.299184 80.6363L-0.299184 80.6363L-0.299184 79.9689L0.299184 79.9689ZM0.299184 81.2177L0.299184 81.7967L-0.299184 81.7967L-0.299184 81.2177L0.299184 81.2177ZM0.299184 82.3731L0.299184 83.0288L-0.299184 83.0288L-0.299184 82.3731L0.299184 82.3731ZM0.299184 83.5997L0.299184 84.1679L-0.299184 84.1679L-0.299184 83.5997L0.299184 83.5997ZM0.299184 84.8138L0.299184 85.3759L-0.299184 85.3759L-0.299184 84.8138L0.299184 84.8138ZM0.299184 86.0148L0.299184 86.5706L-0.299184 86.5706L-0.299184 86.0148L0.299184 86.0148ZM0.299184 87.2021L0.299184 87.8295L-0.299184 87.8295L-0.299184 87.2021L0.299184 87.2021ZM0.299184 88.3751L0.299184 88.9946L-0.299184 88.9946L-0.299184 88.3751L0.299184 88.3751ZM0.299184 89.6097L0.299184 90.2204L-0.299184 90.2204L-0.299184 89.6097L0.299184 89.6097ZM0.299184 90.8265L0.299184 91.428L-0.299184 91.428L-0.299184 90.8265L0.299184 90.8265ZM0.299184 92.0247L0.299184 92.6166L-0.299184 92.6166L-0.299184 92.0247L0.299184 92.0247ZM0.299184 93.2035L0.299184 93.7854L-0.299184 93.7854L-0.299184 93.2035L0.299184 93.2035ZM0.299184 94.3622L0.299184 95.0049L-0.299184 95.0049L-0.299184 94.3622L0.299184 94.3622ZM0.299184 95.5704L0.299184 96.2001L-0.299184 96.2001L-0.299184 95.5704L0.299184 95.5704ZM0.299184 96.7541L0.299184 97.3704L-0.299184 97.3704L-0.299184 96.7541L0.299184 96.7541ZM0.299184 97.9795L0.299184 98.5812L-0.299184 98.5812L-0.299184 97.9795L0.299184 97.9795ZM0.299184 99.1754L0.299184 99.7619L-0.299184 99.7619L-0.299184 99.1754L0.299184 99.1754ZM0.299184 100.404L0.299184 100.974L-0.299184 100.974L-0.299184 100.404L0.299184 100.404ZM0.299184 101.598L0.299184 102.15L-0.299184 102.15L-0.299184 101.598L0.299184 101.598ZM0.299184 102.754L0.299184 103.406L-0.299184 103.406L-0.299184 102.754L0.299184 102.754ZM0.299184 103.988L0.299184 104.559L-0.299184 104.559L-0.299184 103.988L0.299184 103.988ZM0.299184 105.174L0.299184 105.775L-0.299184 105.775L-0.299184 105.174L0.299184 105.174ZM0.299184 106.362L0.299184 106.986L-0.299184 106.986L-0.299184 106.362L0.299184 106.362ZM0.299184 107.593L0.299184 108.182L-0.299184 108.182L-0.299184 107.593L0.299184 107.593ZM0.299184 108.754L0.299184 109.352L-0.299184 109.352L-0.299184 108.754L0.299184 108.754ZM0.299184 109.972L0.299184 110.567L-0.299184 110.567L-0.299184 109.972L0.299184 109.972ZM0.299184 111.174L0.299184 111.751L-0.299184 111.751L-0.299184 111.174L0.299184 111.174ZM0.299184 112.366L0.299184 112.972L-0.299184 112.972L-0.299184 112.366L0.299184 112.366ZM0.299184 113.561L0.299184 114.174L-0.299184 114.174L-0.299184 113.561L0.299184 113.561ZM0.299184 114.758L0.299184 115.359L-0.299184 115.359L-0.299184 114.758L0.299184 114.758ZM-0.299184 116.263L-0.299184 115.96L0.299184 115.96L0.299184 116.263L-0.299184 116.263Z" fill-rule="evenodd" transform="matrix(1 0 0 1 0.299072 0)" fill="rgb(255, 255, 255)"/>
</svg>
