<svg width="232" height="234" viewBox="0 0 232 234" fill="none" xmlns="http://www.w3.org/2000/svg">
<g filter="url(#filter0_d_200_7270)">
<ellipse cx="139.596" cy="127.576" rx="61.858" ry="62.8889" transform="rotate(-6.51649 139.596 127.576)" fill="#3B1A9C" fill-opacity="0.69"/>
<path style="mix-blend-mode:screen" opacity="0.4" d="M201.737 120.862C202.705 129.124 202.045 137.493 199.794 145.487C197.544 153.482 193.748 160.941 188.626 167.436C183.504 173.931 177.157 179.332 169.952 183.327C162.748 187.323 154.828 189.833 146.65 190.713C112.642 194.439 81.8057 169.316 78.1095 134.333C74.4814 99.8692 98.8744 68.8112 133.127 65.0173C167.001 61.2622 197.828 86.3423 201.737 120.862ZM174.215 76.0949L170.972 74.6017L170.864 74.8338L171.894 75.9776C170.545 74.5142 168.784 73.9812 166.751 73.6069C169.097 75.9956 171.085 78.7186 172.65 81.6888C172.74 81.8683 172.892 82.0077 173.078 82.0796C174.878 82.6255 176.724 83.1444 178.551 83.6521L178.733 83.4204C177.153 81.614 175.584 79.8241 173.999 78.0096C173.503 77.4685 173.008 76.9405 172.514 76.4211C172.811 76.6305 173.093 76.8612 173.358 77.1115C175.248 79.2032 177.123 81.3098 179.009 83.4064C179.193 83.6095 179.369 83.8884 179.603 83.9627C180.787 84.355 181.985 84.6884 183.379 85.1005L182.827 84.3329C183.045 84.4969 183.257 84.675 183.486 84.8202C183.955 85.1139 184.447 85.3874 184.927 85.671C184.971 85.6044 185.011 85.5383 185.051 85.4678C184.998 85.3798 184.939 85.2955 184.875 85.2154C181.781 81.8477 178.328 78.8367 174.579 76.2379C174.461 76.1769 174.335 76.135 174.204 76.1137L174.215 76.0949ZM97.9632 171.818C97.5236 171.393 97.0569 170.998 96.6534 170.548C96.3497 170.184 95.9604 169.903 95.5214 169.731C95.0825 169.559 94.6081 169.502 94.142 169.564C97.4422 173.311 101.179 176.641 105.271 179.48C105.568 179.615 105.884 179.702 106.208 179.737L109.24 180.674L108.909 180.097C110.194 181.185 111.818 181.25 113.144 181.71C111.664 179.373 110.074 177.058 108.705 174.617C108.088 173.514 107.445 172.836 106.184 172.602C104.71 172.331 103.272 171.836 101.601 171.367C102.035 172.003 102.305 172.465 102.642 172.866C104.31 174.873 105.99 176.879 107.672 178.858C107.383 178.696 107.113 178.501 106.867 178.277C105.188 176.359 103.465 174.477 101.905 172.462C101.202 171.558 100.499 170.926 99.3692 170.734C98.514 170.59 97.6787 170.316 96.5997 170.04L97.9632 171.818ZM123.642 188.159C123.846 187.283 124.054 186.406 124.28 185.449L119.531 184.127L121.05 186.551C120.422 185.912 119.852 185.217 119.348 184.473C119.219 184.295 119.098 184.032 118.923 183.981C117.733 183.612 116.532 183.292 115.329 182.955L115.234 183.154L116.692 184.504C116.264 184.306 115.877 184.028 115.551 183.685C114.829 182.921 113.882 182.413 112.852 182.235C111.839 182.008 110.852 181.695 109.848 181.431C109.105 181.239 108.359 181.065 107.411 180.831C111.048 183.452 118.791 186.902 123.668 188.125C129.377 189.825 135.314 190.597 141.257 190.41C139.483 189.83 137.763 188.928 135.797 189.447L137.264 189.28L137.274 189.019L133.301 188.295L133.233 188.457L133.953 188.177C132.708 187.822 131.635 187.483 130.545 187.221C130.193 187.178 129.837 187.227 129.509 187.361C128.604 187.653 127.714 188.006 126.815 188.315L126.801 188.193L129.363 187.074L129.339 186.857L125.022 185.636L123.642 188.159ZM126.358 114.69L122.034 130.445L138.232 134.973L142.517 119.222L126.358 114.69ZM140.169 135.53L156.089 140.027L160.373 124.268C154.962 122.737 149.752 121.262 144.48 119.776C143.029 125.036 141.614 130.226 140.168 135.521L140.169 135.53ZM121.586 132.378C120.62 137.429 119.683 142.353 118.728 147.35L133.702 151.547L137.708 136.896L121.586 132.378ZM143.042 117.351C144.371 112.47 145.674 107.671 146.986 102.835L132.092 98.6466L126.956 112.807L143.042 117.351ZM124.57 114.213L110.51 110.29C108.698 115.426 107.25 120.687 106.176 126.033L120.242 129.938L124.57 114.213ZM155.493 141.92L139.644 137.444L135.5 152.032L150.226 156.191C151.983 151.415 153.715 146.712 155.49 141.898L155.493 141.92ZM144.973 117.896L160.786 122.366L163.432 107.48L148.776 103.325C147.493 108.223 146.248 112.998 144.971 117.874L144.973 117.896ZM171.594 144.463C173.385 139.319 174.799 134.048 175.825 128.692L162.11 124.782C160.677 130.084 159.271 135.277 157.852 140.542L171.594 144.463ZM119.801 131.856L105.814 127.968C105.747 128.288 105.67 128.534 105.642 128.784C105.127 133.212 104.646 137.64 104.091 142.064C103.968 143.04 104.287 143.36 105.2 143.59C108.876 144.541 112.526 145.597 116.188 146.611C116.498 146.699 116.81 146.769 117.082 146.83C117.979 141.822 118.874 136.911 119.801 131.856ZM130.435 98.181L117.319 94.5673L111.013 108.417L125.178 112.35L130.435 98.181ZM170.965 146.297L157.26 142.399L151.863 156.641C155.938 157.802 160.019 158.98 164.115 160.103C164.322 160.163 164.765 159.862 164.89 159.619C166.096 157.244 167.311 154.868 168.416 152.447C169.318 150.485 170.085 148.446 170.967 146.314L170.965 146.297ZM162.529 122.822L176.177 126.718C177.029 121.872 177.521 116.967 177.648 112.045C177.658 111.564 177.424 111.42 177.021 111.312C175.037 110.76 173.063 110.186 171.086 109.621L165.056 107.923C164.201 112.917 163.373 117.842 162.531 122.839L162.529 122.822ZM93.1377 122.458L104.453 125.561L108.81 109.829L97.5075 106.724C95.5379 111.808 94.074 117.079 93.1377 122.458ZM173.264 144.927L184.184 148.075C186.122 142.979 187.53 137.691 188.388 132.298L177.502 129.146C176.082 134.447 174.685 139.639 173.264 144.927ZM118.658 149.134C118.611 149.208 118.572 149.288 118.542 149.371C118.114 153.499 117.694 157.626 117.257 161.75C117.202 162.293 117.498 162.417 117.92 162.532C120.581 163.265 123.24 164.016 125.898 164.763L129.766 165.833C130.927 161.613 132.069 157.461 133.232 153.218L118.658 149.134ZM131.302 166.269C135.344 167.407 139.228 168.502 143.12 169.622C143.686 169.786 143.805 169.421 143.98 169.084C145.391 166.224 146.846 163.359 148.256 160.482C148.672 159.634 149.022 158.746 149.436 157.802L135.021 153.735L131.302 166.269ZM147.452 101.129C148.592 96.9201 149.699 92.8334 150.815 88.7148C146.773 87.5765 142.825 86.4935 138.907 85.3718C138.39 85.2243 138.254 85.5124 138.093 85.8517C136.879 88.3507 135.655 90.842 134.468 93.3511C133.905 94.5451 133.406 95.7713 132.857 97.0516L147.452 101.129ZM149.217 101.631L163.654 105.696C163.982 101.263 164.295 96.9285 164.614 92.6065L152.309 89.1639C151.257 93.3894 150.239 97.4837 149.206 101.645L149.217 101.631ZM104.088 127.506L92.871 124.423C92.812 124.667 92.7564 124.827 92.7318 124.993C92.0653 129.749 91.8088 134.557 91.9654 139.361C91.982 139.887 92.2277 140.021 92.6493 140.136C95.7886 140.986 98.9299 141.853 102.096 142.709C102.22 142.74 102.348 142.756 102.475 142.758L104.088 127.506ZM98.2397 104.878L109.491 107.958L115.913 94.1344C112.639 93.2425 109.3 92.3185 105.957 91.4388C105.822 91.43 105.687 91.4536 105.562 91.5075C105.438 91.5614 105.328 91.6442 105.241 91.7492C104.697 92.5058 104.201 93.3009 103.717 94.121C101.614 97.5609 99.7838 101.164 98.2417 104.896L98.2397 104.878ZM172.584 146.78L166.122 160.705C166.19 160.728 166.371 160.795 166.573 160.847C169.548 161.711 172.534 162.548 175.496 163.445C175.599 163.498 175.712 163.529 175.828 163.535C175.943 163.542 176.059 163.523 176.167 163.482C176.275 163.44 176.373 163.375 176.454 163.293C176.536 163.21 176.6 163.111 176.641 163.002C178.488 159.618 180.364 156.252 182.188 152.857C182.679 151.948 183.032 150.962 183.487 149.922L172.584 146.78ZM188.698 130.369C189.405 125.384 189.584 120.336 189.234 115.31C189.209 115.097 188.841 114.805 188.584 114.721C187.024 114.231 185.436 113.792 183.88 113.337C182.324 112.882 180.694 112.422 179.225 112.005C178.764 117.095 178.307 122.118 177.844 127.235L188.698 130.369ZM116.825 148.644L104.006 145.089C103.874 149.544 104.128 154.004 104.764 158.417C104.792 158.664 105.208 158.96 105.492 159.046C107.82 159.721 110.157 160.355 112.495 161.002L115.713 161.896C116.092 157.453 116.456 153.099 116.822 148.622L116.825 148.644ZM151.14 158.302L145.105 170.147C145.105 170.147 145.164 170.211 145.218 170.222C148.57 171.189 151.924 172.164 155.289 173.089C155.454 173.098 155.619 173.068 155.77 173.002C155.922 172.936 156.056 172.835 156.163 172.708C157.519 170.962 158.871 169.216 160.135 167.419C161.399 165.622 162.479 163.815 163.712 161.907L151.14 158.302ZM136.906 84.8576C133.561 83.921 130.219 83.0148 126.893 82.0454C126.653 81.9361 126.382 81.9211 126.133 82.0032C125.883 82.0854 125.673 82.2588 125.544 82.4896C123.265 85.8267 120.97 89.1658 118.687 92.5034C118.595 92.6763 118.521 92.8586 118.466 93.0472L131.123 96.5552L136.906 84.8576ZM177.671 109.734C177.693 105.331 177.336 100.933 176.604 96.5906C176.521 96.0903 176.241 95.964 175.842 95.8514C173.564 95.1943 171.289 94.5428 169.017 93.897L165.961 93.0197C165.914 93.1219 165.878 93.2292 165.854 93.3396C165.631 97.4309 165.415 101.521 165.174 105.61C165.145 106.115 165.389 106.232 165.779 106.337C167.354 106.772 168.922 107.226 170.495 107.675L177.671 109.734ZM91.6982 122.069L96.0808 106.334C93.7423 105.722 91.215 105.017 88.6827 104.383C88.4994 104.338 88.0863 104.64 88.0071 104.86C87.1088 107.46 86.1662 110.051 85.425 112.693C84.7561 115.056 84.3206 117.483 83.7641 119.916L91.6982 122.069ZM103.331 158.471C103.093 154.024 102.843 149.626 102.631 145.228C102.603 144.678 102.298 144.589 101.907 144.48C99.3298 143.781 96.7519 143.078 94.1736 142.37L92.1911 141.832C92.1635 142.005 92.1486 142.18 92.1466 142.356C92.5045 146.84 93.3026 151.277 94.5292 155.604C94.568 155.731 94.6326 155.848 94.7189 155.948C94.8052 156.047 94.9112 156.128 95.03 156.184C97.8463 156.983 100.667 157.742 103.331 158.471ZM189.787 132.714L185.565 148.484L192.937 150.657C194.958 145.588 196.364 140.289 197.123 134.874L189.787 132.714ZM124.705 81.4602C121.972 80.7086 119.185 79.9326 116.385 79.2018C116.241 79.1957 116.097 79.2208 115.963 79.2755C115.829 79.3303 115.708 79.4133 115.609 79.5191C113.7 81.4953 111.771 83.4343 109.94 85.4764C108.744 86.8085 107.7 88.2816 106.521 89.7877C110.13 90.7731 113.558 91.712 116.803 92.6042L124.705 81.4602ZM156.908 173.559C159.703 174.365 162.428 175.166 165.165 175.921C165.308 175.937 165.452 175.921 165.588 175.874C165.724 175.827 165.848 175.751 165.952 175.651C167.459 174.16 169 172.697 170.4 171.108C172.044 169.25 173.557 167.275 175.164 165.289C175.016 165.198 174.862 165.119 174.702 165.052C171.645 164.166 168.586 163.294 165.536 162.385C165.032 162.236 164.855 162.441 164.611 162.816C163.381 164.714 162.171 166.642 160.852 168.48C159.64 170.201 158.274 171.825 156.908 173.559ZM177.777 96.3951C177.753 96.4917 177.74 96.5904 177.737 96.6898C178.511 100.95 178.937 105.266 179.011 109.594C179.024 110.164 179.364 110.218 179.751 110.327L188.288 112.781C188.54 112.853 188.794 112.912 189.13 112.997C188.675 108.331 187.748 103.724 186.364 99.247C186.321 99.1334 186.255 99.0301 186.171 98.9437C186.086 98.8572 185.984 98.7896 185.872 98.745C183.187 97.9485 180.514 97.1857 177.777 96.3951ZM83.6479 121.942C83.5951 122.203 83.5481 122.363 83.5278 122.528C83.0214 126.79 82.9307 131.093 83.257 135.376C83.4322 137.632 83.4022 137.636 85.5688 138.188L90.6881 139.555C90.9304 134.372 91.1772 129.227 91.4237 124.004L83.6479 121.942ZM104.202 90.9449C102.17 90.3989 99.9632 89.8334 97.7787 89.1995C97.5537 89.1011 97.3008 89.0905 97.069 89.1698C96.8372 89.249 96.643 89.4125 96.5239 89.6285C94.0852 92.9022 91.9456 96.3935 90.1315 100.06C89.7828 100.811 89.4361 101.581 89.019 102.42L96.8236 104.504L104.202 90.9449ZM177.513 164.019C179.56 164.625 181.736 165.295 183.928 165.884C184.078 165.881 184.224 165.842 184.356 165.77C184.487 165.699 184.6 165.596 184.685 165.472C186.123 163.334 187.602 161.218 188.909 158.999C190.12 156.935 191.131 154.749 192.284 152.517L184.85 150.324C182.35 154.961 179.942 159.451 177.492 164.021L177.513 164.019ZM129.402 167.246L117.244 163.84C117.198 164.105 117.168 164.373 117.153 164.641C117.193 167.546 117.269 170.452 117.278 173.352C117.276 174.354 117.649 174.844 118.626 174.956C119.125 175.051 119.615 175.184 120.093 175.356L126.66 177.186C127.547 173.876 128.445 170.626 129.38 167.249L129.402 167.246ZM190.548 115.248C190.389 120.444 190.229 125.543 190.067 130.753L197.403 132.917C197.507 131.586 197.704 130.342 197.685 129.105C197.621 125.354 197.484 121.607 197.343 117.86C197.332 117.72 197.289 117.583 197.216 117.463C197.143 117.342 197.044 117.24 196.925 117.165C194.762 116.49 192.578 115.86 190.548 115.248ZM127.764 177.521C130.701 178.35 133.545 179.164 136.396 179.928C136.545 179.939 136.694 179.914 136.832 179.856C136.969 179.797 137.091 179.707 137.188 179.592C138.39 177.942 139.569 176.278 140.705 174.584C141.447 173.466 142.121 172.29 142.871 171.062L130.862 167.669C129.82 170.988 128.81 174.202 127.764 177.521ZM153.78 77.6907C150.803 76.8571 147.942 76.0499 145.068 75.2749C144.942 75.2719 144.817 75.2976 144.703 75.3503C144.589 75.4029 144.488 75.4811 144.407 75.579C143.84 76.3207 143.274 77.0754 142.791 77.8646C141.54 79.8449 140.325 81.8429 139.023 83.952L151.177 87.3592L153.78 77.6907ZM164.492 91.1172C164.553 87.7107 164.337 84.3041 163.846 80.932C163.813 80.8197 163.756 80.7162 163.678 80.6292C163.6 80.5423 163.504 80.4739 163.397 80.4294C160.592 79.6114 157.777 78.8209 154.897 78.0026L152.65 87.7755L164.492 91.1172ZM116.135 174.261C116.021 170.788 115.896 167.378 115.828 163.966C115.815 163.467 115.55 163.361 115.178 163.258C112.029 162.396 108.88 161.529 105.733 160.658C105.535 160.606 105.329 160.586 105.067 160.536C105.687 164.325 106.694 168.04 108.071 171.621C108.128 171.743 108.208 171.853 108.307 171.942C108.406 172.032 108.522 172.101 108.648 172.144C111.154 172.891 113.675 173.579 116.135 174.261ZM144.306 171.482C142.162 174.518 140.082 177.459 137.991 180.427C140.449 181.127 142.908 181.848 145.379 182.515C145.536 182.536 145.695 182.524 145.847 182.48C145.999 182.436 146.14 182.361 146.263 182.261C147.958 180.858 149.663 179.463 151.289 177.981C152.47 176.906 153.523 175.7 154.72 174.46L144.306 171.482ZM143.53 74.8264C141.08 74.1438 138.621 73.4356 136.145 72.7954C135.959 72.7729 135.771 72.7899 135.593 72.8451C135.414 72.9003 135.249 72.9926 135.108 73.116C132.835 75.1338 130.595 77.2051 128.362 79.2711C127.942 79.6619 127.591 80.1284 127.125 80.6519L137.622 83.5626L143.53 74.8264ZM165.007 80.8609C165.292 84.3447 165.549 87.7042 165.869 91.0698C165.896 91.3041 166.296 91.6144 166.579 91.6963C169.516 92.5652 172.467 93.3974 175.418 94.2339C175.638 94.2967 175.862 94.3194 176.194 94.3738C175.466 90.5943 174.316 86.9094 172.767 83.3898C172.671 83.1929 172.506 83.0391 172.304 82.9591C169.859 82.2494 167.425 81.5605 165.007 80.8609ZM93.6583 155.818C93.5658 155.389 93.5293 155.107 93.4509 154.839C92.3564 151.004 91.5998 147.079 91.1899 143.111C91.0075 141.514 91.0322 141.503 89.492 141.107C87.5956 140.599 85.7001 140.099 83.818 139.602C83.7551 139.736 83.7043 139.786 83.7092 139.829C84.363 144.594 85.5618 149.267 87.2817 153.755C87.3288 153.869 87.3992 153.971 87.4882 154.056C87.5773 154.14 87.683 154.205 87.7984 154.245C89.6888 154.777 91.5924 155.271 93.6583 155.818ZM115.101 78.8387C113.047 78.2821 111.108 77.7432 109.157 77.254C108.886 77.252 108.626 77.3558 108.429 77.5437C107.37 78.3899 106.311 79.2362 105.291 80.1262C102.739 82.361 100.38 84.8111 98.2394 87.4502C98.3442 87.5305 98.4008 87.6076 98.4767 87.6253C100.678 88.2177 102.873 88.8285 105.086 89.367C105.323 89.4234 105.723 89.158 105.906 88.9349C108.14 86.3853 110.33 83.7967 112.578 81.2586C113.338 80.4158 114.203 79.6929 115.101 78.8387ZM183.195 167.611C182.742 167.448 182.522 167.35 182.288 167.276C180.51 166.74 178.719 166.242 176.952 165.687C176.329 165.482 176.025 165.679 175.633 166.163C173.791 168.418 171.931 170.661 170.003 172.841C168.941 174.044 167.732 175.109 166.519 176.316C166.831 176.426 167.085 176.52 167.346 176.595C168.804 177.031 170.271 177.435 171.715 177.903C171.92 177.987 172.144 178.008 172.36 177.964C172.576 177.92 172.774 177.812 172.93 177.654C174.556 176.211 176.265 174.856 177.813 173.338C179.64 171.525 181.336 169.595 183.195 167.611ZM187.207 99.1288C187.214 99.2992 187.233 99.4689 187.265 99.6365C188.619 103.927 189.56 108.338 190.074 112.81C190.116 112.958 190.192 113.094 190.295 113.207C190.399 113.32 190.527 113.408 190.67 113.463C191.868 113.871 193.093 114.206 194.307 114.559C195.184 114.819 196.06 115.071 197.004 115.345C196.264 110.521 194.962 105.801 193.125 101.284C193.032 101.053 192.855 100.867 192.631 100.764C190.88 100.195 189.096 99.6823 187.207 99.1288ZM95.1661 157.755C96.4106 161.625 98.0441 165.356 100.041 168.89C100.23 169.278 100.507 169.616 100.848 169.877C101.19 170.138 101.587 170.315 102.007 170.393C103.541 170.732 105.047 171.206 106.569 171.63C106.766 171.683 106.976 171.698 107.193 171.735C107.195 171.656 107.186 171.577 107.167 171.501C105.749 167.998 104.679 164.363 103.971 160.648C103.935 160.522 103.872 160.405 103.786 160.307C103.699 160.209 103.592 160.132 103.472 160.081C100.764 159.283 98.0323 158.536 95.1661 157.755ZM164.238 177.201C161.542 176.423 159.008 175.702 156.479 174.94C156.275 174.86 156.051 174.85 155.842 174.912C155.633 174.974 155.45 175.104 155.323 175.283C152.877 177.956 150.167 180.369 147.236 182.484C147.091 182.588 146.968 182.725 146.751 182.917C148.185 183.338 149.543 183.618 150.801 184.129C152.372 184.763 153.685 184.538 155.124 183.662C158.336 181.768 161.385 179.604 164.237 177.192L164.238 177.201ZM134.796 72.4001C132.813 71.8574 130.952 71.3183 129.07 70.8564C128.595 70.7476 128.099 70.7965 127.656 70.9959C124.519 72.5938 121.556 74.5188 118.816 76.7396C118.362 77.1036 117.918 77.4795 117.438 77.8773C117.522 77.9499 117.614 78.0131 117.711 78.0658C120.314 78.7838 122.913 79.511 125.528 80.1838C125.695 80.1845 125.86 80.1517 126.014 80.0874C126.168 80.023 126.307 79.9284 126.424 79.8089C128.482 77.9212 130.5 75.994 132.567 74.114C133.224 73.5115 133.98 73.0207 134.796 72.4001ZM185.557 97.1592C185.567 97.0217 185.59 96.9575 185.572 96.9113C184.155 92.8899 182.268 89.0533 179.951 85.4834C179.751 85.2183 179.471 85.0265 179.154 84.9371C177.541 84.44 175.916 83.9882 174.289 83.5191C174.069 83.4564 173.845 83.4336 173.504 83.3759C175.107 86.8491 176.353 90.4788 177.223 94.2079C177.275 94.3689 177.362 94.5164 177.476 94.64C177.591 94.7636 177.731 94.8603 177.887 94.9233C180.411 95.7119 182.955 96.4102 185.557 97.1592ZM83.1172 119.77C83.9697 114.38 85.4388 109.11 87.4948 104.066C86.7456 103.862 86.0762 103.67 85.4049 103.5C83.5477 103.031 83.5387 103.028 82.8287 104.841C81.0781 109.32 79.8455 113.991 79.1555 118.759L83.1172 119.77ZM82.842 121.736L78.9891 120.765C78.9461 120.844 78.9105 120.928 78.8829 121.014C78.3135 126.018 78.3569 131.075 79.0122 136.072C79.0336 136.187 79.0813 136.297 79.1517 136.391C79.222 136.485 79.313 136.562 79.4175 136.614C80.4642 136.912 81.5306 137.155 82.7375 137.448C82.1798 132.222 82.2149 126.95 82.842 121.736ZM88.2749 155.905C88.2616 156.001 88.2596 156.099 88.269 156.196C90.0833 160.459 92.3879 164.492 95.1348 168.211C95.2327 168.345 95.3403 168.526 95.4797 168.567C96.9399 168.985 98.4062 169.38 100.062 169.837C97.7456 166.107 95.8479 162.128 94.4044 157.974C94.3285 157.746 94.1663 157.558 93.9534 157.45C92.0888 156.916 90.1943 156.424 88.2749 155.905ZM88.2928 102.226C90.4421 97.4606 93.1381 92.9688 96.3254 88.8424C95.2688 88.5719 94.3146 88.3601 93.3829 88.0797C93.178 87.9955 92.9504 87.9872 92.7404 88.0563C92.5304 88.1253 92.3515 88.2672 92.2352 88.4569C89.2541 92.2024 86.706 96.2804 84.6404 100.612C84.5599 100.82 84.4898 101.032 84.4304 101.247L88.2928 102.226ZM196.971 151.924C197.498 150.449 198.103 149.091 198.462 147.666C199.357 144.091 200.154 140.488 200.951 136.885C200.974 136.727 200.958 136.565 200.906 136.413C200.854 136.261 200.767 136.124 200.651 136.014C199.741 135.652 198.804 135.403 197.799 135.091C197.023 140.497 195.613 145.789 193.598 150.854L196.971 151.924ZM153.693 184.915C155.044 185.323 156.226 185.707 157.422 186.014C157.817 186.12 158.235 186.103 158.62 185.965C160.138 185.362 161.624 184.68 163.072 183.923C165.7 182.467 168.268 180.903 170.863 179.385L170.769 179.127C168.97 178.603 167.218 178.06 165.431 177.561C165.313 177.544 165.192 177.551 165.077 177.583C164.961 177.615 164.854 177.671 164.761 177.748C161.356 180.558 157.643 182.963 153.693 184.915ZM110.423 75.8215L110.551 76.1453C112.398 76.6376 114.243 77.1477 116.099 77.6082C116.388 77.6175 116.672 77.5229 116.898 77.3411C119.626 75.4999 122.339 73.6428 125.08 71.8045C125.827 71.3103 126.668 70.9505 127.627 70.441C126.058 70.0224 124.684 69.6344 123.293 69.2921C123.045 69.272 122.796 69.3248 122.576 69.4444C121.333 69.9775 120.056 70.4399 118.852 71.0829C116.032 72.6138 113.236 74.2342 110.423 75.8215ZM180.506 85.3232C180.526 85.4337 180.556 85.5422 180.595 85.6471C182.933 89.1999 184.863 93.0098 186.347 97.0029C186.414 97.2151 186.559 97.3935 186.752 97.5018C188.509 98.0439 190.274 98.5499 192.109 99.0875C192.099 98.9666 192.076 98.8469 192.042 98.7304C190.132 94.5162 187.736 90.5437 184.906 86.8954C184.777 86.7114 184.597 86.5699 184.39 86.4884C183.14 86.0904 181.878 85.7292 180.506 85.3232ZM184.904 166.208C185.805 166.491 186.563 166.691 187.292 166.985C187.392 167.045 187.503 167.083 187.618 167.098C187.733 167.113 187.85 167.104 187.961 167.073C188.073 167.041 188.177 166.987 188.267 166.914C188.358 166.841 188.432 166.75 188.487 166.647C191.39 162.845 193.867 158.729 195.873 154.375C195.955 154.158 196.026 153.937 196.084 153.713L192.836 152.704C190.727 157.506 188.064 162.039 184.904 166.208ZM117.515 175.769C117.757 178.273 118.319 180.735 119.187 183.094C119.223 183.183 119.277 183.264 119.346 183.332C119.414 183.4 119.495 183.453 119.584 183.488C121.193 183.955 122.812 184.399 124.522 184.867C125.132 182.6 125.756 180.449 126.373 178.243L117.515 175.769ZM136.065 181.333L135.958 180.967L127.425 178.549L125.156 185.054C126.809 185.524 128.402 186.002 130 186.408C130.121 186.418 130.243 186.403 130.358 186.364C130.473 186.326 130.579 186.264 130.67 186.182C132.49 184.577 134.282 182.952 136.065 181.333ZM201.167 134.1C201.226 134.01 201.282 133.968 201.286 133.92C201.775 128.873 201.631 123.782 200.859 118.769C200.84 118.664 200.798 118.566 200.737 118.479C200.676 118.393 200.597 118.321 200.506 118.268C199.69 117.975 198.859 117.74 198.03 117.479C198.161 120.149 198.376 122.714 198.399 125.313C198.422 127.913 198.245 130.474 198.155 133.148L201.167 134.1ZM154.048 76.6931L155.715 70.4017L153.098 69.6677C150.519 68.9337 150.494 68.9058 148.564 70.7615C147.464 71.8233 146.467 72.9921 145.314 74.2315L154.048 76.6931ZM156.363 70.5914C155.938 72.7717 155.547 74.8647 155.122 76.9968L163.573 79.3764C163.219 76.9294 162.494 74.5511 161.424 72.3253C161.32 72.1303 161.148 71.9809 160.942 71.9057C159.443 71.4571 157.934 71.0274 156.363 70.5914ZM79.4523 138.478C79.44 138.606 79.4358 138.734 79.4396 138.862C80.286 143.655 81.678 148.334 83.5878 152.805C83.6679 153.011 83.8222 153.179 84.0195 153.275C84.9177 153.528 85.8094 153.725 86.7041 153.948C86.7278 153.814 86.7557 153.753 86.7421 153.711C85.0081 149.224 83.7711 144.558 83.0538 139.799C83.0284 139.683 82.9768 139.575 82.9029 139.482C82.829 139.39 82.7349 139.316 82.6281 139.267C81.6091 138.984 80.5714 138.764 79.4523 138.478ZM108.882 173.357C108.899 173.503 108.927 173.646 108.966 173.787C110.213 176.601 111.841 179.225 113.803 181.586C113.913 181.753 114.065 181.887 114.243 181.975C115.655 182.39 117.078 182.781 118.393 183.15C117.785 180.683 117.197 178.267 116.573 175.854C116.532 175.742 116.467 175.641 116.382 175.557C116.297 175.473 116.195 175.409 116.083 175.37C113.73 174.702 111.37 174.058 108.88 173.371L108.882 173.357ZM131.176 186.735C132.272 187.05 133.481 187.43 134.706 187.734C135.106 187.833 135.524 187.826 135.921 187.714C138.578 186.88 141.114 185.695 143.463 184.189C143.807 183.974 144.137 183.739 144.617 183.416C142.079 182.69 139.733 182.013 137.381 181.363C137.278 181.351 137.173 181.362 137.074 181.395C136.975 181.427 136.884 181.481 136.807 181.552C134.915 183.284 133.04 185.024 131.173 186.749L131.176 186.735ZM108.299 77.0091C107.319 76.765 106.48 76.5356 105.617 76.3616C105.376 76.3098 105.125 76.351 104.913 76.4772C103.618 77.4295 102.317 78.3693 101.079 79.3943C99.7285 80.5111 98.3952 81.6612 97.132 82.8911C96.014 83.9858 95.0096 85.1994 93.8833 86.4489C94.9132 86.7137 95.8445 86.915 96.7514 87.207C96.9696 87.296 97.2118 87.3039 97.4349 87.2293C97.6579 87.1548 97.8474 87.0025 97.9696 86.7997C100.638 83.6036 103.628 80.6974 106.892 78.128L108.299 77.0091ZM136.805 71.8804C139.345 72.5837 141.699 73.2511 144.065 73.8774C144.193 73.8815 144.319 73.8587 144.437 73.8104C144.555 73.7621 144.662 73.6894 144.75 73.597C145.745 72.6395 146.697 71.6164 147.703 70.6796C148.399 70.0375 149.18 69.4955 150.029 68.8271C148.588 68.4203 147.272 68.0476 145.949 67.6889C145.785 67.6519 145.615 67.6592 145.456 67.71C142.372 68.6317 139.453 70.0391 136.805 71.8804ZM172.01 81.7884C170.546 78.7788 168.637 76.0117 166.348 73.5826C166.259 73.4725 166.145 73.3859 166.015 73.3305C164.667 72.9395 163.32 72.5615 162.174 72.2266C162.938 74.5436 163.697 76.8876 164.479 79.207C164.516 79.3198 164.574 79.4243 164.651 79.5144C164.727 79.6044 164.821 79.6783 164.926 79.7317C167.209 80.4292 169.503 81.0725 172.01 81.7884ZM186.952 168.734C185.925 168.412 185.152 168.188 184.393 167.901C184.193 167.801 183.963 167.783 183.75 167.85C183.537 167.918 183.359 168.066 183.253 168.264C180.336 171.812 177.036 175.02 173.415 177.827C173.265 177.963 173.124 178.107 172.99 178.258C173.621 178.459 174.206 178.594 174.746 178.827C174.98 178.948 175.246 178.992 175.506 178.951C175.766 178.91 176.007 178.787 176.193 178.6C177.815 177.241 179.538 175.998 181.095 174.568C183.059 172.735 184.903 170.801 186.952 168.734ZM156.118 186.968L156.099 186.794C155.617 186.673 155.142 186.524 154.678 186.345C153.925 185.962 153.088 185.78 152.247 185.818C151.406 185.855 150.589 186.111 149.874 186.56C149.55 186.732 149.206 186.861 148.849 186.945L140.288 189.343C142.203 190.513 144.413 189.54 146.591 189.586L142.872 190.01C144.224 190.889 156.049 188.945 158.327 187.546C157.297 186.903 156.284 187.05 155.208 187.441C153.922 187.904 152.589 188.223 151.277 188.606L151.262 188.472L156.118 186.968ZM125.117 68.4773L125.116 68.6971C126.412 69.0458 127.7 69.4085 129.001 69.7215C129.211 69.7722 129.479 69.6097 129.713 69.5258C131.196 69.0004 132.65 68.3772 134.162 67.9539C136.365 67.3418 138.61 66.8657 140.991 66.2947C139.545 65.9589 138.193 65.3485 136.864 65.3904C131.944 65.5776 127.072 66.4209 122.374 67.8983C123.691 68.6269 124.953 68.4168 126.255 67.9428C127.236 67.5847 128.267 67.3702 129.274 67.0925L129.288 67.214L125.117 68.4773ZM151.266 185.351C149.545 184.853 147.828 184.323 146.091 183.876C145.672 183.809 145.243 183.878 144.866 184.073C142.576 185.143 140.315 186.272 138.03 187.346C137.415 187.636 136.749 187.809 135.909 188.103C137.79 188.63 139.402 189.391 141.205 188.816C141.662 188.672 142.137 188.6 142.607 188.493C145.618 187.836 148.53 186.779 151.266 185.351ZM200.458 116.437C200.366 115.858 200.317 115.433 200.226 115.021C199.35 110.871 198.062 106.82 196.381 102.929C195.829 101.674 195.055 101.177 193.576 101.201C195.43 105.704 196.775 110.403 197.584 115.209C197.613 115.309 197.664 115.402 197.733 115.48C197.802 115.558 197.887 115.62 197.983 115.66C198.742 115.916 199.524 116.135 200.456 116.419L200.458 116.437ZM130.021 69.8642C130.083 69.9538 130.11 70.03 130.15 70.0386C131.946 70.5498 133.778 71.0614 135.598 71.548C135.811 71.6068 136.039 71.5809 136.233 71.4755C138.966 69.7329 141.937 68.4044 145.053 67.5319C143.037 66.6984 141.094 66.3182 139.056 66.929C138.732 67.0275 138.396 67.0835 138.065 67.1608C135.3 67.7838 132.604 68.6896 130.021 69.8642ZM84.6304 155.047C84.7552 155.34 84.8267 155.547 84.9224 155.739C86.9107 159.823 89.3401 163.673 92.1661 167.219C92.4877 167.595 92.8967 167.885 93.3562 168.063C93.8157 168.241 94.3114 168.3 94.7987 168.236C92.3816 164.996 90.1313 161.618 88.6177 157.879C87.833 155.956 86.644 155.173 84.6289 155.034L84.6304 155.047ZM107.003 74.9506L107.076 75.2456C107.694 75.4036 108.32 75.521 108.917 75.7297C109.19 75.8248 109.482 75.8512 109.767 75.8063C110.052 75.7615 110.322 75.647 110.553 75.4726C113.157 73.9224 115.782 72.4006 118.45 70.953C119.711 70.2684 121.075 69.774 122.585 69.1049C121.469 68.8456 120.624 68.4059 119.583 68.85C117.446 69.771 115.194 70.4502 113.102 71.4585C111.009 72.4667 109.024 73.7747 107.003 74.9506ZM158.795 186.394C159.247 186.666 159.759 186.818 160.284 186.835C160.809 186.852 161.33 186.733 161.796 186.49C164.471 185.174 167.206 183.974 169.874 182.632C171.238 181.944 172.506 181.061 174.006 180.151C173.315 179.922 172.831 179.793 172.374 179.603C172.086 179.467 171.766 179.417 171.451 179.459C171.136 179.502 170.84 179.634 170.598 179.841C169.368 180.74 168.083 181.558 166.749 182.29C164.15 183.694 161.462 185.012 158.807 186.379L158.795 186.394ZM151.534 68.4574L151.557 68.6613L155.853 69.8585L156.426 67.6832C152.605 66.3044 141.679 64.8536 140.005 65.5723L144.05 66.4025L144.104 66.2249L143.416 66.5189L147.337 67.3237L147.173 67.4523C148.257 67.7681 149.272 68.0917 150.314 68.3111C150.66 68.3684 151.015 68.3369 151.346 68.2195C152.186 67.9653 152.977 67.6596 153.792 67.3775L153.805 67.4903L151.534 68.4574ZM164.046 71.4588L164.023 71.6416C165.155 72.1497 166.266 72.7042 167.432 73.1423C168.599 73.5804 169.822 73.8231 171.025 74.1517C166.56 71.176 161.668 69.2822 156.629 67.7084L156.461 70.0396L160.604 71.1927L160.689 71.0247L159.703 69.6209C159.755 69.5447 159.812 69.4722 159.865 69.4003C160.871 71.6281 162.872 71.949 165.048 72.3905L164.046 71.4588ZM194.995 99.8919C192.804 95.4385 190.075 91.2765 186.87 87.5017C186.513 87.0766 185.836 86.9342 185.305 86.6608L185.198 86.8664C187.899 90.2294 190.185 93.9124 192.005 97.8335C192.621 99.2313 193.553 99.7093 194.995 99.8919Z" fill="url(#paint0_radial_200_7270)"/>
</g>
<defs>
<filter id="filter0_d_200_7270" x="0.218384" y="0.14502" width="231.451" height="233.434" filterUnits="userSpaceOnUse" color-interpolation-filters="sRGB">
<feFlood flood-opacity="0" result="BackgroundImageFix"/>
<feColorMatrix in="SourceAlpha" type="matrix" values="0 0 0 0 0 0 0 0 0 0 0 0 0 0 0 0 0 0 127 0" result="hardAlpha"/>
<feOffset dx="-24" dy="-11"/>
<feGaussianBlur stdDeviation="26.75"/>
<feComposite in2="hardAlpha" operator="out"/>
<feColorMatrix type="matrix" values="0 0 0 0 0.580653 0 0 0 0 0.488985 0 0 0 0 0.735343 0 0 0 0.26 0"/>
<feBlend mode="normal" in2="BackgroundImageFix" result="effect1_dropShadow_200_7270"/>
<feBlend mode="normal" in="SourceGraphic" in2="effect1_dropShadow_200_7270" result="shape"/>
</filter>
<radialGradient id="paint0_radial_200_7270" cx="0" cy="0" r="1" gradientUnits="userSpaceOnUse" gradientTransform="translate(127.257 108.482) rotate(-6.51649) scale(82.6415 83.5815)">
<stop stop-color="#D5CDDB"/>
<stop offset="0.54" stop-color="#A205C5" stop-opacity="0.15"/>
<stop offset="1" stop-color="#9D03BF" stop-opacity="0"/>
</radialGradient>
</defs>
</svg>
