<?xml version="1.0" encoding="utf-8" ?>
<svg xmlns="http://www.w3.org/2000/svg" xmlns:xlink="http://www.w3.org/1999/xlink" width="78.6667" height="40.5537" viewBox="0 0 78.6667 40.5537">
	<defs>
		<linearGradient id="linearGradient5003871142" gradientTransform="matrix(2.38649e-16 35 -3.89744 2.14313e-15 39.9487 -4.33389e-14)" gradientUnits="userSpaceOnUse" x1="0" y1="0.5" x2="1" y2="0.5">
			<stop offset="0.22499999" stop-color="rgb(255, 255, 255)"/>
			<stop offset="1" stop-color="rgb(255, 255, 255)" stop-opacity="0.69999999"/>
		</linearGradient>
	</defs>
	<path d="M2.66667 0Q2.66667 0.115253 2.65672 0.230077Q2.64678 0.3449 2.62697 0.458438Q2.60715 0.571975 2.57762 0.68338Q2.54808 0.794784 2.50904 0.903225Q2.47001 1.01167 2.42176 1.11633Q2.37351 1.221 2.31641 1.32112Q2.25931 1.42123 2.19379 1.51605Q2.12826 1.61086 2.0548 1.69967Q1.98134 1.78848 1.9005 1.87062Q1.81965 1.95276 1.73201 2.02762Q1.64438 2.10248 1.55062 2.16949Q1.45685 2.23651 1.35765 2.29519Q1.25845 2.35387 1.15456 2.40377Q1.05067 2.45367 0.942863 2.49442Q0.835055 2.53517 0.724132 2.56647Q0.613209 2.59776 0.5 2.61937L0.5 3.0384L-0.5 3.0384L-0.5 2.61937Q-0.613209 2.59776 -0.724132 2.56647Q-0.835055 2.53517 -0.942863 2.49442Q-1.05067 2.45367 -1.15456 2.40377Q-1.25845 2.35387 -1.35765 2.29519Q-1.45685 2.23651 -1.55062 2.16949Q-1.64438 2.10248 -1.73201 2.02762Q-1.81965 1.95276 -1.9005 1.87062Q-1.98134 1.78848 -2.0548 1.69967Q-2.12826 1.61086 -2.19379 1.51605Q-2.25931 1.42123 -2.31641 1.32112Q-2.37351 1.221 -2.42176 1.11633Q-2.47001 1.01167 -2.50904 0.903225Q-2.54808 0.794784 -2.57762 0.68338Q-2.60715 0.571975 -2.62697 0.458438Q-2.64678 0.3449 -2.65672 0.230077Q-2.66667 0.115253 -2.66667 0Q-2.66667 -0.131005 -2.65383 -0.261379Q-2.64099 -0.391753 -2.61543 -0.520241Q-2.58987 -0.648728 -2.55184 -0.774092Q-2.51381 -0.899456 -2.46368 -1.02049Q-2.41355 -1.14152 -2.35179 -1.25706Q-2.29003 -1.37259 -2.21725 -1.48152Q-2.14447 -1.59045 -2.06136 -1.69172Q-1.97825 -1.79298 -1.88562 -1.88562Q-1.79298 -1.97825 -1.69172 -2.06136Q-1.59045 -2.14447 -1.48152 -2.21725Q-1.37259 -2.29003 -1.25706 -2.35179Q-1.14152 -2.41355 -1.02049 -2.46368Q-0.899456 -2.51381 -0.774092 -2.55184Q-0.648728 -2.58987 -0.520241 -2.61543Q-0.391753 -2.64099 -0.261379 -2.65383Q-0.131005 -2.66667 0 -2.66667Q0.131005 -2.66667 0.261379 -2.65383Q0.391753 -2.64099 0.520241 -2.61543Q0.648728 -2.58987 0.774092 -2.55184Q0.899456 -2.51381 1.02049 -2.46368Q1.14152 -2.41355 1.25706 -2.35179Q1.37259 -2.29003 1.48152 -2.21725Q1.59045 -2.14447 1.69172 -2.06136Q1.79298 -1.97825 1.88562 -1.88562Q1.97825 -1.79298 2.06136 -1.69172Q2.14447 -1.59045 2.21725 -1.48152Q2.29003 -1.37259 2.35179 -1.25706Q2.41355 -1.14152 2.46368 -1.02049Q2.51381 -0.899456 2.55184 -0.774092Q2.58987 -0.648728 2.61543 -0.520241Q2.64099 -0.391753 2.65383 -0.261379Q2.66667 -0.131005 2.66667 0ZM-0.5 4.24004L-0.5 5.44647L0.5 5.44647L0.5 4.24004L-0.5 4.24004ZM-0.5 6.60444L-0.5 7.83094L0.5 7.83094L0.5 6.60444L-0.5 6.60444ZM-0.5 9.11441L-0.5 10.2751L0.5 10.2751L0.5 9.11441L-0.5 9.11441ZM-0.5 11.4629L-0.5 12.67L0.5 12.67L0.5 11.4629L-0.5 11.4629ZM-0.5 13.8887L-0.5 15.1113L0.5 15.1113L0.5 13.8887L-0.5 13.8887ZM-0.5 16.33L-0.5 17.5371L0.5 17.5371L0.5 16.33L-0.5 16.33ZM-0.5 18.7249L-0.5 19.8856L0.5 19.8856L0.5 18.7249L-0.5 18.7249ZM-0.5 21.1691L-0.5 22.3956L0.5 22.3956L0.5 21.1691L-0.5 21.1691ZM-0.5 23.5535L-0.5 24.76L0.5 24.76L0.5 23.5535L-0.5 23.5535ZM-0.5 25.9616L-0.5 27.1799L0.5 27.1799L0.5 25.9616L-0.5 25.9616ZM0.5 29Q0.5 29.2547 0.523002 29.5068L-0.472861 29.5976Q-0.5 29.3002 -0.5 29L-0.5 28.416L0.5 28.416L0.5 29ZM-0.230731 30.857C-0.110259 31.2618 0.0485532 31.65 0.241508 32.0176L1.1269 31.5527C0.963802 31.2421 0.829549 30.9139 0.727718 30.5717L-0.230731 30.857ZM71 32.1133L76 35L71 37.8867L71 35.5L70.531 35.5L70.531 34.5L71 34.5L71 32.1133ZM0.98894 33.1402C1.25111 33.4572 1.5428 33.7489 1.85978 34.0111L2.49712 33.2405C2.22864 33.0184 1.98158 32.7714 1.75953 32.5029L0.98894 33.1402ZM2.98245 34.7585C3.34997 34.9514 3.73823 35.1103 4.143 35.2307L4.42826 34.2723C4.08612 34.1705 3.75795 34.0362 3.44729 33.8731L2.98245 34.7585ZM6 34.5Q5.74536 34.5 5.49326 34.477L5.40238 35.4729Q5.69979 35.5 6 35.5L6.5974 35.5L6.5974 34.5L6 34.5ZM9.03713 34.5L7.83982 34.5L7.83982 35.5L9.03713 35.5L9.03713 34.5ZM11.469 34.5L10.2207 34.5L10.2207 35.5L11.469 35.5L11.469 34.5ZM13.883 34.5L12.6306 34.5L12.6306 35.5L13.883 35.5L13.883 34.5ZM16.244 34.5L15.0957 34.5L15.0957 35.5L16.244 35.5L16.244 34.5ZM18.69 34.5L17.4431 34.5L17.4431 35.5L18.69 35.5L18.69 34.5ZM21.0153 34.5L19.836 34.5L19.836 35.5L21.0153 35.5L21.0153 34.5ZM23.4653 34.5L22.2258 34.5L22.2258 35.5L23.4653 35.5L23.4653 34.5ZM25.8605 34.5L24.7319 34.5L24.7319 35.5L25.8605 35.5L25.8605 34.5ZM28.3366 34.5L27.1719 34.5L27.1719 35.5L28.3366 35.5L28.3366 34.5ZM30.7085 34.5L29.516 34.5L29.516 35.5L30.7085 35.5L30.7085 34.5ZM33.1274 34.5L31.9128 34.5L31.9128 35.5L33.1274 35.5L33.1274 34.5ZM35.5823 34.5L34.3511 34.5L34.3511 35.5L35.5823 35.5L35.5823 34.5ZM38.0617 34.5L36.8196 34.5L36.8196 35.5L38.0617 35.5L38.0617 34.5ZM40.3761 34.5L39.129 34.5L39.129 35.5L40.3761 35.5L40.3761 34.5ZM42.871 34.5L41.6239 34.5L41.6239 35.5L42.871 35.5L42.871 34.5ZM45.1804 34.5L43.9384 34.5L43.9384 35.5L45.1804 35.5L45.1804 34.5ZM47.6489 34.5L46.4177 34.5L46.4177 35.5L47.6489 35.5L47.6489 34.5ZM50.0872 34.5L48.8726 34.5L48.8726 35.5L50.0872 35.5L50.0872 34.5ZM52.484 34.5L51.2915 34.5L51.2915 35.5L52.484 35.5L52.484 34.5ZM54.8281 34.5L53.6634 34.5L53.6634 35.5L54.8281 35.5L54.8281 34.5ZM57.2681 34.5L56.1395 34.5L56.1395 35.5L57.2681 35.5L57.2681 34.5ZM59.7742 34.5L58.5347 34.5L58.5347 35.5L59.7742 35.5L59.7742 34.5ZM62.164 34.5L60.9847 34.5L60.9847 35.5L62.164 35.5L62.164 34.5ZM64.5569 34.5L63.31 34.5L63.31 35.5L64.5569 35.5L64.5569 34.5ZM66.9043 34.5L65.756 34.5L65.756 35.5L66.9043 35.5L66.9043 34.5ZM69.3694 34.5L68.117 34.5L68.117 35.5L69.3694 35.5L69.3694 34.5Z" fill-rule="evenodd" transform="matrix(1 0 0 1 2.66675 2.66699)" fill="url(#linearGradient5003871142)" opacity="0.6"/>
</svg>
