<?xml version="1.0" encoding="utf-8" ?>
<svg xmlns="http://www.w3.org/2000/svg" xmlns:xlink="http://www.w3.org/1999/xlink" width="190" height="58" viewBox="0 0 190 58">
	<defs>
		<clipPath id="clipPath3400886030">
			<path transform="matrix(1 0 0 1 0 24)" d="M0 0L190 0L190 34L0 34L0 0Z" fill-rule="nonzero"/>
		</clipPath>
	</defs>
	<g clip-path="url(#clipPath3400886030)">
		<defs>
			<filter id="filter5761367715" filterUnits="userSpaceOnUse" color-interpolation-filters="sRGB">
				<feGaussianBlur in="SourceGraphic" stdDeviation="2"/>
			</filter>
		</defs>
		<g filter="url(#filter5761367715)">
			<defs>
				<linearGradient id="linearGradient4872274034" gradientTransform="matrix(9.94803e-15 34 -162.464 2.0819e-15 176.232 7.8858e-23)" gradientUnits="userSpaceOnUse" x1="0" y1="0.5" x2="1" y2="0.5">
					<stop offset="0" stop-color="rgb(241, 61, 212)" stop-opacity="0"/>
					<stop offset="1" stop-color="rgb(112, 0, 255)"/>
				</linearGradient>
			</defs>
			<path transform="matrix(1 0 0 1 -0.5 24)" d="M0 0L190 0L179 34L11 34L0 0Z" fill-rule="nonzero" fill="url(#linearGradient4872274034)" fill-opacity="0.25"/>
		</g>
		<defs>
			<filter id="filter9644707461" filterUnits="userSpaceOnUse" color-interpolation-filters="sRGB">
				<feGaussianBlur in="SourceGraphic" stdDeviation="13.65"/>
			</filter>
		</defs>
		<g filter="url(#filter9644707461)">
			<defs>
				<linearGradient id="linearGradient8755097618" gradientTransform="matrix(189 2.5149e-07 -1.84884e-06 7.36434 9.2442e-07 -1.20155)" gradientUnits="userSpaceOnUse" x1="0" y1="0.5" x2="1" y2="0.5">
					<stop offset="0" stop-color="rgb(1, 200, 158)"/>
					<stop offset="1" stop-color="rgb(0, 122, 223)"/>
				</linearGradient>
			</defs>
			<path transform="matrix(1 0 0 1 0.5 53)" d="M0 0L189 0L189 5L0 5L0 0Z" fill-rule="nonzero" fill="url(#linearGradient8755097618)"/>
		</g>
		<defs>
			<linearGradient id="linearGradient2561536425" gradientTransform="matrix(184.207 4 -45.1829 16.3077 28.3841 -8.15385)" gradientUnits="userSpaceOnUse" x1="0" y1="0.5" x2="1" y2="0.5">
				<stop offset="0" stop-color="rgb(112, 0, 255)"/>
				<stop offset="0.4608815" stop-color="rgb(241, 61, 212)"/>
				<stop offset="1" stop-color="rgb(248, 58, 58)"/>
			</linearGradient>
		</defs>
		<path transform="matrix(1 0 0 1 0 54)" d="M2 0C0.89543 0 0 0.89543 0 2L0 2.003C0 3.10757 0.895431 4 2 4L188 4C189.105 4 190 3.10757 190 2.003L190 2C190 0.89543 189.105 0 188 0L2 0Z" fill-rule="nonzero" fill="url(#linearGradient2561536425)"/>
	</g>
</svg>
