<svg width="389" height="483" viewBox="0 0 389 483" fill="none" xmlns="http://www.w3.org/2000/svg">
<g clip-path="url(#clip0_200_7206)">
<g filter="url(#filter0_f_200_7206)">
<path d="M-20.6247 48.0503C-99.7973 28.2572 -173.197 31.556 -200 35.6796L-4 494L618.528 327.938C536.916 222.958 371.836 13 364.414 13C355.135 13 358.744 26.4016 364.414 40.3186C326.477 19.7008 308.745 6.8146 292.767 18.6699C282.87 29.3912 289.674 49.7685 293.797 57.3284C268.025 42.2087 206.996 13.8248 169.059 21.2472C131.123 28.6696 123.013 71.0736 123.7 91.3478C108.58 85.1625 58.5478 67.8434 -20.6247 48.0503Z" fill="url(#paint0_linear_200_7206)"/>
</g>
</g>
<defs>
<filter id="filter0_f_200_7206" x="-210" y="3" width="838.528" height="501" filterUnits="userSpaceOnUse" color-interpolation-filters="sRGB">
<feFlood flood-opacity="0" result="BackgroundImageFix"/>
<feBlend mode="normal" in="SourceGraphic" in2="BackgroundImageFix" result="shape"/>
<feGaussianBlur stdDeviation="5" result="effect1_foregroundBlur_200_7206"/>
</filter>
<linearGradient id="paint0_linear_200_7206" x1="124" y1="-41" x2="361" y2="279" gradientUnits="userSpaceOnUse">
<stop stop-color="#7000FF" stop-opacity="0.56"/>
<stop offset="1" stop-color="#F13DD4" stop-opacity="0"/>
</linearGradient>
<clipPath id="clip0_200_7206">
<rect width="389" height="483" fill="white"/>
</clipPath>
</defs>
</svg>
