<?xml version="1.0" encoding="utf-8" ?>
<svg xmlns="http://www.w3.org/2000/svg" xmlns:xlink="http://www.w3.org/1999/xlink" width="48" height="48" viewBox="0 0 48 48">
	<defs>
		<filter id="filter9122111333" filterUnits="userSpaceOnUse" color-interpolation-filters="sRGB">
			<feComponentTransfer in="SourceAlpha" result="componentTransfer2589191011">
				<feFuncR type="linear" slope="0" intercept="0"/>
				<feFuncG type="linear" slope="0" intercept="0"/>
				<feFuncB type="linear" slope="0" intercept="0"/>
				<feFuncA type="linear" slope="10000" intercept="0"/>
			</feComponentTransfer>
			<feComponentTransfer in="componentTransfer2589191011" result="componentTransfer6393406733">
				<feFuncA type="linear" slope="0.25" intercept="0"/>
			</feComponentTransfer>
			<feOffset dx="0" dy="4" in="componentTransfer6393406733" result="offset2914395531"/>
			<feGaussianBlur stdDeviation="2" in="offset2914395531" result="gaussianBlur3399936257"/>
			<feMerge>
				<feMergeNode in="gaussianBlur3399936257"/>
				<feMergeNode in="SourceGraphic"/>
			</feMerge>
		</filter>
	</defs>
	<g filter="url(#filter9122111333)">
		<defs>
			<linearGradient id="linearGradient6685332869" gradientTransform="matrix(28.5 44 -38.5357 148.801 23.7679 -78.4006)" gradientUnits="userSpaceOnUse" x1="0" y1="0.5" x2="1" y2="0.5">
				<stop offset="0" stop-color="rgb(112, 0, 255)"/>
				<stop offset="0.57526344" stop-color="rgb(241, 61, 212)"/>
				<stop offset="1" stop-color="rgb(248, 58, 58)"/>
			</linearGradient>
		</defs>
		<path transform="matrix(1 0 0 1 4 0)" d="M4 0C1.79086 0 0 1.79086 0 4L0 36C0 38.2091 1.79086 40 4 40L36 40C38.2091 40 40 38.2091 40 36L40 4C40 1.79086 38.2091 0 36 0L4 0Z" fill-rule="nonzero" fill="url(#linearGradient6685332869)"/>
		<path transform="matrix(1 0 0 1 16 14)" d="M13.7 5.53C13 5.84 12.25 6 11.49 6C8.46 6 6 3.53 6 0.5C6 0.33 6.01 0.16 6.03 0L0 0L0 14L14 14L14 5.83L13.7 5.53ZM1.5 12L4.25 8.47L6.21 10.83L8.96 7.29L12.5 12L1.5 12Z" fill-rule="nonzero" fill="rgb(255, 255, 255)" opacity="0.4"/>
		<path transform="matrix(1 0 0 1 14 10)" d="M8.21 14.83L6.25 12.47L3.5 16L14.5 16L10.96 11.29L8.21 14.83ZM18 4.5C18 2.01 15.99 0 13.5 0C11.01 0 9 2.01 9 4.5C9 6.99 11.01 9 13.49 9C14.37 9 15.19 8.74 15.88 8.3L19 11.42L20.42 10L17.3 6.89C17.74 6.19 18 5.38 18 4.5ZM13.5 7C12.12 7 11 5.88 11 4.5C11 3.12 12.12 2 13.5 2C14.88 2 16 3.12 16 4.5C16 5.88 14.88 7 13.5 7ZM16 18L2 18L2 4L8.03 4C8.09 3.28 8.3 2.61 8.61 2L2 2C0.9 2 0 2.9 0 4L0 18C0 19.1 0.9 20 2 20L16 20C17.1 20 18 19.1 18 18L18 11.83L16 9.83L16 18Z" fill-rule="nonzero" fill="rgb(255, 255, 255)"/>
	</g>
</svg>
