<?xml version="1.0" encoding="utf-8" ?>
<svg xmlns="http://www.w3.org/2000/svg" xmlns:xlink="http://www.w3.org/1999/xlink" width="217.0581" height="95.8965" viewBox="0 0 217.0581 95.8965">
	<defs>
		<filter id="filter6490377389" filterUnits="userSpaceOnUse" color-interpolation-filters="sRGB">
			<feComponentTransfer in="SourceAlpha" result="componentTransfer7790913957">
				<feFuncR type="linear" slope="0" intercept="0.10999998"/>
				<feFuncG type="linear" slope="0" intercept="0.14137037"/>
				<feFuncB type="linear" slope="0" intercept="0.41249999"/>
				<feFuncA type="linear" slope="10000" intercept="0"/>
			</feComponentTransfer>
			<feComponentTransfer in="componentTransfer7790913957" result="componentTransfer0997536769">
				<feFuncA type="linear" slope="0.050000001" intercept="0"/>
			</feComponentTransfer>
			<feOffset dx="0" dy="8.2048254" in="componentTransfer0997536769" result="offset6293591379"/>
			<feGaussianBlur stdDeviation="13.674703" in="offset6293591379" result="gaussianBlur3737478906"/>
			<feMerge>
				<feMergeNode in="gaussianBlur3737478906"/>
				<feMergeNode in="SourceGraphic"/>
			</feMerge>
		</filter>
	</defs>
	<g filter="url(#filter6490377389)">
		<rect width="161.64821" height="40.486267" rx="6.515132" ry="6.515132" transform="matrix(1 0 0 1 27.7051 19.5)" fill="rgb(48, 41, 61)"/>
		<defs>
			<linearGradient id="linearGradient2517675583" gradientTransform="matrix(0 40.4863 -161.648 0 161.648 0)" gradientUnits="userSpaceOnUse" x1="0" y1="0.5" x2="1" y2="0.5">
				<stop offset="0" stop-color="rgb(40, 29, 59)"/>
				<stop offset="1" stop-color="rgb(37, 27, 53)" stop-opacity="0.5"/>
			</linearGradient>
		</defs>
		<rect width="161.64821" height="40.486267" rx="6.515132" ry="6.515132" stroke-width="0.71062744" transform="matrix(1 0 0 1 27.7051 19.5)" stroke="url(#linearGradient2517675583)" fill="transparent"/>
		<defs>
			<linearGradient id="linearGradient9515538620" gradientTransform="matrix(1.75409e-15 40.4863 -28.6465 2.47907e-15 95.1474 -1.27289e-14)" gradientUnits="userSpaceOnUse" x1="0" y1="0.5" x2="1" y2="0.5">
				<stop offset="0" stop-color="rgb(169, 163, 194)" stop-opacity="0.2"/>
				<stop offset="1" stop-color="rgb(169, 163, 194)" stop-opacity="0.046999998"/>
			</linearGradient>
		</defs>
		<rect width="161.64821" height="40.486267" rx="6.515132" ry="6.515132" stroke-width="0.71062744" transform="matrix(1 0 0 1 27.7051 19.5)" stroke="url(#linearGradient9515538620)" fill="transparent"/>
	</g>
	<defs>
		<clipPath id="clipPath9708631741">
			<path d="M0 0L22.0294 0L22.0294 22.0294L0 22.0294L0 0Z" fill-rule="nonzero" transform="matrix(1 0 0 1 38.733 28.7284)"/>
		</clipPath>
	</defs>
	<g clip-path="url(#clipPath9708631741)">
		<path d="M0 0.917894L0 15.6042L2.29473 6.42526L16.2926 6.42526L16.2926 3.67157C16.2926 3.16462 15.8817 2.75368 15.3747 2.75368L9.17894 2.75368L6.8842 0L0.917894 0C0.410955 0 0 0.410955 0 0.917894Z" fill-rule="nonzero" transform="matrix(1 0 0 1 40.5688 31.9411)" fill="rgb(62, 51, 69)"/>
		<path d="M0.355314 0.917894L0.355314 15.6042L0 15.6042L-0.344705 15.518L1.95003 6.33908Q1.96444 6.28142 1.99683 6.2316Q2.02923 6.18177 2.07607 6.1452Q2.12291 6.10862 2.17911 6.08928Q2.2353 6.06994 2.29473 6.06994L16.2926 6.06994L16.2926 6.42526L15.9373 6.42526L15.9373 3.67157Q15.9373 3.43854 15.7725 3.27376Q15.6078 3.10899 15.3747 3.10899L9.17894 3.10899Q9.09985 3.10899 9.02823 3.07545Q8.95661 3.0419 8.90598 2.98115L6.61124 0.227466L6.8842 0L6.8842 0.355314L0.917894 0.355314Q0.684865 0.355314 0.52009 0.52009Q0.355314 0.684865 0.355314 0.917894L0.355314 0.917894ZM-0.355314 0.917894Q-0.355314 0.390514 0.0176 0.0176Q0.390514 -0.355314 0.917894 -0.355314L6.8842 -0.355314Q6.96329 -0.355314 7.03491 -0.321768Q7.10653 -0.288223 7.15716 -0.227466L9.4519 2.52621L9.17894 2.75368L9.17894 2.39837L15.3747 2.39837Q15.9021 2.39837 16.275 2.77128Q16.6479 3.14419 16.6479 3.67157L16.6479 6.42526Q16.6479 6.46025 16.6411 6.49457Q16.6343 6.5289 16.6209 6.56123Q16.6075 6.59356 16.588 6.62266Q16.5686 6.65175 16.5439 6.6765Q16.5191 6.70124 16.49 6.72069Q16.4609 6.74013 16.4286 6.75352Q16.3963 6.76691 16.3619 6.77374Q16.3276 6.78057 16.2926 6.78057L2.29473 6.78057L2.29473 6.42526L2.63944 6.51143L0.344705 15.6904Q0.330291 15.748 0.297899 15.7979Q0.265508 15.8477 0.218664 15.8843Q0.171821 15.9208 0.115626 15.9402Q0.0594303 15.9595 0 15.9595Q-0.0349953 15.9595 -0.0693183 15.9527Q-0.103641 15.9458 -0.135973 15.9325Q-0.168304 15.9191 -0.197402 15.8996Q-0.226499 15.8802 -0.251245 15.8554Q-0.27599 15.8307 -0.295433 15.8016Q-0.314875 15.7725 -0.328267 15.7402Q-0.341659 15.7078 -0.348486 15.6735Q-0.355314 15.6392 -0.355314 15.6042L-0.355314 0.917894L-0.355314 0.917894Z" fill-rule="nonzero" transform="matrix(1 0 0 1 40.5688 31.9411)" fill="rgb(255, 255, 255)" fill-opacity="0.35"/>
		<defs>
			<radialGradient id="radialGradient5773508859" gradientTransform="matrix(1.88647e-05 17.59 -40.6035 7.28746e-06 29.4807 -8.79499)" gradientUnits="userSpaceOnUse" cx="0.5" cy="0.5" r="0.5">
				<stop offset="0" stop-color="rgb(117, 73, 255)"/>
				<stop offset="1" stop-color="rgb(178, 160, 255)"/>
			</radialGradient>
		</defs>
		<path d="M16.5221 9.17894L18.3579 0L2.20868 0L0 9.17894L16.5221 9.17894Z" fill-rule="nonzero" transform="matrix(1 0 0 1 40.5688 38.3663)" fill="url(#radialGradient5773508859)"/>
		<path d="M16.1737 9.10925L18.0095 -0.0696827L18.3579 0L18.3579 0.355314L2.20868 0.355314L2.20868 0L2.55413 0.0831247L0.345454 9.26206L0 9.17894L0 8.82362L16.5221 8.82362L16.5221 9.17894L16.1737 9.10925ZM16.8705 9.24862Q16.8584 9.30903 16.8267 9.36184Q16.795 9.41466 16.7473 9.45371Q16.6997 9.49277 16.6417 9.51351Q16.5837 9.53425 16.5221 9.53425L0 9.53425Q-0.0421472 9.53425 -0.0831247 9.52439Q-0.117149 9.5162 -0.148922 9.50153Q-0.180695 9.48687 -0.208997 9.46628Q-0.237298 9.4457 -0.261039 9.41999Q-0.284781 9.39428 -0.303051 9.36443Q-0.32132 9.33458 -0.333416 9.30174Q-0.345511 9.2689 -0.350968 9.23434Q-0.356424 9.19977 -0.355033 9.1648Q-0.353641 9.12984 -0.345454 9.09581L1.86323 -0.0831247Q1.87723 -0.141298 1.9095 -0.191679Q1.94178 -0.24206 1.98878 -0.279091Q2.03578 -0.316121 2.09231 -0.335718Q2.14885 -0.355314 2.20868 -0.355314L18.3579 -0.355314Q18.3931 -0.355314 18.4276 -0.348414Q18.4619 -0.341551 18.4942 -0.328125Q18.5265 -0.314699 18.5556 -0.295226Q18.5847 -0.275753 18.6094 -0.250982Q18.6341 -0.22621 18.6535 -0.197093Q18.6729 -0.167975 18.6863 -0.135629Q18.6996 -0.103284 18.7064 -0.0689537Q18.7132 -0.0346237 18.7132 0.000371657Q18.7131 0.035367 18.7063 0.0696827L16.8705 9.24862Z" fill-rule="nonzero" transform="matrix(1 0 0 1 40.5688 38.3663)" fill="rgb(255, 255, 255)" fill-opacity="0.35"/>
	</g>
	<path d="M2.4872 0C1.11356 0 0 1.11356 0 2.4872L0 2.49093C0 3.86457 1.11356 4.97439 2.4872 4.97439L95.9347 4.97439C97.3083 4.97439 98.4219 3.86457 98.4219 2.49093L98.4219 2.4872C98.4219 1.11356 97.3083 0 95.9347 0L2.4872 0Z" fill-rule="nonzero" transform="matrix(1 0 0 1 74.975 31.0491)" fill="rgb(94, 88, 107)"/>
	<path d="M2.4872 0C1.11356 0 0 1.11356 0 2.4872L0 2.49093C0 3.86457 1.11356 4.97439 2.4872 4.97439L57.2055 4.97439C58.5791 4.97439 59.6927 3.86457 59.6927 2.49093L59.6927 2.4872C59.6927 1.11356 58.5791 0 57.2055 0L2.4872 0Z" fill-rule="nonzero" transform="matrix(1 0 0 1 74.975 42.5857)" fill="rgb(80, 74, 91)"/>
</svg>
