<svg width="32" height="32" viewBox="0 0 32 32" fill="none" xmlns="http://www.w3.org/2000/svg">
<rect width="32" height="32" rx="7" fill="white" fill-opacity="0.4"/>
<path d="M19.5681 12.6375C19.8028 12.6375 20.0343 12.6546 20.2636 12.6796C19.639 9.8012 16.5286 7.66211 12.9786 7.66211C9.00936 7.66211 5.75781 10.3394 5.75781 13.7388C5.75781 15.7008 6.83981 17.3121 8.64723 18.5619L7.92515 20.7119L10.4491 19.459C11.3528 19.6356 12.0771 19.8178 12.9786 19.8178C13.2051 19.8178 13.4293 19.8068 13.6525 19.7891C13.5113 19.3117 13.4293 18.8112 13.4293 18.2923C13.4293 15.1708 16.1382 12.6375 19.5681 12.6375ZM15.6864 10.6999C16.2301 10.6999 16.59 11.0543 16.59 11.592C16.59 12.1275 16.2301 12.4863 15.6864 12.4863C15.1448 12.4863 14.6021 12.1275 14.6021 11.592C14.6021 11.0543 15.1448 10.6999 15.6864 10.6999ZM10.6329 12.4863C10.0914 12.4863 9.54537 12.1275 9.54537 11.592C9.54537 11.0543 10.0914 10.6999 10.6329 10.6999C11.1739 10.6999 11.5344 11.0543 11.5344 11.592C11.5344 12.1275 11.1739 12.4863 10.6329 12.4863ZM26.1587 18.2064C26.1587 15.3497 23.2698 13.0212 20.0255 13.0212C16.59 13.0212 13.8845 15.3497 13.8845 18.2064C13.8845 21.0673 16.59 23.3908 20.0255 23.3908C20.7442 23.3908 21.4696 23.2125 22.1917 23.0331L24.1725 24.1062L23.6292 22.321C25.0789 21.2445 26.1587 19.8178 26.1587 18.2064ZM18.0342 17.3121C17.6749 17.3121 17.3121 16.9583 17.3121 16.5973C17.3121 16.2412 17.6749 15.8829 18.0342 15.8829C18.5802 15.8829 18.9379 16.2412 18.9379 16.5973C18.9379 16.9583 18.5802 17.3121 18.0342 17.3121ZM22.0056 17.3121C21.6491 17.3121 21.2886 16.9583 21.2886 16.5973C21.2886 16.2412 21.6491 15.8829 22.0056 15.8829C22.5472 15.8829 22.9093 16.2412 22.9093 16.5973C22.9093 16.9583 22.5472 17.3121 22.0056 17.3121Z" fill="white"/>
</svg>
