<svg width="75" height="72" viewBox="0 0 75 72" fill="none" xmlns="http://www.w3.org/2000/svg">
<path d="M14.0482 11.1782V37H9.36141V16.6432L3.15356 18.6948V14.91L13.5177 11.1782H14.0482ZM39.0395 21.9137V26.2468C39.0395 28.2277 38.8391 29.9196 38.4382 31.3227C38.0373 32.7258 37.4595 33.8754 36.7049 34.7715C35.9503 35.6559 35.0483 36.3102 33.9989 36.7347C32.9496 37.1474 31.7823 37.3537 30.4971 37.3537C29.4713 37.3537 28.5162 37.224 27.6319 36.9646C26.7476 36.6934 25.9517 36.2808 25.2443 35.7266C24.5486 35.1606 23.9473 34.4414 23.4403 33.5689C22.9451 32.6964 22.5619 31.6529 22.2907 30.4384C22.0313 29.224 21.9016 27.8268 21.9016 26.2468V21.9137C21.9016 19.9328 22.1021 18.2468 22.5029 16.8555C22.9156 15.4641 23.4993 14.3263 24.2539 13.442C25.0085 12.5577 25.9105 11.9151 26.9599 11.5142C28.0092 11.1016 29.1765 10.8952 30.4617 10.8952C31.4993 10.8952 32.4544 11.0249 33.3269 11.2843C34.2112 11.5437 35.0012 11.9505 35.6968 12.5047C36.4043 13.047 37.0056 13.7545 37.5008 14.627C37.996 15.4877 38.3733 16.5253 38.6327 17.7398C38.9039 18.9424 39.0395 20.3337 39.0395 21.9137ZM34.3704 26.8835V21.2593C34.3704 20.2689 34.3114 19.4082 34.1935 18.6771C34.0874 17.9343 33.9282 17.3035 33.716 16.7847C33.5037 16.2659 33.2384 15.8473 32.9201 15.529C32.6017 15.1988 32.2362 14.9571 31.8235 14.8039C31.4109 14.6506 30.9569 14.5739 30.4617 14.5739C29.8486 14.5739 29.3003 14.6977 28.8169 14.9453C28.3335 15.1812 27.9267 15.5585 27.5966 16.0773C27.2664 16.5961 27.0129 17.2858 26.8361 18.1465C26.671 18.9955 26.5884 20.0331 26.5884 21.2593V26.8835C26.5884 27.8739 26.6415 28.7406 26.7476 29.4834C26.8655 30.2262 27.0306 30.8629 27.2428 31.3935C27.4669 31.9241 27.7321 32.3603 28.0387 32.7023C28.3571 33.0324 28.7226 33.28 29.1353 33.4451C29.5479 33.5984 30.0019 33.675 30.4971 33.675C31.122 33.675 31.6703 33.5512 32.1419 33.3036C32.6253 33.056 33.0321 32.6669 33.3622 32.1363C33.6924 31.5939 33.94 30.8924 34.1051 30.0316C34.2819 29.1591 34.3704 28.1098 34.3704 26.8835ZM59.0079 21.9137V26.2468C59.0079 28.2277 58.8075 29.9196 58.4066 31.3227C58.0057 32.7258 57.4279 33.8754 56.6733 34.7715C55.9187 35.6559 55.0167 36.3102 53.9673 36.7347C52.918 37.1474 51.7507 37.3537 50.4655 37.3537C49.4397 37.3537 48.4846 37.224 47.6003 36.9646C46.716 36.6934 45.9201 36.2808 45.2127 35.7266C44.517 35.1606 43.9157 34.4414 43.4087 33.5689C42.9135 32.6964 42.5303 31.6529 42.2591 30.4384C41.9997 29.224 41.87 27.8268 41.87 26.2468V21.9137C41.87 19.9328 42.0704 18.2468 42.4713 16.8555C42.884 15.4641 43.4677 14.3263 44.2223 13.442C44.9769 12.5577 45.8789 11.9151 46.9282 11.5142C47.9776 11.1016 49.1449 10.8952 50.4301 10.8952C51.4677 10.8952 52.4227 11.0249 53.2953 11.2843C54.1796 11.5437 54.9696 11.9505 55.6652 12.5047C56.3727 13.047 56.974 13.7545 57.4692 14.627C57.9644 15.4877 58.3417 16.5253 58.6011 17.7398C58.8723 18.9424 59.0079 20.3337 59.0079 21.9137ZM54.3387 26.8835V21.2593C54.3387 20.2689 54.2798 19.4082 54.1619 18.6771C54.0558 17.9343 53.8966 17.3035 53.6844 16.7847C53.4721 16.2659 53.2068 15.8473 52.8885 15.529C52.5701 15.1988 52.2046 14.9571 51.7919 14.8039C51.3793 14.6506 50.9253 14.5739 50.4301 14.5739C49.817 14.5739 49.2687 14.6977 48.7853 14.9453C48.3019 15.1812 47.8951 15.5585 47.5649 16.0773C47.2348 16.5961 46.9813 17.2858 46.8044 18.1465C46.6394 18.9955 46.5568 20.0331 46.5568 21.2593V26.8835C46.5568 27.8739 46.6099 28.7406 46.716 29.4834C46.8339 30.2262 46.999 30.8629 47.2112 31.3935C47.4352 31.9241 47.7005 32.3603 48.0071 32.7023C48.3255 33.0324 48.691 33.28 49.1036 33.4451C49.5163 33.5984 49.9703 33.675 50.4655 33.675C51.0904 33.675 51.6387 33.5512 52.1103 33.3036C52.5937 33.056 53.0005 32.6669 53.3306 32.1363C53.6608 31.5939 53.9084 30.8924 54.0735 30.0316C54.2503 29.1591 54.3387 28.1098 54.3387 26.8835ZM61.0268 26.2676V25.5156C61.0268 24.9753 61.144 24.4837 61.3784 24.041C61.6127 23.5983 61.9545 23.2435 62.4038 22.9766C62.8595 22.7096 63.4129 22.5762 64.0639 22.5762C64.728 22.5762 65.2846 22.7096 65.7338 22.9766C66.1896 23.2435 66.5314 23.5983 66.7592 24.041C66.9936 24.4837 67.1108 24.9753 67.1108 25.5156V26.2676C67.1108 26.7949 66.9936 27.2799 66.7592 27.7227C66.5314 28.1654 66.1928 28.5202 65.7436 28.7871C65.2944 29.054 64.741 29.1875 64.0835 29.1875C63.4259 29.1875 62.8693 29.054 62.4135 28.7871C61.9578 28.5202 61.6127 28.1654 61.3784 27.7227C61.144 27.2799 61.0268 26.7949 61.0268 26.2676ZM62.7749 25.5156V26.2676C62.7749 26.515 62.8204 26.7493 62.9116 26.9707C63.0092 27.1855 63.1557 27.3613 63.351 27.498C63.5463 27.6348 63.7905 27.7031 64.0835 27.7031C64.3764 27.7031 64.614 27.6348 64.7963 27.498C64.9851 27.3613 65.1251 27.1855 65.2163 26.9707C65.3139 26.7493 65.3627 26.515 65.3627 26.2676V25.5156C65.3627 25.2617 65.3139 25.0241 65.2163 24.8027C65.1251 24.5814 64.9819 24.4023 64.7866 24.2656C64.5978 24.1289 64.3569 24.0605 64.0639 24.0605C63.7775 24.0605 63.5366 24.1289 63.3413 24.2656C63.1525 24.4023 63.0092 24.5814 62.9116 24.8027C62.8204 25.0241 62.7749 25.2617 62.7749 25.5156ZM67.853 34.2656V33.5137C67.853 32.9798 67.9702 32.4915 68.2045 32.0488C68.4454 31.6061 68.7937 31.2513 69.2495 30.9844C69.7052 30.7174 70.2553 30.584 70.8999 30.584C71.5704 30.584 72.1303 30.7174 72.5795 30.9844C73.0288 31.2513 73.3673 31.6061 73.5952 32.0488C73.8295 32.4915 73.9467 32.9798 73.9467 33.5137V34.2656C73.9467 34.7995 73.8295 35.2878 73.5952 35.7305C73.3673 36.1732 73.0288 36.528 72.5795 36.7949C72.1368 37.0618 71.5835 37.1953 70.9194 37.1953C70.2683 37.1953 69.7117 37.0618 69.2495 36.7949C68.7937 36.528 68.4454 36.1732 68.2045 35.7305C67.9702 35.2878 67.853 34.7995 67.853 34.2656ZM69.6108 33.5137V34.2656C69.6108 34.5195 69.6629 34.7572 69.767 34.9785C69.8712 35.1934 70.021 35.3691 70.2163 35.5059C70.4181 35.6426 70.6525 35.7109 70.9194 35.7109C71.2449 35.7109 71.5021 35.6426 71.6909 35.5059C71.8797 35.3691 72.0131 35.1934 72.0913 34.9785C72.1694 34.7572 72.2085 34.5195 72.2085 34.2656V33.5137C72.2085 33.2598 72.1596 33.0254 72.062 32.8105C71.9643 32.5892 71.8178 32.4102 71.6225 32.2734C71.4337 32.1367 71.1928 32.0684 70.8999 32.0684C70.6134 32.0684 70.3725 32.1367 70.1772 32.2734C69.9884 32.4102 69.8452 32.5892 69.7475 32.8105C69.6564 33.0254 69.6108 33.2598 69.6108 33.5137ZM71.5444 24.8125L64.601 35.9258L63.3217 35.2129L70.2651 24.0996L71.5444 24.8125Z" fill="url(#paint0_linear_200_6647)"/>
<g filter="url(#filter0_d_200_6647)">
<circle cx="42" cy="63" r="5" fill="#F13DD4"/>
</g>
<defs>
<filter id="filter0_d_200_6647" x="33" y="54" width="18" height="18" filterUnits="userSpaceOnUse" color-interpolation-filters="sRGB">
<feFlood flood-opacity="0" result="BackgroundImageFix"/>
<feColorMatrix in="SourceAlpha" type="matrix" values="0 0 0 0 0 0 0 0 0 0 0 0 0 0 0 0 0 0 127 0" result="hardAlpha"/>
<feOffset/>
<feGaussianBlur stdDeviation="2"/>
<feComposite in2="hardAlpha" operator="out"/>
<feColorMatrix type="matrix" values="0 0 0 0 0.945098 0 0 0 0 0.239216 0 0 0 0 0.831373 0 0 0 1 0"/>
<feBlend mode="normal" in2="BackgroundImageFix" result="effect1_dropShadow_200_6647"/>
<feBlend mode="normal" in="SourceGraphic" in2="effect1_dropShadow_200_6647" result="shape"/>
</filter>
<linearGradient id="paint0_linear_200_6647" x1="2.28659" y1="-7.83069e-07" x2="78.7651" y2="6.82799" gradientUnits="userSpaceOnUse">
<stop stop-color="#7000FF"/>
<stop offset="0.460882" stop-color="#F13DD4"/>
<stop offset="1" stop-color="#F83A3A"/>
</linearGradient>
</defs>
</svg>
