<svg width="389" height="333" viewBox="0 0 389 333" fill="none" xmlns="http://www.w3.org/2000/svg">
<circle cx="243.5" cy="98.5" r="67.5" transform="rotate(180 243.5 98.5)" fill="url(#paint0_radial_260_5735)" fill-opacity="0.4"/>
<circle cx="243.5" cy="98.5" r="67.275" transform="rotate(180 243.5 98.5)" stroke="white" stroke-opacity="0.08" stroke-width="0.45"/>
<circle cx="243.498" cy="98.5003" r="53.3571" transform="rotate(180 243.498 98.5003)" fill="url(#paint1_radial_260_5735)" fill-opacity="0.6"/>
<circle cx="243.498" cy="98.5003" r="53.1321" transform="rotate(180 243.498 98.5003)" stroke="white" stroke-opacity="0.1" stroke-width="0.45"/>
<circle cx="243.499" cy="98.4999" r="32.7857" transform="rotate(180 243.499 98.4999)" fill="url(#paint2_radial_260_5735)" fill-opacity="0.91"/>
<circle cx="243.499" cy="98.4999" r="32.5607" transform="rotate(180 243.499 98.4999)" stroke="white" stroke-opacity="0.2" stroke-width="0.45"/>
<path opacity="0.17" d="M157.25 50C150.388 56.3964 144.946 63.99 141.232 72.3473C137.519 80.7045 135.607 89.6618 135.607 98.7076C135.607 107.753 137.519 116.711 141.232 125.068C144.946 133.425 150.388 141.019 157.25 147.415L209.5 98.7077L157.25 50Z" fill="#6B38AC"/>
<path opacity="0.17" d="M181.871 73.4615C178.279 76.8104 175.429 80.7861 173.485 85.1616C171.541 89.5371 170.54 94.2268 170.54 98.9629C170.54 103.699 171.541 108.389 173.485 112.764C175.429 117.14 178.279 121.115 181.871 124.464L209.227 98.9629L181.871 73.4615Z" fill="#6B38AC"/>
<path opacity="0.17" d="M169.833 62.2407C164.66 67.0631 160.556 72.7881 157.756 79.0889C154.957 85.3896 153.516 92.1427 153.516 98.9626C153.516 105.783 154.957 112.536 157.756 118.836C160.556 125.137 164.66 130.862 169.833 135.685L209.225 98.9626L169.833 62.2407Z" fill="#6B38AC"/>
<defs>
<radialGradient id="paint0_radial_260_5735" cx="0" cy="0" r="1" gradientUnits="userSpaceOnUse" gradientTransform="translate(243.5 98.5) rotate(90) scale(67.5)">
<stop stop-color="#7000FF"/>
<stop offset="1" stop-color="#7000FF" stop-opacity="0"/>
</radialGradient>
<radialGradient id="paint1_radial_260_5735" cx="0" cy="0" r="1" gradientUnits="userSpaceOnUse" gradientTransform="translate(243.498 98.5003) rotate(90) scale(53.3571)">
<stop stop-color="#7000FF"/>
<stop offset="1" stop-color="#7000FF" stop-opacity="0"/>
</radialGradient>
<radialGradient id="paint2_radial_260_5735" cx="0" cy="0" r="1" gradientUnits="userSpaceOnUse" gradientTransform="translate(243.499 98.4999) rotate(90) scale(32.7857)">
<stop stop-color="#7000FF"/>
<stop offset="1" stop-color="#7000FF" stop-opacity="0"/>
</radialGradient>
</defs>
</svg>
