<svg width="389" height="535" viewBox="0 0 389 535" fill="none" xmlns="http://www.w3.org/2000/svg">
<g clip-path="url(#clip0_200_7292)">
<rect x="-51" y="22" width="491" height="491" rx="245.5" fill="url(#paint0_linear_200_7292)"/>
<rect x="-5" y="68" width="399" height="399" rx="199.433" fill="url(#paint1_linear_200_7292)"/>
<g filter="url(#filter0_b_200_7292)">
<rect x="250" y="222" width="65" height="65" rx="32.5" fill="white" fill-opacity="0.04"/>
<rect x="250.35" y="222.35" width="64.2993" height="64.2993" rx="32.1496" stroke="white" stroke-opacity="0.1" stroke-width="0.700709"/>
<path d="M274.833 256.667H269.667C269.206 256.667 268.814 256.504 268.488 256.179C268.163 255.853 268 255.46 268 255C268 254.54 268.163 254.147 268.488 253.821C268.814 253.496 269.206 253.333 269.667 253.333H274.833C275.168 251.697 275.926 250.288 277.107 249.107C278.288 247.926 279.697 247.168 281.333 246.833V241.667C281.333 241.206 281.496 240.814 281.821 240.488C282.147 240.163 282.54 240 283 240C283.46 240 283.853 240.163 284.179 240.488C284.504 240.814 284.667 241.206 284.667 241.667V246.833C286.303 247.168 287.712 247.926 288.893 249.107C290.074 250.288 290.832 251.697 291.167 253.333H296.333C296.794 253.333 297.186 253.496 297.512 253.821C297.837 254.147 298 254.54 298 255C298 255.46 297.837 255.853 297.512 256.179C297.186 256.504 296.794 256.667 296.333 256.667H291.167C290.832 258.303 290.074 259.712 288.893 260.893C287.712 262.074 286.303 262.832 284.667 263.167V268.333C284.667 268.794 284.504 269.186 284.179 269.512C283.853 269.837 283.46 270 283 270C282.54 270 282.147 269.837 281.821 269.512C281.496 269.186 281.333 268.794 281.333 268.333V263.167C279.697 262.832 278.288 262.074 277.107 260.893C275.926 259.712 275.168 258.303 274.833 256.667ZM283 250C281.619 250 280.441 250.488 279.464 251.464C278.488 252.441 278 253.619 278 255C278 256.381 278.488 257.559 279.464 258.536C280.441 259.512 281.619 260 283 260C284.381 260 285.559 259.512 286.536 258.536C287.512 257.559 288 256.381 288 255C288 253.619 287.512 252.441 286.536 251.464C285.559 250.488 284.381 250 283 250ZM293 246.667C292.661 246.669 292.351 246.576 292.069 246.389C291.787 246.202 291.581 245.952 291.451 245.639C291.321 245.326 291.29 245.004 291.356 244.672C291.423 244.34 291.576 244.055 291.817 243.817L293.483 242.15C293.799 241.781 294.2 241.587 294.685 241.569C295.17 241.55 295.584 241.712 295.928 242.056C296.271 242.399 296.433 242.813 296.415 243.298C296.396 243.784 296.202 244.184 295.833 244.5L294.167 246.167C294.013 246.324 293.835 246.445 293.633 246.532C293.431 246.619 293.22 246.664 293 246.667ZM271.333 268.333C270.995 268.335 270.684 268.243 270.402 268.056C270.12 267.868 269.914 267.618 269.784 267.306C269.655 266.993 269.623 266.671 269.69 266.339C269.756 266.007 269.91 265.722 270.15 265.483L271.817 263.817C272.133 263.448 272.533 263.254 273.018 263.235C273.503 263.217 273.918 263.379 274.261 263.722C274.604 264.066 274.767 264.48 274.748 264.965C274.729 265.45 274.535 265.851 274.167 266.167L272.5 267.833C272.346 267.99 272.168 268.112 271.966 268.199C271.764 268.285 271.553 268.33 271.333 268.333ZM294.667 268.333C294.445 268.335 294.232 268.293 294.027 268.21C293.822 268.126 293.641 268.006 293.483 267.85L291.817 266.183C291.534 265.853 291.4 265.47 291.417 265.035C291.434 264.6 291.596 264.229 291.904 263.921C292.212 263.613 292.583 263.451 293.018 263.434C293.453 263.417 293.836 263.55 294.167 263.833L295.833 265.5C296.067 265.738 296.215 266.021 296.279 266.348C296.343 266.675 296.311 266.993 296.184 267.301C296.057 267.61 295.856 267.858 295.58 268.045C295.305 268.233 295 268.329 294.667 268.333ZM273 246.667C272.778 246.668 272.565 246.627 272.36 246.543C272.155 246.459 271.974 246.339 271.817 246.183L270.15 244.517C269.867 244.186 269.734 243.803 269.75 243.368C269.767 242.933 269.93 242.562 270.237 242.254C270.545 241.946 270.917 241.784 271.352 241.767C271.787 241.75 272.169 241.884 272.5 242.167L274.167 243.833C274.4 244.071 274.549 244.354 274.612 244.681C274.676 245.009 274.645 245.326 274.518 245.635C274.391 245.943 274.189 246.191 273.914 246.378C273.638 246.566 273.333 246.662 273 246.667Z" fill="url(#paint2_linear_200_7292)"/>
</g>
<g filter="url(#filter1_d_200_7292)">
<rect x="135" y="208" width="119" height="119" rx="59.2908" fill="white" fill-opacity="0.01" shape-rendering="crispEdges"/>
<g filter="url(#filter2_b_200_7292)">
<rect x="124.504" y="276.503" width="65" height="65" rx="32.5" fill="white" fill-opacity="0.04"/>
<rect x="124.854" y="276.853" width="64.2993" height="64.2993" rx="32.1496" stroke="white" stroke-opacity="0.1" stroke-width="0.700709"/>
</g>
<path d="M155.104 319.35V303.791C155.104 303.41 155.241 303.084 155.514 302.815C155.787 302.545 156.117 302.41 156.504 302.41C156.89 302.41 157.22 302.545 157.494 302.815C157.767 303.084 157.904 303.41 157.904 303.791V319.35C158.658 319.779 159.11 320.416 159.261 321.262C159.412 322.107 159.208 322.859 158.649 323.516C158.089 324.174 157.374 324.503 156.504 324.503C155.633 324.503 154.918 324.174 154.359 323.516C153.799 322.859 153.595 322.107 153.746 321.262C153.898 320.416 154.35 319.779 155.104 319.35ZM162.104 314.837C161.717 314.837 161.387 314.703 161.114 314.433C160.841 314.163 160.704 313.838 160.704 313.457C160.704 313.075 160.841 312.75 161.114 312.48C161.387 312.211 161.717 312.076 162.104 312.076V310.695C161.717 310.695 161.387 310.56 161.114 310.291C160.841 310.021 160.704 309.696 160.704 309.314C160.704 308.933 160.841 308.608 161.114 308.338C161.387 308.068 161.717 307.934 162.104 307.934V306.553C161.717 306.553 161.387 306.418 161.114 306.148C160.841 305.879 160.704 305.553 160.704 305.172C160.704 304.791 160.841 304.465 161.114 304.196C161.387 303.926 161.717 303.791 162.104 303.791V303.405C162.044 301.913 161.454 300.665 160.336 299.659C159.218 298.654 157.903 298.19 156.392 298.268C154.904 298.201 153.62 298.674 152.54 299.685C151.46 300.696 150.914 301.936 150.904 303.405V303.791C151.29 303.791 151.62 303.926 151.894 304.196C152.167 304.465 152.304 304.791 152.304 305.172C152.304 305.553 152.167 305.879 151.894 306.148C151.62 306.418 151.29 306.553 150.904 306.553V307.934C151.29 307.934 151.62 308.068 151.894 308.338C152.167 308.608 152.304 308.933 152.304 309.314C152.304 309.696 152.167 310.021 151.894 310.291C151.62 310.56 151.29 310.695 150.904 310.695V312.076C151.29 312.076 151.62 312.211 151.894 312.48C152.167 312.75 152.304 313.075 152.304 313.457C152.304 313.838 152.167 314.163 151.894 314.433C151.62 314.703 151.29 314.837 150.904 314.837V318.98C150.904 320.124 150.494 321.1 149.674 321.909C148.854 322.718 147.864 323.122 146.704 323.122C145.544 323.122 144.554 322.718 143.734 321.909C142.914 321.1 142.504 320.124 142.504 318.98V317.599C142.504 317.218 142.641 316.892 142.914 316.623C143.187 316.353 143.517 316.218 143.904 316.218C144.29 316.218 144.62 316.353 144.894 316.623C145.167 316.892 145.304 317.218 145.304 317.599V318.98C145.304 319.361 145.441 319.686 145.714 319.956C145.987 320.226 146.317 320.361 146.704 320.361C147.09 320.361 147.42 320.226 147.694 319.956C147.967 319.686 148.104 319.361 148.104 318.98V303.405C148.099 301.181 148.904 299.293 150.519 297.741C152.134 296.189 154.068 295.444 156.322 295.507H156.504C158.771 295.449 160.725 296.191 162.367 297.735C164.009 299.278 164.854 301.168 164.904 303.405V318.98C164.904 319.361 165.041 319.686 165.314 319.956C165.587 320.226 165.917 320.361 166.304 320.361C166.69 320.361 167.02 320.226 167.294 319.956C167.567 319.686 167.704 319.361 167.704 318.98V317.599C167.704 317.218 167.84 316.892 168.114 316.623C168.387 316.353 168.717 316.218 169.104 316.218C169.49 316.218 169.82 316.353 170.094 316.623C170.367 316.892 170.504 317.218 170.504 317.599V318.98C170.504 320.124 170.094 321.1 169.274 321.909C168.454 322.718 167.464 323.122 166.304 323.122C165.144 323.122 164.154 322.718 163.334 321.909C162.514 321.1 162.104 320.124 162.104 318.98V314.837ZM169.104 313.457C168.717 313.457 168.387 313.322 168.114 313.052C167.84 312.783 167.704 312.457 167.704 312.076V303.791C167.704 303.41 167.84 303.084 168.114 302.815C168.387 302.545 168.717 302.41 169.104 302.41C169.49 302.41 169.82 302.545 170.094 302.815C170.367 303.084 170.504 303.41 170.504 303.791V312.076C170.504 312.457 170.367 312.783 170.094 313.052C169.82 313.322 169.49 313.457 169.104 313.457ZM143.904 313.457C143.517 313.457 143.187 313.322 142.914 313.052C142.641 312.783 142.504 312.457 142.504 312.076V303.791C142.504 303.41 142.641 303.084 142.914 302.815C143.187 302.545 143.517 302.41 143.904 302.41C144.29 302.41 144.62 302.545 144.894 302.815C145.167 303.084 145.304 303.41 145.304 303.791V312.076C145.304 312.457 145.167 312.783 144.894 313.052C144.62 313.322 144.29 313.457 143.904 313.457Z" fill="url(#paint3_linear_200_7292)"/>
<g filter="url(#filter3_b_200_7292)">
<rect x="102.504" y="159.503" width="65" height="65" rx="32.5" fill="white" fill-opacity="0.04"/>
<rect x="102.854" y="159.853" width="64.2993" height="64.2993" rx="32.1496" stroke="white" stroke-opacity="0.1" stroke-width="0.700709"/>
<path d="M129.537 198.997V198.724C129.529 198.65 129.525 198.576 129.525 198.502C129.525 198.427 129.529 198.353 129.537 198.279V180.603C127.239 183.848 124.743 187.696 123.154 191.355L129.539 198.994L129.537 198.997ZM129.537 205.228L121.709 195.859C121.647 196.186 121.601 196.514 121.569 196.845C121.537 197.176 121.52 197.508 121.518 197.841C121.463 200.305 122.187 202.517 123.688 204.476C125.19 206.435 127.14 207.711 129.539 208.305V205.228H129.537ZM142.857 188.35C142.9 188.65 142.876 188.945 142.784 189.235C142.692 189.525 142.542 189.78 142.334 190.002L133.548 199.288V210.499C133.548 211.089 133.33 211.582 132.893 211.979C132.456 212.376 131.943 212.546 131.354 212.491C127.435 212.285 124.134 210.754 121.452 207.897C118.769 205.04 117.454 201.654 117.505 197.741C117.505 189.642 125.527 179.103 129.838 173.443L129.854 173.423C130.255 172.8 130.827 172.493 131.57 172.503C132.312 172.513 132.876 172.835 133.259 173.469C135.03 175.693 136.7 177.99 138.269 180.36C139.837 182.73 141.298 185.164 142.652 187.662C142.706 187.77 142.75 187.882 142.784 187.998C142.818 188.114 142.841 188.232 142.853 188.352L142.857 188.35ZM138.429 188.294C137.689 186.957 136.913 185.643 136.099 184.35C135.285 183.057 134.435 181.788 133.55 180.543V193.453L138.429 188.294ZM145.582 198.021L148.169 201.18V201.28C148.985 202.094 149.42 203.076 149.474 204.226C149.528 205.375 149.186 206.393 148.45 207.279C147.632 208.073 146.653 208.47 145.512 208.47C144.371 208.47 143.392 208.073 142.574 207.279C141.815 206.399 141.465 205.379 141.523 204.22C141.581 203.061 142.032 202.081 142.875 201.28L143.717 200.22L145.462 198.041L145.582 198.021ZM145.46 192.501C145.288 192.499 145.122 192.533 144.965 192.603C144.807 192.673 144.672 192.772 144.557 192.901C143.214 194.421 141.229 196.901 139.745 198.78C136.837 202.4 136.576 207.02 139.745 210.159C141.343 211.722 143.262 212.503 145.5 212.503C147.738 212.503 149.657 211.722 151.255 210.159C152.754 208.557 153.504 206.661 153.504 204.47C153.504 202.279 152.754 200.382 151.255 198.78C149.691 196.781 147.666 194.381 146.342 192.901C146.245 192.789 146.131 192.699 145.999 192.63C145.868 192.561 145.728 192.518 145.58 192.501H145.46Z" fill="url(#paint4_linear_200_7292)"/>
</g>
</g>
</g>
<defs>
<filter id="filter0_b_200_7292" x="247.197" y="219.197" width="70.6057" height="70.6057" filterUnits="userSpaceOnUse" color-interpolation-filters="sRGB">
<feFlood flood-opacity="0" result="BackgroundImageFix"/>
<feGaussianBlur in="BackgroundImageFix" stdDeviation="1.40142"/>
<feComposite in2="SourceAlpha" operator="in" result="effect1_backgroundBlur_200_7292"/>
<feBlend mode="normal" in="SourceGraphic" in2="effect1_backgroundBlur_200_7292" result="shape"/>
</filter>
<filter id="filter1_d_200_7292" x="11.9507" y="90.51" width="332.602" height="363.106" filterUnits="userSpaceOnUse" color-interpolation-filters="sRGB">
<feFlood flood-opacity="0" result="BackgroundImageFix"/>
<feColorMatrix in="SourceAlpha" type="matrix" values="0 0 0 0 0 0 0 0 0 0 0 0 0 0 0 0 0 0 127 0" result="hardAlpha"/>
<feOffset dy="21.5603"/>
<feGaussianBlur stdDeviation="45.2766"/>
<feComposite in2="hardAlpha" operator="out"/>
<feColorMatrix type="matrix" values="0 0 0 0 0.0431373 0 0 0 0 0.00784314 0 0 0 0 0.0901961 0 0 0 0.4 0"/>
<feBlend mode="normal" in2="BackgroundImageFix" result="effect1_dropShadow_200_7292"/>
<feBlend mode="normal" in="SourceGraphic" in2="effect1_dropShadow_200_7292" result="shape"/>
</filter>
<filter id="filter2_b_200_7292" x="121.701" y="273.7" width="70.6057" height="70.6057" filterUnits="userSpaceOnUse" color-interpolation-filters="sRGB">
<feFlood flood-opacity="0" result="BackgroundImageFix"/>
<feGaussianBlur in="BackgroundImageFix" stdDeviation="1.40142"/>
<feComposite in2="SourceAlpha" operator="in" result="effect1_backgroundBlur_200_7292"/>
<feBlend mode="normal" in="SourceGraphic" in2="effect1_backgroundBlur_200_7292" result="shape"/>
</filter>
<filter id="filter3_b_200_7292" x="99.7011" y="156.7" width="70.6057" height="70.6057" filterUnits="userSpaceOnUse" color-interpolation-filters="sRGB">
<feFlood flood-opacity="0" result="BackgroundImageFix"/>
<feGaussianBlur in="BackgroundImageFix" stdDeviation="1.40142"/>
<feComposite in2="SourceAlpha" operator="in" result="effect1_backgroundBlur_200_7292"/>
<feBlend mode="normal" in="SourceGraphic" in2="effect1_backgroundBlur_200_7292" result="shape"/>
</filter>
<linearGradient id="paint0_linear_200_7292" x1="194.5" y1="22" x2="194.5" y2="513" gradientUnits="userSpaceOnUse">
<stop stop-color="white" stop-opacity="0.05"/>
<stop offset="0.5" stop-color="white" stop-opacity="0"/>
<stop offset="1" stop-color="white" stop-opacity="0.05"/>
</linearGradient>
<linearGradient id="paint1_linear_200_7292" x1="194.5" y1="68" x2="194.5" y2="467" gradientUnits="userSpaceOnUse">
<stop stop-color="white" stop-opacity="0.07"/>
<stop offset="0.5" stop-color="white" stop-opacity="0"/>
<stop offset="1" stop-color="white" stop-opacity="0.07"/>
</linearGradient>
<linearGradient id="paint2_linear_200_7292" x1="268" y1="233.443" x2="295.981" y2="278.538" gradientUnits="userSpaceOnUse">
<stop offset="0.0400732" stop-color="#C55EFB"/>
<stop offset="0.969812" stop-color="#6D45F9"/>
</linearGradient>
<linearGradient id="paint3_linear_200_7292" x1="142.504" y1="289.165" x2="169.964" y2="331.893" gradientUnits="userSpaceOnUse">
<stop offset="0.0400732" stop-color="#C55EFB"/>
<stop offset="0.969812" stop-color="#6D45F9"/>
</linearGradient>
<linearGradient id="paint4_linear_200_7292" x1="117.504" y1="163.761" x2="156.42" y2="220.206" gradientUnits="userSpaceOnUse">
<stop offset="0.0400732" stop-color="#C55EFB"/>
<stop offset="0.969812" stop-color="#6D45F9"/>
</linearGradient>
<clipPath id="clip0_200_7292">
<rect width="389" height="535" rx="11" fill="white"/>
</clipPath>
</defs>
</svg>
