<?xml version="1.0" encoding="utf-8" ?>
<svg xmlns="http://www.w3.org/2000/svg" xmlns:xlink="http://www.w3.org/1999/xlink" width="159" height="69.7354" viewBox="0 0 159 69.7354">
	<g opacity="0.25">
		<rect width="123" height="33.735294" rx="8" ry="8" transform="matrix(1 0 0 1 18 23.4412)" fill="rgb(18, 16, 29)"/>
		<path d="M-0 8C0 3.58172 3.58172 -0 8 -0L115 0C119.418 0 123 3.58172 123 8L123 25.7353C123 30.1536 119.418 33.7353 115 33.7353L8 33.7353C3.58172 33.7353 -0 30.1536 -0 25.7353L0 8ZM8 1.12353C4.20223 1.12353 1.12353 4.20223 1.12353 8L1.12353 25.7353C1.12353 29.5331 4.20223 32.6118 8 32.6118L115 32.6118C118.798 32.6118 121.876 29.5331 121.876 25.7353L121.876 8C121.876 4.20223 118.798 1.12353 115 1.12353L8 1.12353Z" fill-rule="nonzero" transform="matrix(1 0 0 1 18 23.4412)" fill="rgb(55, 50, 73)"/>
	</g>
	<defs>
		<filter id="filter0846659168" filterUnits="userSpaceOnUse" color-interpolation-filters="sRGB">
			<feGaussianBlur in="SourceGraphic" stdDeviation="9"/>
		</filter>
	</defs>
	<g filter="url(#filter0846659168)">
		<rect width="123" height="33.735294" rx="8" ry="8" transform="matrix(1 0 0 1 18 18.0001)" fill="rgb(48, 41, 61)"/>
		<defs>
			<linearGradient id="linearGradient7102365973" gradientTransform="matrix(1.33471e-15 33.7353 -21.7975 2.06569e-15 72.3987 -1.06064e-14)" gradientUnits="userSpaceOnUse" x1="0" y1="0.5" x2="1" y2="0.5">
				<stop offset="0" stop-color="rgb(169, 163, 194)" stop-opacity="0.2"/>
				<stop offset="1" stop-color="rgb(169, 163, 194)" stop-opacity="0.046999998"/>
			</linearGradient>
		</defs>
		<rect width="123" height="33.735294" rx="8" ry="8" transform="matrix(1 0 0 1 18 18.0001)" fill="url(#linearGradient7102365973)"/>
		<defs>
			<linearGradient id="linearGradient4498213147" gradientTransform="matrix(87.6375 37.1088 -118.497 125.496 73.0862 -66.1217)" gradientUnits="userSpaceOnUse" x1="0" y1="0.5" x2="1" y2="0.5">
				<stop offset="0" stop-color="rgb(112, 0, 255)"/>
				<stop offset="0.57526344" stop-color="rgb(241, 61, 212)"/>
				<stop offset="1" stop-color="rgb(248, 58, 58)"/>
			</linearGradient>
		</defs>
		<path d="M-0 8C0 3.58172 3.58172 -0 8 -0L115 0C119.418 0 123 3.58172 123 8L123 25.7353C123 30.1536 119.418 33.7353 115 33.7353L8 33.7353C3.58172 33.7353 -0 30.1536 -0 25.7353L0 8ZM8 6C6.89543 6 6 6.89543 6 8L6 25.7353C6 26.8399 6.89543 27.7353 8 27.7353L115 27.7353C116.105 27.7353 117 26.8399 117 25.7353L117 8C117 6.89543 116.105 6 115 6L8 6Z" fill-rule="nonzero" transform="matrix(1 0 0 1 18 18.0001)" fill="url(#linearGradient4498213147)"/>
	</g>
	<rect width="123" height="33.735294" rx="8" ry="8" transform="matrix(1 0 0 1 18 18.0001)" fill="rgb(48, 41, 61)"/>
	<defs>
		<linearGradient id="linearGradient7431246350" gradientTransform="matrix(1.33471e-15 33.7353 -21.7975 2.06569e-15 72.3987 -1.06064e-14)" gradientUnits="userSpaceOnUse" x1="0" y1="0.5" x2="1" y2="0.5">
			<stop offset="0" stop-color="rgb(169, 163, 194)" stop-opacity="0.2"/>
			<stop offset="1" stop-color="rgb(169, 163, 194)" stop-opacity="0.046999998"/>
		</linearGradient>
	</defs>
	<rect width="123" height="33.735294" rx="8" ry="8" transform="matrix(1 0 0 1 18 18.0001)" fill="url(#linearGradient7431246350)"/>
	<defs>
		<linearGradient id="linearGradient6618135880" gradientTransform="matrix(87.6375 37.1088 -118.497 125.496 73.0862 -66.1217)" gradientUnits="userSpaceOnUse" x1="0" y1="0.5" x2="1" y2="0.5">
			<stop offset="0" stop-color="rgb(112, 0, 255)"/>
			<stop offset="0.57526344" stop-color="rgb(241, 61, 212)"/>
			<stop offset="1" stop-color="rgb(248, 58, 58)"/>
		</linearGradient>
	</defs>
	<path d="M-0.988003 8C-0.988003 3.03606 3.03606 -0.988003 8 -0.988003L115 -0.988003C119.964 -0.988003 123.988 3.03606 123.988 8L123.988 25.7353C123.988 30.6992 119.964 34.7233 115 34.7233L8 34.7233C3.03606 34.7233 -0.988003 30.6992 -0.988003 25.7353L-0.988003 8ZM8 0C3.58172 0 0 3.58172 0 8L0 25.7353C0 30.1536 3.58172 33.7353 8 33.7353L115 33.7353C119.418 33.7353 123 30.1536 123 25.7353L123 8C123 3.58172 119.418 0 115 0L8 0Z" fill-rule="nonzero" transform="matrix(1 0 0 1 18 18.0001)" fill="url(#linearGradient6618135880)"/>
	<defs>
		<linearGradient id="linearGradient7552257829" gradientTransform="matrix(1.94687e-16 39.1765 -3.17949 2.39887e-15 32.5897 -4.85104e-14)" gradientUnits="userSpaceOnUse" x1="0" y1="0.5" x2="1" y2="0.5">
			<stop offset="0.22499999" stop-color="rgb(255, 255, 255)"/>
			<stop offset="1" stop-color="rgb(255, 255, 255)" stop-opacity="0.69999999"/>
		</linearGradient>
	</defs>
	<path d="M7.89551 5.86035L9.6709 5.86035C9.62402 7.48047 9.37207 8.89551 8.90332 10.1084C8.42285 9.10059 8.03906 7.8877 7.74023 6.48438L7.89551 5.86035ZM8.50781 10.9727C7.95703 11.9922 7.22461 12.8213 6.28711 13.4688L6.73242 14.1895C7.63184 13.5391 8.37598 12.7363 8.95312 11.7754C9.55078 12.7832 10.2715 13.6006 11.1123 14.2012L11.5811 13.4922C10.7168 12.9033 9.98438 12.0771 9.36035 10.9961C10.0312 9.58105 10.4033 7.86426 10.4648 5.86035L11.2441 5.86035L11.2441 5.03125L8.07715 5.03125C8.1709 4.50391 8.26758 3.92676 8.34082 3.31738L7.5 3.1709C7.25977 5.45312 6.7793 7.26367 6.07324 8.6084L6.6123 9.26758C6.86426 8.83691 7.10449 8.34473 7.32129 7.79102C7.64355 8.99219 8.03906 10.0469 8.50781 10.9727ZM2.82129 8.77539C2.73633 9.01562 2.63965 9.26758 2.53125 9.53125L0.779297 9.53125L0.779297 10.2871L2.19727 10.2871C1.95703 10.7676 1.67871 11.2598 1.36816 11.7871C1.95703 12.0039 2.50781 12.2324 3.03516 12.4609C2.34082 12.8564 1.48828 13.1787 0.503906 13.4453L0.911133 14.1631C2.1123 13.8291 3.1084 13.3838 3.89941 12.833C4.6084 13.1436 5.2207 13.4688 5.74805 13.7793L6.2168 13.1084C5.68945 12.8213 5.13574 12.5547 4.55859 12.291C5.18262 11.7168 5.62793 11.0312 5.8916 10.2402L5.8916 9.53125L3.38379 9.53125C3.45703 9.31738 3.53906 9.10059 3.62402 8.87207L2.82129 8.77539ZM3.76758 11.957C3.33691 11.7754 2.87988 11.6084 2.39941 11.4414C2.63965 11.0811 2.85645 10.6973 3.04688 10.2871L5.1123 10.2871C4.8252 10.9111 4.36816 11.4766 3.76758 11.957ZM1.72852 3.42285L1.04297 3.65137C1.33301 4.1084 1.59668 4.62402 1.84863 5.21289L2.47266 4.92285C2.25586 4.39551 2.01562 3.8916 1.72852 3.42285ZM5.37598 3.3877C5.15918 3.8916 4.84863 4.39551 4.46484 4.91113L5.07715 5.22461C5.46094 4.7207 5.75977 4.20508 6 3.6748L5.37598 3.3877ZM0.802734 5.5L0.802734 6.25586L2.50781 6.25586C2.14746 6.91504 1.5 7.51562 0.577148 8.05469L0.996094 8.75195C2.02734 8.05469 2.74805 7.24023 3.14355 6.29102L3.14355 8.57324L3.94922 8.57324L3.94922 7.01172C4.37988 7.29883 4.89551 7.68262 5.49609 8.16309L5.94141 7.49219C5.26758 7.08496 4.59668 6.71289 3.94922 6.3877L3.94922 6.25586L6.13184 6.25586L6.13184 5.5L3.94922 5.5L3.94922 3.20898L3.14355 3.20898L3.14355 5.5L0.802734 5.5Z" fill-rule="nonzero" transform="matrix(1 0 0 1 66 24.7061)" fill="url(#linearGradient7552257829)"/>
	<defs>
		<linearGradient id="linearGradient9928815446" gradientTransform="matrix(1.94687e-16 39.1765 -3.17949 2.39887e-15 32.5897 -4.85104e-14)" gradientUnits="userSpaceOnUse" x1="0" y1="0.5" x2="1" y2="0.5">
			<stop offset="0.22499999" stop-color="rgb(255, 255, 255)"/>
			<stop offset="1" stop-color="rgb(255, 255, 255)" stop-opacity="0.69999999"/>
		</linearGradient>
	</defs>
	<path d="M14.4488 14.0928C15.1197 14.0928 15.4567 13.7324 15.4567 13.0352L15.4567 9.53125C15.8287 9.36426 16.2008 9.19727 16.5729 9.00391L16.5729 8.15137C16.2125 8.34473 15.8404 8.52344 15.4567 8.69336L15.4567 6.3291L16.608 6.3291L16.608 5.5L15.4567 5.5L15.4567 3.23242L14.6158 3.23242L14.6158 5.5L13.1774 5.5L13.1774 6.3291L14.6158 6.3291L14.6158 9.03906C14.0885 9.23242 13.5348 9.39941 12.984 9.53125L13.2008 10.3721C13.6695 10.2285 14.1354 10.0586 14.6158 9.87988L14.6158 12.8213C14.6158 13.1553 14.4606 13.3369 14.1588 13.3369C13.8717 13.3369 13.5611 13.3105 13.2477 13.2754L13.4293 14.0928L14.4488 14.0928ZM18.0348 8.78711L20.484 8.78711L20.484 10.2637L18.4801 10.2637L18.4801 14.2012L19.2828 14.2012L19.2828 13.6123L22.5348 13.6123L22.5348 14.2012L23.3404 14.2012L23.3404 10.2637L21.3248 10.2637L21.3248 8.78711L23.8912 8.78711L23.8912 8.00781L21.3248 8.00781L21.3248 6.59277L23.5807 6.59277L23.5807 3.6748L17.2555 3.6748L17.2555 7.43066C17.2438 9.95312 16.8131 12.0156 15.9606 13.6006L16.6315 14.2012C17.4254 12.6396 17.8912 10.8408 18.0348 8.78711ZM20.484 6.59277L20.484 8.00781L18.0846 8.00781C18.0846 7.81738 18.0963 7.62402 18.0963 7.43066L18.0963 6.59277L20.484 6.59277ZM19.2828 12.8447L19.2828 11.0312L22.5348 11.0312L22.5348 12.8447L19.2828 12.8447ZM22.7399 4.48047L22.7399 5.81348L18.0963 5.81348L18.0963 4.48047L22.7399 4.48047Z" fill-rule="nonzero" transform="matrix(1 0 0 1 66 24.7061)" fill="url(#linearGradient9928815446)"/>
	<defs>
		<linearGradient id="linearGradient9813910607" gradientTransform="matrix(1.94687e-16 39.1765 -3.17949 2.39887e-15 32.5897 -4.85104e-14)" gradientUnits="userSpaceOnUse" x1="0" y1="0.5" x2="1" y2="0.5">
			<stop offset="0.22499999" stop-color="rgb(255, 255, 255)"/>
			<stop offset="1" stop-color="rgb(255, 255, 255)" stop-opacity="0.69999999"/>
		</linearGradient>
	</defs>
	<path d="M29.4836 11.2832C28.7893 11.9922 27.5149 12.6279 25.6692 13.1934L26.1233 13.9346C28.177 13.1934 29.5803 12.3027 30.3362 11.2832L30.5647 11.2832L30.5647 14.2129L31.4289 14.2129L31.4289 11.2832L31.6574 11.2832C32.4953 12.3525 33.9016 13.2168 35.8908 13.8877L36.2629 13.1201C34.5725 12.6631 33.3127 12.0508 32.4953 11.2832L36.1311 11.2832L36.1311 10.5039L31.4289 10.5039L31.4289 9.87988L30.5647 9.87988L30.5647 10.5039L25.7893 10.5039L25.7893 11.2832L29.4836 11.2832ZM26.9641 6.18262L26.9641 9.55469L35.7854 9.55469L35.7854 8.8252L31.7395 8.8252L31.7395 7.97266L35.1115 7.97266L35.1115 7.29883L31.7395 7.29883L31.7395 6.50781L35.1115 6.50781L35.1115 5.83691L31.7395 5.83691L31.7395 5.01953L35.5569 5.01953L35.5569 4.29883L31.6809 4.29883C31.5256 3.86816 31.3674 3.47266 31.2004 3.12402L30.3127 3.26758C30.5032 3.58105 30.6731 3.92676 30.8401 4.29883L28.2473 4.29883C28.3908 4 28.5373 3.68945 28.6574 3.36426L27.8518 3.15918C27.3244 4.45703 26.5334 5.58496 25.4641 6.54297L25.9563 7.2168C26.3166 6.87988 26.6535 6.54297 26.9641 6.18262ZM30.8869 8.8252L27.7668 8.8252L27.7668 7.97266L30.8869 7.97266L30.8869 8.8252ZM30.8869 7.29883L27.7668 7.29883L27.7668 6.50781L30.8869 6.50781L30.8869 7.29883ZM30.8869 5.83691L27.7668 5.83691L27.7668 5.11621L27.8283 5.01953L30.8869 5.01953L30.8869 5.83691Z" fill-rule="nonzero" transform="matrix(1 0 0 1 66 24.7061)" fill="url(#linearGradient9813910607)"/>
	<defs>
		<linearGradient id="linearGradient1025858297" gradientTransform="matrix(1.94687e-16 39.1765 -3.17949 2.39887e-15 32.5897 -4.85104e-14)" gradientUnits="userSpaceOnUse" x1="0" y1="0.5" x2="1" y2="0.5">
			<stop offset="0.22499999" stop-color="rgb(255, 255, 255)"/>
			<stop offset="1" stop-color="rgb(255, 255, 255)" stop-opacity="0.69999999"/>
		</linearGradient>
	</defs>
	<path d="M38.1375 4.62402L38.1375 5.45312L48.7577 5.45312L48.7577 4.62402L44.0291 4.62402C43.8123 4.07324 43.5721 3.56934 43.3319 3.1123L42.3709 3.2793C42.6375 3.68945 42.8748 4.13184 43.0916 4.62402L38.1375 4.62402ZM45.3358 5.81348L44.7469 6.37598C46.1532 7.52734 47.2577 8.59668 48.0487 9.60449L48.6844 8.96875C47.785 7.91113 46.6688 6.86816 45.3358 5.81348ZM45.4559 8.05469C44.9403 9.06543 44.2694 9.94141 43.452 10.709C42.5995 9.97656 41.9051 9.12402 41.3748 8.13965L40.6336 8.55859C41.1961 9.56934 41.9168 10.4805 42.7928 11.2715C41.533 12.2324 39.9598 12.9531 38.0643 13.4307L38.5916 14.2246C40.5135 13.7207 42.1454 12.9268 43.4871 11.8486C44.785 12.8564 46.4051 13.624 48.3475 14.1748L48.8895 13.3721C47.0174 12.8916 45.4442 12.1973 44.1493 11.2598C44.9754 10.457 45.6727 9.50781 46.2469 8.40332L45.4559 8.05469ZM41.4715 5.8252C40.5721 6.95312 39.4676 7.92285 38.161 8.76367L38.7118 9.49609C40.0565 8.6084 41.1844 7.56543 42.0955 6.37598L41.4715 5.8252Z" fill-rule="nonzero" transform="matrix(1 0 0 1 66 24.7061)" fill="url(#linearGradient1025858297)"/>
	<defs>
		<linearGradient id="linearGradient3402064376" gradientTransform="matrix(1.94687e-16 39.1765 -3.17949 2.39887e-15 32.5897 -4.85104e-14)" gradientUnits="userSpaceOnUse" x1="0" y1="0.5" x2="1" y2="0.5">
			<stop offset="0.22499999" stop-color="rgb(255, 255, 255)"/>
			<stop offset="1" stop-color="rgb(255, 255, 255)" stop-opacity="0.69999999"/>
		</linearGradient>
	</defs>
	<path d="M53.0991 3.08887C52.5249 5.00781 51.5991 6.70117 50.3276 8.1748L50.5913 9.07715C51.1333 8.5 51.6254 7.89941 52.0561 7.26367L52.0561 14.2246L52.9204 14.2246L52.9204 5.83691C53.3042 5.09277 53.6411 4.31348 53.9047 3.47266L53.0991 3.08887ZM54.1567 5.79883L54.1567 6.63965L58.7534 6.63965L58.7534 12.6895C58.7534 13.1201 58.56 13.3369 58.1879 13.3369C57.6606 13.3369 57.1215 13.3105 56.5561 13.2754L56.7495 14.1279L58.4897 14.1279C59.2309 14.1279 59.6176 13.7207 59.6176 12.9033L59.6176 6.63965L61.3432 6.63965L61.3432 5.79883L59.6176 5.79883L59.6176 3.2207L58.7534 3.2207L58.7534 5.79883L54.1567 5.79883ZM55.2612 7.94922L54.5522 8.37988C55.4282 9.44922 56.1254 10.4189 56.6411 11.2949L57.3735 10.7793C56.8813 9.97656 56.1723 9.02734 55.2612 7.94922Z" fill-rule="nonzero" transform="matrix(1 0 0 1 66 24.7061)" fill="url(#linearGradient3402064376)"/>
	<defs>
		<clipPath id="clipPath0521241980">
			<path d="M0 0L20 0L20 21.7647L0 21.7647L0 0Z" fill-rule="nonzero" transform="matrix(1 0 0 1 38 24.2181)"/>
		</clipPath>
	</defs>
	<g clip-path="url(#clipPath0521241980)">
		<defs>
			<linearGradient id="linearGradient9330952479" gradientTransform="matrix(5.29895e-17 5.44118 -0.865385 3.33176e-16 8.87019 -6.73756e-15)" gradientUnits="userSpaceOnUse" x1="0" y1="0.5" x2="1" y2="0.5">
				<stop offset="0.22499999" stop-color="rgb(255, 255, 255)"/>
				<stop offset="1" stop-color="rgb(255, 255, 255)" stop-opacity="0.69999999"/>
			</linearGradient>
		</defs>
		<path d="M6.83717 -0.0165997L9.33717 0.890263L9.16667 1.36029L9.06033 0.871732Q10.626 0.530963 12.2959 0.190241Q15.6787 -0.5 16.25 -0.5Q16.755 -0.5 17.0635 -0.206234Q17.375 0.0903371 17.375 0.566789Q17.375 1.32842 16.6182 2.15204Q16.1976 2.60975 15.6059 3.13653Q14.828 3.82922 14.0347 4.37858Q11.7782 5.94118 10 5.94118Q9.02304 5.94118 7.98275 5.67288Q7.37947 5.51729 6.31759 5.12773Q5.5307 4.83905 5.16619 4.73793Q4.60007 4.58088 4.16667 4.58088L0 4.58088L0 3.58088L4.16667 3.58088Q4.7362 3.58088 5.43351 3.77432Q5.83707 3.88627 6.662 4.18891Q7.67728 4.56138 8.23249 4.70457Q9.14992 4.94118 10 4.94118Q11.4658 4.94118 13.4653 3.55647Q14.2085 3.04182 14.9409 2.38967Q15.4951 1.89622 15.8818 1.47541Q16.1379 1.19672 16.2698 0.927708Q16.375 0.712996 16.375 0.566789Q16.375 0.529494 16.3681 0.511139Q16.3688 0.513063 16.374 0.517968Q16.3758 0.519715 16.3762 0.519977Q16.3716 0.517209 16.3625 0.514114Q16.321 0.5 16.25 0.5Q15.7797 0.5 12.4958 1.17005Q10.8323 1.50947 9.273 1.84886L9.13191 1.87957L6.49616 0.923463L6.83717 -0.0165997Z" fill-rule="nonzero" transform="matrix(1 0 0 1 39.6667 38.7279)" fill="url(#linearGradient9330952479)"/>
		<defs>
			<linearGradient id="linearGradient2336895758" gradientTransform="matrix(3.31101e-17 4.98774 -0.540729 3.05411e-16 5.54247 -6.1761e-15)" gradientUnits="userSpaceOnUse" x1="0" y1="0.5" x2="1" y2="0.5">
				<stop offset="0.22499999" stop-color="rgb(255, 255, 255)"/>
				<stop offset="1" stop-color="rgb(255, 255, 255)" stop-opacity="0.69999999"/>
			</linearGradient>
		</defs>
		<path d="M-0.368164 1.92884Q0.476622 1.00952 1.5068 0.368905Q2.90409 -0.5 4.16667 -0.5Q4.83787 -0.5 5.90188 -0.181427Q6.84322 0.10042 7.88526 0.563269Q8.90625 1.01677 9.67227 1.48673Q10.5408 2.01955 10.8284 2.43685Q11.1864 2.9563 10.9579 3.61985Q10.8096 4.05057 10.4054 4.51992Q9.97702 5.0174 9.46037 5.39239L9.46028 5.39246L8.87305 4.58303L8.87297 4.5831Q9.29531 4.27655 9.64767 3.86738Q9.92658 3.5435 10.0124 3.29431Q10.0765 3.1081 10.005 3.00432Q9.83745 2.76126 9.14934 2.3391Q8.43979 1.90379 7.47932 1.47717Q6.49543 1.04015 5.61505 0.776555Q4.69138 0.5 4.16667 0.5Q3.18966 0.5 2.03487 1.2181Q1.1206 1.78664 0.368164 2.60547L-0.368164 1.92884Z" fill-rule="nonzero" transform="matrix(1 0 0 1 39.6667 35.1004)" fill="url(#linearGradient2336895758)"/>
		<defs>
			<linearGradient id="linearGradient9021669065" gradientTransform="matrix(3.66347e-17 8.16176 -0.598291 4.99764e-16 6.13248 -1.01063e-14)" gradientUnits="userSpaceOnUse" x1="0" y1="0.5" x2="1" y2="0.5">
				<stop offset="0.22499999" stop-color="rgb(255, 255, 255)"/>
				<stop offset="1" stop-color="rgb(255, 255, 255)" stop-opacity="0.69999999"/>
			</linearGradient>
		</defs>
		<path d="M-0.5 4.53431L-0.5 0.906863Q-0.5 0.336383 -0.124093 -0.0726969Q0.26856 -0.5 0.833333 -0.5L10.8333 -0.5Q11.3981 -0.5 11.7908 -0.0726969Q12.1667 0.336383 12.1667 0.906863L12.1667 8.16176L11.1667 8.16176L11.1667 0.906863Q11.1667 0.726068 11.0544 0.603925Q10.9589 0.5 10.8333 0.5L0.833333 0.5Q0.707735 0.5 0.612238 0.603925Q0.5 0.726068 0.5 0.906863L0.5 4.53431L-0.5 4.53431Z" fill-rule="nonzero" transform="matrix(1 0 0 1 44.6667 27.8455)" fill="url(#linearGradient9021669065)"/>
		<rect width="4.1666665" height="4.0808821" transform="matrix(1 0 0 1 48.4167 27.8455)" fill="rgb(255, 255, 255)" fill-opacity="0.3"/>
		<defs>
			<linearGradient id="linearGradient7785713852" gradientTransform="matrix(1.30838e-17 4.08088 -0.213675 2.49882e-16 2.19017 -5.05317e-15)" gradientUnits="userSpaceOnUse" x1="0" y1="0.5" x2="1" y2="0.5">
				<stop offset="0.22499999" stop-color="rgb(255, 255, 255)"/>
				<stop offset="1" stop-color="rgb(255, 255, 255)" stop-opacity="0.69999999"/>
			</linearGradient>
		</defs>
		<rect width="4.1666665" height="4.0808821" stroke-width="1" transform="matrix(1 0 0 1 48.4167 27.8455)" stroke="url(#linearGradient7785713852)" fill="transparent"/>
	</g>
</svg>
