<?xml version="1.0" encoding="utf-8" ?>
<svg xmlns="http://www.w3.org/2000/svg" xmlns:xlink="http://www.w3.org/1999/xlink" width="62.5537" height="69.6665" viewBox="0 0 62.5537 69.6665">
	<defs>
		<linearGradient id="linearGradient1626789727" gradientTransform="matrix(1.78987e-16 67 -2.92308 4.10257e-15 29.9615 -8.2963e-14)" gradientUnits="userSpaceOnUse" x1="0" y1="0.5" x2="1" y2="0.5">
			<stop offset="0.22499999" stop-color="rgb(255, 255, 255)"/>
			<stop offset="1" stop-color="rgb(255, 255, 255)" stop-opacity="0.69999999"/>
		</linearGradient>
	</defs>
	<path d="M59.6667 0Q59.6667 0.115253 59.6567 0.230077Q59.6468 0.344901 59.627 0.458438Q59.6072 0.571975 59.5776 0.68338Q59.5481 0.794785 59.509 0.903225Q59.47 1.01167 59.4218 1.11633Q59.3735 1.221 59.3164 1.32112Q59.2593 1.42123 59.1938 1.51605Q59.1283 1.61086 59.0548 1.69967Q58.9814 1.78848 58.9005 1.87062Q58.8197 1.95276 58.732 2.02762Q58.6444 2.10248 58.5506 2.16949Q58.4569 2.23651 58.3577 2.29519Q58.2585 2.35387 58.1546 2.40377Q58.0507 2.45367 57.9429 2.49442Q57.8351 2.53517 57.7241 2.56647Q57.6132 2.59776 57.5 2.61937L57.5 3.189L56.5 3.189L56.5 2.61937Q56.3868 2.59776 56.2759 2.56647Q56.1649 2.53517 56.0571 2.49442Q55.9493 2.45367 55.8454 2.40377Q55.7415 2.35387 55.6423 2.29519Q55.5432 2.23651 55.4494 2.16949Q55.3556 2.10248 55.268 2.02762Q55.1804 1.95276 55.0995 1.87062Q55.0187 1.78848 54.9452 1.69967Q54.8717 1.61086 54.8062 1.51605Q54.7407 1.42123 54.6836 1.32112Q54.6265 1.221 54.5782 1.11633Q54.53 1.01167 54.491 0.903225Q54.4519 0.794785 54.4224 0.68338Q54.3928 0.571975 54.373 0.458438Q54.3532 0.344901 54.3433 0.230077Q54.3333 0.115253 54.3333 0Q54.3333 -0.131005 54.3462 -0.261379Q54.359 -0.391753 54.3846 -0.520241Q54.4101 -0.648728 54.4482 -0.774092Q54.4862 -0.899456 54.5363 -1.02049Q54.5864 -1.14152 54.6482 -1.25706Q54.71 -1.37259 54.7827 -1.48152Q54.8555 -1.59045 54.9386 -1.69172Q55.0217 -1.79298 55.1144 -1.88562Q55.207 -1.97825 55.3083 -2.06136Q55.4095 -2.14447 55.5185 -2.21725Q55.6274 -2.29003 55.7429 -2.35179Q55.8585 -2.41355 55.9795 -2.46368Q56.1005 -2.51381 56.2259 -2.55184Q56.3513 -2.58987 56.4798 -2.61543Q56.6082 -2.64099 56.7386 -2.65383Q56.869 -2.66667 57 -2.66667Q57.131 -2.66667 57.2614 -2.65383Q57.3918 -2.64099 57.5202 -2.61543Q57.6487 -2.58987 57.7741 -2.55184Q57.8995 -2.51381 58.0205 -2.46368Q58.1415 -2.41355 58.257 -2.35179Q58.3726 -2.29003 58.4815 -2.21725Q58.5904 -2.14447 58.6917 -2.06136Q58.793 -1.97825 58.8856 -1.88562Q58.9782 -1.79298 59.0614 -1.69172Q59.1445 -1.59045 59.2172 -1.48152Q59.29 -1.37259 59.3518 -1.25706Q59.4135 -1.14152 59.4637 -1.02049Q59.5138 -0.899456 59.5518 -0.774092Q59.5899 -0.648728 59.6154 -0.520241Q59.641 -0.391753 59.6538 -0.261379Q59.6667 -0.131005 59.6667 0ZM56.5 4.43266L56.5 5.77722L57.5 5.77722L57.5 4.43266L56.5 4.43266ZM56.5 7.00217L56.5 8.24173L57.5 8.24173L57.5 7.00217L56.5 7.00217ZM56.5 9.46668L56.5 10.8112L57.5 10.8112L57.5 9.46668L56.5 9.46668ZM56.5 12.0549L56.5 13.2791L57.5 13.2791L57.5 12.0549L56.5 12.0549ZM56.5 15.2439Q56.5 15.4985 56.477 15.7507L57.4729 15.8415Q57.5 15.5441 57.5 15.2439L57.5 14.5986L56.5 14.5986L56.5 15.2439ZM56.2723 16.8156C56.1704 17.1578 56.0362 17.486 55.8731 17.7966L56.7585 18.2615C56.9514 17.8939 57.1103 17.5057 57.2307 17.1009L56.2723 16.8156ZM55.2405 18.7468C55.0184 19.0153 54.7714 19.2623 54.5029 19.4844L55.1402 20.255C55.4572 19.9928 55.7489 19.7011 56.0111 19.3841L55.2405 18.7468ZM53.5527 20.117C53.2421 20.2801 52.9139 20.4144 52.5717 20.5162L52.857 21.4746C53.2618 21.3542 53.65 21.1953 54.0176 21.0024L53.5527 20.117ZM51 20.7439L50.4238 20.7439L50.4238 21.7439L51 21.7439Q51.3002 21.7439 51.5976 21.7168L51.5067 20.7209Q51.2547 20.7439 51 20.7439ZM6 20.7439Q5.69981 20.7439 5.40238 20.771L5.49325 21.7669Q5.74532 21.7439 6 21.7439L6.57622 21.7439L6.57622 20.7439L6 20.7439ZM8.97262 20.7439L7.812 20.7439L7.812 21.7439L8.97262 21.7439L8.97262 20.7439ZM11.2717 20.7439L10.1594 20.7439L10.1594 21.7439L11.2717 21.7439L11.2717 20.7439ZM13.6593 20.7439L12.4863 20.7439L12.4863 21.7439L13.6593 21.7439L13.6593 20.7439ZM16.0571 20.7439L14.9011 20.7439L14.9011 21.7439L16.0571 21.7439L16.0571 20.7439ZM18.4975 20.7439L17.2575 20.7439L17.2575 21.7439L18.4975 21.7439L18.4975 20.7439ZM20.7488 20.7439L19.6113 20.7439L19.6113 21.7439L20.7488 21.7439L20.7488 20.7439ZM23.251 20.7439L21.9067 20.7439L21.9067 21.7439L23.251 21.7439L23.251 20.7439ZM25.4716 20.7439L24.2712 20.7439L24.2712 21.7439L25.4716 21.7439L25.4716 20.7439ZM27.8927 20.7439L26.6798 20.7439L26.6798 21.7439L27.8927 21.7439L27.8927 20.7439ZM30.3202 20.7439L29.1073 20.7439L29.1073 21.7439L30.3202 21.7439L30.3202 20.7439ZM32.7288 20.7439L31.5284 20.7439L31.5284 21.7439L32.7288 21.7439L32.7288 20.7439ZM35.0933 20.7439L33.749 20.7439L33.749 21.7439L35.0933 21.7439L35.0933 20.7439ZM37.3887 20.7439L36.2512 20.7439L36.2512 21.7439L37.3887 21.7439L37.3887 20.7439ZM39.7425 20.7439L38.5025 20.7439L38.5025 21.7439L39.7425 21.7439L39.7425 20.7439ZM42.0989 20.7439L40.9429 20.7439L40.9429 21.7439L42.0989 21.7439L42.0989 20.7439ZM44.5137 20.7439L43.3407 20.7439L43.3407 21.7439L44.5137 21.7439L44.5137 20.7439ZM46.8406 20.7439L45.7283 20.7439L45.7283 21.7439L46.8406 21.7439L46.8406 20.7439ZM49.188 20.7439L48.0274 20.7439L48.0274 21.7439L49.188 21.7439L49.188 20.7439ZM4.14299 21.0132C3.73823 21.1336 3.34997 21.2925 2.98245 21.4854L3.44729 22.3708C3.75795 22.2077 4.08612 22.0735 4.42826 21.9716L4.14299 21.0132ZM1.85978 22.2328C1.5428 22.495 1.25111 22.7867 0.98894 23.1037L1.75953 23.741C1.98158 23.4725 2.22864 23.2255 2.49712 23.0034L1.85978 22.2328ZM0.241508 24.2263C0.0485534 24.5939 -0.110259 24.9821 -0.230731 25.3869L0.727718 25.6722C0.829549 25.33 0.963802 25.0018 1.1269 24.6912L0.241508 24.2263ZM-0.472861 26.6463Q-0.5 26.9437 -0.5 27.2439L-0.5 27.8267L0.5 27.8267L0.5 27.2439Q0.5 26.9892 0.523002 26.7372L-0.472861 26.6463ZM0.5 30.173L0.5 28.9803L-0.5 28.9803L-0.5 30.173L0.5 30.173ZM0.5 32.5531L0.5 31.2914L-0.5 31.2914L-0.5 32.5531L0.5 32.5531ZM0.5 34.8877L0.5 33.6815L-0.5 33.6815L-0.5 34.8877L0.5 34.8877ZM0.5 37.1984L0.5 36.0185L-0.5 36.0185L-0.5 37.1984L0.5 37.1984ZM0.5 39.5235L0.5 38.4219L-0.5 38.4219L-0.5 39.5235L0.5 39.5235ZM0.5 41.798L0.5 40.6501L-0.5 40.6501L-0.5 41.798L0.5 41.798ZM0.5 44.1417L0.5 42.9631L-0.5 42.9631L-0.5 44.1417L0.5 44.1417ZM0.5 46.524L0.5 45.33L-0.5 45.33L-0.5 46.524L0.5 46.524ZM0.5 48.9139L0.5 47.7199L-0.5 47.7199L-0.5 48.9139L0.5 48.9139ZM0.5 51.2808L0.5 50.1022L-0.5 50.1022L-0.5 51.2808L0.5 51.2808ZM0.5 53.5938L0.5 52.4459L-0.5 52.4459L-0.5 53.5938L0.5 53.5938ZM0.5 55.822L0.5 54.7204L-0.5 54.7204L-0.5 55.822L0.5 55.822ZM0.5 58.2254L0.5 57.0455L-0.5 57.0455L-0.5 58.2254L0.5 58.2254ZM0.5 60.5624L0.5 59.3562L-0.5 59.3562L-0.5 60.5624L0.5 60.5624ZM-2.88675 62L-0.5 62L-0.5 61.6908L0.5 61.6908L0.5 62L2.88675 62L0 67L-2.88675 62Z" fill-rule="evenodd" transform="matrix(1 0 0 1 2.88672 2.6665)" fill="url(#linearGradient1626789727)" opacity="0.6"/>
</svg>
