<?xml version="1.0" encoding="utf-8" ?>
<svg xmlns="http://www.w3.org/2000/svg" xmlns:xlink="http://www.w3.org/1999/xlink" width="0.5981" height="95" viewBox="0 0 0.5981 95">
	<path d="M0.299184 0L0.299184 0.298553L-0.299184 0.298553L-0.299184 0L0.299184 0ZM0.299184 0.899026L0.299184 1.49385L-0.299184 1.49385L-0.299184 0.899026L0.299184 0.899026ZM0.299184 2.1113L0.299184 2.69561L-0.299184 2.69561L-0.299184 2.1113L0.299184 2.1113ZM0.299184 3.30923L0.299184 3.90237L-0.299184 3.90237L-0.299184 3.30923L0.299184 3.30923ZM0.299184 4.49813L0.299184 5.13132L-0.299184 5.13132L-0.299184 4.49813L0.299184 4.49813ZM0.299184 5.70963L0.299184 6.3147L-0.299184 6.3147L-0.299184 5.70963L0.299184 5.70963ZM0.299184 6.89645L0.299184 7.49999L-0.299184 7.49999L-0.299184 6.89645L0.299184 6.89645ZM0.299184 8.12483L0.299184 8.71588L-0.299184 8.71588L-0.299184 8.12483L0.299184 8.12483ZM0.299184 9.32404L0.299184 9.94892L-0.299184 9.94892L-0.299184 9.32404L0.299184 9.32404ZM0.299184 10.5312L0.299184 11.1267L-0.299184 11.1267L-0.299184 10.5312L0.299184 10.5312ZM0.299184 11.7351L0.299184 12.3562L-0.299184 12.3562L-0.299184 11.7351L0.299184 11.7351ZM0.299184 12.9258L0.299184 13.5052L-0.299184 13.5052L-0.299184 12.9258L0.299184 12.9258ZM0.299184 14.1603L0.299184 14.7597L-0.299184 14.7597L-0.299184 14.1603L0.299184 14.1603ZM0.299184 15.3002L0.299184 15.9168L-0.299184 15.9168L-0.299184 15.3002L0.299184 15.3002ZM0.299184 16.5422L0.299184 17.1053L-0.299184 17.1053L-0.299184 16.5422L0.299184 16.5422ZM0.299184 17.7467L0.299184 18.3237L-0.299184 18.3237L-0.299184 17.7467L0.299184 17.7467ZM0.299184 18.907L0.299184 19.5706L-0.299184 19.5706L-0.299184 18.907L0.299184 18.907ZM0.299184 20.1669L0.299184 20.769L-0.299184 20.769L-0.299184 20.1669L0.299184 20.1669ZM0.299184 21.3768L0.299184 21.9133L-0.299184 21.9133L-0.299184 21.3768L0.299184 21.3768ZM0.299184 22.5315L0.299184 23.1549L-0.299184 23.1549L-0.299184 22.5315L0.299184 22.5315ZM0.299184 23.7836L0.299184 24.3377L-0.299184 24.3377L-0.299184 23.7836L0.299184 23.7836ZM0.299184 24.9757L0.299184 25.5377L-0.299184 25.5377L-0.299184 24.9757L0.299184 24.9757ZM0.299184 26.1844L0.299184 26.7539L-0.299184 26.7539L-0.299184 26.1844L0.299184 26.1844ZM0.299184 27.3267L0.299184 27.9853L-0.299184 27.9853L-0.299184 27.3267L0.299184 27.3267ZM0.299184 28.5649L0.299184 29.1476L-0.299184 29.1476L-0.299184 28.5649L0.299184 28.5649ZM0.299184 29.7331L0.299184 30.4057L-0.299184 30.4057L-0.299184 29.7331L0.299184 29.7331ZM0.299184 30.9972L0.299184 31.5913L-0.299184 31.5913L-0.299184 30.9972L0.299184 30.9972ZM0.299184 32.1879L0.299184 32.7869L-0.299184 32.7869L-0.299184 32.1879L0.299184 32.1879ZM0.299184 33.3882L0.299184 33.9917L-0.299184 33.9917L-0.299184 33.3882L0.299184 33.3882ZM0.299184 34.5974L0.299184 35.2051L-0.299184 35.2051L-0.299184 34.5974L0.299184 34.5974ZM0.299184 35.8147L0.299184 36.3387L-0.299184 36.3387L-0.299184 35.8147L0.299184 35.8147ZM0.299184 36.9517L0.299184 37.5663L-0.299184 37.5663L-0.299184 36.9517L0.299184 36.9517ZM0.299184 38.1824L0.299184 38.8L-0.299184 38.8L-0.299184 38.1824L0.299184 38.1824ZM0.299184 39.419L0.299184 39.9505L-0.299184 39.9505L-0.299184 39.419L0.299184 39.419ZM0.299184 40.5717L0.299184 41.194L-0.299184 41.194L-0.299184 40.5717L0.299184 40.5717ZM0.299184 41.8173L0.299184 42.3523L-0.299184 42.3523L-0.299184 41.8173L0.299184 41.8173ZM0.299184 42.9771L0.299184 43.6027L-0.299184 43.6027L-0.299184 42.9771L0.299184 42.9771ZM0.299184 44.2288L0.299184 44.7659L-0.299184 44.7659L-0.299184 44.2288L0.299184 44.2288ZM0.299184 45.393L0.299184 46.0203L-0.299184 46.0203L-0.299184 45.393L0.299184 45.393ZM0.299184 46.5582L0.299184 47.1859L-0.299184 47.1859L-0.299184 46.5582L0.299184 46.5582ZM0.299184 47.8137L0.299184 48.4413L-0.299184 48.4413L-0.299184 47.8137L0.299184 47.8137ZM0.299184 48.9793L0.299184 49.6066L-0.299184 49.6066L-0.299184 48.9793L0.299184 48.9793ZM0.299184 50.2336L0.299184 50.7708L-0.299184 50.7708L-0.299184 50.2336L0.299184 50.2336ZM0.299184 51.3969L0.299184 52.0224L-0.299184 52.0224L-0.299184 51.3969L0.299184 51.3969ZM0.299184 52.6473L0.299184 53.1823L-0.299184 53.1823L-0.299184 52.6473L0.299184 52.6473ZM0.299184 53.8055L0.299184 54.4278L-0.299184 54.4278L-0.299184 53.8055L0.299184 53.8055ZM0.299184 55.0491L0.299184 55.5806L-0.299184 55.5806L-0.299184 55.0491L0.299184 55.0491ZM0.299184 56.1996L0.299184 56.8172L-0.299184 56.8172L-0.299184 56.1996L0.299184 56.1996ZM0.299184 57.4333L0.299184 58.0479L-0.299184 58.0479L-0.299184 57.4333L0.299184 57.4333ZM0.299184 58.6608L0.299184 59.1848L-0.299184 59.1848L-0.299184 58.6608L0.299184 58.6608ZM0.299184 59.7945L0.299184 60.4022L-0.299184 60.4022L-0.299184 59.7945L0.299184 59.7945ZM0.299184 61.0078L0.299184 61.6114L-0.299184 61.6114L-0.299184 61.0078L0.299184 61.0078ZM0.299184 62.2127L0.299184 62.8117L-0.299184 62.8117L-0.299184 62.2127L0.299184 62.2127ZM0.299184 63.4083L0.299184 64.0024L-0.299184 64.0024L-0.299184 63.4083L0.299184 63.4083ZM0.299184 64.5938L0.299184 65.2665L-0.299184 65.2665L-0.299184 64.5938L0.299184 64.5938ZM0.299184 65.852L0.299184 66.4346L-0.299184 66.4346L-0.299184 65.852L0.299184 65.852ZM0.299184 67.0143L0.299184 67.6729L-0.299184 67.6729L-0.299184 67.0143L0.299184 67.0143ZM0.299184 68.2457L0.299184 68.8152L-0.299184 68.8152L-0.299184 68.2457L0.299184 68.2457ZM0.299184 69.4619L0.299184 70.0239L-0.299184 70.0239L-0.299184 69.4619L0.299184 69.4619ZM0.299184 70.6618L0.299184 71.216L-0.299184 71.216L-0.299184 70.6618L0.299184 70.6618ZM0.299184 71.8446L0.299184 72.4681L-0.299184 72.4681L-0.299184 71.8446L0.299184 71.8446ZM0.299184 73.0863L0.299184 73.6227L-0.299184 73.6227L-0.299184 73.0863L0.299184 73.0863ZM0.299184 74.2306L0.299184 74.8327L-0.299184 74.8327L-0.299184 74.2306L0.299184 74.2306ZM0.299184 75.429L0.299184 76.0926L-0.299184 76.0926L-0.299184 75.429L0.299184 75.429ZM0.299184 76.6759L0.299184 77.2529L-0.299184 77.2529L-0.299184 76.6759L0.299184 76.6759ZM0.299184 77.8943L0.299184 78.4574L-0.299184 78.4574L-0.299184 77.8943L0.299184 77.8943ZM0.299184 79.0827L0.299184 79.6993L-0.299184 79.6993L-0.299184 79.0827L0.299184 79.0827ZM0.299184 80.2399L0.299184 80.8393L-0.299184 80.8393L-0.299184 80.2399L0.299184 80.2399ZM0.299184 81.4943L0.299184 82.0737L-0.299184 82.0737L-0.299184 81.4943L0.299184 81.4943ZM0.299184 82.6433L0.299184 83.2644L-0.299184 83.2644L-0.299184 82.6433L0.299184 82.6433ZM0.299184 83.8729L0.299184 84.4684L-0.299184 84.4684L-0.299184 83.8729L0.299184 83.8729ZM0.299184 85.0507L0.299184 85.6755L-0.299184 85.6755L-0.299184 85.0507L0.299184 85.0507ZM0.299184 86.2837L0.299184 86.8747L-0.299184 86.8747L-0.299184 86.2837L0.299184 86.2837ZM0.299184 87.4996L0.299184 88.1031L-0.299184 88.1031L-0.299184 87.4996L0.299184 87.4996ZM0.299184 88.6849L0.299184 89.2899L-0.299184 89.2899L-0.299184 88.6849L0.299184 88.6849ZM0.299184 89.8683L0.299184 90.5014L-0.299184 90.5014L-0.299184 89.8683L0.299184 89.8683ZM0.299184 91.0972L0.299184 91.6903L-0.299184 91.6903L-0.299184 91.0972L0.299184 91.0972ZM0.299184 92.304L0.299184 92.8883L-0.299184 92.8883L-0.299184 92.304L0.299184 92.304ZM0.299184 93.5057L0.299184 94.1005L-0.299184 94.1005L-0.299184 93.5057L0.299184 93.5057ZM-0.299184 94.9996L-0.299184 94.701L0.299184 94.701L0.299184 94.9996L-0.299184 94.9996Z" fill-rule="evenodd" transform="matrix(1 0 0 1 0.299072 0)" fill="rgb(94, 96, 119)"/>
</svg>
