<svg width="389" height="278" viewBox="0 0 389 278" fill="none" xmlns="http://www.w3.org/2000/svg">
<g clip-path="url(#clip0_200_6627)">
<path d="M84.9432 85.2118L-4 148.517V265H391.248C398.043 265 394.079 81.6667 391.248 -10L270.825 -7.46777L223.855 66.4733L84.9432 85.2118Z" fill="url(#paint0_linear_200_6627)"/>
<g filter="url(#filter0_d_200_6627)">
<path d="M-3.14893 146.5L86.8511 84.5L224.851 66L272.851 -7" stroke="#795FDE" stroke-width="3"/>
<mask id="mask0_200_6627" style="mask-type:alpha" maskUnits="userSpaceOnUse" x="-4" y="-8" width="279" height="156">
<path fill-rule="evenodd" clip-rule="evenodd" d="M274.104 -6.35178L225.728 67.2199L87.4062 85.7631L-2.29808 147.559L-4 145.089L86.2957 82.8851L223.974 64.4283L271.598 -8L274.104 -6.35178Z" fill="#7000FF"/>
</mask>
<g mask="url(#mask0_200_6627)">
<g filter="url(#filter1_f_200_6627)">
<ellipse cx="233.396" cy="50.6874" rx="37.4151" ry="39.169" transform="rotate(37.615 233.396 50.6874)" fill="#F23DC8"/>
</g>
</g>
</g>
</g>
<defs>
<filter id="filter0_d_200_6627" x="-22.7" y="-22.5241" width="315.504" height="193.783" filterUnits="userSpaceOnUse" color-interpolation-filters="sRGB">
<feFlood flood-opacity="0" result="BackgroundImageFix"/>
<feColorMatrix in="SourceAlpha" type="matrix" values="0 0 0 0 0 0 0 0 0 0 0 0 0 0 0 0 0 0 127 0" result="hardAlpha"/>
<feOffset dy="4"/>
<feGaussianBlur stdDeviation="9.35"/>
<feComposite in2="hardAlpha" operator="out"/>
<feColorMatrix type="matrix" values="0 0 0 0 1 0 0 0 0 1 0 0 0 0 1 0 0 0 0.28 0"/>
<feBlend mode="normal" in2="BackgroundImageFix" result="effect1_dropShadow_200_6627"/>
<feBlend mode="normal" in="SourceGraphic" in2="effect1_dropShadow_200_6627" result="shape"/>
</filter>
<filter id="filter1_f_200_6627" x="150.816" y="-32.3401" width="165.158" height="166.055" filterUnits="userSpaceOnUse" color-interpolation-filters="sRGB">
<feFlood flood-opacity="0" result="BackgroundImageFix"/>
<feBlend mode="normal" in="SourceGraphic" in2="BackgroundImageFix" result="shape"/>
<feGaussianBlur stdDeviation="22.25" result="effect1_foregroundBlur_200_6627"/>
</filter>
<linearGradient id="paint0_linear_200_6627" x1="179.383" y1="74.5764" x2="235.604" y2="202.662" gradientUnits="userSpaceOnUse">
<stop stop-color="#7000FF" stop-opacity="0.13"/>
<stop offset="1" stop-color="#7000FF" stop-opacity="0"/>
</linearGradient>
<clipPath id="clip0_200_6627">
<rect x="2" y="2" width="385" height="274" rx="10" fill="white"/>
</clipPath>
</defs>
</svg>
