<?xml version="1.0" encoding="utf-8" ?>
<svg xmlns="http://www.w3.org/2000/svg" xmlns:xlink="http://www.w3.org/1999/xlink" width="148.667" height="5.7734" viewBox="0 0 148.667 5.7734">
	<path d="M5 2.88675L0 0L5 -2.88675L5 -0.5L5.39679 -0.5L5.39679 0.5L5 0.5L5 2.88675ZM148.667 0Q148.667 0.131005 148.654 0.261379Q148.641 0.391753 148.615 0.520241Q148.59 0.648728 148.552 0.774092Q148.514 0.899456 148.464 1.02049Q148.414 1.14152 148.352 1.25706Q148.29 1.37259 148.217 1.48152Q148.144 1.59045 148.061 1.69172Q147.978 1.79298 147.886 1.88562Q147.793 1.97825 147.692 2.06136Q147.59 2.14447 147.482 2.21725Q147.373 2.29003 147.257 2.35179Q147.142 2.41355 147.02 2.46368Q146.899 2.51381 146.774 2.55184Q146.649 2.58987 146.52 2.61543Q146.392 2.64099 146.261 2.65383Q146.131 2.66667 146 2.66667Q145.885 2.66667 145.77 2.65672Q145.655 2.64678 145.542 2.62697Q145.428 2.60715 145.317 2.57762Q145.205 2.54808 145.097 2.50904Q144.988 2.47001 144.884 2.42176Q144.779 2.37351 144.679 2.31641Q144.579 2.25931 144.484 2.19379Q144.389 2.12826 144.3 2.0548Q144.212 1.98134 144.129 1.9005Q144.047 1.81965 143.972 1.73201Q143.898 1.64438 143.831 1.55062Q143.763 1.45685 143.705 1.35765Q143.646 1.25845 143.596 1.15456Q143.546 1.05067 143.506 0.942863Q143.465 0.835055 143.434 0.724132Q143.402 0.613209 143.381 0.5L142.985 0.5L142.985 -0.5L143.381 -0.5Q143.402 -0.613209 143.434 -0.724132Q143.465 -0.835055 143.506 -0.942863Q143.546 -1.05067 143.596 -1.15456Q143.646 -1.25845 143.705 -1.35765Q143.763 -1.45685 143.831 -1.55062Q143.898 -1.64438 143.972 -1.73201Q144.047 -1.81965 144.129 -1.9005Q144.212 -1.98134 144.3 -2.0548Q144.389 -2.12826 144.484 -2.19379Q144.579 -2.25931 144.679 -2.31641Q144.779 -2.37351 144.884 -2.42176Q144.988 -2.47001 145.097 -2.50904Q145.205 -2.54808 145.317 -2.57762Q145.428 -2.60715 145.542 -2.62697Q145.655 -2.64678 145.77 -2.65672Q145.885 -2.66667 146 -2.66667Q146.131 -2.66667 146.261 -2.65383Q146.392 -2.64099 146.52 -2.61543Q146.649 -2.58987 146.774 -2.55184Q146.899 -2.51381 147.02 -2.46368Q147.142 -2.41355 147.257 -2.35179Q147.373 -2.29003 147.482 -2.21725Q147.59 -2.14447 147.692 -2.06136Q147.793 -1.97825 147.886 -1.88562Q147.978 -1.79298 148.061 -1.69172Q148.144 -1.59045 148.217 -1.48152Q148.29 -1.37259 148.352 -1.25706Q148.414 -1.14152 148.464 -1.02049Q148.514 -0.899456 148.552 -0.774092Q148.59 -0.648728 148.615 -0.520241Q148.641 -0.391753 148.654 -0.261379Q148.667 -0.131005 148.667 0ZM6.61866 0.5L7.7784 0.5L7.7784 -0.5L6.61866 -0.5L6.61866 0.5ZM9.02 0.5L10.1474 0.5L10.1474 -0.5L9.02 -0.5L9.02 0.5ZM11.3314 0.5L12.5704 0.5L12.5704 -0.5L11.3314 -0.5L11.3314 0.5ZM13.7531 0.5L14.9793 0.5L14.9793 -0.5L13.7531 -0.5L13.7531 0.5ZM16.1308 0.5L17.3163 0.5L17.3163 -0.5L16.1308 -0.5L16.1308 0.5ZM18.5349 0.5L19.7856 0.5L19.7856 -0.5L18.5349 -0.5L18.5349 0.5ZM20.938 0.5L22.1149 0.5L22.1149 -0.5L20.938 -0.5L20.938 0.5ZM23.3157 0.5L24.5397 0.5L24.5397 -0.5L23.3157 -0.5L23.3157 0.5ZM25.7863 0.5L26.9126 0.5L26.9126 -0.5L25.7863 -0.5L25.7863 0.5ZM28.0558 0.5L29.3612 0.5L29.3612 -0.5L28.0558 -0.5L28.0558 0.5ZM30.5384 0.5L31.7308 0.5L31.7308 -0.5L30.5384 -0.5L30.5384 0.5ZM32.938 0.5L34.1594 0.5L34.1594 -0.5L32.938 -0.5L32.938 0.5ZM35.2395 0.5L36.4865 0.5L36.4865 -0.5L35.2395 -0.5L35.2395 0.5ZM37.7463 0.5L38.8589 0.5L38.8589 -0.5L37.7463 -0.5L37.7463 0.5ZM40.1416 0.5L41.2734 0.5L41.2734 -0.5L40.1416 -0.5L40.1416 0.5ZM42.4137 0.5L43.7269 0.5L43.7269 -0.5L42.4137 -0.5L42.4137 0.5ZM44.8843 0.5L46.0492 0.5L46.0492 -0.5L44.8843 -0.5L44.8843 0.5ZM47.2212 0.5L48.4001 0.5L48.4001 -0.5L47.2212 -0.5L47.2212 0.5ZM49.5854 0.5L50.7769 0.5L50.7769 -0.5L49.5854 -0.5L49.5854 0.5ZM51.9743 0.5L53.1772 0.5L53.1772 -0.5L51.9743 -0.5L51.9743 0.5ZM54.3853 0.5L55.5983 0.5L55.5983 -0.5L54.3853 -0.5L54.3853 0.5ZM56.8158 0.5L58.0375 0.5L58.0375 -0.5L56.8158 -0.5L56.8158 0.5ZM59.2632 0.5L60.4925 0.5L60.4925 -0.5L59.2632 -0.5L59.2632 0.5ZM61.5487 0.5L62.7838 0.5L62.7838 -0.5L61.5487 -0.5L61.5487 0.5ZM64.0215 0.5L65.2615 0.5L65.2615 -0.5L64.0215 -0.5L64.0215 0.5ZM66.5036 0.5L67.5696 0.5L67.5696 -0.5L66.5036 -0.5L66.5036 0.5ZM68.8145 0.5L70.0605 0.5L70.0605 -0.5L68.8145 -0.5L68.8145 0.5ZM71.1292 0.5L72.3763 0.5L72.3763 -0.5L71.1292 -0.5L71.1292 0.5ZM73.6237 0.5L74.8709 0.5L74.8709 -0.5L73.6237 -0.5L73.6237 0.5ZM75.9395 0.5L77.1855 0.5L77.1855 -0.5L75.9395 -0.5L75.9395 0.5ZM78.4304 0.5L79.4964 0.5L79.4964 -0.5L78.4304 -0.5L78.4304 0.5ZM80.7385 0.5L81.9785 0.5L81.9785 -0.5L80.7385 -0.5L80.7385 0.5ZM83.2162 0.5L84.4513 0.5L84.4513 -0.5L83.2162 -0.5L83.2162 0.5ZM85.5075 0.5L86.7368 0.5L86.7368 -0.5L85.5075 -0.5L85.5075 0.5ZM87.9625 0.5L89.1842 0.5L89.1842 -0.5L87.9625 -0.5L87.9625 0.5ZM90.4017 0.5L91.6147 0.5L91.6147 -0.5L90.4017 -0.5L90.4017 0.5ZM92.8228 0.5L94.0257 0.5L94.0257 -0.5L92.8228 -0.5L92.8228 0.5ZM95.2231 0.5L96.4146 0.5L96.4146 -0.5L95.2231 -0.5L95.2231 0.5ZM97.5999 0.5L98.7788 0.5L98.7788 -0.5L97.5999 -0.5L97.5999 0.5ZM99.9508 0.5L101.116 0.5L101.116 -0.5L99.9508 -0.5L99.9508 0.5ZM102.273 0.5L103.586 0.5L103.586 -0.5L102.273 -0.5L102.273 0.5ZM104.727 0.5L105.858 0.5L105.858 -0.5L104.727 -0.5L104.727 0.5ZM107.141 0.5L108.254 0.5L108.254 -0.5L107.141 -0.5L107.141 0.5ZM109.514 0.5L110.76 0.5L110.76 -0.5L109.514 -0.5L109.514 0.5ZM111.841 0.5L113.062 0.5L113.062 -0.5L111.841 -0.5L111.841 0.5ZM114.269 0.5L115.462 0.5L115.462 -0.5L114.269 -0.5L114.269 0.5ZM116.639 0.5L117.944 0.5L117.944 -0.5L116.639 -0.5L116.639 0.5ZM119.087 0.5L120.214 0.5L120.214 -0.5L119.087 -0.5L119.087 0.5ZM121.46 0.5L122.684 0.5L122.684 -0.5L121.46 -0.5L121.46 0.5ZM123.885 0.5L125.062 0.5L125.062 -0.5L123.885 -0.5L123.885 0.5ZM126.214 0.5L127.465 0.5L127.465 -0.5L126.214 -0.5L126.214 0.5ZM128.684 0.5L129.869 0.5L129.869 -0.5L128.684 -0.5L128.684 0.5ZM131.021 0.5L132.247 0.5L132.247 -0.5L131.021 -0.5L131.021 0.5ZM133.43 0.5L134.669 0.5L134.669 -0.5L133.43 -0.5L133.43 0.5ZM135.853 0.5L136.98 0.5L136.98 -0.5L135.853 -0.5L135.853 0.5ZM138.222 0.5L139.381 0.5L139.381 -0.5L138.222 -0.5L138.222 0.5ZM140.603 0.5L141.841 0.5L141.841 -0.5L140.603 -0.5L140.603 0.5Z" fill-rule="evenodd" transform="matrix(1 0 0 1 0 2.88672)" fill="rgb(255, 255, 255)" opacity="0.6"/>
</svg>
