<?xml version="1.0" encoding="utf-8" ?>
<svg xmlns="http://www.w3.org/2000/svg" xmlns:xlink="http://www.w3.org/1999/xlink" width="114.5681" height="32.9277" viewBox="0 0 114.5681 32.9277">
	<g opacity="0.87">
		<rect width="114.56812" height="32.928017" rx="8" ry="8" transform="matrix(1 0 0 1 0 0)" fill="rgb(48, 41, 61)"/>
		<defs>
			<linearGradient id="linearGradient3027164386" gradientTransform="matrix(1.24321e-15 32.928 -20.3032 2.01626e-15 67.4357 -1.03526e-14)" gradientUnits="userSpaceOnUse" x1="0" y1="0.5" x2="1" y2="0.5">
				<stop offset="0" stop-color="rgb(169, 163, 194)" stop-opacity="0.2"/>
				<stop offset="1" stop-color="rgb(169, 163, 194)" stop-opacity="0.046999998"/>
			</linearGradient>
		</defs>
		<rect width="114.56812" height="32.928017" rx="8" ry="8" transform="matrix(1 0 0 1 0 0)" fill="url(#linearGradient3027164386)"/>
		<path d="M-0 8C0 3.58172 3.58172 -0 8 -0L106.568 0C110.986 0 114.568 3.58172 114.568 8L114.568 24.928C114.568 29.3463 110.986 32.928 106.568 32.928L8 32.928C3.58172 32.928 -0 29.3463 -0 24.928L0 8ZM8 0.988003C4.12738 0.988003 0.988003 4.12738 0.988003 8L0.988003 24.928C0.988003 28.8006 4.12738 31.94 8 31.94L106.568 31.94C110.441 31.94 113.58 28.8006 113.58 24.928L113.58 8C113.58 4.12738 110.441 0.988003 106.568 0.988003L8 0.988003Z" fill-rule="nonzero" transform="matrix(1 0 0 1 0 0)" fill="rgb(255, 255, 255)" fill-opacity="0.09"/>
		<path d="M9.85087 3.92068C9.85087 6.09703 8.1059 7.84211 5.92802 7.84211C3.75088 7.84211 2.00516 6.09703 2.00516 3.92068C2.00516 1.74434 3.75088 0 5.92802 0C8.1059 0 9.85087 1.74434 9.85087 3.92068ZM5.92802 14.82C2.71383 14.82 0 14.2976 0 12.2821C0 10.2658 2.73088 9.76192 5.92802 9.76192C9.14295 9.76192 11.856 10.2843 11.856 12.2999C11.856 14.3162 9.12516 14.82 5.92802 14.82Z" fill-rule="evenodd" transform="matrix(1 0 0 1 13.832 9.05398)" fill="rgb(255, 255, 255)"/>
		<defs>
			<linearGradient id="linearGradient4568817320" gradientTransform="matrix(1.53652e-15 27 -25.0932 1.65327e-15 43.0466 -2.83614e-15)" gradientUnits="userSpaceOnUse" x1="0" y1="0.5" x2="1" y2="0.5">
				<stop offset="0" stop-color="rgb(255, 255, 255)"/>
				<stop offset="1" stop-color="rgb(255, 255, 255)" stop-opacity="0.69999999"/>
			</linearGradient>
		</defs>
		<path d="M10.6252 14.0771Q10.6633 14.0771 10.6633 14.1152L10.6633 14.6367Q10.6633 14.6748 10.6252 14.6748L4.30297 14.6748Q4.26489 14.6748 4.26489 14.6367L4.26489 14.1152Q4.26489 14.0771 4.30297 14.0771L10.6252 14.0771ZM10.6252 12.4658Q10.6633 12.4658 10.6633 12.5039L10.6633 13.0283Q10.6633 13.0664 10.6252 13.0664L4.30297 13.0664Q4.26489 13.0664 4.26489 13.0283L4.26489 12.5039Q4.26489 12.4658 4.30297 12.4658L10.6252 12.4658ZM7.80395 8.25293Q7.84204 8.25293 7.84204 8.29102L7.84204 15.2725Q7.84204 15.3105 7.80395 15.3105L7.13598 15.3105Q7.0979 15.3105 7.0979 15.2725L7.0979 8.29102Q7.0979 8.25293 7.13598 8.25293L7.80395 8.25293ZM11.0061 10.8281Q11.0266 10.8281 11.0354 10.8398Q11.0442 10.8486 11.0442 10.8662L11.0442 15.2021Q11.0442 15.2402 11.0061 15.2402L10.3498 15.2402Q10.3118 15.2402 10.3118 15.2021L10.3118 11.4492L4.59301 11.4492L4.59301 15.3926Q4.59301 15.4307 4.552 15.4307L3.89575 15.4307Q3.85766 15.4307 3.85766 15.3926L3.85766 10.8662Q3.85766 10.8486 3.86645 10.8398Q3.87524 10.8281 3.89575 10.8281L11.0061 10.8281ZM10.5403 8.47266Q10.5403 8.43457 10.5784 8.43457L11.2375 8.43457Q11.2756 8.43457 11.2756 8.47266L11.2756 9.78809Q11.2756 9.80566 11.2668 9.81738Q11.2581 9.82617 11.2375 9.82617L3.54712 9.82617Q3.50903 9.82617 3.50903 9.78809L3.50903 9.19629Q3.50903 9.1582 3.54712 9.1582L10.5403 9.1582L10.5403 8.47266ZM11.4836 16.0957Q11.5217 16.0957 11.5217 16.1338L11.5217 16.7549Q11.5217 16.793 11.4836 16.793L3.2893 16.793Q3.25122 16.793 3.25122 16.7549L3.25122 16.1338Q3.25122 16.0957 3.2893 16.0957L11.4836 16.0957ZM5.7854 17.168Q5.81762 17.1475 5.8352 17.1797L6.70825 18.7734Q6.72876 18.8057 6.69653 18.8232L6.0813 19.1455Q6.04907 19.1631 6.03149 19.1338L5.15844 17.54Q5.13794 17.5049 5.17016 17.4902L5.7854 17.168ZM10.1594 15.3955Q10.1975 15.3955 10.1975 15.4336L10.1975 19.1162Q10.1975 19.1338 10.1887 19.1426Q10.1799 19.1543 10.1594 19.1543L8.26391 19.1543Q8.22583 19.1543 8.22583 19.1162L8.22583 18.4775Q8.22583 18.4395 8.26391 18.4395L9.43579 18.4395L9.43579 15.4336Q9.43579 15.3955 9.47387 15.3955L10.1594 15.3955ZM3.40649 11.1855Q3.44458 11.1855 3.44458 11.2236L3.44458 11.959Q3.44458 11.9971 3.40649 11.9971L0.450436 11.9971Q0.41235 11.9971 0.41235 11.959L0.41235 11.2236Q0.41235 11.1855 0.450436 11.1855L3.40649 11.1855ZM2.26977 8.32617Q2.31079 8.32617 2.31079 8.36426L2.31079 19.1455Q2.31079 19.1836 2.26977 19.1836L1.58422 19.1836Q1.54614 19.1836 1.54614 19.1455L1.54614 8.36426Q1.54614 8.32617 1.58422 8.32617L2.26977 8.32617Z" fill-rule="nonzero" transform="matrix(1 0 0 1 35.5681 2.96401)" fill="url(#linearGradient4568817320)"/>
		<defs>
			<linearGradient id="linearGradient7114838077" gradientTransform="matrix(1.53652e-15 27 -25.0932 1.65327e-15 43.0466 -2.83614e-15)" gradientUnits="userSpaceOnUse" x1="0" y1="0.5" x2="1" y2="0.5">
				<stop offset="0" stop-color="rgb(255, 255, 255)"/>
				<stop offset="1" stop-color="rgb(255, 255, 255)" stop-opacity="0.69999999"/>
			</linearGradient>
		</defs>
		<path d="M23.6974 11.7744Q23.7354 11.7744 23.7354 11.8125L23.7354 12.498Q23.7354 12.5361 23.6974 12.5361L12.8224 12.5361Q12.7843 12.5361 12.7843 12.498L12.7843 11.8125Q12.7843 11.7744 12.8224 11.7744L23.6974 11.7744ZM18.6114 8.32324Q18.6524 8.32324 18.6524 8.36133L18.6524 18.0703Q18.6524 18.1084 18.6114 18.1084L17.9083 18.1084Q17.8702 18.1084 17.8702 18.0703L17.8702 8.36133Q17.8702 8.32324 17.9083 8.32324L18.6114 8.32324ZM22.9562 17.7275Q22.9942 17.7275 22.9942 17.7656L22.9942 18.4512Q22.9942 18.4893 22.9562 18.4893L13.5636 18.4893Q13.5255 18.4893 13.5255 18.4512L13.5255 17.7656Q13.5255 17.7275 13.5636 17.7275L22.9562 17.7275Z" fill-rule="nonzero" transform="matrix(1 0 0 1 35.5681 2.96401)" fill="url(#linearGradient7114838077)"/>
		<defs>
			<linearGradient id="linearGradient8621428663" gradientTransform="matrix(1.53652e-15 27 -25.0932 1.65327e-15 43.0466 -2.83614e-15)" gradientUnits="userSpaceOnUse" x1="0" y1="0.5" x2="1" y2="0.5">
				<stop offset="0" stop-color="rgb(255, 255, 255)"/>
				<stop offset="1" stop-color="rgb(255, 255, 255)" stop-opacity="0.69999999"/>
			</linearGradient>
		</defs>
		<path d="M25.7744 12.7939Q25.7744 12.7764 25.7832 12.7676Q25.7949 12.7559 25.8125 12.7559L28.8857 12.7559Q28.9033 12.7559 28.9121 12.7676Q28.9238 12.7764 28.9238 12.7939L28.9238 18.293Q28.9238 18.3105 28.9121 18.3193Q28.9033 18.3311 28.8857 18.3311L25.8125 18.3311Q25.7949 18.3311 25.7832 18.3193Q25.7744 18.3105 25.7744 18.293L25.7744 12.7939ZM28.1884 13.5088L26.5097 13.5088L26.5097 17.5781L28.1884 17.5781L28.1884 13.5088ZM27.5058 9.31348Q27.5234 9.32227 27.5322 9.33105Q27.5439 9.33984 27.5351 9.36035Q27.2597 10.6436 26.706 11.877Q26.1523 13.1074 25.2675 14.4111Q25.2675 14.4199 25.2587 14.4287Q25.25 14.4375 25.2382 14.4375Q25.2294 14.4346 25.2236 14.4258L24.7988 13.749Q24.7871 13.7373 24.7841 13.7227Q24.7812 13.7051 24.7929 13.6875Q25.5869 12.498 26.0703 11.4111Q26.5566 10.3213 26.7968 9.19629Q26.8085 9.17871 26.8173 9.17285Q26.8291 9.16406 26.8466 9.16699L27.5058 9.31348ZM31.5283 9.17285Q31.5664 9.17285 31.5664 9.21094L31.5664 13.7754Q31.5664 15.3135 31.1855 16.7139Q30.8076 18.1143 30.0166 19.3213Q29.9902 19.3623 29.958 19.3418L29.3632 18.9668Q29.331 18.9492 29.3574 18.9082Q30.8017 16.749 30.8017 13.7754L30.8017 9.21094Q30.8017 9.17285 30.8398 9.17285L31.5283 9.17285ZM29.1669 8.85938Q29.205 8.85938 29.205 8.89746L29.205 9.58301Q29.205 9.62109 29.1669 9.62109L25.1269 9.62109Q25.0888 9.62109 25.0888 9.58301L25.0888 8.89746Q25.0888 8.85938 25.1269 8.85938L29.1669 8.85938ZM35.9902 13.1836Q36.0283 13.1836 36.0283 13.2217L36.0283 13.9072Q36.0283 13.9453 35.9902 13.9453L29.4013 13.9453Q29.3632 13.9453 29.3632 13.9072L29.3632 13.2217Q29.3632 13.1836 29.4013 13.1836L35.9902 13.1836ZM34.6543 9.17285Q34.6923 9.17285 34.6923 9.21094L34.6923 19.2012Q34.6923 19.2422 34.6543 19.2422L33.9687 19.2422Q33.9306 19.2422 33.9306 19.2012L33.9306 9.21094Q33.9306 9.17285 33.9687 9.17285L34.6543 9.17285ZM35.7294 8.79199Q35.7675 8.79199 35.7675 8.83008L35.7675 9.51562Q35.7675 9.55371 35.7294 9.55371L29.6474 9.55371Q29.6093 9.55371 29.6093 9.51562L29.6093 8.83008Q29.6093 8.79199 29.6474 8.79199L35.7294 8.79199Z" fill-rule="nonzero" transform="matrix(1 0 0 1 35.5681 2.96401)" fill="url(#linearGradient8621428663)"/>
		<defs>
			<linearGradient id="linearGradient6169349780" gradientTransform="matrix(1.53652e-15 27 -25.0932 1.65327e-15 43.0466 -2.83614e-15)" gradientUnits="userSpaceOnUse" x1="0" y1="0.5" x2="1" y2="0.5">
				<stop offset="0" stop-color="rgb(255, 255, 255)"/>
				<stop offset="1" stop-color="rgb(255, 255, 255)" stop-opacity="0.69999999"/>
			</linearGradient>
		</defs>
		<path d="M41.4393 10.7578Q41.4656 10.7314 41.4891 10.7607L41.8348 11.2939Q41.8553 11.3203 41.8231 11.3525Q40.3113 12.4424 38.6356 13.0488Q38.5945 13.0693 38.5799 13.0283L38.3807 12.4336Q38.3631 12.3926 38.4012 12.3838Q39.201 12.085 39.9539 11.6748Q40.7068 11.2617 41.4393 10.7578ZM43.0916 8.29395Q43.1326 8.29395 43.1326 8.33203L43.1326 9.50098Q43.1326 9.53906 43.0916 9.53906L42.3885 9.53906Q42.3504 9.53906 42.3504 9.50098L42.3504 8.33203Q42.3504 8.29395 42.3885 8.29395L43.0916 8.29395ZM47.6971 9.17285Q47.7176 9.17285 47.7264 9.18457Q47.7381 9.19336 47.7381 9.21094L47.7381 11.3965Q47.7381 11.4346 47.6971 11.4346L47.032 11.4346Q46.994 11.4346 46.994 11.3965L46.994 9.9082L38.4861 9.9082L38.4861 11.3965Q38.4861 11.4346 38.4481 11.4346L37.783 11.4346Q37.742 11.4346 37.742 11.3965L37.742 9.21094Q37.742 9.19336 37.7508 9.18457Q37.7625 9.17285 37.783 9.17285L47.6971 9.17285ZM44.0408 10.7578Q45.5291 11.8037 47.0789 12.3779Q47.117 12.3926 47.0994 12.4336L46.9002 13.0283Q46.8856 13.0605 46.8445 13.0547Q46.0066 12.7471 45.201 12.3135Q44.3953 11.877 43.657 11.3525Q43.6248 11.3203 43.6453 11.2939L43.991 10.7607Q44.0145 10.7314 44.0408 10.7578ZM41.952 12.8701Q41.99 12.8701 41.99 12.9082L41.99 14.5811Q41.99 16.3447 40.909 17.5547Q39.8279 18.7646 37.657 19.1748Q37.6131 19.1836 37.6072 19.1455L37.4959 18.4863Q37.49 18.4482 37.5281 18.4424Q39.4441 18.0791 40.3289 17.0977Q41.2166 16.1133 41.2166 14.5811L41.2166 12.9082Q41.2166 12.8701 41.2547 12.8701L41.952 12.8701ZM46.5691 14.0771Q46.5867 14.0771 46.5955 14.0889Q46.6072 14.0977 46.6072 14.1182L46.6072 18.3896L48.2508 18.3896Q48.2889 18.3896 48.2889 18.4307L48.2889 19.0928Q48.2889 19.1309 48.2508 19.1309L45.8719 19.1309Q45.8543 19.1309 45.8426 19.1191Q45.8338 19.1104 45.8338 19.0928L45.8338 14.8184L37.9061 14.8184Q37.868 14.8184 37.868 14.7803L37.868 14.1182Q37.868 14.0771 37.9061 14.0771L46.5691 14.0771Z" fill-rule="nonzero" transform="matrix(1 0 0 1 35.5681 2.96401)" fill="url(#linearGradient6169349780)"/>
		<defs>
			<linearGradient id="linearGradient1981992596" gradientTransform="matrix(1.53652e-15 27 -25.0932 1.65327e-15 43.0466 -2.83614e-15)" gradientUnits="userSpaceOnUse" x1="0" y1="0.5" x2="1" y2="0.5">
				<stop offset="0" stop-color="rgb(255, 255, 255)"/>
				<stop offset="1" stop-color="rgb(255, 255, 255)" stop-opacity="0.69999999"/>
			</linearGradient>
		</defs>
		<path d="M51.0573 8.74219Q51.0573 8.72168 51.0661 8.71289Q51.0778 8.70117 51.0983 8.70117L58.862 8.70117Q58.8825 8.70117 58.8913 8.71289Q58.903 8.72168 58.903 8.74219L58.903 11.9766Q58.903 11.9941 58.8913 12.0059Q58.8825 12.0146 58.862 12.0146L51.0983 12.0146Q51.0778 12.0146 51.0661 12.0059Q51.0573 11.9941 51.0573 11.9766L51.0573 8.74219ZM58.1383 9.41895L51.8219 9.41895L51.8219 11.2998L58.1383 11.2998L58.1383 9.41895ZM54.5993 14.5957Q54.5993 14.5693 54.6081 14.5576Q54.6169 14.543 54.6374 14.543L55.3229 14.543Q55.361 14.543 55.361 14.5811Q55.3493 15.7646 54.7018 16.7871Q54.0573 17.8066 52.777 18.4688Q51.4967 19.1309 49.6803 19.251Q49.6305 19.251 49.6305 19.2129L49.5778 18.5244Q49.5778 18.4863 49.6159 18.4863Q51.2653 18.3779 52.3815 17.8271Q53.5006 17.2734 54.0426 16.4326Q54.5876 15.5918 54.5993 14.5957ZM59.5182 13.1162Q59.5387 13.1162 59.5475 13.125Q59.5563 13.1338 59.5563 13.1543L59.5563 16.8105Q59.5563 16.8516 59.5182 16.8516L58.8327 16.8516Q58.7946 16.8516 58.7946 16.8105L58.7946 13.8457L51.1657 13.8457L51.1657 16.8105Q51.1657 16.8516 51.1276 16.8516L50.4421 16.8516Q50.404 16.8516 50.404 16.8105L50.404 13.1543Q50.404 13.1338 50.4128 13.125Q50.4215 13.1162 50.4421 13.1162L59.5182 13.1162ZM60.4411 18.4893Q60.4792 18.5068 60.4587 18.5479L60.2331 19.1895Q60.2184 19.2275 60.1774 19.21L55.5368 17.4316Q55.4987 17.4141 55.5163 17.373L55.7419 16.7314Q55.7594 16.6934 55.8004 16.7109L60.4411 18.4893Z" fill-rule="nonzero" transform="matrix(1 0 0 1 35.5681 2.96401)" fill="url(#linearGradient1981992596)"/>
	</g>
</svg>
