<svg width="802" height="278" viewBox="0 0 802 278" fill="none" xmlns="http://www.w3.org/2000/svg">
<g clip-path="url(#clip0_200_6649)">
<g filter="url(#filter0_f_200_6649)">
<g filter="url(#filter1_f_200_6649)">
<path d="M544.39 223.599C666.247 223.599 765.028 193.149 765.028 155.588C765.028 118.025 666.247 87.5757 544.39 87.5757C422.533 87.5757 323.75 118.025 323.75 155.588C323.75 193.149 422.533 223.599 544.39 223.599Z" fill="url(#paint0_radial_200_6649)"/>
</g>
</g>
<g filter="url(#filter2_f_200_6649)">
<g filter="url(#filter3_f_200_6649)">
<path d="M544.693 214.358C592.137 214.358 630.598 196.65 630.598 174.806C630.598 152.962 592.137 135.255 544.693 135.255C497.248 135.255 458.787 152.962 458.787 174.806C458.787 196.65 497.248 214.358 544.693 214.358Z" fill="url(#paint1_radial_200_6649)"/>
</g>
</g>
<path d="M551.605 158.379L592.334 145.962L633.062 158.379L592.334 170.795L551.605 158.379Z" fill="white" fill-opacity="0.1"/>
<path d="M507.665 197.63L467.771 185.467L507.665 173.305L547.558 185.467L507.665 197.63Z" fill="white" fill-opacity="0.02"/>
<path d="M507.58 197.905L466.781 185.467L507.665 173.003L548.548 185.467L507.665 197.931L507.58 197.905ZM507.75 197.353L507.665 197.629L507.58 197.353L547.473 185.191L547.558 185.467L547.473 185.743L507.58 173.581L507.665 173.305L507.75 173.581L467.857 185.743L467.772 185.467L467.857 185.191L507.75 197.353Z" fill="url(#paint2_linear_200_6649)"/>
<path d="M466.361 158.783L507.09 146.367L547.818 158.783L507.09 171.2L466.361 158.783Z" fill="white" fill-opacity="0.02"/>
<path d="M381.115 185.467L421.843 173.051L462.571 185.467L421.843 197.884L381.115 185.467Z" fill="white" fill-opacity="0.02"/>
<path d="M421.843 224.314L381.949 212.152L421.843 199.99L461.735 212.152L421.843 224.314Z" fill="white" fill-opacity="0.03"/>
<path d="M421.758 224.59L380.959 212.152L421.843 199.688L462.726 212.152L421.843 224.616L421.758 224.59ZM421.928 224.037L421.843 224.314L421.758 224.037L461.651 211.876L461.736 212.152L461.651 212.428L421.758 200.266L421.843 199.99L421.928 200.266L382.034 212.428L381.95 212.152L382.034 211.876L421.928 224.037Z" fill="url(#paint3_linear_200_6649)"/>
<path d="M339.068 225.496L379.796 213.078L420.525 225.496L379.796 237.912L339.068 225.496Z" fill="white" fill-opacity="0.03"/>
<path d="M338.492 198.81L379.221 186.393L419.948 198.81L379.221 211.226L338.492 198.81Z" fill="white" fill-opacity="0.02"/>
<path d="M594.805 172.125L635.533 159.708L676.26 172.125L635.533 184.541L594.805 172.125Z" fill="white" fill-opacity="0.03"/>
<path d="M678.156 197.225L638.264 185.062L678.156 172.901L718.049 185.062L678.156 197.225Z" fill="white" fill-opacity="0.03"/>
<path d="M678.072 197.501L637.273 185.063L678.157 172.6L719.04 185.063L678.157 197.527L678.072 197.501ZM678.241 196.949L678.157 197.225L678.072 196.949L717.965 184.787L718.049 185.063L717.965 185.339L678.072 173.178L678.157 172.902L678.241 173.178L638.349 185.339L638.264 185.063L638.349 184.787L678.241 196.949Z" fill="url(#paint4_linear_200_6649)"/>
<path d="M635.532 210.972L595.639 198.81L635.532 186.647L675.424 198.81L635.532 210.972Z" fill="white" fill-opacity="0.1"/>
<path d="M635.45 211.248L594.65 198.81L635.534 186.346L676.417 198.81L635.534 211.274L635.45 211.248ZM635.619 210.696L635.534 210.972L635.45 210.696L675.342 198.534L675.426 198.81L675.342 199.086L635.45 186.924L635.534 186.648L635.619 186.924L595.726 199.086L595.641 198.81L595.726 198.534L635.619 210.696Z" fill="url(#paint5_linear_200_6649)"/>
<path d="M552.758 212.152L593.486 199.735L634.214 212.152L593.486 224.569L552.758 212.152Z" fill="white" fill-opacity="0.03"/>
<path d="M210.623 239.241L251.351 226.824L292.079 239.241L251.351 251.658L210.623 239.241Z" fill="white" fill-opacity="0.02"/>
<path d="M594.805 225.496L635.533 213.078L676.26 225.496L635.533 237.912L594.805 225.496Z" fill="white" fill-opacity="0.03"/>
<path d="M552.182 238.837L592.91 226.419L633.638 238.837L592.91 251.253L552.182 238.837Z" fill="white" fill-opacity="0.03"/>
<path d="M806.602 237.657L766.709 225.495L806.602 213.333L846.491 225.495L806.602 237.657Z" fill="white" fill-opacity="0.02"/>
<path d="M806.517 237.933L765.719 225.495L806.602 213.031L847.482 225.495L806.602 237.959L806.517 237.933ZM806.687 237.381L806.602 237.657L806.517 237.381L846.407 225.219L846.492 225.495L846.407 225.771L806.517 213.609L806.602 213.333L806.687 213.609L766.794 225.771L766.709 225.495L766.794 225.219L806.687 237.381Z" fill="url(#paint6_linear_200_6649)"/>
<path d="M765.873 252.178L806.601 239.762L847.332 252.178L806.601 264.595L765.873 252.178Z" fill="white" fill-opacity="0.02"/>
<path opacity="0.6" d="M508.984 145.441L549.712 133.024L590.441 145.441L549.712 157.858L508.984 145.441Z" fill="url(#paint7_linear_200_6649)"/>
<path d="M551.605 158.379L592.334 145.962L633.062 158.379L592.334 170.795L551.605 158.379Z" fill="url(#paint8_linear_200_6649)"/>
<path d="M508.984 172.125L549.712 159.708L590.441 172.125L549.712 184.541L508.984 172.125Z" fill="url(#paint9_linear_200_6649)"/>
<path d="M466.938 185.467L507.666 173.051L548.394 185.467L507.666 197.884L466.938 185.467Z" fill="url(#paint10_linear_200_6649)"/>
<path d="M466.361 158.783L507.09 146.367L547.818 158.783L507.09 171.2L466.361 158.783Z" fill="url(#paint11_linear_200_6649)"/>
<path d="M423.737 172.125L464.465 159.708L505.194 172.125L464.465 184.542L423.737 172.125Z" fill="url(#paint12_linear_200_6649)"/>
<path d="M381.115 185.467L421.843 173.051L462.571 185.467L421.843 197.884L381.115 185.467Z" fill="url(#paint13_linear_200_6649)"/>
<path d="M423.737 198.406L464.465 185.99L505.194 198.406L464.465 210.823L423.737 198.406Z" fill="url(#paint14_linear_200_6649)"/>
<path d="M381.115 212.152L421.843 199.735L462.571 212.152L421.843 224.569L381.115 212.152Z" fill="url(#paint15_linear_200_6649)"/>
<path d="M339.068 225.496L379.796 213.078L420.525 225.496L379.796 237.912L339.068 225.496Z" fill="url(#paint16_linear_200_6649)"/>
<path d="M338.492 198.81L379.221 186.393L419.948 198.81L379.221 211.226L338.492 198.81Z" fill="url(#paint17_linear_200_6649)"/>
<path d="M295.869 212.152L336.598 199.736L377.326 212.152L336.598 224.57L295.869 212.152Z" fill="url(#paint18_linear_200_6649)"/>
<path d="M594.805 172.125L635.533 159.708L676.26 172.125L635.533 184.541L594.805 172.125Z" fill="url(#paint19_linear_200_6649)"/>
<path d="M637.428 185.063L678.156 172.646L718.884 185.063L678.156 197.48L637.428 185.063Z" fill="url(#paint20_linear_200_6649)"/>
<path d="M594.807 198.81L635.535 186.393L676.262 198.81L635.535 211.226L594.807 198.81Z" fill="url(#paint21_linear_200_6649)"/>
<path d="M552.758 212.152L593.486 199.735L634.214 212.152L593.486 224.569L552.758 212.152Z" fill="url(#paint22_linear_200_6649)"/>
<path d="M552.182 185.467L592.91 173.051L633.638 185.467L592.91 197.884L552.182 185.467Z" fill="url(#paint23_linear_200_6649)"/>
<path d="M509.559 198.81L550.287 186.393L591.015 198.81L550.287 211.226L509.559 198.81Z" fill="url(#paint24_linear_200_6649)"/>
<path d="M466.938 212.152L507.666 199.735L548.394 212.152L507.666 224.569L466.938 212.152Z" fill="url(#paint25_linear_200_6649)"/>
<path d="M509.559 225.09L550.287 212.673L591.015 225.09L550.287 237.506L509.559 225.09Z" fill="url(#paint26_linear_200_6649)"/>
<path d="M466.938 238.837L507.666 226.42L548.394 238.837L507.666 251.254L466.938 238.837Z" fill="url(#paint27_linear_200_6649)"/>
<path d="M424.889 252.178L465.617 239.762L506.345 252.178L465.617 264.595L424.889 252.178Z" fill="url(#paint28_linear_200_6649)"/>
<path d="M424.312 225.496L465.041 213.078L505.769 225.496L465.041 237.912L424.312 225.496Z" fill="url(#paint29_linear_200_6649)"/>
<path d="M381.69 238.837L422.419 226.421L463.146 238.837L422.419 251.254L381.69 238.837Z" fill="url(#paint30_linear_200_6649)"/>
<path d="M680.051 198.81L720.779 186.393L761.506 198.81L720.779 211.226L680.051 198.81Z" fill="url(#paint31_linear_200_6649)"/>
<path d="M253.246 225.9L293.974 213.483L334.702 225.9L293.974 238.316L253.246 225.9Z" fill="url(#paint32_linear_200_6649)"/>
<path d="M722.674 211.748L763.401 199.331L804.129 211.748L763.401 224.164L722.674 211.748Z" fill="url(#paint33_linear_200_6649)"/>
<path d="M295.869 238.837L336.598 226.421L377.326 238.837L336.598 251.254L295.869 238.837Z" fill="url(#paint34_linear_200_6649)"/>
<path d="M680.051 225.496L720.779 213.078L761.506 225.496L720.779 237.912L680.051 225.496Z" fill="url(#paint35_linear_200_6649)"/>
<path d="M253.246 252.583L293.974 240.167L334.702 252.583L293.974 265L253.246 252.583Z" fill="url(#paint36_linear_200_6649)"/>
<path d="M638.004 238.837L678.731 226.421L719.459 238.837L678.731 251.254L638.004 238.837Z" fill="url(#paint37_linear_200_6649)"/>
<path d="M637.428 212.152L678.156 199.736L718.884 212.152L678.156 224.57L637.428 212.152Z" fill="url(#paint38_linear_200_6649)"/>
<path d="M210.623 239.241L251.351 226.824L292.079 239.241L251.351 251.658L210.623 239.241Z" fill="url(#paint39_linear_200_6649)"/>
<path d="M594.805 225.496L635.533 213.078L676.26 225.496L635.533 237.912L594.805 225.496Z" fill="url(#paint40_linear_200_6649)"/>
<path d="M168 252.583L208.729 240.167L249.457 252.583L208.729 265L168 252.583Z" fill="url(#paint41_linear_200_6649)"/>
<path d="M552.182 238.837L592.91 226.42L633.638 238.837L592.91 251.254L552.182 238.837Z" fill="url(#paint42_linear_200_6649)"/>
<path d="M594.807 251.776L635.535 239.358L676.262 251.776L635.535 264.192L594.807 251.776Z" fill="url(#paint43_linear_200_6649)"/>
<path d="M509.559 252.178L550.287 239.762L591.015 252.178L550.287 264.595L509.559 252.178Z" fill="url(#paint44_linear_200_6649)"/>
<path d="M765.873 225.496L806.601 213.078L847.332 225.496L806.601 237.912L765.873 225.496Z" fill="url(#paint45_linear_200_6649)"/>
<path d="M339.068 252.583L379.796 240.167L420.525 252.583L379.796 265L339.068 252.583Z" fill="url(#paint46_linear_200_6649)"/>
<path d="M765.873 252.178L806.601 239.762L847.332 252.178L806.601 264.595L765.873 252.178Z" fill="url(#paint47_linear_200_6649)"/>
<path d="M723.25 238.837L763.978 226.42L804.705 238.837L763.978 251.254L723.25 238.837Z" fill="url(#paint48_linear_200_6649)"/>
<path d="M680.627 252.178L721.355 239.762L762.083 252.178L721.355 264.595L680.627 252.178Z" fill="url(#paint49_linear_200_6649)"/>
<path d="M425.94 67.6924C421.802 67.6924 418.447 71.035 418.447 75.1584V96.0567C418.447 100.18 421.802 103.523 425.94 103.523H498.397C502.535 103.523 505.89 100.18 505.89 96.0567V75.1584C505.89 71.035 502.535 67.6924 498.397 67.6924H425.94Z" fill="url(#paint50_linear_200_6649)" fill-opacity="0.32"/>
<path d="M418.447 75.1584C418.447 71.035 421.802 67.6924 425.94 67.6924H498.397C502.535 67.6924 505.89 71.035 505.89 75.1584V96.0567C505.89 100.18 502.535 103.523 498.397 103.523H425.94C421.802 103.523 418.447 100.18 418.447 96.0567V75.1584ZM425.94 69.1856C422.63 69.1856 419.946 71.8597 419.946 75.1584V96.0567C419.946 99.3554 422.63 102.03 425.94 102.03H498.397C501.707 102.03 504.391 99.3554 504.391 96.0567V75.1584C504.391 71.8597 501.707 69.1856 498.397 69.1856H425.94Z" fill="#59447B"/>
<path d="M567.562 118.461C563.423 118.461 560.068 121.804 560.068 125.927V146.826C560.068 150.949 563.423 154.292 567.562 154.292H625.179C629.317 154.292 632.672 150.949 632.672 146.826V125.927C632.672 121.804 629.317 118.461 625.179 118.461H567.562Z" fill="url(#paint51_linear_200_6649)" fill-opacity="0.32"/>
<path d="M560.068 125.927C560.068 121.804 563.423 118.461 567.562 118.461H625.179C629.317 118.461 632.672 121.804 632.672 125.927V146.826C632.672 150.949 629.317 154.292 625.179 154.292H567.562C563.423 154.292 560.068 150.949 560.068 146.826V125.927ZM567.562 119.955C564.251 119.955 561.567 122.629 561.567 125.927V146.826C561.567 150.124 564.251 152.799 567.562 152.799H625.179C628.49 152.799 631.173 150.124 631.173 146.826V125.927C631.173 122.629 628.49 119.955 625.179 119.955H567.562Z" fill="#59447B"/>
<path d="M693.448 55C689.31 55 685.955 58.3427 685.955 62.466V83.3644C685.955 87.4878 689.31 90.8304 693.448 90.8304H751.066C755.204 90.8304 758.559 87.4878 758.559 83.3644V62.466C758.559 58.3427 755.204 55 751.066 55H693.448Z" fill="url(#paint52_linear_200_6649)" fill-opacity="0.32"/>
<path d="M685.955 62.466C685.955 58.3427 689.31 55 693.448 55H751.066C755.204 55 758.559 58.3427 758.559 62.466V83.3644C758.559 87.4878 755.204 90.8304 751.066 90.8304H693.448C689.31 90.8304 685.955 87.4878 685.955 83.3644V62.466ZM693.448 56.4932C690.138 56.4932 687.454 59.1673 687.454 62.466V83.3644C687.454 86.663 690.138 89.3372 693.448 89.3372H751.066C754.376 89.3372 757.06 86.663 757.06 83.3644V62.466C757.06 59.1673 754.376 56.4932 751.066 56.4932H693.448Z" fill="#59447B"/>
<path d="M462.283 209.547C464.973 209.547 467.153 210.55 467.153 211.787C467.153 213.024 464.973 214.027 462.283 214.027C459.593 214.027 457.412 213.024 457.412 211.787C457.412 210.55 459.593 209.547 462.283 209.547Z" fill="#7E39DC"/>
<path d="M594.164 223.731C595.199 223.731 596.038 224.4 596.038 225.225C596.038 226.049 595.199 226.718 594.164 226.718C593.13 226.718 592.291 226.049 592.291 225.225C592.291 224.4 593.13 223.731 594.164 223.731Z" fill="#7E39DC"/>
<path d="M720.798 210.293C722.66 210.293 724.17 210.961 724.17 211.786C724.17 212.611 722.66 213.279 720.798 213.279C718.935 213.279 717.426 212.611 717.426 211.786C717.426 210.961 718.935 210.293 720.798 210.293Z" fill="#7E39DC"/>
<path fill-rule="evenodd" clip-rule="evenodd" d="M462.659 108.382V109.898H461.16V108.382H462.659ZM462.659 112.899V116.001H461.16V112.899H462.659ZM462.659 118.91V122.191H461.16V118.91H462.659ZM462.659 125.126V128.264H461.16V125.126H462.659ZM462.659 131.205V134.274H461.16V131.205H462.659ZM462.659 137.456V140.321H461.16V137.456H462.659ZM462.659 143.252V146.237H461.16V143.252H462.659ZM462.659 149.267V152.333H461.16V149.267H462.659ZM462.659 155.424V158.529H461.16V155.424H462.659ZM462.659 161.64V164.745H461.16V161.64H462.659ZM462.659 167.836V170.902H461.16V167.836H462.659ZM462.659 173.932V176.917H461.16V173.932H462.659ZM462.659 179.848V182.713H461.16V179.848H462.659ZM462.659 185.895V188.964H461.16V185.895H462.659ZM462.659 191.906V195.043H461.16V191.906H462.659ZM462.659 197.978V201.259H461.16V197.978H462.659ZM462.659 204.168V207.27H461.16V204.168H462.659ZM461.16 211.787V210.271H462.659V211.787H461.16Z" fill="#7D60EA"/>
<path fill-rule="evenodd" clip-rule="evenodd" d="M595.288 158.031V159.579H593.789V158.031H595.288ZM595.288 162.596V165.439H593.789V162.596H595.288ZM595.288 168.48V171.535H593.789V168.48H595.288ZM595.288 174.463V177.161H593.789V174.463H595.288ZM595.288 180.371V183.265H593.789V180.371H595.288ZM595.288 186.215V189.198H593.789V186.215H595.288ZM595.288 192.192V195.176H593.789V192.192H595.288ZM595.288 198.125V201.019H593.789V198.125H595.288ZM595.288 204.229V206.927H593.789V204.229H595.288ZM595.288 209.855V212.91H593.789V209.855H595.288ZM595.288 215.952V218.794H593.789V215.952H595.288ZM593.789 223.359V221.812H595.288V223.359H593.789Z" fill="#7D60EA"/>
<path fill-rule="evenodd" clip-rule="evenodd" d="M721.172 93.0771V94.5468H719.674V93.0771H721.172ZM721.172 97.5558V100.364H719.674V97.5558H721.172ZM721.172 103.489V106.203H719.674V103.489H721.172ZM721.172 109.162V112.348H719.674V109.162H721.172ZM721.172 115.045V118.223H719.674V115.045H721.172ZM721.172 121.165V123.819H719.674V121.165H721.172ZM721.172 126.936V129.728H719.674V126.936H721.172ZM721.172 132.574V135.881H719.674V132.574H721.172ZM721.172 138.816V141.782H719.674V138.816H721.172ZM721.172 144.343V147.348H719.674V144.343H721.172ZM721.172 150.363V153.381H719.674V150.363H721.172ZM721.172 156.396V159.401H719.674V156.396H721.172ZM721.172 161.962V164.928H719.674V161.962H721.172ZM721.172 167.863V171.17H719.674V167.863H721.172ZM721.172 174.016V176.808H719.674V174.016H721.172ZM721.172 179.925V182.579H719.674V179.925H721.172ZM721.172 185.521V188.699H719.674V185.521H721.172ZM721.172 191.396V194.582H719.674V191.396H721.172ZM721.172 197.541V200.255H719.674V197.541H721.172ZM721.172 203.38V206.188H719.674V203.38H721.172ZM719.674 210.667V209.197H721.172V210.667H719.674Z" fill="#7D60EA"/>
<path d="M438.645 83.9236H433.613L433.939 82.5522H438.013V81.4104H434.167C434.262 80.9281 434.371 80.3638 434.463 79.7043L433.238 79.5566C433.169 80.1078 433.073 80.7247 432.925 81.4104H430.716V82.5522H432.685C432.52 83.2247 432.415 83.6841 432.346 83.9236H430.014V85.0522H432.023C431.901 85.4821 431.74 85.9283 431.565 86.3974V87.4178H436.057C435.609 88.0905 435.138 88.763 434.624 89.4487C433.452 88.8975 432.415 88.4415 431.509 88.1035L431.051 89.1928C431.875 89.5013 432.886 89.9442 434.058 90.5216C435.247 91.1024 436.218 91.6372 436.959 92.1096L437.364 90.8727C436.946 90.6299 436.393 90.3346 435.691 89.9704C436.162 89.3536 436.702 88.5892 437.338 87.6737L437.525 87.4048V86.2892H432.899C433.021 86.007 433.156 85.5903 433.304 85.0522H438.645V83.9236ZM429.379 79.6255C429.016 80.7116 428.542 81.8008 427.963 82.877C427.383 83.9367 426.804 84.8652 426.211 85.6298L426.991 86.6272C427.479 86.0202 427.923 85.4033 428.328 84.7701V91.8143H429.501V82.6341C429.892 81.7877 430.255 80.8887 430.567 79.9208L429.379 79.6255Z" fill="url(#paint53_linear_200_6649)"/>
<path d="M451.634 88.0643C452.269 88.0643 452.727 87.6082 453.01 86.6797C453.158 86.2761 453.254 85.9415 453.293 85.6724L452.365 85.2294C452.322 85.4821 452.256 85.7642 452.161 86.076C452.013 86.5846 451.838 86.8405 451.634 86.8405C451.42 86.8405 451.176 86.6797 450.919 86.3712C450.758 86.1548 450.623 85.9546 450.514 85.7774C451.123 85.0392 451.716 84.0845 452.296 82.9164L451.337 82.4341C450.962 83.251 450.514 83.9925 450.017 84.6488C449.813 84.0713 449.625 83.238 449.437 82.1783H452.888V81.1414H451.647L451.904 80.8724C451.528 80.4557 451.081 80.0127 450.583 79.5698L449.895 80.2031C450.287 80.564 450.597 80.8888 450.827 81.1414H449.289L449.247 80.7116L449.154 79.7437L447.966 79.7043C448.008 80.1735 448.061 80.646 448.127 81.1414H442.598V83.051C442.572 85.5379 442.41 86.1416 441.195 87.8477L442.233 88.494C442.815 87.6738 443.204 86.9093 443.421 86.181C443.635 85.4428 443.744 84.5307 443.744 83.4151V82.1783H448.262C448.466 83.5333 448.776 84.6783 449.167 85.6036C448.789 85.9808 448.357 86.345 447.873 86.7059V84.6224H444.297V87.3786H447.873V86.9225L448.479 87.7C448.897 87.3916 449.316 87.0439 449.721 86.6535L449.948 86.975C450.557 87.782 451.028 88.0643 451.634 88.0643ZM444.123 83.9499H448.196V83.064H444.123V83.9499ZM445.229 85.4428H446.902V86.532H445.229V85.4428ZM448.749 89.0321C448.588 88.8418 448.344 88.5892 448.008 88.2513C447.682 87.9166 447.412 87.6607 447.211 87.4737L446.457 88.2251C446.658 88.3989 446.915 88.681 447.238 89.0453C447.56 89.4061 447.804 89.7048 447.966 89.9311L448.749 89.0321ZM450.475 88.681C450.758 89.0059 451.067 89.4225 451.42 89.918C451.782 90.4167 452.065 90.8596 452.282 91.2206L453.254 90.4954C453.023 90.1608 452.727 89.7441 452.335 89.2454C451.96 88.75 451.647 88.3596 451.393 88.0773L450.475 88.681ZM449.329 89.0059C449.276 89.4619 449.22 89.7703 449.181 89.9311C449.085 90.3478 448.95 90.4298 448.291 90.4824C448.074 90.4954 447.752 90.5086 447.307 90.5086C446.859 90.5086 446.536 90.4954 446.322 90.4824C445.687 90.4298 445.539 90.3216 445.539 89.7835V88.1856L444.393 88.1298V90.2264C444.393 91.1418 444.824 91.4634 445.97 91.5322C446.388 91.5585 446.806 91.5715 447.211 91.5715C447.63 91.5715 448.035 91.5585 448.44 91.5322C449.707 91.4502 450.043 91.2894 450.205 90.4824C450.261 90.2526 450.313 89.9048 450.379 89.4061L449.329 89.0059ZM442.302 91.3681C442.934 90.3871 443.461 89.4619 443.853 88.5892L442.799 88.1725C442.384 89.0453 441.87 89.918 441.248 90.7775L442.302 91.3681Z" fill="url(#paint54_linear_200_6649)"/>
<path d="M468.254 87.2047C466.15 86.893 464.787 86.4764 463.868 85.7775H467.671V84.7308H465.366L465.597 84.4355C465.353 84.1928 465.043 83.9238 464.678 83.6415H467.105V80.2031H462.6V83.6415H464.26L463.815 84.1141C463.937 84.2059 464.194 84.4093 464.569 84.7308H462.452C462.547 84.5307 462.643 84.2617 462.748 83.9238L461.51 83.7236C461.415 84.1141 461.28 84.4487 461.131 84.7308H456.571V85.7775H460.242C459.432 86.3845 458.138 86.8274 456.018 87.2179L456.37 88.3333L457.206 88.1037V91.6505H458.3V91.0861H460.483V91.6505H461.576V87.5262H459.04C460.443 87.0275 461.266 86.4928 461.846 85.7775H462.317C463.031 86.4928 463.99 87.0834 465.165 87.5262H462.613V91.6505H463.706V91.0861H465.959V91.6505H467.052V88.1168C467.431 88.212 467.714 88.2644 467.915 88.3071L468.254 87.2047ZM457.124 83.6415H461.589V80.2162H457.124V83.6415ZM458.204 81.1973H460.526V82.6605H458.204V81.1973ZM466.041 82.6475H463.68V81.1973H466.041V82.6475ZM458.3 88.4941H460.483V90.1609H458.3V88.4941ZM465.959 88.5073V90.1609H463.706V88.5073H465.959Z" fill="url(#paint55_linear_200_6649)"/>
<path d="M483.007 90.8992C481.931 90.0527 481.081 89.193 480.446 88.3203C480.837 87.6346 481.147 86.8799 481.364 86.0466C481.592 85.2132 481.753 84.1929 481.875 82.9986H482.741V81.7878H479.26C479.474 81.1974 479.652 80.5641 479.8 79.9079L478.651 79.6782C478.503 80.4853 478.249 81.345 477.884 82.2702C477.518 83.1987 477.13 83.9664 476.682 84.5963L477.574 85.4166L477.884 84.8786C478.114 86.1549 478.516 87.2835 479.069 88.2777C478.45 89.1536 477.518 90.0133 476.264 90.8597L477.034 91.8277C478.206 90.9385 479.112 90.1052 479.744 89.3275C480.366 90.174 481.203 91.0337 482.24 91.8932L483.007 90.8992ZM471.248 86.4502C472.233 85.8858 473.07 85.2427 473.771 84.5012V85.8858H474.861V84.5701C475.562 85.1214 476.129 85.63 476.547 86.1287L477.156 85.3347C476.576 84.7571 475.819 84.0976 475.348 83.7761L474.861 84.3536V83.5072H477.209V82.5262H474.861V79.8259L473.771 79.7734V82.5262H471.1V83.5072H473.445C472.678 84.3012 471.759 84.9869 470.695 85.5381L471.248 86.4502ZM476.399 79.9998C476.264 80.2819 476.076 80.5903 475.845 80.9545C475.618 81.3187 475.401 81.6008 475.226 81.8141L476.05 82.3522C476.224 82.1226 476.441 81.8403 476.682 81.4795C476.925 81.1153 477.113 80.7938 477.265 80.5116L476.399 79.9998ZM473.27 81.8273C473.122 81.5452 472.948 81.2236 472.73 80.8725C472.516 80.5116 472.325 80.2426 472.177 80.0424L471.384 80.5247C471.558 80.7544 471.746 81.0366 471.95 81.3974C472.151 81.7616 472.312 82.0701 472.421 82.326L473.27 81.8273ZM479.744 87.149C479.204 86.0892 478.855 84.7965 478.694 83.2675C478.707 83.2249 478.733 83.1462 478.799 82.9986H480.755C480.581 84.7309 480.271 86.063 479.744 87.149ZM476.547 90.174L475.51 89.6491C476.089 89.111 476.455 88.5073 476.83 87.7133V86.8012H473.972C473.985 86.7619 474.011 86.6798 474.08 86.5321L474.229 86.1417L473.135 85.8334C473.096 85.9809 472.961 86.3025 472.743 86.8012H471.005V87.7691H472.259C472.055 88.1562 471.841 88.5467 471.598 88.9371C472.246 89.2193 472.878 89.5146 473.488 89.8229C472.773 90.174 471.854 90.5088 470.748 90.8467L471.248 91.8539C472.638 91.3979 473.741 90.8992 474.564 90.3742C475.012 90.6039 475.496 90.8729 476.05 91.1945L476.547 90.174ZM474.525 89.1668C473.998 88.9109 473.54 88.7075 473.122 88.5336C473.284 88.2514 473.419 87.9954 473.514 87.7691H475.618C475.335 88.3334 474.969 88.8026 474.525 89.1668Z" fill="url(#paint56_linear_200_6649)"/>
<path d="M489.674 85.364L489.578 84.6652C489.2 84.839 488.85 84.9867 488.528 85.1213V83.251H489.674V82.1093H488.528V79.7995L487.395 79.7568V82.1093H485.95V83.251H487.395V85.5772C486.625 85.8857 486.005 86.1153 485.531 86.2631L485.775 87.4999C486.18 87.3654 486.72 87.162 487.395 86.8798V89.9048C487.395 90.4692 487.313 90.5217 486.664 90.5775L485.992 90.63L486.315 91.7586L486.934 91.7061C488.311 91.5715 488.485 91.4502 488.528 90.2526V86.4106C489.16 86.1416 489.578 85.9678 489.753 85.8725L489.674 85.364ZM497.699 85.026H494.811V84.114L493.665 84.0713V85.026H491.291V83.8843H497.106V80.4294H490.131V84.1927C490.105 87.8083 489.822 88.9895 488.581 91.1418L489.631 91.7717C490.171 90.899 490.563 90.0525 490.793 89.2061C491.034 88.3596 491.182 87.3096 491.251 86.0629H493.665V87.3522H491.561V91.8276H492.707V91.2336H495.729V91.8144H496.862V87.3522H494.811V86.0629H497.699V85.026ZM491.291 82.8344V81.4662H495.917V82.8344H491.291ZM492.707 88.4251H495.729V90.2001H492.707V88.4251Z" fill="url(#paint57_linear_200_6649)"/>
<path d="M571.558 132.826C571.357 132.517 571.061 132.14 570.695 131.71C570.333 131.267 570.007 130.903 569.71 130.595L568.808 131.346C569.091 131.641 569.414 132.045 569.793 132.544C570.168 133.039 570.451 133.456 570.655 133.794L571.558 132.826ZM575.187 133.39L575.404 132.088H579.612V131.011H572.002V132.088H574.228L574.014 133.39H572.246V134.453H573.823L573.57 135.943H571.587V137.058H580.244V135.943H578.693L578.776 133.39H575.187ZM577.465 135.943H574.755L574.999 134.453H577.521L577.465 135.943ZM570.912 134.584H568.281V135.716H569.737V140.474C569.737 140.861 569.684 141.051 569.401 141.304L570.185 142.232C570.25 142.167 570.412 142.003 570.695 141.75C571.693 140.874 572.341 140.323 572.625 140.096L572.154 138.968L570.912 140.014V134.584ZM573.906 141.898H577.939V142.57H579.164V137.974H572.72V142.57H573.906V141.898ZM573.906 140.821V139.076H577.939V140.821H573.906Z" fill="url(#paint58_linear_200_6649)"/>
<path d="M591.726 134.519C591.874 133.915 592.009 133.321 592.131 132.731H594.153V131.602H589.757L589.622 131.146L589.352 130.312L588.097 130.5C588.206 130.824 588.311 131.185 588.42 131.602H583.819V132.731H585.94C586.046 133.282 586.154 133.872 586.25 134.519H583.092V135.621H594.88V134.519H591.726ZM590.876 132.731C590.698 133.511 590.563 134.102 590.458 134.519H587.531C587.435 133.941 587.313 133.351 587.191 132.731H590.876ZM585.911 142.072H592.062V142.596H593.329V136.668H584.656V142.596H585.911V142.072ZM585.911 138.833V137.813H592.062V138.833H585.911ZM592.062 139.922V140.969H585.911V139.922H592.062Z" fill="url(#paint59_linear_200_6649)"/>
<path d="M609.824 141.668C608.747 140.821 607.898 139.962 607.262 139.089C607.654 138.403 607.963 137.648 608.181 136.815C608.408 135.982 608.569 134.961 608.691 133.767H609.557V132.556H606.077C606.291 131.966 606.468 131.333 606.617 130.676L605.467 130.447C605.319 131.254 605.066 132.114 604.7 133.039C604.335 133.967 603.946 134.735 603.498 135.365L604.391 136.185L604.7 135.647C604.931 136.923 605.332 138.052 605.886 139.046C605.267 139.922 604.335 140.782 603.08 141.628L603.851 142.596C605.023 141.707 605.928 140.874 606.561 140.096C607.183 140.943 608.019 141.802 609.057 142.662L609.824 141.668ZM598.065 137.219C599.05 136.654 599.886 136.011 600.587 135.27V136.654H601.677V135.339C602.379 135.89 602.945 136.399 603.363 136.897L603.972 136.103C603.393 135.526 602.636 134.866 602.165 134.545L601.677 135.122V134.276H604.025V133.295H601.677V130.594L600.587 130.542V133.295H597.917V134.276H600.261C599.494 135.07 598.575 135.755 597.512 136.307L598.065 137.219ZM603.215 130.768C603.08 131.05 602.892 131.359 602.662 131.723C602.435 132.087 602.217 132.369 602.043 132.583L602.866 133.121C603.041 132.891 603.258 132.609 603.498 132.248C603.742 131.884 603.93 131.562 604.081 131.28L603.215 130.768ZM600.087 132.596C599.939 132.314 599.764 131.992 599.547 131.641C599.333 131.28 599.142 131.011 598.994 130.811L598.2 131.293C598.375 131.523 598.562 131.805 598.766 132.166C598.967 132.53 599.129 132.839 599.237 133.095L600.087 132.596ZM606.561 137.918C606.021 136.858 605.672 135.565 605.51 134.036C605.523 133.993 605.55 133.915 605.616 133.767H607.572C607.397 135.499 607.088 136.832 606.561 137.918ZM603.363 140.943L602.326 140.418C602.906 139.88 603.271 139.276 603.646 138.482V137.57H600.788C600.801 137.53 600.828 137.448 600.897 137.301L601.045 136.91L599.952 136.602C599.912 136.749 599.777 137.071 599.56 137.57H597.821V138.538H599.076C598.872 138.925 598.658 139.315 598.414 139.706C599.063 139.988 599.695 140.283 600.304 140.591C599.59 140.943 598.671 141.277 597.565 141.615L598.065 142.622C599.455 142.166 600.558 141.668 601.381 141.143C601.829 141.372 602.313 141.641 602.866 141.963L603.363 140.943ZM601.341 139.935C600.815 139.679 600.357 139.476 599.939 139.302C600.1 139.02 600.235 138.764 600.331 138.538H602.435C602.151 139.102 601.786 139.571 601.341 139.935Z" fill="url(#paint60_linear_200_6649)"/>
<path d="M616.49 136.133L616.395 135.434C616.016 135.608 615.667 135.756 615.344 135.89V134.02H616.49V132.878H615.344V130.569L614.211 130.526V132.878H612.766V134.02H614.211V136.346C613.441 136.655 612.822 136.884 612.348 137.032L612.591 138.269C612.996 138.134 613.536 137.931 614.211 137.649V140.674C614.211 141.238 614.129 141.291 613.48 141.347L612.809 141.399L613.131 142.528L613.75 142.475C615.127 142.341 615.301 142.219 615.344 141.022V137.18C615.976 136.911 616.395 136.737 616.569 136.642L616.49 136.133ZM624.515 135.795H621.627V134.883L620.481 134.84V135.795H618.107V134.653H623.922V131.198H616.948V134.962C616.922 138.577 616.638 139.759 615.397 141.911L616.447 142.541C616.987 141.668 617.379 140.822 617.61 139.975C617.85 139.129 617.998 138.079 618.067 136.832H620.481V138.121H618.377V142.597H619.523V142.003H622.546V142.583H623.679V138.121H621.627V136.832H624.515V135.795ZM618.107 133.603V132.235H622.734V133.603H618.107ZM619.523 139.194H622.546V140.969H619.523V139.194Z" fill="url(#paint61_linear_200_6649)"/>
<path d="M697.365 67.0121C696.987 67.5239 696.503 68.0751 695.893 68.6656C695.301 69.2562 694.734 69.7549 694.194 70.1717L694.882 71.179C695.475 70.7359 696.098 70.198 696.73 69.5942C697.365 68.9741 697.889 68.3967 698.294 67.8455L697.365 67.0121ZM699.252 68.9347H705.334V67.7798H699.252V68.9347ZM697.405 70.3455C697.026 70.9756 696.503 71.6613 695.828 72.4158C695.152 73.154 694.491 73.8135 693.832 74.3648L694.477 75.3458C694.952 74.9553 695.423 74.5124 695.92 74.0137V78.9876H697.135V72.7111C697.662 72.1042 698.067 71.5694 698.35 71.0837L697.405 70.3455ZM698.485 71.5956V72.7768H702.611V76.878C702.611 77.5768 702.45 77.6556 701.722 77.7375L700.576 77.8294L700.951 79.0795L701.992 78.9876C703.421 78.8531 703.905 78.5021 703.905 77.252V72.7768H705.996V71.5956H698.485Z" fill="url(#paint62_linear_200_6649)"/>
<path d="M713.011 68.9347C712.793 68.6526 712.497 68.3146 712.122 67.9144C711.756 67.4977 711.447 67.186 711.216 66.9858L710.34 67.7634C710.571 67.9668 710.88 68.3015 711.272 68.7739C711.674 69.23 711.974 69.6073 712.174 69.8895L713.011 68.9347ZM715.089 69.9026C715.128 69.5122 715.181 69.0004 715.224 68.3835C715.263 67.7503 715.29 67.3074 715.29 67.0515L714.022 67.0121C713.982 67.3763 713.956 67.8323 713.93 68.3573C713.874 69.1775 713.834 69.6861 713.808 69.9026H709.478V71.1658H713.66C713.133 74.2696 712 75.9232 708.99 78.1247L709.948 79.1484C713.159 76.6352 714.427 74.7388 714.954 71.1658H718.635C718.622 71.635 718.596 72.4946 718.526 73.7709C718.461 75.0341 718.405 75.91 718.352 76.3923C718.204 77.3734 718.121 77.3996 716.775 77.5341L715.481 77.6162L715.938 78.9055L717.097 78.8104C718.958 78.6759 719.498 78.3544 719.58 76.9961C719.781 73.3017 719.916 70.9361 719.956 69.9026H715.089ZM717.651 74.5256C717.433 74.2303 717.111 73.8397 716.666 73.3542C716.221 72.8719 715.869 72.5077 715.599 72.2683L714.723 73.1015C715.006 73.3542 715.372 73.7578 715.83 74.2958C716.287 74.8207 716.6 75.2375 716.775 75.5196L717.651 74.5256Z" fill="url(#paint63_linear_200_6649)"/>
<path d="M735.711 78.2068C734.634 77.3603 733.784 76.5006 733.149 75.6279C733.541 74.9422 733.85 74.1875 734.068 73.3542C734.295 72.5208 734.456 71.5005 734.578 70.3062H735.444V69.0955H731.963C732.177 68.505 732.355 67.8717 732.503 67.2155L731.354 66.9858C731.206 67.793 730.952 68.6526 730.587 69.5778C730.221 70.5063 729.833 71.2741 729.385 71.904L730.277 72.7242L730.587 72.1862C730.817 73.4625 731.219 74.5911 731.772 75.5853C731.153 76.4612 730.221 77.3209 728.967 78.1673L729.737 79.1353C730.91 78.2461 731.815 77.4128 732.447 76.6352C733.07 77.4816 733.906 78.3413 734.943 79.2008L735.711 78.2068ZM723.952 73.7578C724.936 73.1934 725.773 72.5504 726.474 71.8089V73.1934H727.564V71.8777C728.265 72.429 728.832 72.9376 729.25 73.4363L729.859 72.6423C729.28 72.0647 728.522 71.4053 728.051 71.0837L727.564 71.6613V70.8148H729.912V69.8338H727.564V67.1335L726.474 67.081V69.8338H723.803V70.8148H726.148C725.381 71.6088 724.462 72.2945 723.398 72.8457L723.952 73.7578ZM729.102 67.3074C728.967 67.5895 728.779 67.898 728.549 68.2621C728.321 68.6263 728.104 68.9085 727.929 69.1217L728.753 69.6598C728.927 69.4302 729.145 69.1479 729.385 68.7871C729.629 68.4229 729.816 68.1014 729.968 67.8192L729.102 67.3074ZM725.974 69.1349C725.825 68.8528 725.651 68.5312 725.433 68.1801C725.219 67.8192 725.028 67.5502 724.88 67.35L724.087 67.8323C724.261 68.062 724.449 68.3442 724.653 68.7051C724.854 69.0692 725.015 69.3777 725.124 69.6336L725.974 69.1349ZM732.447 74.4566C731.907 73.3968 731.558 72.1042 731.397 70.5752C731.41 70.5325 731.437 70.4538 731.502 70.3062H733.458C733.284 72.0385 732.974 73.3706 732.447 74.4566ZM729.25 77.4816L728.213 76.9567C728.792 76.4186 729.158 75.8149 729.533 75.0209V74.1088H726.675C726.688 74.0695 726.714 73.9874 726.784 73.8397L726.932 73.4493L725.839 73.141C725.799 73.2886 725.664 73.6101 725.447 74.1088H723.708V75.0767H724.963C724.758 75.4638 724.544 75.8544 724.301 76.2448C724.949 76.5269 725.582 76.8222 726.191 77.1305C725.476 77.4816 724.558 77.8164 723.451 78.1543L723.952 79.1615C725.341 78.7055 726.444 78.2068 727.268 77.6818C727.715 77.9115 728.2 78.1805 728.753 78.5021L729.25 77.4816ZM727.228 76.4744C726.701 76.2185 726.244 76.0151 725.825 75.8412C725.987 75.5591 726.122 75.303 726.217 75.0767H728.321C728.038 75.641 727.673 76.1102 727.228 76.4744Z" fill="url(#paint64_linear_200_6649)"/>
<path d="M742.377 72.6716L742.281 71.9728C741.903 72.1466 741.554 72.2944 741.231 72.4289V70.5587H742.377V69.4169H741.231V67.1071L740.098 67.0645V69.4169H738.653V70.5587H740.098V72.8848C739.328 73.1933 738.709 73.423 738.234 73.5707L738.478 74.8075C738.883 74.673 739.423 74.4696 740.098 74.1874V77.2124C740.098 77.7768 740.016 77.8293 739.367 77.8851L738.695 77.9376L739.018 79.0662L739.637 79.0137C741.013 78.8792 741.188 78.7578 741.231 77.5602V73.7183C741.863 73.4492 742.281 73.2754 742.456 73.1801L742.377 72.6716ZM750.402 72.3337H747.514V71.4216L746.368 71.3789V72.3337H743.994V71.1919H749.809V67.7371H742.835V71.5004C742.808 75.1159 742.525 76.2971 741.284 78.4495L742.334 79.0794C742.874 78.2066 743.266 77.3602 743.496 76.5137C743.737 75.6672 743.885 74.6172 743.954 73.3705H746.368V74.6598H744.264V79.1352H745.41V78.5412H748.432V79.122H749.565V74.6598H747.514V73.3705H750.402V72.3337ZM743.994 70.142V68.7738H748.62V70.142H743.994ZM745.41 75.7327H748.432V77.5077H745.41V75.7327Z" fill="url(#paint65_linear_200_6649)"/>
</g>
<defs>
<filter id="filter0_f_200_6649" x="-58.8523" y="-295.027" width="1206.48" height="901.228" filterUnits="userSpaceOnUse" color-interpolation-filters="sRGB">
<feFlood flood-opacity="0" result="BackgroundImageFix"/>
<feBlend mode="normal" in="SourceGraphic" in2="BackgroundImageFix" result="shape"/>
<feGaussianBlur stdDeviation="191.301" result="effect1_foregroundBlur_200_6649"/>
</filter>
<filter id="filter1_f_200_6649" x="-58.8523" y="-295.027" width="1206.48" height="901.228" filterUnits="userSpaceOnUse" color-interpolation-filters="sRGB">
<feFlood flood-opacity="0" result="BackgroundImageFix"/>
<feBlend mode="normal" in="SourceGraphic" in2="BackgroundImageFix" result="shape"/>
<feGaussianBlur stdDeviation="191.301" result="effect1_foregroundBlur_200_6649"/>
</filter>
<filter id="filter2_f_200_6649" x="363.136" y="39.6044" width="363.112" height="270.404" filterUnits="userSpaceOnUse" color-interpolation-filters="sRGB">
<feFlood flood-opacity="0" result="BackgroundImageFix"/>
<feBlend mode="normal" in="SourceGraphic" in2="BackgroundImageFix" result="shape"/>
<feGaussianBlur stdDeviation="47.8253" result="effect1_foregroundBlur_200_6649"/>
</filter>
<filter id="filter3_f_200_6649" x="363.136" y="39.6044" width="363.112" height="270.404" filterUnits="userSpaceOnUse" color-interpolation-filters="sRGB">
<feFlood flood-opacity="0" result="BackgroundImageFix"/>
<feBlend mode="normal" in="SourceGraphic" in2="BackgroundImageFix" result="shape"/>
<feGaussianBlur stdDeviation="47.8253" result="effect1_foregroundBlur_200_6649"/>
</filter>
<radialGradient id="paint0_radial_200_6649" cx="0" cy="0" r="1" gradientUnits="userSpaceOnUse" gradientTransform="translate(544.389 155.873) rotate(90) scale(67.7248 230.903)">
<stop stop-color="#5A33FF"/>
<stop offset="1" stop-color="#4029A3"/>
</radialGradient>
<radialGradient id="paint1_radial_200_6649" cx="0" cy="0" r="1" gradientUnits="userSpaceOnUse" gradientTransform="translate(544.693 174.974) rotate(90) scale(39.3847 89.9018)">
<stop stop-color="#5A33FF"/>
<stop offset="1" stop-color="#6A52D0"/>
</radialGradient>
<linearGradient id="paint2_linear_200_6649" x1="461.341" y1="152.96" x2="506.811" y2="217.735" gradientUnits="userSpaceOnUse">
<stop stop-color="white" stop-opacity="0.0784314"/>
<stop offset="1" stop-color="white" stop-opacity="0"/>
</linearGradient>
<linearGradient id="paint3_linear_200_6649" x1="375.519" y1="179.644" x2="420.988" y2="244.419" gradientUnits="userSpaceOnUse">
<stop stop-color="white" stop-opacity="0.0784314"/>
<stop offset="1" stop-color="white" stop-opacity="0"/>
</linearGradient>
<linearGradient id="paint4_linear_200_6649" x1="631.834" y1="152.556" x2="677.305" y2="217.331" gradientUnits="userSpaceOnUse">
<stop offset="0.08" stop-color="white" stop-opacity="0.121569"/>
<stop offset="0.807248" stop-color="white" stop-opacity="0"/>
</linearGradient>
<linearGradient id="paint5_linear_200_6649" x1="589.211" y1="166.303" x2="634.68" y2="231.078" gradientUnits="userSpaceOnUse">
<stop stop-color="white" stop-opacity="0.0784314"/>
<stop offset="1" stop-color="white" stop-opacity="0"/>
</linearGradient>
<linearGradient id="paint6_linear_200_6649" x1="760.281" y1="192.987" x2="805.75" y2="257.763" gradientUnits="userSpaceOnUse">
<stop stop-color="white" stop-opacity="0.0784314"/>
<stop offset="1" stop-color="white" stop-opacity="0"/>
</linearGradient>
<linearGradient id="paint7_linear_200_6649" x1="549.879" y1="48.9269" x2="549.879" y2="272.108" gradientUnits="userSpaceOnUse">
<stop offset="0.427933" stop-color="white" stop-opacity="0.09"/>
<stop offset="0.599083" stop-color="white" stop-opacity="0.36"/>
<stop offset="0.807248" stop-color="white" stop-opacity="0.15"/>
</linearGradient>
<linearGradient id="paint8_linear_200_6649" x1="549.878" y1="48.9267" x2="549.878" y2="272.107" gradientUnits="userSpaceOnUse">
<stop offset="0.427933" stop-color="white" stop-opacity="0"/>
<stop offset="0.599083" stop-color="white" stop-opacity="0.121569"/>
<stop offset="0.807248" stop-color="white" stop-opacity="0"/>
</linearGradient>
<linearGradient id="paint9_linear_200_6649" x1="549.879" y1="48.9262" x2="549.879" y2="272.107" gradientUnits="userSpaceOnUse">
<stop offset="0.427933" stop-color="white" stop-opacity="0"/>
<stop offset="0.599083" stop-color="white" stop-opacity="0.121569"/>
<stop offset="0.807248" stop-color="white" stop-opacity="0"/>
</linearGradient>
<linearGradient id="paint10_linear_200_6649" x1="549.88" y1="48.9268" x2="549.88" y2="272.108" gradientUnits="userSpaceOnUse">
<stop offset="0.427933" stop-color="white" stop-opacity="0"/>
<stop offset="0.599083" stop-color="white" stop-opacity="0.121569"/>
<stop offset="0.807248" stop-color="white" stop-opacity="0"/>
</linearGradient>
<linearGradient id="paint11_linear_200_6649" x1="549.88" y1="48.9269" x2="549.88" y2="272.108" gradientUnits="userSpaceOnUse">
<stop offset="0.427933" stop-color="white" stop-opacity="0"/>
<stop offset="0.599083" stop-color="white" stop-opacity="0.121569"/>
<stop offset="0.807248" stop-color="white" stop-opacity="0"/>
</linearGradient>
<linearGradient id="paint12_linear_200_6649" x1="549.878" y1="48.9263" x2="549.878" y2="272.107" gradientUnits="userSpaceOnUse">
<stop offset="0.427933" stop-color="white" stop-opacity="0"/>
<stop offset="0.599083" stop-color="white" stop-opacity="0.121569"/>
<stop offset="0.807248" stop-color="white" stop-opacity="0"/>
</linearGradient>
<linearGradient id="paint13_linear_200_6649" x1="549.879" y1="48.9268" x2="549.879" y2="272.108" gradientUnits="userSpaceOnUse">
<stop offset="0.427933" stop-color="white" stop-opacity="0"/>
<stop offset="0.599083" stop-color="white" stop-opacity="0.121569"/>
<stop offset="0.807248" stop-color="white" stop-opacity="0"/>
</linearGradient>
<linearGradient id="paint14_linear_200_6649" x1="549.878" y1="48.9269" x2="549.878" y2="272.108" gradientUnits="userSpaceOnUse">
<stop offset="0.427933" stop-color="white" stop-opacity="0"/>
<stop offset="0.599083" stop-color="white" stop-opacity="0.121569"/>
<stop offset="0.807248" stop-color="white" stop-opacity="0"/>
</linearGradient>
<linearGradient id="paint15_linear_200_6649" x1="549.879" y1="48.9267" x2="549.879" y2="272.107" gradientUnits="userSpaceOnUse">
<stop offset="0.427933" stop-color="white" stop-opacity="0"/>
<stop offset="0.599083" stop-color="white" stop-opacity="0.121569"/>
<stop offset="0.807248" stop-color="white" stop-opacity="0"/>
</linearGradient>
<linearGradient id="paint16_linear_200_6649" x1="549.878" y1="48.9269" x2="549.878" y2="272.108" gradientUnits="userSpaceOnUse">
<stop offset="0.427933" stop-color="white" stop-opacity="0"/>
<stop offset="0.599083" stop-color="white" stop-opacity="0.121569"/>
<stop offset="0.807248" stop-color="white" stop-opacity="0"/>
</linearGradient>
<linearGradient id="paint17_linear_200_6649" x1="549.88" y1="48.9269" x2="549.88" y2="272.108" gradientUnits="userSpaceOnUse">
<stop offset="0.427933" stop-color="white" stop-opacity="0"/>
<stop offset="0.599083" stop-color="white" stop-opacity="0.121569"/>
<stop offset="0.807248" stop-color="white" stop-opacity="0"/>
</linearGradient>
<linearGradient id="paint18_linear_200_6649" x1="549.879" y1="48.9269" x2="549.879" y2="272.108" gradientUnits="userSpaceOnUse">
<stop offset="0.427933" stop-color="white" stop-opacity="0"/>
<stop offset="0.599083" stop-color="white" stop-opacity="0.121569"/>
<stop offset="0.807248" stop-color="white" stop-opacity="0"/>
</linearGradient>
<linearGradient id="paint19_linear_200_6649" x1="549.878" y1="48.9262" x2="549.878" y2="272.107" gradientUnits="userSpaceOnUse">
<stop offset="0.427933" stop-color="white" stop-opacity="0"/>
<stop offset="0.599083" stop-color="white" stop-opacity="0.121569"/>
<stop offset="0.807248" stop-color="white" stop-opacity="0"/>
</linearGradient>
<linearGradient id="paint20_linear_200_6649" x1="549.879" y1="48.9263" x2="549.879" y2="272.107" gradientUnits="userSpaceOnUse">
<stop offset="0.427933" stop-color="white" stop-opacity="0"/>
<stop offset="0.599083" stop-color="white" stop-opacity="0.121569"/>
<stop offset="0.807248" stop-color="white" stop-opacity="0"/>
</linearGradient>
<linearGradient id="paint21_linear_200_6649" x1="549.88" y1="48.9269" x2="549.88" y2="272.108" gradientUnits="userSpaceOnUse">
<stop offset="0.427933" stop-color="white" stop-opacity="0"/>
<stop offset="0.599083" stop-color="white" stop-opacity="0.121569"/>
<stop offset="0.807248" stop-color="white" stop-opacity="0"/>
</linearGradient>
<linearGradient id="paint22_linear_200_6649" x1="549.878" y1="48.9267" x2="549.878" y2="272.107" gradientUnits="userSpaceOnUse">
<stop offset="0.427933" stop-color="white" stop-opacity="0"/>
<stop offset="0.599083" stop-color="white" stop-opacity="0.121569"/>
<stop offset="0.807248" stop-color="white" stop-opacity="0"/>
</linearGradient>
<linearGradient id="paint23_linear_200_6649" x1="549.878" y1="48.9268" x2="549.878" y2="272.108" gradientUnits="userSpaceOnUse">
<stop offset="0.427933" stop-color="white" stop-opacity="0"/>
<stop offset="0.599083" stop-color="white" stop-opacity="0.121569"/>
<stop offset="0.807248" stop-color="white" stop-opacity="0"/>
</linearGradient>
<linearGradient id="paint24_linear_200_6649" x1="549.879" y1="48.927" x2="549.879" y2="272.108" gradientUnits="userSpaceOnUse">
<stop offset="0.427933" stop-color="white" stop-opacity="0"/>
<stop offset="0.599083" stop-color="white" stop-opacity="0.121569"/>
<stop offset="0.807248" stop-color="white" stop-opacity="0"/>
</linearGradient>
<linearGradient id="paint25_linear_200_6649" x1="549.88" y1="48.9267" x2="549.88" y2="272.107" gradientUnits="userSpaceOnUse">
<stop offset="0.427933" stop-color="white" stop-opacity="0"/>
<stop offset="0.599083" stop-color="white" stop-opacity="0.121569"/>
<stop offset="0.807248" stop-color="white" stop-opacity="0"/>
</linearGradient>
<linearGradient id="paint26_linear_200_6649" x1="549.879" y1="48.9255" x2="549.879" y2="272.106" gradientUnits="userSpaceOnUse">
<stop offset="0.427933" stop-color="white" stop-opacity="0"/>
<stop offset="0.599083" stop-color="white" stop-opacity="0.121569"/>
<stop offset="0.807248" stop-color="white" stop-opacity="0"/>
</linearGradient>
<linearGradient id="paint27_linear_200_6649" x1="549.88" y1="48.9268" x2="549.88" y2="272.107" gradientUnits="userSpaceOnUse">
<stop offset="0.427933" stop-color="white" stop-opacity="0"/>
<stop offset="0.599083" stop-color="white" stop-opacity="0.121569"/>
<stop offset="0.807248" stop-color="white" stop-opacity="0"/>
</linearGradient>
<linearGradient id="paint28_linear_200_6649" x1="549.877" y1="48.9256" x2="549.877" y2="272.106" gradientUnits="userSpaceOnUse">
<stop offset="0.427933" stop-color="white" stop-opacity="0"/>
<stop offset="0.599083" stop-color="white" stop-opacity="0.121569"/>
<stop offset="0.807248" stop-color="white" stop-opacity="0"/>
</linearGradient>
<linearGradient id="paint29_linear_200_6649" x1="549.878" y1="48.9269" x2="549.878" y2="272.108" gradientUnits="userSpaceOnUse">
<stop offset="0.427933" stop-color="white" stop-opacity="0"/>
<stop offset="0.599083" stop-color="white" stop-opacity="0.121569"/>
<stop offset="0.807248" stop-color="white" stop-opacity="0"/>
</linearGradient>
<linearGradient id="paint30_linear_200_6649" x1="549.878" y1="48.927" x2="549.878" y2="272.108" gradientUnits="userSpaceOnUse">
<stop offset="0.427933" stop-color="white" stop-opacity="0"/>
<stop offset="0.599083" stop-color="white" stop-opacity="0.121569"/>
<stop offset="0.807248" stop-color="white" stop-opacity="0"/>
</linearGradient>
<linearGradient id="paint31_linear_200_6649" x1="549.879" y1="48.9269" x2="549.879" y2="272.108" gradientUnits="userSpaceOnUse">
<stop offset="0.427933" stop-color="white" stop-opacity="0"/>
<stop offset="0.599083" stop-color="white" stop-opacity="0.121569"/>
<stop offset="0.807248" stop-color="white" stop-opacity="0"/>
</linearGradient>
<linearGradient id="paint32_linear_200_6649" x1="549.878" y1="48.9282" x2="549.878" y2="272.109" gradientUnits="userSpaceOnUse">
<stop offset="0.427933" stop-color="white" stop-opacity="0"/>
<stop offset="0.599083" stop-color="white" stop-opacity="0.121569"/>
<stop offset="0.807248" stop-color="white" stop-opacity="0"/>
</linearGradient>
<linearGradient id="paint33_linear_200_6649" x1="549.879" y1="48.9273" x2="549.879" y2="272.108" gradientUnits="userSpaceOnUse">
<stop offset="0.427933" stop-color="white" stop-opacity="0"/>
<stop offset="0.599083" stop-color="white" stop-opacity="0.121569"/>
<stop offset="0.807248" stop-color="white" stop-opacity="0"/>
</linearGradient>
<linearGradient id="paint34_linear_200_6649" x1="549.879" y1="48.927" x2="549.879" y2="272.108" gradientUnits="userSpaceOnUse">
<stop offset="0.427933" stop-color="white" stop-opacity="0"/>
<stop offset="0.599083" stop-color="white" stop-opacity="0.121569"/>
<stop offset="0.807248" stop-color="white" stop-opacity="0"/>
</linearGradient>
<linearGradient id="paint35_linear_200_6649" x1="549.879" y1="48.9269" x2="549.879" y2="272.108" gradientUnits="userSpaceOnUse">
<stop offset="0.427933" stop-color="white" stop-opacity="0"/>
<stop offset="0.599083" stop-color="white" stop-opacity="0.121569"/>
<stop offset="0.807248" stop-color="white" stop-opacity="0"/>
</linearGradient>
<linearGradient id="paint36_linear_200_6649" x1="549.878" y1="48.9268" x2="549.878" y2="272.108" gradientUnits="userSpaceOnUse">
<stop offset="0.427933" stop-color="white" stop-opacity="0"/>
<stop offset="0.599083" stop-color="white" stop-opacity="0.121569"/>
<stop offset="0.807248" stop-color="white" stop-opacity="0"/>
</linearGradient>
<linearGradient id="paint37_linear_200_6649" x1="549.878" y1="48.927" x2="549.878" y2="272.108" gradientUnits="userSpaceOnUse">
<stop offset="0.427933" stop-color="white" stop-opacity="0"/>
<stop offset="0.599083" stop-color="white" stop-opacity="0.121569"/>
<stop offset="0.807248" stop-color="white" stop-opacity="0"/>
</linearGradient>
<linearGradient id="paint38_linear_200_6649" x1="549.879" y1="48.9269" x2="549.879" y2="272.108" gradientUnits="userSpaceOnUse">
<stop offset="0.427933" stop-color="white" stop-opacity="0"/>
<stop offset="0.599083" stop-color="white" stop-opacity="0.121569"/>
<stop offset="0.807248" stop-color="white" stop-opacity="0"/>
</linearGradient>
<linearGradient id="paint39_linear_200_6649" x1="549.879" y1="48.927" x2="549.879" y2="272.108" gradientUnits="userSpaceOnUse">
<stop offset="0.427933" stop-color="white" stop-opacity="0"/>
<stop offset="0.599083" stop-color="white" stop-opacity="0.121569"/>
<stop offset="0.807248" stop-color="white" stop-opacity="0"/>
</linearGradient>
<linearGradient id="paint40_linear_200_6649" x1="549.878" y1="48.9269" x2="549.878" y2="272.108" gradientUnits="userSpaceOnUse">
<stop offset="0.427933" stop-color="white" stop-opacity="0"/>
<stop offset="0.599083" stop-color="white" stop-opacity="0.121569"/>
<stop offset="0.807248" stop-color="white" stop-opacity="0"/>
</linearGradient>
<linearGradient id="paint41_linear_200_6649" x1="549.879" y1="48.9269" x2="549.879" y2="272.108" gradientUnits="userSpaceOnUse">
<stop offset="0.427933" stop-color="white" stop-opacity="0"/>
<stop offset="0.599083" stop-color="white" stop-opacity="0.121569"/>
<stop offset="0.807248" stop-color="white" stop-opacity="0"/>
</linearGradient>
<linearGradient id="paint42_linear_200_6649" x1="549.878" y1="48.9268" x2="549.878" y2="272.107" gradientUnits="userSpaceOnUse">
<stop offset="0.427933" stop-color="white" stop-opacity="0"/>
<stop offset="0.599083" stop-color="white" stop-opacity="0.121569"/>
<stop offset="0.807248" stop-color="white" stop-opacity="0"/>
</linearGradient>
<linearGradient id="paint43_linear_200_6649" x1="549.88" y1="48.9271" x2="549.88" y2="272.108" gradientUnits="userSpaceOnUse">
<stop offset="0.427933" stop-color="white" stop-opacity="0"/>
<stop offset="0.599083" stop-color="white" stop-opacity="0.121569"/>
<stop offset="0.807248" stop-color="white" stop-opacity="0"/>
</linearGradient>
<linearGradient id="paint44_linear_200_6649" x1="549.879" y1="48.9256" x2="549.879" y2="272.106" gradientUnits="userSpaceOnUse">
<stop offset="0.427933" stop-color="white" stop-opacity="0"/>
<stop offset="0.599083" stop-color="white" stop-opacity="0.121569"/>
<stop offset="0.807248" stop-color="white" stop-opacity="0"/>
</linearGradient>
<linearGradient id="paint45_linear_200_6649" x1="549.879" y1="48.9269" x2="549.879" y2="272.108" gradientUnits="userSpaceOnUse">
<stop offset="0.427933" stop-color="white" stop-opacity="0"/>
<stop offset="0.599083" stop-color="white" stop-opacity="0.121569"/>
<stop offset="0.807248" stop-color="white" stop-opacity="0"/>
</linearGradient>
<linearGradient id="paint46_linear_200_6649" x1="549.878" y1="48.9268" x2="549.878" y2="272.108" gradientUnits="userSpaceOnUse">
<stop offset="0.427933" stop-color="white" stop-opacity="0"/>
<stop offset="0.599083" stop-color="white" stop-opacity="0.121569"/>
<stop offset="0.807248" stop-color="white" stop-opacity="0"/>
</linearGradient>
<linearGradient id="paint47_linear_200_6649" x1="549.879" y1="48.9256" x2="549.879" y2="272.106" gradientUnits="userSpaceOnUse">
<stop offset="0.427933" stop-color="white" stop-opacity="0"/>
<stop offset="0.599083" stop-color="white" stop-opacity="0.121569"/>
<stop offset="0.807248" stop-color="white" stop-opacity="0"/>
</linearGradient>
<linearGradient id="paint48_linear_200_6649" x1="549.879" y1="48.9268" x2="549.879" y2="272.107" gradientUnits="userSpaceOnUse">
<stop offset="0.427933" stop-color="white" stop-opacity="0"/>
<stop offset="0.599083" stop-color="white" stop-opacity="0.121569"/>
<stop offset="0.807248" stop-color="white" stop-opacity="0"/>
</linearGradient>
<linearGradient id="paint49_linear_200_6649" x1="549.879" y1="48.9256" x2="549.879" y2="272.106" gradientUnits="userSpaceOnUse">
<stop offset="0.427933" stop-color="white" stop-opacity="0"/>
<stop offset="0.599083" stop-color="white" stop-opacity="0.121569"/>
<stop offset="0.807248" stop-color="white" stop-opacity="0"/>
</linearGradient>
<linearGradient id="paint50_linear_200_6649" x1="432.983" y1="60.5323" x2="503.236" y2="90.3651" gradientUnits="userSpaceOnUse">
<stop stop-color="#3B2363"/>
<stop offset="0.953138" stop-color="#523E74"/>
</linearGradient>
<linearGradient id="paint51_linear_200_6649" x1="572.138" y1="111.301" x2="633.375" y2="132.893" gradientUnits="userSpaceOnUse">
<stop stop-color="#3B2363"/>
<stop offset="0.953138" stop-color="#523E74"/>
</linearGradient>
<linearGradient id="paint52_linear_200_6649" x1="698.024" y1="47.8399" x2="759.261" y2="69.4312" gradientUnits="userSpaceOnUse">
<stop stop-color="#3B2363"/>
<stop offset="0.953138" stop-color="#523E74"/>
</linearGradient>
<linearGradient id="paint53_linear_200_6649" x1="428.39" y1="79.5566" x2="494.566" y2="101.539" gradientUnits="userSpaceOnUse">
<stop stop-color="#7000FF"/>
<stop offset="0.460882" stop-color="#F13DD4"/>
<stop offset="1" stop-color="#F83A3A"/>
</linearGradient>
<linearGradient id="paint54_linear_200_6649" x1="428.39" y1="79.5566" x2="494.566" y2="101.539" gradientUnits="userSpaceOnUse">
<stop stop-color="#7000FF"/>
<stop offset="0.460882" stop-color="#F13DD4"/>
<stop offset="1" stop-color="#F83A3A"/>
</linearGradient>
<linearGradient id="paint55_linear_200_6649" x1="428.39" y1="79.5566" x2="494.566" y2="101.539" gradientUnits="userSpaceOnUse">
<stop stop-color="#7000FF"/>
<stop offset="0.460882" stop-color="#F13DD4"/>
<stop offset="1" stop-color="#F83A3A"/>
</linearGradient>
<linearGradient id="paint56_linear_200_6649" x1="428.39" y1="79.5566" x2="494.566" y2="101.539" gradientUnits="userSpaceOnUse">
<stop stop-color="#7000FF"/>
<stop offset="0.460882" stop-color="#F13DD4"/>
<stop offset="1" stop-color="#F83A3A"/>
</linearGradient>
<linearGradient id="paint57_linear_200_6649" x1="428.39" y1="79.5566" x2="494.566" y2="101.539" gradientUnits="userSpaceOnUse">
<stop stop-color="#7000FF"/>
<stop offset="0.460882" stop-color="#F13DD4"/>
<stop offset="1" stop-color="#F83A3A"/>
</linearGradient>
<linearGradient id="paint58_linear_200_6649" x1="569.996" y1="130.312" x2="623.986" y2="144.653" gradientUnits="userSpaceOnUse">
<stop stop-color="#7000FF"/>
<stop offset="0.460882" stop-color="#F13DD4"/>
<stop offset="1" stop-color="#F83A3A"/>
</linearGradient>
<linearGradient id="paint59_linear_200_6649" x1="569.996" y1="130.312" x2="623.986" y2="144.653" gradientUnits="userSpaceOnUse">
<stop stop-color="#7000FF"/>
<stop offset="0.460882" stop-color="#F13DD4"/>
<stop offset="1" stop-color="#F83A3A"/>
</linearGradient>
<linearGradient id="paint60_linear_200_6649" x1="569.996" y1="130.312" x2="623.986" y2="144.653" gradientUnits="userSpaceOnUse">
<stop stop-color="#7000FF"/>
<stop offset="0.460882" stop-color="#F13DD4"/>
<stop offset="1" stop-color="#F83A3A"/>
</linearGradient>
<linearGradient id="paint61_linear_200_6649" x1="569.996" y1="130.312" x2="623.986" y2="144.653" gradientUnits="userSpaceOnUse">
<stop stop-color="#7000FF"/>
<stop offset="0.460882" stop-color="#F13DD4"/>
<stop offset="1" stop-color="#F83A3A"/>
</linearGradient>
<linearGradient id="paint62_linear_200_6649" x1="695.557" y1="66.9858" x2="749.747" y2="81.6244" gradientUnits="userSpaceOnUse">
<stop stop-color="#7000FF"/>
<stop offset="0.460882" stop-color="#F13DD4"/>
<stop offset="1" stop-color="#F83A3A"/>
</linearGradient>
<linearGradient id="paint63_linear_200_6649" x1="695.557" y1="66.9858" x2="749.747" y2="81.6244" gradientUnits="userSpaceOnUse">
<stop stop-color="#7000FF"/>
<stop offset="0.460882" stop-color="#F13DD4"/>
<stop offset="1" stop-color="#F83A3A"/>
</linearGradient>
<linearGradient id="paint64_linear_200_6649" x1="695.557" y1="66.9858" x2="749.747" y2="81.6244" gradientUnits="userSpaceOnUse">
<stop stop-color="#7000FF"/>
<stop offset="0.460882" stop-color="#F13DD4"/>
<stop offset="1" stop-color="#F83A3A"/>
</linearGradient>
<linearGradient id="paint65_linear_200_6649" x1="695.557" y1="66.9858" x2="749.747" y2="81.6244" gradientUnits="userSpaceOnUse">
<stop stop-color="#7000FF"/>
<stop offset="0.460882" stop-color="#F13DD4"/>
<stop offset="1" stop-color="#F83A3A"/>
</linearGradient>
<clipPath id="clip0_200_6649">
<rect width="802" height="278" fill="white"/>
</clipPath>
</defs>
</svg>
