<?xml version="1.0" encoding="utf-8" ?>
<svg xmlns="http://www.w3.org/2000/svg" xmlns:xlink="http://www.w3.org/1999/xlink" width="24" height="24" viewBox="0 0 24 24">
	<defs>
		<clipPath id="clipPath3895093170">
			<path transform="matrix(1 0 0 1 0 0)" d="M0 0L24 0L24 24L0 24L0 0Z" fill-rule="nonzero"/>
		</clipPath>
	</defs>
	<g clip-path="url(#clipPath3895093170)">
		<path transform="matrix(1 0 0 1 0.745605 0.890625)" d="M1.06005 21.6094C0.477048 21.6094 0.00488278 21.1372 0.0043945 20.5547L0 11.25C0 5.04688 5.04684 0 11.2499 0C14.2533 0 17.0761 1.16895 19.1996 3.2915C21.3221 5.41309 22.4945 8.2373 22.5008 11.2437L22.5008 20.1094C22.5008 20.938 21.829 21.6094 21.0008 21.6094L20.391 21.603C20.3461 21.6074 20.3007 21.6094 20.2543 21.6094L18.7543 21.6094C17.9257 21.6094 17.2543 20.938 17.2543 20.1094L17.2543 14.1094C17.2543 13.2808 17.9257 12.6094 18.7543 12.6094L20.3915 12.6094L20.3915 11.2495C20.3822 6.20947 16.2821 2.10938 11.2504 2.10938C6.20992 2.10938 2.10936 6.20996 2.10936 11.25L2.10985 12.6094L3.75437 12.6094C4.58298 12.6094 5.25436 13.2808 5.25436 14.1094L5.25436 20.1094C5.25436 20.938 4.58298 21.6094 3.75437 21.6094L2.25438 21.6094C2.20702 21.6094 2.16063 21.6074 2.11424 21.603L1.06005 21.6094ZM12.0278 19.3389C12.0278 19.8828 12.4687 20.3232 13.0121 20.3232C13.5556 20.3232 13.9965 19.8828 13.9965 19.3389L13.9965 14.4111C13.9965 13.8677 13.5556 13.4268 13.0121 13.4268C12.4687 13.4268 12.0278 13.8677 12.0278 14.4111L12.0278 19.3389ZM8.37153 18.3325C8.37153 18.8765 8.81245 19.3169 9.3559 19.3169C9.89935 19.3169 10.3403 18.8765 10.3403 18.3325L10.3403 15.4175C10.3403 14.874 9.89935 14.4331 9.3559 14.4331C8.81245 14.4331 8.37153 14.874 8.37153 15.4175L8.37153 18.3325Z" fill-rule="evenodd" fill="rgb(255, 255, 255)"/>
	</g>
</svg>
