<svg width="188" height="189" viewBox="0 0 188 189" fill="none" xmlns="http://www.w3.org/2000/svg">
<g filter="url(#filter0_d_200_7269)">
<path d="M118.166 59.4173C135.511 73.1404 138.621 98.0865 125.133 115.134C111.645 132.181 86.652 134.892 69.3076 121.169C51.9632 107.446 48.8532 82.4995 62.3412 65.4523C75.8292 48.4051 100.822 45.6941 118.166 59.4173Z" fill="#4901A5" fill-opacity="0.78" stroke="#320C54" stroke-width="0.820894"/>
<path style="mix-blend-mode:screen" opacity="0.4" d="M118.849 59.5952C123.054 62.9024 126.569 67.0007 129.192 71.6533C131.814 76.306 133.492 81.4207 134.129 86.702C134.765 91.9834 134.348 97.3267 132.9 102.423C131.452 107.52 129.003 112.268 125.694 116.395C111.963 133.586 86.5212 136.243 68.8989 122.056C51.5444 108.073 48.4553 82.8641 62.2665 65.5307C75.9238 48.3871 101.342 45.715 118.849 59.5952ZM85.9574 51.8287L83.8053 52.6295L83.8621 52.7841L84.8508 52.8335C83.5716 52.7845 82.5301 53.345 81.437 54.1019C83.5902 54.1163 85.7332 54.4457 87.7973 55.0798C87.9196 55.1205 88.0523 55.1143 88.1692 55.0624C89.235 54.4893 90.3088 53.8835 91.3691 53.2812L91.3461 53.0931C89.8061 52.9935 88.2783 52.8967 86.7322 52.7958C86.2603 52.7766 85.7951 52.7626 85.3343 52.7521C85.5646 52.7116 85.7977 52.6878 86.0318 52.6807C87.8428 52.7681 89.6536 52.8694 91.4652 52.9607C91.6413 52.969 91.8479 53.0156 91.9881 52.9424C92.7039 52.581 93.3996 52.186 94.2201 51.7374L93.6194 51.6411C93.7934 51.6159 93.9705 51.6002 94.1409 51.5614C94.4872 51.4813 94.835 51.3812 95.1821 51.2911C95.1719 51.2406 95.16 51.1922 95.1459 51.1421C95.0817 51.1265 95.0165 51.1152 94.9508 51.1081C92.0122 50.9902 89.0732 51.198 86.1877 51.7277C86.1065 51.7537 86.03 51.7924 85.961 51.8422L85.9574 51.8287ZM94.992 130.014C94.5991 130.022 94.2073 130.055 93.8189 130.035C93.5152 130.008 93.2106 130.058 92.9331 130.18C92.6556 130.302 92.4142 130.492 92.2312 130.733C95.4365 130.929 98.6494 130.736 101.8 130.159C101.996 130.085 102.179 129.98 102.343 129.849L104.145 128.892L103.732 128.781C104.811 128.689 105.577 127.978 106.388 127.582C104.652 127.197 102.876 126.871 101.141 126.388C100.359 126.169 99.758 126.154 99.0793 126.622C98.287 127.171 97.4086 127.602 96.4373 128.151C96.9239 128.242 97.2567 128.328 97.5924 128.357C99.264 128.507 100.941 128.651 102.606 128.782C102.401 128.841 102.19 128.876 101.976 128.886C100.34 128.781 98.7003 128.713 97.074 128.509C96.3428 128.42 95.7362 128.453 95.136 128.881C94.6823 129.206 94.1786 129.462 93.5629 129.828L94.992 130.014ZM114.091 125.723C113.784 125.233 113.479 124.74 113.145 124.203L110.388 125.768L112.182 126.175C111.606 126.172 111.03 126.116 110.463 126.008C110.323 125.986 110.148 125.922 110.046 125.979C109.337 126.354 108.647 126.756 107.947 127.151L107.995 127.285L109.272 127.233C108.988 127.338 108.685 127.389 108.381 127.381C107.705 127.364 107.043 127.565 106.495 127.954C105.932 128.312 105.341 128.62 104.766 128.958C104.341 129.21 103.924 129.471 103.387 129.797C106.232 129.328 111.317 127.364 114.087 125.696C117.452 123.866 120.497 121.509 123.109 118.716C122.04 119.262 120.848 119.636 120.193 120.768L120.782 120.023L120.668 119.9L118.535 121.383L118.578 121.487L118.777 121.032C118.051 121.438 117.409 121.774 116.795 122.152C116.616 122.293 116.477 122.477 116.389 122.687C116.112 123.233 115.868 123.798 115.601 124.348L115.54 124.299L116.192 122.624L116.082 122.537L113.567 123.95L114.091 125.723ZM81.8363 91.1525L87.0556 100.271L96.4682 94.9427L91.2334 85.8434L81.8363 91.1525ZM97.6007 94.3126L106.874 89.0967L101.635 79.9939C98.4813 81.7659 95.4452 83.4713 92.3762 85.2002C94.1156 88.2478 95.8392 91.2475 97.5963 94.3091L97.6007 94.3126ZM87.7329 101.353C89.5968 104.084 91.4163 106.746 93.2607 109.448L101.967 104.527L97.1074 96.054L87.7329 101.353ZM90.6188 84.7552C88.9968 81.935 87.4005 79.1636 85.7918 76.3717L77.1251 81.26L81.2488 90.0255L90.6188 84.7552ZM80.8074 91.7513L72.64 96.3797C74.1595 99.5357 75.9003 102.583 77.8493 105.498L86.0113 100.858L80.8074 91.7513ZM107.466 90.2271L98.2355 95.4204L103.004 103.928L111.581 99.1029C110.201 96.1346 108.843 93.2116 107.455 90.2184L107.466 90.2271ZM91.743 84.122L100.955 78.9427L95.3702 70.9829L86.8273 75.7781C88.4777 78.5852 90.0892 81.3192 91.732 84.1133L91.743 84.122ZM115.93 84.042C114.398 80.8918 112.637 77.8557 110.661 74.9583L102.657 79.4356C104.423 82.4941 106.152 85.4912 107.908 88.5271L115.93 84.042ZM86.6854 101.93L78.5677 106.541C78.6827 106.717 78.7603 106.863 78.8612 106.989C80.6456 109.233 82.446 111.461 84.2104 113.721C84.5997 114.22 84.8901 114.22 85.409 113.908C87.5108 112.664 89.6478 111.48 91.7718 110.271C91.9524 110.169 92.1258 110.059 92.2772 109.962C90.4016 107.281 88.5693 104.645 86.6854 101.93ZM76.1611 81.804L68.5631 86.1428L72.0147 95.3007L80.2344 90.6287L76.1611 81.804ZM116.481 85.1611L108.486 89.6392L112.529 98.5607C114.907 97.2302 117.295 95.9046 119.666 94.5472C119.787 94.4801 119.851 94.1412 119.797 93.9744C119.261 92.347 118.73 90.7152 118.128 89.113C117.642 87.8118 117.061 86.5372 116.49 85.168L116.481 85.1611ZM101.953 78.3553L109.921 73.9019C108.099 71.3149 106.087 68.8655 103.901 66.5745C103.686 66.3519 103.514 66.3928 103.282 66.5278C102.131 67.1819 100.973 67.8208 99.8189 68.4653L96.3089 70.4437C98.1973 73.0994 100.066 75.7114 101.962 78.3622L101.953 78.3553ZM70.3048 109.819L76.8529 106.069L71.6588 96.9454L65.1159 100.688C66.5395 103.893 68.2776 106.951 70.3048 109.819ZM116.899 83.4915L123.289 79.9423C121.845 76.747 120.074 73.706 118.005 70.8682L111.63 74.4C113.401 77.452 115.134 80.4448 116.899 83.4915ZM94.042 110.289C94.0544 110.345 94.073 110.399 94.0974 110.45C95.7847 112.518 97.4754 114.582 99.157 116.652C99.3792 116.923 99.5705 116.845 99.8139 116.704C101.355 115.824 102.904 114.953 104.451 114.081L106.694 112.803C105.296 110.359 103.922 107.954 102.516 105.5L94.042 110.289ZM107.589 112.3C109.941 110.975 112.203 109.701 114.479 108.435C114.811 108.252 114.698 108.032 114.624 107.799C113.961 105.858 113.315 103.895 112.643 101.947C112.446 101.373 112.2 100.81 111.957 100.194L103.563 104.919L107.589 112.3ZM85.2256 75.3854C83.8244 72.9559 82.4637 70.5975 81.0927 68.2203C78.7402 69.5459 76.4553 70.8541 74.1665 72.131C73.8648 72.2995 73.9342 72.4925 74.0157 72.7199C74.604 74.407 75.1844 76.095 75.7897 77.7743C76.0783 78.5727 76.4109 79.3564 76.7453 80.1876L85.2256 75.3854ZM86.2552 74.8084L94.658 70.0724C92.7864 67.9116 90.9528 65.8023 89.1276 63.6959L81.9753 67.743C83.4242 70.1393 84.8282 72.4612 86.2566 74.8201L86.2552 74.8084ZM77.5739 107.118L71.0792 110.832C71.1637 110.969 71.2115 111.067 71.2757 111.153C73.1415 113.616 75.2164 115.914 77.4771 118.022C77.7242 118.253 77.897 118.202 78.1405 118.062C79.9523 117.016 81.7729 115.978 83.5995 114.923C83.6698 114.881 83.735 114.83 83.7939 114.773L77.5739 107.118ZM64.6066 99.5171L71.1151 95.7858L67.7282 86.587C65.8361 87.6748 63.9 88.7775 61.9825 89.902C61.9171 89.9596 61.8664 90.032 61.8345 90.1132C61.8026 90.1944 61.7904 90.2821 61.7989 90.3693C61.8971 90.9604 62.0345 91.5472 62.1885 92.1401C62.8026 94.659 63.614 97.128 64.6154 99.5241L64.6066 99.5171ZM117.436 84.642L120.85 93.9053C120.892 93.8848 121.005 93.8325 121.12 93.7642C122.864 92.8 124.6 91.8188 126.353 90.8756C126.424 90.8528 126.489 90.8152 126.544 90.7655C126.6 90.7157 126.644 90.6547 126.674 90.5866C126.703 90.5184 126.719 90.4446 126.718 90.3699C126.717 90.2952 126.701 90.2213 126.67 90.153C125.966 87.7754 125.282 85.3935 124.563 83.0216C124.371 82.3852 124.082 81.7775 123.814 81.098L117.436 84.642ZM117.266 69.8514C115.315 67.2677 113.095 64.8956 110.646 62.7753C110.538 62.6899 110.238 62.7251 110.082 62.804C109.151 63.2926 108.231 63.8178 107.317 64.3203C106.404 64.8229 105.455 65.3572 104.598 65.8376C106.709 68.3573 108.792 70.8444 110.914 73.3767L117.266 69.8514ZM92.987 110.903L85.5508 115.132C87.5218 117.214 89.6695 119.122 91.9695 120.834C92.0951 120.933 92.4185 120.878 92.5865 120.788C93.9504 120.032 95.2996 119.255 96.6555 118.483L98.523 117.422C96.6698 115.233 94.8503 113.092 92.976 110.894L92.987 110.903ZM112.958 99.6436L115.619 107.769C115.619 107.769 115.675 107.77 115.704 107.751C117.666 106.662 119.632 105.575 121.58 104.461C121.659 104.39 121.72 104.302 121.759 104.203C121.798 104.104 121.813 103.997 121.803 103.89C121.623 102.48 121.44 101.072 121.195 99.6804C120.949 98.2891 120.615 96.977 120.306 95.5491L112.958 99.6436ZM73.0241 72.8099C71.0796 73.9095 69.1506 75.0213 67.1994 76.0979C67.0409 76.1575 66.9111 76.2742 66.8353 76.4252C66.7596 76.5761 66.7434 76.7505 66.7899 76.9141C67.2772 79.4667 67.7575 82.0281 68.2431 84.5829C68.2801 84.7033 68.3297 84.8197 68.391 84.9301L75.7322 80.7528L73.0241 72.8099ZM102.858 65.5159C100.861 63.5081 98.6946 61.6755 96.3832 60.0388C96.1174 59.8497 95.933 59.9198 95.7003 60.0509C94.3677 60.7906 93.0386 61.532 91.713 62.2749L89.9269 63.2696C89.952 63.3376 89.9846 63.4026 90.0242 63.4635C91.7875 65.4217 93.5543 67.3755 95.3086 69.3407C95.5252 69.5829 95.6892 69.525 95.914 69.3948C96.8272 68.8744 97.7457 68.3653 98.6637 67.8523L102.858 65.5159ZM69.4742 110.298L64.2905 101.161C62.9506 101.95 61.4827 102.782 60.0449 103.649C59.9413 103.712 59.8915 104.037 59.9559 104.173C60.7331 105.762 61.4864 107.367 62.3548 108.904C63.1279 110.28 64.0369 111.58 64.8932 112.938L69.4742 110.298ZM91.3441 121.511C89.2088 119.602 87.0908 117.721 84.9906 115.822C84.7268 115.585 84.548 115.684 84.321 115.813C82.8331 116.671 81.3429 117.526 79.8506 118.381L78.7057 119.04C78.7721 119.131 78.8452 119.217 78.9243 119.298C81.1304 121.169 83.5153 122.819 86.0438 124.223C86.1191 124.262 86.2018 124.286 86.2865 124.292C86.3712 124.298 86.456 124.286 86.5355 124.258C88.1774 123.337 89.8031 122.395 91.3441 121.511ZM118.83 70.4192L124.102 79.4985L128.437 77.1247C127.044 73.9034 125.266 70.8583 123.142 68.0558L118.83 70.4192ZM65.9401 76.8295C64.3577 77.734 62.7393 78.6525 61.136 79.5971C61.0677 79.6601 61.0138 79.7372 60.978 79.823C60.9421 79.9089 60.9252 80.0016 60.9283 80.0949C60.9633 81.8612 60.9716 83.6206 61.0716 85.3817C61.1365 86.5308 61.3341 87.6751 61.4854 88.8961C63.5723 87.6979 65.5554 86.5616 67.4346 85.4871L65.9401 76.8295ZM122.529 103.937C124.165 103.029 125.766 102.15 127.352 101.245C127.424 101.187 127.482 101.114 127.522 101.031C127.563 100.948 127.584 100.857 127.586 100.764C127.59 99.4007 127.622 98.0342 127.533 96.6752C127.432 95.0831 127.218 93.4975 127.042 91.864C126.934 91.8899 126.828 91.9243 126.725 91.9668C124.934 92.958 123.149 93.9565 121.35 94.9346C121.054 95.0966 121.067 95.27 121.127 95.5514C121.435 96.9736 121.764 98.3994 122.003 99.8351C122.238 101.168 122.359 102.528 122.529 103.937ZM96.8262 59.4155C96.8595 59.47 96.8984 59.521 96.9423 59.5675C99.2352 61.1473 101.396 62.9113 103.402 64.8417C103.668 65.0943 103.847 64.9632 104.072 64.837L109.064 62.0585C109.211 61.9767 109.353 61.8874 109.544 61.7728C107.211 59.8634 104.691 58.1955 102.022 56.7952C101.951 56.7633 101.874 56.7465 101.796 56.7459C101.718 56.7453 101.641 56.7609 101.57 56.7917C99.9888 57.6544 98.4284 58.5267 96.8262 59.4155ZM65.7641 113.91C65.8591 114.053 65.9103 114.146 65.9763 114.23C67.6893 116.395 69.6096 118.389 71.7096 120.183C72.8178 121.127 72.8057 121.142 74.0405 120.405L76.9861 118.692C74.7334 116.23 72.5005 113.783 70.2315 111.301L65.7641 113.91ZM60.9608 90.4781C59.7904 91.1562 58.5312 91.9057 57.2511 92.6138C57.1042 92.6717 56.9847 92.7821 56.9156 92.9237C56.8466 93.0654 56.8329 93.2281 56.8774 93.3804C57.2631 95.9772 57.8837 98.5364 58.7316 101.027C58.9161 101.527 59.1094 102.034 59.3025 102.604L63.7934 99.9927L60.9608 90.4781ZM127.529 90.2167C128.734 89.5586 130.027 88.871 131.29 88.139C131.356 88.0694 131.405 87.9849 131.432 87.8924C131.459 87.8 131.464 87.7022 131.446 87.6071C131.123 85.9819 130.83 84.3475 130.411 82.7449C130.02 81.2564 129.483 79.8041 128.988 78.2655L124.616 80.6594C125.595 83.9025 126.55 87.0372 127.521 90.2276L127.529 90.2167ZM107.172 113.61L100.103 117.606C100.204 117.747 100.312 117.882 100.427 118.011C101.77 119.311 103.129 120.595 104.455 121.906C104.91 122.362 105.303 122.414 105.797 122.019C106.067 121.835 106.35 121.672 106.645 121.532L110.459 119.369C109.352 117.463 108.278 115.58 107.164 113.621L107.172 113.61ZM111.213 62.1481C113.51 64.5777 115.761 66.9646 118.063 69.4016L122.377 67.0399C121.818 66.3887 121.34 65.7343 120.767 65.1819C119.029 63.509 117.259 61.8714 115.487 60.236C115.418 60.1771 115.336 60.1351 115.248 60.1135C115.16 60.0918 115.069 60.0911 114.981 60.1113C113.691 60.7907 112.413 61.5005 111.213 62.1481ZM111.112 119.018C112.823 118.056 114.484 117.129 116.126 116.176C116.198 116.113 116.255 116.034 116.291 115.944C116.326 115.855 116.34 115.759 116.332 115.662C116.125 114.366 115.902 113.074 115.645 111.787C115.472 110.942 115.242 110.101 115.022 109.202L108.027 113.136C109.067 115.117 110.074 117.036 111.112 119.018ZM77.4132 61.8671C75.6828 62.8457 74.0169 63.7833 72.3596 64.7418C72.3011 64.7977 72.2563 64.8663 72.2284 64.9423C72.2004 65.0184 72.1902 65.0999 72.1985 65.1809C72.2792 65.7759 72.3665 66.3761 72.5069 66.9546C72.8417 68.4235 73.2013 69.8836 73.572 71.434L80.6392 67.4401L77.4132 61.8671ZM88.3933 63.076C86.8683 61.5026 85.2175 60.0556 83.4577 58.7495C83.3916 58.7135 83.3184 58.6928 83.2435 58.6887C83.1686 58.6846 83.094 58.6973 83.0251 58.7259C81.3794 59.6335 79.7418 60.558 78.0625 61.4991L81.4973 66.9575L88.3933 63.076ZM104.35 122.839C102.715 121.316 101.105 119.826 99.5187 118.309C99.2849 118.088 99.1167 118.161 98.901 118.284C97.0791 119.328 95.2556 120.37 93.4305 121.409C93.3172 121.476 93.2142 121.56 93.0729 121.658C95.0813 123.094 97.2314 124.321 99.4886 125.317C99.5698 125.347 99.6559 125.36 99.7419 125.356C99.8279 125.351 99.9119 125.329 99.9888 125.292C101.466 124.488 102.923 123.651 104.35 122.839ZM115.865 108.739C116.276 111.093 116.673 113.376 117.077 115.675C118.511 114.873 119.956 114.079 121.381 113.255C121.461 113.193 121.528 113.115 121.577 113.026C121.626 112.937 121.656 112.838 121.665 112.737C121.796 111.328 121.933 109.918 121.995 108.504C122.041 107.478 121.969 106.451 121.947 105.343L115.865 108.739ZM71.4576 65.2391C70.0345 66.0465 68.5964 66.8457 67.181 67.684C67.0866 67.7584 67.009 67.8518 66.9531 67.9582C66.8973 68.0646 66.8645 68.1817 66.8567 68.302C66.7453 70.2535 66.6728 72.2145 66.6015 74.1694C66.5889 74.5384 66.6423 74.9099 66.6695 75.3599L72.7591 71.8956L71.4576 65.2391ZM83.952 58.1881C85.6692 59.6388 87.3174 61.0456 88.9962 62.4271C89.1152 62.5212 89.4383 62.4794 89.6041 62.3875C91.3328 61.4429 93.0507 60.4757 94.7708 59.5102C94.8993 59.4383 95.0114 59.3465 95.1869 59.2197C93.1336 57.8371 90.9323 56.6894 88.6253 55.7986C88.4923 55.7527 88.3474 55.7581 88.2193 55.8138C86.7864 56.6064 85.3679 57.4033 83.952 58.1881ZM85.7461 124.717C85.5086 124.564 85.3637 124.453 85.206 124.367C82.9614 123.126 80.8292 121.69 78.8345 120.077C78.024 119.435 78.0299 119.419 77.1509 119.941C76.0586 120.575 74.9707 121.212 73.8903 121.845C73.9231 121.934 73.9227 121.98 73.9448 121.997C76.4131 123.861 79.0871 125.435 81.9128 126.687C81.9861 126.717 82.0648 126.732 82.1438 126.73C82.2227 126.727 82.3001 126.708 82.3708 126.674C83.4706 126.054 84.5597 125.41 85.7461 124.717ZM60.3877 80.0177C59.2021 80.7015 58.0767 81.3408 56.9687 82.008C56.845 82.1304 56.774 82.2963 56.7706 82.471C56.6757 83.3378 56.5808 84.2046 56.5239 85.0732C56.3848 87.2501 56.4313 89.4369 56.6629 91.6101C56.747 91.5988 56.8078 91.6079 56.8503 91.5814C58.1192 90.8467 59.3935 90.1233 60.6429 89.359C60.776 89.2767 60.8365 88.974 60.8179 88.7893C60.6693 86.6144 60.4831 84.4416 60.3463 82.2654C60.3069 81.5366 60.3698 80.8144 60.3877 80.0177ZM131.745 89.2567C131.465 89.3891 131.32 89.4449 131.18 89.518C130.129 90.0855 129.089 90.6756 128.035 91.2295C127.659 91.4202 127.611 91.648 127.654 92.0466C127.846 93.9088 128.024 95.7744 128.143 97.6427C128.209 98.6725 128.147 99.7065 128.146 100.807C128.338 100.715 128.496 100.641 128.649 100.557C129.509 100.09 130.358 99.6045 131.227 99.1585C131.358 99.1036 131.47 99.0111 131.548 98.8925C131.626 98.7739 131.666 98.6346 131.665 98.4921C131.745 97.0965 131.902 95.7022 131.913 94.3083C131.915 92.6531 131.805 91.0043 131.745 89.2567ZM102.351 56.3575C102.432 56.4316 102.518 56.4997 102.608 56.5614C105.178 57.8907 107.616 59.4636 109.887 61.258C109.974 61.3058 110.07 61.3329 110.169 61.3372C110.267 61.3414 110.365 61.3227 110.455 61.2825C111.185 60.9215 111.893 60.5152 112.605 60.1223C113.121 59.8406 113.634 59.5553 114.187 59.2496C111.652 57.3982 108.91 55.8502 106.018 54.6378C105.871 54.5752 105.705 54.5714 105.557 54.6273C104.503 55.1673 103.46 55.7478 102.351 56.3575ZM87.3133 124.908C89.6417 126.097 92.0835 127.045 94.6004 127.739C94.8632 127.828 95.1427 127.856 95.4166 127.818C95.6905 127.781 95.9511 127.68 96.1776 127.524C97.028 126.979 97.9273 126.508 98.811 126.006C98.9242 125.94 99.0267 125.851 99.142 125.769C99.1067 125.732 99.0667 125.701 99.0231 125.675C96.7835 124.732 94.6409 123.571 92.6269 122.208C92.5531 122.167 92.4711 122.143 92.3872 122.138C92.3032 122.132 92.2193 122.146 92.1418 122.178C90.5495 123.05 88.9694 123.956 87.3133 124.908ZM127.515 102.248C125.937 103.124 124.458 103.952 122.964 104.759C122.835 104.815 122.729 104.913 122.662 105.036C122.595 105.16 122.572 105.302 122.596 105.442C122.704 107.769 122.575 110.099 122.209 112.395C122.191 112.508 122.197 112.626 122.186 112.812C123.029 112.349 123.772 111.858 124.576 111.516C125.578 111.087 126.071 110.387 126.324 109.334C126.919 107.01 127.315 104.639 127.51 102.245L127.515 102.248ZM66.3888 68.1195C65.2418 68.7771 64.1518 69.3807 63.0872 70.0291C62.8224 70.1959 62.6197 70.4441 62.5093 70.7369C61.8143 72.8917 61.3475 75.1155 61.1165 77.3721C61.0765 77.744 61.0465 78.1169 61.0098 78.5163C61.0811 78.5109 61.1515 78.4978 61.2199 78.4772C62.728 77.6166 64.2388 76.7618 65.7318 75.8751C65.8078 75.7995 65.8677 75.7094 65.9082 75.6101C65.9486 75.5108 65.9688 75.4043 65.9675 75.2967C66.0405 73.5025 66.0777 71.7083 66.1586 69.9132C66.182 69.3404 66.3016 68.7729 66.3888 68.1195ZM100.704 56.2162C100.646 56.1491 100.627 56.1094 100.598 56.0968C98.1225 54.9178 95.5176 54.0373 92.839 53.474C92.6275 53.4447 92.4131 53.4853 92.2284 53.5893C91.2702 54.0988 90.327 54.6345 89.3751 55.1632C89.2467 55.235 89.1346 55.3269 88.9534 55.4563C91.2639 56.3012 93.4838 57.3801 95.5779 58.6757C95.675 58.7249 95.7815 58.7523 95.8899 58.7561C95.9983 58.7599 96.1059 58.7399 96.2052 58.6976C97.7098 57.905 99.1823 57.0623 100.704 56.2162ZM64.5332 113.166C62.4633 110.332 60.7277 107.272 59.3615 104.046C58.9284 104.295 58.5373 104.513 58.1555 104.742C57.099 105.376 57.0934 105.378 57.5976 106.524C58.8451 109.355 60.4146 112.035 62.2749 114.513L64.5332 113.166ZM65.3042 114.184L63.1136 115.499C63.1304 115.555 63.1523 115.609 63.1791 115.661C65.2015 118.191 67.5263 120.465 70.1009 122.433C70.1634 122.476 70.2349 122.504 70.3098 122.515C70.3846 122.525 70.4608 122.519 70.5321 122.495C71.1428 122.153 71.7375 121.777 72.4185 121.36C69.7835 119.243 67.3966 116.835 65.3042 114.184ZM83.3435 127.21C83.3814 127.26 83.425 127.305 83.4734 127.345C86.2395 128.452 89.1233 129.231 92.065 129.667C92.1704 129.683 92.3018 129.716 92.3838 129.671C93.2367 129.195 94.0821 128.706 95.0417 128.159C92.2905 127.522 89.6158 126.582 87.0675 125.355C86.9291 125.286 86.7696 125.274 86.6239 125.323C85.5344 125.93 84.451 126.571 83.3435 127.21ZM58.8846 102.847C57.6879 99.7058 56.8637 96.4391 56.429 93.1142C55.8264 93.473 55.2969 93.8118 54.7464 94.1093C54.615 94.1645 54.508 94.2645 54.4442 94.3915C54.3804 94.5185 54.3639 94.6645 54.3976 94.8036C54.7522 97.8617 55.4549 100.873 56.4921 103.78C56.5503 103.911 56.6151 104.039 56.6862 104.164L58.8846 102.847ZM130.845 75.8604C130.411 74.9509 130.067 74.0592 129.58 73.2489C128.357 71.2189 127.076 69.2211 125.796 67.2233C125.734 67.1409 125.653 67.0744 125.56 67.0294C125.467 66.9843 125.365 66.9621 125.263 66.9645C124.685 67.2153 124.146 67.5293 123.548 67.8459C125.66 70.6523 127.432 73.696 128.827 76.9126L130.845 75.8604ZM126.247 110.554C127.046 110.124 127.757 109.759 128.439 109.354C128.667 109.221 128.849 109.023 128.961 108.785C129.374 107.82 129.737 106.833 130.049 105.829C130.578 103.971 131.031 102.091 131.516 100.219L131.356 100.146C130.301 100.727 129.258 101.28 128.22 101.868C128.158 101.914 128.107 101.972 128.069 102.039C128.032 102.107 128.009 102.181 128.001 102.258C127.737 105.085 127.149 107.868 126.247 110.554ZM56.8902 80.7809L57.096 80.8693C58.1583 80.2509 59.2277 79.6417 60.2797 79.0045C60.4154 78.8768 60.5007 78.7047 60.5207 78.5189C60.919 76.4403 61.3034 74.3613 61.709 72.2779C61.823 71.7129 62.0406 71.1663 62.2434 70.4981C61.3408 71.0233 60.5404 71.4736 59.7534 71.9523C59.6314 72.0565 59.5425 72.194 59.4975 72.3482C59.1766 73.1566 58.8079 73.9484 58.5546 74.7891C57.9731 76.7688 57.4431 78.7785 56.8902 80.7809ZM93.0179 53.1482C93.0772 53.1893 93.1402 53.2249 93.206 53.2545C95.886 53.8008 98.4981 54.6498 100.992 55.785C101.119 55.8506 101.266 55.8656 101.403 55.8268C102.447 55.272 103.479 54.6967 104.556 54.1045C104.496 54.0544 104.431 54.0103 104.363 53.9729C101.575 52.9317 98.6778 52.2211 95.7306 51.8561C95.5884 51.8314 95.4424 51.8489 95.3111 51.9066C94.5629 52.2955 93.8254 52.707 93.0179 53.1482ZM131.88 87.8411C132.418 87.5589 132.853 87.3041 133.318 87.1056C133.39 87.0868 133.458 87.0536 133.517 87.0079C133.576 86.9623 133.625 86.9052 133.662 86.84C133.698 86.7748 133.72 86.7029 133.728 86.6285C133.736 86.5541 133.728 86.4787 133.706 86.4069C133.29 83.3591 132.538 80.3627 131.463 77.4726C131.402 77.3369 131.334 77.2046 131.258 77.0762L129.324 78.0992C130.556 81.2392 131.414 84.5091 131.88 87.8411ZM105.664 122.895C106.915 123.92 108.292 124.781 109.761 125.456C109.818 125.48 109.88 125.492 109.941 125.492C110.003 125.491 110.064 125.479 110.121 125.454C111.064 124.932 112.001 124.396 112.99 123.829C112.233 122.522 111.536 121.262 110.81 119.98L105.664 122.895ZM116.616 116.964L116.401 116.847L111.427 119.639L113.362 123.625C114.327 123.085 115.267 122.575 116.178 122.031C116.237 121.981 116.285 121.918 116.32 121.848C116.354 121.778 116.374 121.702 116.378 121.624C116.472 120.065 116.545 118.512 116.616 116.964ZM124.624 65.8611C124.61 65.7931 124.617 65.7487 124.596 65.7252C122.517 63.2126 120.132 60.9684 117.496 59.0458C117.44 59.0071 117.376 58.9812 117.309 58.9697C117.242 58.9583 117.174 58.9616 117.108 58.9795C116.604 59.2181 116.12 59.4903 115.625 59.7499C116.902 60.9017 118.168 61.9674 119.363 63.1362C120.559 64.3051 121.646 65.5475 122.824 66.8017L124.624 65.8611ZM77.0803 61.2921L74.9692 57.6777L73.447 58.5378C71.9426 59.3801 71.9186 59.3787 71.8885 61.1006C71.8734 62.0838 71.954 63.0682 71.9956 64.1563L77.0803 61.2921ZM75.3494 57.4687C76.1506 58.6514 76.9271 59.7793 77.7058 60.9407L82.6246 58.1683C81.3487 57.2194 79.9359 56.4707 78.4361 55.9484C78.2998 55.9075 78.1537 55.9181 78.0259 55.978C77.1416 56.4575 76.2609 56.9505 75.3494 57.4687ZM71.3976 123.325C71.4501 123.388 71.5066 123.448 71.5668 123.505C74.1353 125.293 76.8995 126.782 79.8041 127.94C79.9343 127.997 80.0808 128.003 80.2139 127.956C80.737 127.662 81.2313 127.345 81.7389 127.038C81.6884 126.966 81.6735 126.926 81.648 126.913C78.8163 125.668 76.1283 124.115 73.6334 122.282C73.5691 122.241 73.4963 122.216 73.4207 122.208C73.3451 122.199 73.2689 122.209 73.198 122.235C72.6064 122.571 72.0354 122.944 71.3976 123.325ZM100.648 125.735C100.722 125.794 100.8 125.846 100.882 125.892C102.73 126.6 104.665 127.049 106.631 127.226C106.757 127.251 106.887 127.243 107.008 127.202C107.838 126.746 108.661 126.276 109.426 125.843C108.026 125.001 106.658 124.173 105.275 123.363C105.205 123.331 105.13 123.314 105.053 123.315C104.976 123.316 104.901 123.333 104.832 123.366C103.46 124.136 102.096 124.919 100.653 125.743L100.648 125.735ZM116.86 121.644C117.501 121.287 118.223 120.909 118.917 120.488C119.144 120.35 119.33 120.156 119.459 119.925C120.285 118.336 120.895 116.642 121.274 114.888C121.332 114.633 121.375 114.376 121.445 114.011C119.963 114.839 118.59 115.601 117.227 116.378C117.174 116.42 117.132 116.472 117.102 116.532C117.072 116.592 117.055 116.658 117.052 116.725C116.984 118.374 116.926 120.017 116.865 121.651L116.86 121.644ZM56.4678 82.288C55.912 82.6237 55.4268 82.902 54.956 83.2165C54.8231 83.3027 54.7279 83.4359 54.6893 83.5897C54.5358 84.612 54.374 85.6313 54.2791 86.661C54.1756 87.7831 54.0949 88.9126 54.0824 90.0464C54.0741 91.0526 54.1716 92.061 54.2301 93.1413C54.818 92.7921 55.3323 92.4589 55.8769 92.178C56.0165 92.1189 56.13 92.0121 56.1972 91.8766C56.2644 91.7411 56.281 91.5857 56.2439 91.438C55.9977 88.7717 56.0298 86.0902 56.3397 83.4366L56.4678 82.288ZM67.0636 66.9679C68.5366 66.1291 69.9086 65.3592 71.2677 64.5648C71.3273 64.5086 71.3744 64.4405 71.4059 64.3648C71.4374 64.2892 71.4527 64.2076 71.4507 64.1253C71.4655 63.2376 71.4312 62.3394 71.4604 61.456C71.4835 60.8475 71.5909 60.2455 71.6716 59.5551C70.8322 60.0276 70.0652 60.4583 69.3014 60.8986C69.2104 60.9563 69.1366 61.0372 69.0874 61.1329C68.1086 62.9565 67.4256 64.9256 67.0636 66.9679ZM87.5521 55.4169C85.5161 54.7187 83.3887 54.3334 81.2433 54.2744C81.1526 54.2651 81.0613 54.2779 80.9773 54.3118C80.1872 54.749 79.4038 55.1915 78.731 55.5621C80.1339 56.2649 81.5466 56.9825 82.9586 57.6783C83.0267 57.7128 83.1007 57.7336 83.1766 57.7396C83.2524 57.7455 83.3285 57.7364 83.4005 57.7128C84.7542 56.9886 86.0884 56.2347 87.5521 55.4169ZM133.961 88.0535C133.348 88.3757 132.895 88.6266 132.42 88.8421C132.284 88.8879 132.171 88.9847 132.105 89.1123C132.04 89.24 132.026 89.3885 132.068 89.5268C132.362 92.4662 132.327 95.4254 131.964 98.3497C131.958 98.4793 131.959 98.6092 131.967 98.7387C132.345 98.5419 132.672 98.3368 133.023 98.1965C133.185 98.1447 133.325 98.0431 133.425 97.9061C133.524 97.7691 133.577 97.6039 133.576 97.4339C133.693 96.0779 133.908 94.7289 133.963 93.3699C134.018 91.6432 133.973 89.9257 133.961 88.0535ZM128.282 110.38L128.194 110.311C127.921 110.475 127.637 110.624 127.345 110.754C126.829 110.924 126.366 111.223 126.002 111.623C125.637 112.024 125.383 112.512 125.264 113.041C125.195 113.267 125.098 113.483 124.974 113.683L122.183 118.674C123.585 118.331 124.144 116.883 125.153 115.911L123.659 117.799C124.673 117.581 129.152 111.309 129.548 109.636C128.788 109.814 128.395 110.342 128.085 111.01C127.713 111.806 127.254 112.559 126.833 113.33L126.765 113.276L128.282 110.38ZM60.2094 70.7514L60.3091 70.8516C61.056 70.4191 61.806 69.9963 62.5387 69.5455C62.6571 69.4728 62.7047 69.2768 62.7726 69.1322C63.2059 68.2179 63.5816 67.2723 64.0746 66.3912C64.7952 65.1093 65.5966 63.8702 66.4169 62.5256C65.6075 63.0325 64.716 63.3718 64.1319 63.9967C61.9851 66.3241 60.159 68.9274 58.7008 71.7391C59.6307 71.4692 60.1077 70.7984 60.4823 69.99C60.7639 69.3807 61.1341 68.8131 61.4644 68.2282L61.5261 68.277L60.2094 70.7514ZM125.344 111.858C124.336 112.417 123.316 112.959 122.324 113.548C122.103 113.709 121.94 113.935 121.858 114.196C121.307 115.725 120.795 117.268 120.248 118.797C120.101 119.208 119.878 119.591 119.63 120.107C120.725 119.489 121.803 119.099 122.359 118.016C122.5 117.742 122.683 117.494 122.848 117.231C123.914 115.56 124.753 113.753 125.344 111.858ZM116.251 58.1705C115.946 57.95 115.73 57.7793 115.501 57.6338C113.212 56.1501 110.781 54.8993 108.245 53.9002C107.422 53.5821 106.845 53.7097 106.185 54.3948C109.078 55.5926 111.83 57.1118 114.388 58.9234C114.447 58.9558 114.512 58.9747 114.579 58.9786C114.646 58.9825 114.713 58.9714 114.775 58.9461C115.236 58.7162 115.69 58.4592 116.243 58.1635L116.251 58.1705ZM63.0666 69.1453C63.1358 69.1575 63.1823 69.1802 63.2044 69.1658C64.2527 68.5787 65.3169 67.976 66.3644 67.3672C66.488 67.2967 66.5792 67.1814 66.6194 67.0449C67.0652 65.0086 67.8077 63.0515 68.8234 61.2357C67.5288 61.7765 66.4741 62.4895 65.8279 63.6955C65.726 63.8876 65.5987 64.0666 65.4841 64.2522C64.5133 65.7955 63.7033 67.435 63.0666 69.1453ZM81.2988 128.482C81.4891 128.558 81.616 128.619 81.7466 128.663C84.5104 129.609 87.3675 130.249 90.2656 130.569C90.5832 130.594 90.901 130.539 91.1905 130.41C91.48 130.281 91.732 130.082 91.924 129.831C89.3504 129.463 86.7898 128.956 84.3988 127.949C83.166 127.434 82.2698 127.621 81.2922 128.477L81.2988 128.482ZM54.9417 81.9445L55.1091 82.0452C55.4615 81.8353 55.7991 81.6031 56.1653 81.4255C56.3325 81.3442 56.4769 81.2232 56.5857 81.073C56.6946 80.9227 56.7647 80.7479 56.79 80.5635C57.265 78.6731 57.7624 76.7862 58.3132 74.9132C58.573 74.0281 58.9668 73.1818 59.3468 72.19C58.7223 72.5811 58.1382 72.767 57.8687 73.4426C57.3188 74.8347 56.6067 76.1692 56.1168 77.5805C55.627 78.9918 55.3228 80.4897 54.9417 81.9445ZM129.235 108.9C129.564 108.818 129.866 108.653 130.112 108.421C130.358 108.19 130.54 107.899 130.641 107.576C131.254 105.759 131.948 103.968 132.547 102.143C132.853 101.21 133.025 100.231 133.291 99.1344C132.873 99.3456 132.595 99.5076 132.301 99.6296C132.108 99.6991 131.94 99.8225 131.817 99.9851C131.693 100.148 131.619 100.343 131.604 100.547C131.456 101.515 131.245 102.473 130.973 103.412C130.434 105.235 129.816 107.057 129.234 108.888L129.235 108.9ZM72.1859 58.7014L72.2894 58.7833L74.7841 57.3684L74.0526 56.1204C71.6904 57.2365 66.0718 61.5586 65.64 62.6475L67.8538 61.1803L67.7972 61.0753L67.6191 61.5222L69.7648 60.1002L69.7492 60.2331C70.3847 59.8825 70.9927 59.5668 71.5654 59.1914C71.7488 59.0594 71.8955 58.8833 71.9922 58.6792C72.2575 58.1809 72.477 57.6818 72.7183 57.1822L72.7755 57.2275L72.1859 58.7014ZM79.2306 54.3604L79.3036 54.4536C80.0486 54.1684 80.8052 53.9137 81.5344 53.5805C82.2635 53.2474 82.929 52.8001 83.6242 52.4012C80.2425 53.086 77.1595 54.4568 74.1561 56.0394L75.1423 57.1738L77.5476 55.8085L77.5097 55.6935L76.4224 55.5061C76.4113 55.4477 76.4041 55.3889 76.3952 55.3322C77.8672 55.8843 78.9213 55.1178 80.1097 54.3265L79.2306 54.3604ZM106.232 53.1538C103.208 52.1319 100.073 51.4877 96.8981 51.236C96.5423 51.2059 96.1703 51.4498 95.8048 51.5678L95.85 51.7098C98.6085 52.0043 101.324 52.6334 103.937 53.583C104.854 53.9364 105.495 53.7282 106.232 53.1538Z" fill="url(#paint0_radial_200_7269)"/>
</g>
<defs>
<filter id="filter0_d_200_7269" x="0.0441895" y="0.753237" width="187.874" height="187.945" filterUnits="userSpaceOnUse" color-interpolation-filters="sRGB">
<feFlood flood-opacity="0" result="BackgroundImageFix"/>
<feColorMatrix in="SourceAlpha" type="matrix" values="0 0 0 0 0 0 0 0 0 0 0 0 0 0 0 0 0 0 127 0" result="hardAlpha"/>
<feOffset dy="4"/>
<feGaussianBlur stdDeviation="26.75"/>
<feComposite in2="hardAlpha" operator="out"/>
<feColorMatrix type="matrix" values="0 0 0 0 0.580653 0 0 0 0 0.488985 0 0 0 0 0.735343 0 0 0 0.44 0"/>
<feBlend mode="normal" in2="BackgroundImageFix" result="effect1_dropShadow_200_7269"/>
<feBlend mode="normal" in="SourceGraphic" in2="effect1_dropShadow_200_7269" result="shape"/>
</filter>
<radialGradient id="paint0_radial_200_7269" cx="0" cy="0" r="1" gradientUnits="userSpaceOnUse" gradientTransform="translate(79.4145 87.9262) rotate(-51.6485) scale(53.148 53.7525)">
<stop stop-color="#D5CDDB"/>
<stop offset="0.54" stop-color="#A205C5" stop-opacity="0.15"/>
<stop offset="1" stop-color="#9D03BF" stop-opacity="0"/>
</radialGradient>
</defs>
</svg>
