<?xml version="1.0" encoding="utf-8" ?>
<svg xmlns="http://www.w3.org/2000/svg" xmlns:xlink="http://www.w3.org/1999/xlink" width="194.2573" height="183.29" viewBox="0 0 194.2573 183.29">
	<rect width="160.0894" height="161.19673" rx="6" ry="6" transform="matrix(1 0 0 1 6 2.86914)" fill="rgb(48, 41, 61)"/>
	<defs>
		<linearGradient id="linearGradient1806551928" gradientTransform="matrix(1.73718e-15 161.197 -28.3703 9.87045e-15 94.2298 -5.06804e-14)" gradientUnits="userSpaceOnUse" x1="0" y1="0.5" x2="1" y2="0.5">
			<stop offset="0" stop-color="rgb(169, 163, 194)" stop-opacity="0.2"/>
			<stop offset="1" stop-color="rgb(169, 163, 194)" stop-opacity="0.046999998"/>
		</linearGradient>
	</defs>
	<rect width="160.0894" height="161.19673" rx="6" ry="6" transform="matrix(1 0 0 1 6 2.86914)" fill="url(#linearGradient1806551928)"/>
	<defs>
		<linearGradient id="linearGradient8879193605" gradientTransform="matrix(0 161.197 -160.089 0 160.089 0)" gradientUnits="userSpaceOnUse" x1="0" y1="0.5" x2="1" y2="0.5">
			<stop offset="0" stop-color="rgb(40, 29, 59)"/>
			<stop offset="1" stop-color="rgb(37, 27, 53)" stop-opacity="0.5"/>
		</linearGradient>
	</defs>
	<path d="M-0 6C0 2.68629 2.68629 -0 6 -0L154.089 0C157.403 0 160.089 2.68629 160.089 6L160.089 155.197C160.089 158.51 157.403 161.197 154.089 161.197L6 161.197C2.68629 161.197 -0 158.51 -0 155.197L0 6ZM6 1C3.23858 1 1 3.23858 1 6L1 155.197C1 157.958 3.23858 160.197 6 160.197L154.089 160.197C156.851 160.197 159.089 157.958 159.089 155.197L159.089 6C159.089 3.23858 156.851 1 154.089 1L6 1Z" fill-rule="nonzero" transform="matrix(1 0 0 1 6 2.86914)" fill="url(#linearGradient8879193605)"/>
	<defs>
		<linearGradient id="linearGradient1764965079" gradientTransform="matrix(1.73718e-15 161.197 -28.3703 9.87045e-15 94.2298 -5.06804e-14)" gradientUnits="userSpaceOnUse" x1="0" y1="0.5" x2="1" y2="0.5">
			<stop offset="0" stop-color="rgb(169, 163, 194)" stop-opacity="0.2"/>
			<stop offset="1" stop-color="rgb(169, 163, 194)" stop-opacity="0.046999998"/>
		</linearGradient>
	</defs>
	<path d="M-0 6C0 2.68629 2.68629 -0 6 -0L154.089 0C157.403 0 160.089 2.68629 160.089 6L160.089 155.197C160.089 158.51 157.403 161.197 154.089 161.197L6 161.197C2.68629 161.197 -0 158.51 -0 155.197L0 6ZM6 1C3.23858 1 1 3.23858 1 6L1 155.197C1 157.958 3.23858 160.197 6 160.197L154.089 160.197C156.851 160.197 159.089 157.958 159.089 155.197L159.089 6C159.089 3.23858 156.851 1 154.089 1L6 1Z" fill-rule="nonzero" transform="matrix(1 0 0 1 6 2.86914)" fill="url(#linearGradient1764965079)"/>
	<defs>
		<filter id="filter5351070375" filterUnits="userSpaceOnUse" color-interpolation-filters="sRGB">
			<feComponentTransfer in="SourceAlpha" result="componentTransfer1685739116">
				<feFuncR type="linear" slope="0" intercept="0.10999998"/>
				<feFuncG type="linear" slope="0" intercept="0.14137037"/>
				<feFuncB type="linear" slope="0" intercept="0.41249999"/>
				<feFuncA type="linear" slope="10000" intercept="0"/>
			</feComponentTransfer>
			<feComponentTransfer in="componentTransfer1685739116" result="componentTransfer9061262307">
				<feFuncA type="linear" slope="0.050000001" intercept="0"/>
			</feComponentTransfer>
			<feOffset dx="0" dy="7.556097" in="componentTransfer9061262307" result="offset1806252474"/>
			<feGaussianBlur stdDeviation="12.593492" in="offset1806252474" result="gaussianBlur7420595939"/>
			<feMerge>
				<feMergeNode in="gaussianBlur7420595939"/>
				<feMergeNode in="SourceGraphic"/>
			</feMerge>
		</filter>
	</defs>
	<g filter="url(#filter5351070375)">
		<defs>
			<radialGradient id="radialGradient0590951279" gradientTransform="matrix(0.000124235 72.4003 -267.399 2.99952e-05 194.148 -36.2002)" gradientUnits="userSpaceOnUse" cx="0.5" cy="0.5" r="0.5">
				<stop offset="0" stop-color="rgb(117, 73, 255)"/>
				<stop offset="1" stop-color="rgb(178, 160, 255)"/>
			</radialGradient>
		</defs>
		<rect width="120.89755" height="37.780468" rx="6" ry="6" transform="matrix(1 0 0 1 25.187 17.6309)" fill="url(#radialGradient0590951279)"/>
	</g>
	<defs>
		<linearGradient id="linearGradient5353391874" gradientTransform="matrix(10.0918 11.6852 -13.6454 39.5176 8.41614 -20.8211)" gradientUnits="userSpaceOnUse" x1="0" y1="0.5" x2="1" y2="0.5">
			<stop offset="0" stop-color="rgb(112, 0, 255)"/>
			<stop offset="0.57526344" stop-color="rgb(241, 61, 212)"/>
			<stop offset="1" stop-color="rgb(248, 58, 58)"/>
		</linearGradient>
	</defs>
	<path d="M0 5.31146L1.77049 3.54097L5.31146 7.08195L12.3934 0L14.1639 1.77049L5.31146 10.6229L0 5.31146Z" fill-rule="evenodd" transform="matrix(1 0 0 1 121.708 32.1758)" fill="url(#linearGradient5353391874)"/>
	<path d="M3.77805 0C1.69149 0 0 1.69149 0 3.77805L0 3.78372C0 5.87027 1.69149 7.5561 3.77805 7.5561L71.9325 7.5561C74.019 7.5561 75.7105 5.87027 75.7105 3.78372L75.7105 3.77805C75.7105 1.69149 74.019 0 71.9325 0L3.77805 0Z" fill-rule="nonzero" transform="matrix(1 0 0 1 37.7805 32.7431)" fill="rgb(255, 255, 255)"/>
	<rect width="120.89755" height="37.780468" rx="6" ry="6" transform="matrix(1 0 0 1 25.187 64.5781)" fill="rgb(255, 255, 255)" fill-opacity="0.04"/>
	<path d="M-0 6C0 2.68629 2.68629 -0 6 -0L114.898 0C118.211 0 120.898 2.68629 120.898 6L120.898 31.7805C120.898 35.0942 118.211 37.7805 114.898 37.7805L6 37.7805C2.68629 37.7805 -0 35.0942 -0 31.7805L0 6ZM6 0.700709C3.07328 0.700709 0.700709 3.07328 0.700709 6L0.700709 31.7805C0.700709 34.7072 3.07328 37.0798 6 37.0798L114.898 37.0798C117.824 37.0798 120.197 34.7072 120.197 31.7805L120.197 6C120.197 3.07328 117.824 0.700709 114.898 0.700709L6 0.700709Z" fill-rule="nonzero" transform="matrix(1 0 0 1 25.187 64.5781)" fill="rgb(255, 255, 255)" fill-opacity="0.1"/>
	<path d="M3.77805 0C1.69149 0 0 1.69149 0 3.77805L0 3.78372C0 5.87027 1.69149 7.5561 3.77805 7.5561L94.4512 7.5561C96.5378 7.5561 98.2292 5.87027 98.2292 3.78372L98.2292 3.77805C98.2292 1.69149 96.5377 0 94.4512 0L3.77805 0Z" fill-rule="nonzero" transform="matrix(1 0 0 1 36.5212 79.6903)" fill="rgb(217, 217, 217)" fill-opacity="0.1"/>
	<rect width="120.89755" height="37.780468" rx="6" ry="6" transform="matrix(1 0 0 1 25.187 111.525)" fill="rgb(255, 255, 255)" fill-opacity="0.04"/>
	<path d="M-0 6C0 2.68629 2.68629 -0 6 -0L114.898 0C118.211 0 120.898 2.68629 120.898 6L120.898 31.7805C120.898 35.0942 118.211 37.7805 114.898 37.7805L6 37.7805C2.68629 37.7805 -0 35.0942 -0 31.7805L0 6ZM6 0.700709C3.07328 0.700709 0.700709 3.07328 0.700709 6L0.700709 31.7805C0.700709 34.7072 3.07328 37.0798 6 37.0798L114.898 37.0798C117.824 37.0798 120.197 34.7072 120.197 31.7805L120.197 6C120.197 3.07328 117.824 0.700709 114.898 0.700709L6 0.700709Z" fill-rule="nonzero" transform="matrix(1 0 0 1 25.187 111.525)" fill="rgb(255, 255, 255)" fill-opacity="0.1"/>
	<path d="M3.77805 0C1.69149 0 0 1.69149 0 3.77805L0 3.78372C0 5.87027 1.69149 7.5561 3.77805 7.5561L94.4512 7.5561C96.5378 7.5561 98.2292 5.87027 98.2292 3.78372L98.2292 3.77805C98.2292 1.69149 96.5377 0 94.4512 0L3.77805 0Z" fill-rule="nonzero" transform="matrix(1 0 0 1 36.5212 126.638)" fill="rgb(217, 217, 217)" fill-opacity="0.1"/>
	<defs>
		<filter id="filter7425751459" filterUnits="userSpaceOnUse" color-interpolation-filters="sRGB">
			<feGaussianBlur in="SourceGraphic" stdDeviation="3"/>
		</filter>
	</defs>
	<g filter="url(#filter7425751459)">
		<defs>
			<radialGradient id="radialGradient6701335088" gradientTransform="matrix(5.75127e-05 107.253 -123.788 4.44344e-05 89.8775 -53.6264)" gradientUnits="userSpaceOnUse" cx="0.5" cy="0.5" r="0.5">
				<stop offset="0" stop-color="rgb(117, 73, 255)"/>
				<stop offset="1" stop-color="rgb(178, 160, 255)"/>
			</radialGradient>
		</defs>
		<path d="M27.9837 0C12.5287 0 0 12.5287 0 27.9837L0 28.0257C0 43.4807 12.4868 55.9675 27.9418 55.9675L27.9837 55.9675C43.4387 55.9675 55.9675 43.4807 55.9675 28.0257L55.9675 27.9837C55.9675 12.5287 43.4807 0 28.0257 0L27.9837 0Z" fill-rule="nonzero" transform="matrix(1 0 0 1 132.29 121.322)" fill="url(#radialGradient6701335088)"/>
	</g>
	<defs>
		<radialGradient id="radialGradient0201850087" gradientTransform="matrix(5.75127e-05 107.253 -123.788 4.44344e-05 89.8775 -53.6264)" gradientUnits="userSpaceOnUse" cx="0.5" cy="0.5" r="0.5">
			<stop offset="0" stop-color="rgb(117, 73, 255)"/>
			<stop offset="1" stop-color="rgb(178, 160, 255)"/>
		</radialGradient>
	</defs>
	<path d="M27.9837 0C12.5287 0 0 12.5287 0 27.9837L0 28.0257C0 43.4807 12.4868 55.9675 27.9418 55.9675L27.9837 55.9675C43.4387 55.9675 55.9675 43.4807 55.9675 28.0257L55.9675 27.9837C55.9675 12.5287 43.4807 0 28.0257 0L27.9837 0Z" fill-rule="nonzero" transform="matrix(1 0 0 1 132.29 121.322)" fill="url(#radialGradient0201850087)"/>
	<defs>
		<linearGradient id="linearGradient4346510366" gradientTransform="matrix(6.59425e-17 26 -1.07692 1.59204e-15 11.0385 -3.21946e-14)" gradientUnits="userSpaceOnUse" x1="0" y1="0.5" x2="1" y2="0.5">
			<stop offset="0.22499999" stop-color="rgb(255, 255, 255)"/>
			<stop offset="1" stop-color="rgb(255, 255, 255)" stop-opacity="0.69999999"/>
		</linearGradient>
	</defs>
	<path d="M8.68896 2.06055C7.29004 2.46094 5.58105 2.66113 3.55957 2.66113L3.88916 3.63037C4.55078 3.63037 5.1709 3.61084 5.74951 3.56934L5.74951 5.91064L2.97119 5.91064L2.97119 6.93115L5.74951 6.93115L5.74951 9.68994L3.46924 9.68994L3.46924 10.7104L9.08936 10.7104L9.08936 9.68994L6.78955 9.68994L6.78955 6.93115L9.58984 6.93115L9.58984 5.91064L6.78955 5.91064L6.78955 3.46924C7.7002 3.34961 8.51074 3.18115 9.20898 2.93945L8.68896 2.06055ZM2.53906 1.77002C2.05078 3.27881 1.29883 4.58984 0.280762 5.70068L0.629883 6.81885C0.930176 6.50879 1.2207 6.18896 1.48926 5.86914L1.48926 11.0596L2.5293 11.0596L2.5293 4.39941C2.92969 3.7207 3.25928 3.00049 3.52051 2.24121L2.53906 1.77002Z" fill-rule="nonzero" transform="matrix(1 0 0 1 149.773 136.306)" fill="url(#linearGradient4346510366)"/>
	<defs>
		<linearGradient id="linearGradient1673809933" gradientTransform="matrix(6.59425e-17 26 -1.07692 1.59204e-15 11.0385 -3.21946e-14)" gradientUnits="userSpaceOnUse" x1="0" y1="0.5" x2="1" y2="0.5">
			<stop offset="0.22499999" stop-color="rgb(255, 255, 255)"/>
			<stop offset="1" stop-color="rgb(255, 255, 255)" stop-opacity="0.69999999"/>
		</linearGradient>
	</defs>
	<path d="M13.6593 1.74072C13.2589 2.7002 12.4801 3.51074 11.3204 4.16992L11.9503 5C12.3311 4.76074 12.69 4.50928 13.0196 4.24072C13.4005 4.55078 13.8106 4.83887 14.2501 5.10986C13.2296 5.47119 12.0699 5.73975 10.7711 5.90088L11.2496 6.87988C12.8292 6.64062 14.211 6.25 15.4 5.72021C16.6402 6.29883 18.0294 6.66992 19.5797 6.85059L20.0509 5.87891C18.7691 5.75928 17.5997 5.51025 16.5499 5.12939C17.3702 4.65088 18.0709 4.06982 18.6593 3.39111L18.6593 2.54883L14.4088 2.54883C14.5211 2.35107 14.6212 2.12891 14.7188 1.89941L13.6593 1.74072ZM15.3902 4.62891C14.7896 4.33105 14.2306 3.96973 13.7105 3.5498L13.7301 3.53027L17.109 3.53027C16.6012 3.9502 16.0299 4.30908 15.3902 4.62891ZM14.6309 6.28906C14.6212 6.63086 14.5894 6.95068 14.5308 7.26074L11.4693 7.26074L11.4693 8.20068L14.211 8.20068C14.15 8.30078 14.0889 8.41064 14.0206 8.52051C13.5299 9.18945 12.4703 9.76074 10.8492 10.2295L11.5401 11.0791C13.4005 10.481 14.5699 9.74121 15.0509 8.8501C15.1705 8.6499 15.2706 8.43018 15.3512 8.20068L17.9708 8.20068C17.9488 9.03076 17.8707 9.54102 17.7389 9.74121C17.6192 9.9292 17.3311 10.0293 16.8599 10.0391C16.5206 10.0293 16.0909 10.0098 15.5611 9.98047L15.8199 10.9204C16.3204 10.9595 16.7403 10.979 17.0894 10.979C17.7901 10.979 18.2808 10.8008 18.5592 10.4492C18.8399 10.1001 18.9889 9.04053 19.0108 7.26074L15.5904 7.26074C15.6295 6.96045 15.6588 6.63086 15.6588 6.28906L14.6309 6.28906Z" fill-rule="nonzero" transform="matrix(1 0 0 1 149.773 136.306)" fill="url(#linearGradient1673809933)"/>
	<defs>
		<linearGradient id="linearGradient9413359820" gradientTransform="matrix(6.59425e-17 26 -1.07692 1.59204e-15 11.0385 -3.21946e-14)" gradientUnits="userSpaceOnUse" x1="0" y1="0.5" x2="1" y2="0.5">
			<stop offset="0.22499999" stop-color="rgb(255, 255, 255)"/>
			<stop offset="1" stop-color="rgb(255, 255, 255)" stop-opacity="0.69999999"/>
		</linearGradient>
	</defs>
	<path d="M0.539551 15.8711L0.539551 16.8599L9.47021 16.8599L9.47021 15.8711L5.61035 15.8711C5.43945 15.4512 5.25879 15.0605 5.08057 14.709L3.91113 14.9092C4.10889 15.2095 4.28955 15.5293 4.45068 15.8711L0.539551 15.8711ZM6.67969 16.9209L5.96924 17.5996C7.15088 18.5493 8.06885 19.4307 8.71094 20.251L9.47998 19.4697C8.7207 18.6201 7.78076 17.7705 6.67969 16.9209ZM6.53076 18.8105C6.13037 19.5698 5.62012 20.2412 5 20.8296C4.35059 20.2607 3.83057 19.6089 3.43018 18.8691L2.5293 19.3794C2.97119 20.1704 3.53027 20.8809 4.18945 21.501C3.16895 22.2212 1.91895 22.7705 0.439453 23.1294L1.08887 24.0889C2.62939 23.6909 3.94043 23.0708 5.03906 22.209C6.11084 23.0098 7.41943 23.6299 8.95996 24.0596L9.60938 23.0806C8.12988 22.7095 6.87012 22.1797 5.84961 21.4912C6.48926 20.8491 7.04102 20.0996 7.49023 19.2402L6.53076 18.8105ZM3.24951 16.9307C2.50977 17.8389 1.58936 18.6299 0.510254 19.311L1.1792 20.1899C2.2998 19.4502 3.24951 18.5908 4.00879 17.5898L3.24951 16.9307Z" fill-rule="nonzero" transform="matrix(1 0 0 1 149.773 136.306)" fill="url(#linearGradient9413359820)"/>
	<defs>
		<linearGradient id="linearGradient5908481520" gradientTransform="matrix(6.59425e-17 26 -1.07692 1.59204e-15 11.0385 -3.21946e-14)" gradientUnits="userSpaceOnUse" x1="0" y1="0.5" x2="1" y2="0.5">
			<stop offset="0.22499999" stop-color="rgb(255, 255, 255)"/>
			<stop offset="1" stop-color="rgb(255, 255, 255)" stop-opacity="0.69999999"/>
		</linearGradient>
	</defs>
	<path d="M12.9195 14.6992C12.441 16.2495 11.689 17.5996 10.6807 18.7397L11.0201 19.8188C11.3692 19.46 11.6988 19.0791 11.9991 18.7007L11.9991 24.0596L13.0391 24.0596L13.0391 17.1309C13.3907 16.501 13.6788 15.8394 13.901 15.1606L12.9195 14.6992ZM13.9791 16.8403L13.9791 17.8608L17.5606 17.8608L17.5606 22.6094C17.5606 22.8999 17.419 23.0488 17.1505 23.0488C16.711 23.0488 16.2496 23.0195 15.7711 22.9805L16.0103 24.001L17.5094 24.001C18.2393 24.001 18.6104 23.6201 18.6104 22.8706L18.6104 17.8608L19.9703 17.8608L19.9703 16.8403L18.6104 16.8403L18.6104 14.8311L17.5606 14.8311L17.5606 16.8403L13.9791 16.8403ZM15.0509 18.73L14.189 19.2598C14.88 20.1191 15.4293 20.9102 15.8394 21.6108L16.7306 20.9907C16.3302 20.3511 15.7711 19.5894 15.0509 18.73Z" fill-rule="nonzero" transform="matrix(1 0 0 1 149.773 136.306)" fill="url(#linearGradient5908481520)"/>
</svg>
