<?xml version="1.0" encoding="utf-8" ?>
<svg xmlns="http://www.w3.org/2000/svg" xmlns:xlink="http://www.w3.org/1999/xlink" width="48" height="48" viewBox="0 0 48 48">
	<defs>
		<filter id="filter2380612066" filterUnits="userSpaceOnUse" color-interpolation-filters="sRGB">
			<feComponentTransfer in="SourceAlpha" result="componentTransfer7020559149">
				<feFuncR type="linear" slope="0" intercept="0"/>
				<feFuncG type="linear" slope="0" intercept="0"/>
				<feFuncB type="linear" slope="0" intercept="0"/>
				<feFuncA type="linear" slope="10000" intercept="0"/>
			</feComponentTransfer>
			<feComponentTransfer in="componentTransfer7020559149" result="componentTransfer3992568817">
				<feFuncA type="linear" slope="0.25" intercept="0"/>
			</feComponentTransfer>
			<feOffset dx="0" dy="4" in="componentTransfer3992568817" result="offset2300312697"/>
			<feGaussianBlur stdDeviation="2" in="offset2300312697" result="gaussianBlur2262496093"/>
			<feMerge>
				<feMergeNode in="gaussianBlur2262496093"/>
				<feMergeNode in="SourceGraphic"/>
			</feMerge>
		</filter>
	</defs>
	<g filter="url(#filter2380612066)">
		<defs>
			<linearGradient id="linearGradient4267114285" gradientTransform="matrix(28.5 44 -38.5357 148.801 23.7679 -78.4006)" gradientUnits="userSpaceOnUse" x1="0" y1="0.5" x2="1" y2="0.5">
				<stop offset="0" stop-color="rgb(112, 0, 255)"/>
				<stop offset="0.57526344" stop-color="rgb(241, 61, 212)"/>
				<stop offset="1" stop-color="rgb(248, 58, 58)"/>
			</linearGradient>
		</defs>
		<path transform="matrix(1 0 0 1 4 0)" d="M4 0C1.79086 0 0 1.79086 0 4L0 36C0 38.2091 1.79086 40 4 40L36 40C38.2091 40 40 38.2091 40 36L40 4C40 1.79086 38.2091 0 36 0L4 0Z" fill-rule="nonzero" fill="url(#linearGradient4267114285)"/>
		<path transform="matrix(1 0 0 1 15 11)" d="M0 0L2 0L2 2L0 2L0 0ZM16 16L18 16L18 18L16 18L16 16ZM16 0L18 0L18 2L16 2L16 0ZM0 16L2 16L2 18L0 18L0 16Z" fill-rule="nonzero" fill="rgb(255, 255, 255)" opacity="0.4"/>
		<path transform="matrix(1 0 0 1 13 9)" d="M16 2L6 2L6 0L0 0L0 6L2 6L2 16L0 16L0 22L6 22L6 20L16 20L16 22L22 22L22 16L20 16L20 6L22 6L22 0L16 0L16 2ZM2 2L4 2L4 4L2 4L2 2ZM4 20L2 20L2 18L4 18L4 20ZM20 20L18 20L18 18L20 18L20 20ZM18 2L20 2L20 4L18 4L18 2ZM18 16L16 16L16 18L6 18L6 16L4 16L4 6L6 6L6 4L16 4L16 6L18 6L18 16Z" fill-rule="nonzero" fill="rgb(255, 255, 255)"/>
	</g>
</svg>
