<svg width="389" height="333" viewBox="0 0 389 333" fill="none" xmlns="http://www.w3.org/2000/svg">
<path d="M28.5 183L28.5 321M353.5 183V321M14 320.5H368M175 22.5V48.9741C175 54.507 179.493 58.9884 185.026 58.974L368 58.5M14 140.5L368 140.5M14 183.5L109.5 183.5M109.5 183.5H271.5M109.5 183.5V184M109.5 183.5V141M271.5 183.5L368 183.5M271.5 183.5V184M271.5 183.5V141M98 23V49.5C98 55.0228 93.5229 59.5 88 59.5H14" stroke="url(#paint0_radial_260_5914)"/>
<g opacity="0.48" clip-path="url(#clip0_260_5914)">
<path d="M72.446 109.524C70.2347 108.096 69.5511 106.445 68.65 104.034C67.7488 101.622 67.7488 95.3886 68.65 92.977C69.5511 90.5654 70.2255 88.9153 72.446 87.4868C74.6665 86.0584 76.6456 84.679 78.4792 84.679H126.691C129.225 84.6783 131.75 84.9835 134.21 85.5877L135.999 86.0275C137.253 86.3133 138.395 86.9534 139.285 87.8694C140.176 88.7855 140.776 89.9377 141.013 91.1851L141.03 91.2742C141.05 91.3923 141.066 91.5104 141.081 91.6286C141.361 93.7385 141.511 98.5072 141.511 98.5072C141.511 98.5072 141.361 103.276 141.081 105.386C141.066 105.504 141.05 105.622 141.03 105.749L141.013 105.838C140.776 107.086 140.176 108.238 139.285 109.154C138.395 110.07 137.253 110.71 135.999 110.996L134.21 111.436C131.75 112.04 129.225 112.345 126.691 112.344H78.4792C76.6456 112.332 74.6665 110.952 72.446 109.524Z" fill="url(#paint1_radial_260_5914)"/>
<path fill-rule="evenodd" clip-rule="evenodd" d="M134.145 111.223C131.668 111.826 129.124 112.131 126.571 112.13H78.0039C76.3003 112.118 74.4719 110.946 72.443 109.645C72.2722 109.535 72.0999 109.425 71.9263 109.314C69.6986 107.888 69.0099 106.24 68.1022 103.832C67.1944 101.424 67.1944 95.1999 68.1022 92.7919C69.0099 90.3839 69.6894 88.7363 71.9263 87.31C72.0983 87.2003 72.269 87.0909 72.4383 86.9823C74.469 85.68 76.299 84.5065 78.0039 84.5065H126.571C129.124 84.5057 131.668 84.8104 134.145 85.4138L135.948 85.8529C137.211 86.1383 138.361 86.7774 139.258 87.6921C140.155 88.6067 140.76 89.7572 140.999 91.0027L141.016 91.0916C141.036 91.2096 141.053 91.3275 141.067 91.4455C141.667 95.9249 141.667 100.703 141.067 105.182C141.053 105.3 141.036 105.418 141.016 105.545L140.999 105.634C140.76 106.879 140.155 108.03 139.258 108.945C138.361 109.859 137.211 110.498 135.948 110.784L134.145 111.223ZM140.818 105.6C140.586 106.811 139.998 107.929 139.126 108.818C138.254 109.707 137.135 110.329 135.907 110.607L135.905 110.607L134.101 111.046C131.638 111.646 129.11 111.949 126.571 111.948H78.0046C77.1251 111.942 76.1965 111.611 75.1972 111.091C74.3531 110.653 73.4745 110.089 72.5451 109.493C72.374 109.384 72.2011 109.273 72.0264 109.161C69.8531 107.77 69.1813 106.173 68.2749 103.769C67.8331 102.597 67.6057 100.466 67.6057 98.3119C67.6057 96.1577 67.8331 94.0272 68.2749 92.8553C69.1815 90.4504 69.844 88.8541 72.0263 87.4626C72.1994 87.3523 72.3707 87.2424 72.5404 87.1336C73.4715 86.5366 74.3516 85.9722 75.197 85.5343C76.1964 85.0166 77.1248 84.6882 78.0039 84.6882H126.571C129.11 84.6875 131.638 84.9904 134.101 85.5902L135.904 86.0293L135.905 86.0297L135.907 86.03C137.135 86.3076 138.254 86.9291 139.126 87.8184C139.998 88.7077 140.586 89.826 140.818 91.0365L140.834 91.1222C140.834 91.1226 140.834 91.1229 140.834 91.1232C140.854 91.2373 140.87 91.352 140.885 91.4679L140.885 91.4693C141.483 95.9329 141.483 100.695 140.885 105.158L140.885 105.16C140.87 105.275 140.854 105.39 140.834 105.514C140.834 105.515 140.834 105.516 140.834 105.516L140.818 105.6Z" fill="#B073FF"/>
<path d="M72.2617 109.491C70.0504 108.063 69.3667 106.413 68.4656 104.001C67.5645 101.59 67.5645 95.356 68.4656 92.9444C69.3667 90.5328 70.0412 88.8827 72.2617 87.4542C74.4822 86.0258 76.4613 84.6464 78.2949 84.6464H126.507C129.041 84.6457 131.566 84.9509 134.025 85.5551L135.815 85.9949C137.068 86.2807 138.21 86.9208 139.101 87.8368C139.991 88.7529 140.592 89.9051 140.829 91.1525L140.845 91.2416C140.866 91.3597 140.882 91.4778 140.897 91.596C141.177 93.7059 141.326 98.4746 141.326 98.4746C141.326 98.4746 141.177 103.243 140.897 105.353C140.882 105.471 140.866 105.59 140.845 105.717L140.829 105.806C140.592 107.053 139.991 108.205 139.101 109.121C138.21 110.038 137.068 110.678 135.815 110.963L134.025 111.403C131.566 112.007 129.041 112.313 126.507 112.312H78.2949C76.4613 112.299 74.4822 110.92 72.2617 109.491Z" fill="url(#paint2_radial_260_5914)"/>
<path fill-rule="evenodd" clip-rule="evenodd" d="M70.664 106.151L70.5828 105.914C70.1351 104.605 69.902 102.754 69.7811 101.226C69.7207 100.462 69.6884 99.781 69.6713 99.2906C69.6627 99.0454 69.6579 98.848 69.6552 98.7119C69.6539 98.6438 69.6531 98.5911 69.6526 98.5555C69.6524 98.5376 69.6523 98.5241 69.6522 98.515L69.6521 98.5047L69.652 98.5015C69.652 98.5015 69.652 98.5013 69.5848 98.5018C69.5175 98.5022 69.5175 98.5023 69.5175 98.5023L69.5176 98.5058L69.5176 98.5163C69.5177 98.5255 69.5179 98.5392 69.5181 98.5572C69.5186 98.5931 69.5194 98.6461 69.5207 98.7144C69.5234 98.8511 69.5282 99.0492 69.5368 99.2952C69.554 99.787 69.5864 100.47 69.647 101.236C69.761 102.678 69.9755 104.419 70.3797 105.724L68.7008 104.25L68.6113 104.349L70.664 106.151Z" fill="white"/>
<path fill-rule="evenodd" clip-rule="evenodd" d="M91.6645 111.19C95.169 111.211 108.99 111.291 112.51 111.19C115.956 111.086 122.034 110.699 123.63 110.595C123.698 110.594 123.764 110.575 123.823 110.542C123.883 110.508 123.933 110.461 123.969 110.403C124.005 110.346 124.026 110.281 124.03 110.213C124.034 110.146 124.021 110.079 123.992 110.018L123.991 110.015L123.989 110.012C123.913 109.885 123.774 109.758 123.576 109.63C123.377 109.501 123.113 109.368 122.781 109.232C122.117 108.96 121.172 108.67 119.908 108.369C118.404 108.01 115.9 107.808 113.095 107.737C110.288 107.665 107.173 107.725 104.444 107.891C101.711 108.058 98.3339 108.713 95.6427 109.326C94.2967 109.633 93.1212 109.929 92.2822 110.148C91.8627 110.258 91.5273 110.349 91.2967 110.412C91.1814 110.443 91.0923 110.468 91.0321 110.485C91.0019 110.493 90.979 110.5 90.9636 110.504L90.9403 110.511C90.9402 110.511 90.9402 110.511 90.9588 110.574L90.9403 110.511L90.8999 110.522L90.781 111.186H90.8612C90.9114 111.186 91.1956 111.188 91.6645 111.19ZM91.0178 110.627C91.0314 110.623 91.0484 110.618 91.0687 110.613C91.1288 110.596 91.2177 110.571 91.3327 110.54C91.5628 110.477 91.8977 110.386 92.3167 110.276C93.1546 110.057 94.3286 109.761 95.673 109.455C98.3627 108.843 101.73 108.19 104.452 108.024C107.177 107.858 110.288 107.798 113.091 107.869C115.896 107.941 118.387 108.143 119.876 108.498C121.137 108.799 122.074 109.086 122.729 109.355C123.057 109.489 123.313 109.618 123.502 109.741C123.691 109.863 123.81 109.975 123.872 110.077C123.89 110.117 123.898 110.161 123.896 110.206C123.893 110.251 123.879 110.295 123.855 110.333C123.83 110.372 123.797 110.404 123.757 110.427C123.717 110.449 123.672 110.462 123.626 110.463L123.624 110.463L123.623 110.463C122.028 110.566 115.951 110.953 112.506 111.057C108.99 111.158 95.1865 111.078 91.6711 111.058C91.3154 111.056 91.065 111.054 90.9413 111.054L91.0178 110.627Z" fill="white"/>
<path fill-rule="evenodd" clip-rule="evenodd" d="M94.7422 110.734H106.858L108.446 107.981L108.327 107.984C105.946 108.046 103.873 108.126 102.089 108.379C99.8112 108.704 98.0198 109.046 96.7976 109.306C96.1865 109.436 95.7177 109.546 95.4015 109.623C95.2434 109.662 95.1234 109.692 95.043 109.713C95.0027 109.724 94.9723 109.732 94.952 109.737L94.929 109.743L94.9231 109.745L94.9213 109.745C94.9212 109.745 94.9211 109.745 94.9391 109.809L94.9213 109.745L94.8785 109.757L94.7422 110.734ZM94.9997 109.862C95.019 109.857 95.0449 109.85 95.0772 109.842C95.1571 109.821 95.2764 109.791 95.4338 109.752C95.7488 109.675 96.2163 109.566 96.826 109.436C98.0454 109.176 99.8337 108.835 102.108 108.51C103.854 108.262 105.88 108.181 108.211 108.12L106.78 110.601H94.8965L94.9997 109.862Z" fill="white"/>
<path fill-rule="evenodd" clip-rule="evenodd" d="M108.842 110.716L108.928 110.715C111.081 110.69 114.601 110.628 118.103 110.483L118.151 110.481L118.743 108.544L118.67 108.53C116.589 108.137 113.681 107.86 109.704 107.955H109.501L108.842 110.716ZM109.013 110.582L109.607 108.087H109.707C113.629 107.994 116.507 108.263 118.571 108.647L118.05 110.352C114.612 110.494 111.162 110.556 109.013 110.582Z" fill="white"/>
<path fill-rule="evenodd" clip-rule="evenodd" d="M118.577 110.463L118.673 110.459C120.157 110.395 121.623 110.314 122.961 110.214C122.995 110.211 123.026 110.199 123.052 110.178C123.078 110.156 123.096 110.127 123.104 110.095C123.112 110.063 123.109 110.029 123.096 109.998C123.083 109.968 123.06 109.942 123.031 109.925C122.58 109.661 121.429 109.097 119.23 108.636L119.17 108.623L118.577 110.463ZM118.763 110.322L119.261 108.778C121.409 109.234 122.53 109.786 122.963 110.039C122.967 110.042 122.97 110.045 122.972 110.05C122.974 110.054 122.974 110.059 122.973 110.064C122.972 110.069 122.969 110.073 122.966 110.076C122.962 110.079 122.957 110.081 122.952 110.081L122.951 110.081C121.643 110.179 120.213 110.259 118.763 110.322Z" fill="white"/>
<path fill-rule="evenodd" clip-rule="evenodd" d="M74.896 110.89C74.9179 110.899 74.9419 110.903 74.9658 110.901C74.9896 110.899 75.0127 110.892 75.0329 110.879C75.053 110.866 75.0696 110.849 75.0812 110.828C75.0928 110.807 75.099 110.784 75.0992 110.76L75.0992 110.76L75.0992 110.396L75.0992 110.396C75.0988 110.323 75.0691 110.253 75.0166 110.202L75.0164 110.202L70.5647 105.89L70.2061 105.563L70.2855 105.804C71.3817 109.135 74.2968 110.614 74.8948 110.889L74.896 110.89ZM74.9507 110.768C74.3753 110.504 71.6377 109.113 70.5004 106.013L74.9219 110.296C74.9219 110.296 74.9219 110.296 74.9219 110.296C74.949 110.323 74.9644 110.359 74.9647 110.397V110.759C74.9646 110.761 74.9642 110.762 74.9634 110.764C74.9626 110.765 74.9614 110.767 74.96 110.767C74.9586 110.768 74.957 110.769 74.9553 110.769C74.9538 110.769 74.9522 110.769 74.9507 110.768Z" fill="white"/>
<path fill-rule="evenodd" clip-rule="evenodd" d="M69.375 105.901C69.375 105.901 69.375 105.901 69.3193 105.938C69.2636 105.976 69.2637 105.976 69.2637 105.976L69.2641 105.976L69.2653 105.978L69.2699 105.985C69.2739 105.99 69.2799 105.999 69.2879 106.01C69.3038 106.033 69.3274 106.066 69.3582 106.109C69.4199 106.194 69.5107 106.317 69.6274 106.468C69.8606 106.771 70.1974 107.189 70.6115 107.647C71.439 108.562 72.5795 109.643 73.8247 110.293L73.8876 110.176C72.6635 109.536 71.5356 108.469 70.7119 107.558C70.3006 107.104 69.9661 106.689 69.7345 106.388C69.6187 106.238 69.5287 106.116 69.4677 106.032C69.4372 105.989 69.4139 105.957 69.3983 105.935C69.3905 105.924 69.3847 105.915 69.3808 105.91L69.3764 105.903L69.375 105.901Z" fill="white"/>
<path fill-rule="evenodd" clip-rule="evenodd" d="M108.93 111.838C101.492 111.933 88.4267 111.702 83.4081 111.506C80.9025 111.408 78.8129 111.087 77.3499 110.79C76.6184 110.642 76.0437 110.5 75.6521 110.395C75.4563 110.342 75.3063 110.299 75.2053 110.269C75.1549 110.254 75.1167 110.242 75.0911 110.235C75.0784 110.231 75.0688 110.228 75.0624 110.225L75.0553 110.223L75.0536 110.223L75.0531 110.223L75.032 110.285C75.0109 110.348 75.011 110.348 75.011 110.349L75.0116 110.349L75.0136 110.349L75.0211 110.352C75.0277 110.354 75.0376 110.357 75.0506 110.361C75.0767 110.369 75.1154 110.381 75.1665 110.396C75.2686 110.427 75.4198 110.47 75.6168 110.523C76.0109 110.629 76.5884 110.771 77.3228 110.92C78.7916 111.218 80.8887 111.54 83.4028 111.638C88.4235 111.835 101.492 112.066 108.932 111.971C110.548 111.951 112.239 111.937 113.946 111.924C120.091 111.876 126.442 111.827 130.252 111.425C131.469 111.297 132.847 111.024 133.92 110.783C134.456 110.662 134.917 110.55 135.244 110.468C135.407 110.427 135.537 110.393 135.626 110.37C135.67 110.358 135.704 110.349 135.728 110.343L135.754 110.336L135.763 110.333C135.763 110.333 135.763 110.333 135.745 110.269C135.727 110.205 135.727 110.205 135.727 110.205L135.719 110.208L135.692 110.215C135.669 110.221 135.635 110.23 135.591 110.241C135.502 110.265 135.373 110.298 135.21 110.339C134.885 110.421 134.425 110.533 133.89 110.654C132.819 110.894 131.447 111.166 130.237 111.294C126.435 111.694 120.094 111.744 113.95 111.791C112.242 111.805 110.549 111.818 108.93 111.838Z" fill="white"/>
<path fill-rule="evenodd" clip-rule="evenodd" d="M134.484 110.992L134.897 110.907C135.284 110.826 135.76 110.707 136.139 110.608C136.328 110.558 136.493 110.514 136.611 110.481C136.67 110.465 136.717 110.452 136.749 110.443L136.786 110.433L136.799 110.429L136.799 110.429L136.813 110.425L136.825 110.416C137.742 109.643 138.358 108.706 138.745 107.965C138.938 107.594 139.074 107.271 139.163 107.041C139.207 106.926 139.239 106.833 139.26 106.77C139.27 106.738 139.278 106.714 139.283 106.697C139.286 106.688 139.288 106.682 139.289 106.678L139.29 106.673L139.291 106.671L139.291 106.671C139.291 106.671 139.291 106.671 139.226 106.653L139.291 106.671L139.319 106.574L138.437 106.687L138.425 106.728C138.242 107.329 137.835 107.864 137.079 108.856C137.053 108.89 137.027 108.925 137 108.96C136.405 109.695 135.675 110.314 134.849 110.784L134.484 110.992ZM139.131 106.732C139.11 106.793 139.079 106.883 139.037 106.994C138.95 107.22 138.816 107.538 138.625 107.904C138.245 108.633 137.642 109.549 136.748 110.306L136.713 110.316C136.68 110.324 136.634 110.337 136.575 110.353C136.457 110.386 136.293 110.43 136.104 110.479C135.849 110.546 135.549 110.622 135.264 110.689C135.963 110.241 136.585 109.686 137.106 109.042L137.107 109.041C137.139 108.999 137.17 108.958 137.201 108.918C137.926 107.965 138.345 107.415 138.541 106.807L139.131 106.732Z" fill="white"/>
<path fill-rule="evenodd" clip-rule="evenodd" d="M70.5539 105.882C70.5539 105.882 70.5539 105.882 70.5192 105.938C70.4845 105.995 70.4846 105.995 70.4846 105.995L70.486 105.996L70.49 105.998C70.4935 106.001 70.4987 106.004 70.5057 106.008C70.5195 106.016 70.5403 106.027 70.5678 106.043C70.6228 106.074 70.705 106.119 70.8142 106.177C71.0327 106.294 71.3594 106.46 71.7929 106.664C72.6599 107.07 73.9544 107.623 75.6659 108.207C79.0889 109.376 84.1801 110.673 90.8561 111.186L90.8666 111.054C84.2029 110.542 79.123 109.247 75.7099 108.082C74.0033 107.499 72.7134 106.949 71.8506 106.544C71.4192 106.342 71.0946 106.176 70.878 106.061C70.7698 106.003 70.6885 105.958 70.6344 105.928C70.6074 105.912 70.5871 105.901 70.5737 105.893C70.567 105.889 70.562 105.886 70.5587 105.884L70.555 105.882L70.5541 105.882L70.5539 105.882Z" fill="white"/>
<path fill-rule="evenodd" clip-rule="evenodd" d="M70.8563 103.098L70.8206 103.154L70.8806 103.036C73.4311 104.008 76.8881 104.68 79.7108 105.109C81.1215 105.324 82.3725 105.477 83.2708 105.577C83.7199 105.627 84.0809 105.664 84.3295 105.688C84.4538 105.7 84.55 105.709 84.6151 105.715C84.6476 105.717 84.6724 105.72 84.689 105.721L84.7078 105.723L84.714 105.723C84.714 105.723 84.714 105.723 84.7083 105.789L84.714 105.723L84.7068 105.856C79.7783 105.749 76.3094 105.076 74.0712 104.428C72.9521 104.104 72.1407 103.786 71.6084 103.549C71.3423 103.431 71.146 103.332 71.0159 103.263C70.9508 103.229 70.9023 103.202 70.8699 103.183C70.8537 103.174 70.8415 103.167 70.8333 103.162L70.824 103.156L70.8215 103.155L70.8209 103.154L70.8206 103.154C70.8205 103.154 70.8206 103.154 70.8563 103.098ZM71.935 103.545C74.3369 104.318 77.2536 104.87 79.6904 105.24C80.8303 105.414 81.8662 105.547 82.6963 105.645C78.8323 105.426 76.0182 104.853 74.1091 104.3C73.1722 104.029 72.4532 103.763 71.935 103.545Z" fill="white"/>
<path fill-rule="evenodd" clip-rule="evenodd" d="M131.367 107.586L131.369 107.652C131.37 107.719 131.37 107.719 131.37 107.719L131.372 107.718L131.379 107.718C131.384 107.718 131.393 107.718 131.404 107.718C131.426 107.717 131.459 107.716 131.503 107.714C131.59 107.711 131.719 107.705 131.887 107.695C132.222 107.676 132.714 107.642 133.34 107.581C134.59 107.459 136.374 107.232 138.508 106.809L138.481 106.678C136.353 107.101 134.573 107.327 133.327 107.449C132.703 107.509 132.213 107.544 131.879 107.563C131.712 107.572 131.584 107.578 131.497 107.582C131.454 107.583 131.422 107.584 131.4 107.585C131.389 107.585 131.381 107.586 131.375 107.586L131.369 107.586L131.367 107.586Z" fill="white"/>
<path fill-rule="evenodd" clip-rule="evenodd" d="M140.955 105.493L139.44 105.691L139.458 105.822L140.973 105.624L140.955 105.493Z" fill="white"/>
<path fill-rule="evenodd" clip-rule="evenodd" d="M127.263 108.806C126.791 108.754 126.244 108.693 125.544 108.635C124.032 108.508 121.794 108.327 119.934 108.176C119.005 108.101 118.169 108.034 117.566 107.986C117.265 107.962 117.022 107.942 116.854 107.929L116.593 107.908C116.593 107.908 116.593 107.908 116.588 107.974C116.582 108.04 116.582 108.04 116.582 108.04L116.843 108.061C117.011 108.074 117.254 108.094 117.556 108.118C118.158 108.166 118.994 108.234 119.923 108.309C121.783 108.459 124.02 108.641 125.532 108.767C126.23 108.825 126.776 108.886 127.248 108.938C127.287 108.942 127.325 108.946 127.362 108.951C127.861 109.006 128.283 109.051 128.728 109.072C129.619 109.114 130.597 109.062 132.465 108.812C134.33 108.562 135.644 108.407 136.491 108.315C136.915 108.269 137.222 108.238 137.423 108.219C137.523 108.21 137.597 108.203 137.646 108.199C137.671 108.197 137.689 108.195 137.701 108.194L137.714 108.193L137.717 108.193L137.718 108.193L137.713 108.126C137.708 108.06 137.708 108.06 137.708 108.06L137.703 108.061L137.689 108.062C137.677 108.063 137.659 108.064 137.634 108.067C137.585 108.071 137.511 108.077 137.41 108.087C137.208 108.106 136.901 108.137 136.476 108.183C135.628 108.276 134.313 108.431 132.447 108.68C130.583 108.93 129.614 108.981 128.735 108.939C128.295 108.918 127.876 108.874 127.377 108.819C127.34 108.815 127.302 108.81 127.263 108.806Z" fill="white"/>
<path fill-rule="evenodd" clip-rule="evenodd" d="M123.479 110.468C123.479 110.468 123.479 110.468 123.482 110.535C123.484 110.601 123.484 110.601 123.484 110.601L123.493 110.6L123.519 110.599C123.542 110.598 123.576 110.597 123.62 110.595C123.709 110.591 123.84 110.584 124.008 110.575C124.345 110.557 124.831 110.528 125.428 110.485C126.623 110.398 128.265 110.253 130.052 110.021C131.838 109.789 133.592 109.55 134.899 109.37C135.553 109.279 136.094 109.204 136.473 109.15C136.662 109.124 136.811 109.103 136.912 109.088L137.067 109.066C137.067 109.066 137.067 109.066 137.057 109.001C137.048 108.935 137.048 108.935 137.048 108.935L136.893 108.957C136.792 108.971 136.643 108.992 136.454 109.019C136.076 109.072 135.534 109.148 134.88 109.238C133.573 109.419 131.82 109.657 130.035 109.889C128.251 110.121 126.612 110.265 125.418 110.352C124.822 110.396 124.337 110.425 124.001 110.443C123.833 110.452 123.703 110.458 123.614 110.462C123.57 110.464 123.536 110.466 123.513 110.467L123.488 110.468L123.479 110.468Z" fill="white"/>
<path fill-rule="evenodd" clip-rule="evenodd" d="M70.3872 105.336L70.3888 105.337C70.3916 105.339 70.396 105.342 70.4018 105.345C70.4134 105.352 70.431 105.362 70.4547 105.375C70.5021 105.402 70.5737 105.442 70.6702 105.493C70.8631 105.596 71.1555 105.745 71.5519 105.928C72.3449 106.294 73.5544 106.799 75.2186 107.352C78.5471 108.457 83.6946 109.753 90.966 110.514L90.9518 110.646C83.671 109.884 78.5139 108.586 75.1757 107.477C73.5066 106.923 72.2924 106.417 71.4949 106.048C71.0961 105.864 70.8015 105.714 70.6063 105.61C70.5088 105.558 70.436 105.518 70.3876 105.49C70.3634 105.477 70.3452 105.466 70.333 105.459C70.3269 105.455 70.3223 105.453 70.3192 105.451L70.3157 105.449L70.3145 105.448C70.3145 105.448 70.3144 105.448 70.3496 105.391L70.3145 105.448L70.3119 105.446L70.3095 105.445C69.8538 105.111 69.483 104.65 69.2271 104.274C69.0988 104.086 68.9987 103.919 68.9306 103.798C68.8966 103.738 68.8705 103.689 68.8529 103.656C68.8441 103.639 68.8374 103.626 68.8329 103.617L68.8277 103.607L68.8264 103.604L68.8259 103.603C68.8259 103.603 68.8259 103.603 68.8864 103.574L68.947 103.545L68.9473 103.546L68.9485 103.548L68.9533 103.558C68.9575 103.566 68.9639 103.579 68.9724 103.595C68.9894 103.627 69.0148 103.675 69.0481 103.734C69.1148 103.852 69.2129 104.016 69.3387 104.2C69.5904 104.569 69.9502 105.016 70.3872 105.336Z" fill="white"/>
<path fill-rule="evenodd" clip-rule="evenodd" d="M69.7811 95.7853C69.902 94.2567 70.1351 92.4056 70.5828 91.0974L70.664 90.8601L68.6113 92.6622L68.7008 92.7613L70.3797 91.2873C69.9755 92.5922 69.761 94.3328 69.647 95.775C69.5864 96.5407 69.554 97.2239 69.5368 97.7157C69.5282 97.9617 69.5234 98.1598 69.5207 98.2964C69.5194 98.3648 69.5186 98.4178 69.5181 98.4537C69.5179 98.4717 69.5177 98.4854 69.5176 98.4946L69.5176 98.5051L69.5175 98.5084C69.5175 98.5084 69.5175 98.5086 69.5848 98.5091C69.652 98.5096 69.652 98.5095 69.652 98.5095L69.6521 98.5062L69.6522 98.4959C69.6523 98.4868 69.6524 98.4732 69.6526 98.4554C69.6531 98.4197 69.6539 98.367 69.6552 98.299C69.6579 98.1629 69.6627 97.9655 69.6713 97.7203C69.6884 97.2299 69.7207 96.5486 69.7811 95.7853Z" fill="white"/>
<path fill-rule="evenodd" clip-rule="evenodd" d="M113.091 89.1416C110.288 89.2129 107.177 89.1534 104.452 88.9873C101.73 88.8213 98.3627 88.1681 95.673 87.5556C94.3286 87.2495 93.1546 86.9537 92.3167 86.7345C91.8977 86.6249 91.5628 86.5344 91.3327 86.4714C91.2177 86.4399 91.1288 86.4152 91.0687 86.3984C91.0484 86.3927 91.0314 86.388 91.0178 86.3841L90.9413 85.9573C91.065 85.9567 91.3154 85.9553 91.6711 85.9532C95.1865 85.9329 108.99 85.8531 112.506 85.954C115.951 86.0575 122.028 86.4445 123.623 86.5481L123.624 86.5482L123.626 86.5482C123.672 86.5493 123.717 86.5617 123.757 86.5843C123.797 86.6069 123.83 86.6389 123.855 86.6775C123.879 86.7161 123.893 86.7601 123.896 86.8055C123.898 86.8498 123.89 86.894 123.872 86.9344C123.81 87.0356 123.691 87.1483 123.502 87.2704C123.313 87.3929 123.057 87.5219 122.729 87.6562C122.074 87.9249 121.137 88.2125 119.876 88.5129C118.387 88.8682 115.896 89.0703 113.091 89.1416ZM90.9588 86.4365C90.9402 86.5002 90.9402 86.5002 90.9403 86.5003L90.9636 86.5068C90.979 86.5112 91.0019 86.5176 91.0321 86.5261C91.0923 86.5429 91.1814 86.5676 91.2967 86.5992C91.5273 86.6624 91.8627 86.753 92.2822 86.8627C93.1212 87.0822 94.2967 87.3784 95.6427 87.6849C98.3339 88.2977 101.711 88.953 104.444 89.1197C107.173 89.2861 110.288 89.3456 113.095 89.2743C115.9 89.2029 118.404 89.0007 119.908 88.6418C121.172 88.3407 122.117 88.0512 122.781 87.7788C123.113 87.6425 123.377 87.5099 123.576 87.3813C123.774 87.2533 123.913 87.1262 123.989 86.9991L123.991 86.9963L123.992 86.9934C124.021 86.9322 124.034 86.8649 124.03 86.7976C124.026 86.7302 124.005 86.6649 123.969 86.6076C123.933 86.5502 123.883 86.5027 123.823 86.4691C123.764 86.4359 123.698 86.4175 123.63 86.4157C122.034 86.312 115.956 85.925 112.51 85.8214C108.99 85.7203 95.169 85.8003 91.6645 85.8206C91.1956 85.8233 90.9114 85.825 90.8612 85.825H90.781L90.8999 86.4888L90.9403 86.5003L90.9588 86.4365Z" fill="white"/>
<path fill-rule="evenodd" clip-rule="evenodd" d="M108.446 89.0302L106.858 86.2774H94.7422L94.8785 87.2538L94.9211 87.2655L94.9391 87.2016C94.9211 87.2655 94.9211 87.2655 94.9211 87.2655L94.9217 87.2656L94.9231 87.266L94.929 87.2676L94.952 87.2738C94.9723 87.2792 95.0027 87.2872 95.043 87.2977C95.1234 87.3185 95.2434 87.3491 95.4015 87.3877C95.7177 87.465 96.1865 87.5747 96.7976 87.7048C98.0198 87.965 99.8111 88.3065 102.089 88.632C103.873 88.8853 105.946 88.9653 108.327 89.0271L108.446 89.0302ZM94.9997 87.1491L94.8965 86.4101H106.78L108.211 88.8913C105.88 88.8299 103.854 88.7485 102.108 88.5007C99.8337 88.1757 98.0455 87.8347 96.826 87.5751C96.2163 87.4454 95.7488 87.3359 95.4338 87.2589C95.2764 87.2204 95.1571 87.1901 95.0772 87.1694C95.0449 87.161 95.019 87.1542 94.9997 87.1491Z" fill="white"/>
<path fill-rule="evenodd" clip-rule="evenodd" d="M118.571 88.3642C116.507 88.7484 113.629 89.0169 109.707 88.9236L109.705 88.9235L109.607 88.9235L109.013 86.4293C111.162 86.4553 114.612 86.5169 118.05 86.6589L118.571 88.3642ZM109.704 89.0562C113.681 89.1507 116.589 88.8743 118.67 88.4807L118.743 88.4669L118.151 86.5303L118.103 86.5283C114.601 86.3829 111.081 86.3211 108.928 86.2957L108.842 86.2946L109.501 89.0562H109.704Z" fill="white"/>
<path fill-rule="evenodd" clip-rule="evenodd" d="M119.17 88.3876L119.23 88.3751C121.429 87.9139 122.58 87.35 123.03 87.0956L123.031 87.0951C123.06 87.0781 123.083 87.0524 123.096 87.0218C123.109 86.9912 123.112 86.9573 123.104 86.9251C123.096 86.8928 123.078 86.8639 123.052 86.8425C123.026 86.8213 122.994 86.8087 122.961 86.8065C121.622 86.7065 120.157 86.6247 118.673 86.5611L118.577 86.5569L119.17 88.3876ZM119.261 88.2328L118.764 86.6978C120.213 86.7608 121.643 86.8411 122.951 86.9388L122.952 86.9389C122.957 86.9392 122.962 86.941 122.965 86.9442C122.969 86.9473 122.972 86.9515 122.973 86.9562C122.974 86.9609 122.974 86.9659 122.972 86.9704C122.97 86.9747 122.967 86.9784 122.963 86.9809C122.529 87.226 121.408 87.777 119.261 88.2328Z" fill="white"/>
<path fill-rule="evenodd" clip-rule="evenodd" d="M70.2051 91.4528L70.5662 91.1199L75.0166 86.8089C75.0685 86.7582 75.0981 86.6894 75.0992 86.6174L75.0992 86.6164L75.0992 86.2523C75.0989 86.2287 75.0927 86.2055 75.0812 86.1848C75.0696 86.1641 75.053 86.1465 75.0328 86.1338C75.0127 86.121 74.9896 86.1133 74.9657 86.1115C74.9418 86.1096 74.9179 86.1137 74.8959 86.1232L74.8948 86.1238C74.2968 86.3985 71.3816 87.8773 70.2855 91.2084L70.2051 91.4528ZM70.5014 90.9966C71.6394 87.8988 74.3754 86.5089 74.9507 86.2444C74.9522 86.2438 74.9537 86.2436 74.9553 86.2437C74.957 86.2439 74.9586 86.2444 74.96 86.2453C74.9614 86.2462 74.9626 86.2474 74.9634 86.2489C74.9642 86.2503 74.9646 86.2518 74.9647 86.2534V86.6159C74.964 86.653 74.9487 86.6884 74.922 86.7146C74.9219 86.7147 74.922 86.7146 74.922 86.7146L70.5014 90.9966Z" fill="white"/>
<path fill-rule="evenodd" clip-rule="evenodd" d="M69.2637 91.0352C69.2637 91.0353 69.2636 91.0353 69.3193 91.0725C69.375 91.1098 69.375 91.1098 69.375 91.1097L69.3753 91.1093L69.3764 91.1077L69.3808 91.1014C69.3847 91.0958 69.3905 91.0874 69.3983 91.0763C69.4139 91.0542 69.4372 91.0215 69.4677 90.9794C69.5287 90.8952 69.6187 90.7732 69.7345 90.6228C69.9661 90.3219 70.3006 89.9072 70.7119 89.4524C71.5356 88.5417 72.6635 87.4746 73.8876 86.8349L73.8247 86.7177C72.5795 87.3684 71.439 88.4493 70.6115 89.3641C70.1974 89.8221 69.8606 90.2395 69.6274 90.5426C69.5107 90.6941 69.4199 90.8171 69.3582 90.9023C69.3274 90.9449 69.3038 90.978 69.2879 91.0006C69.2799 91.0118 69.2739 91.0205 69.2699 91.0263L69.2653 91.0329L69.2641 91.0347L69.2637 91.0352Z" fill="white"/>
<path fill-rule="evenodd" clip-rule="evenodd" d="M133.92 86.2235C132.847 85.985 131.469 85.714 130.252 85.5855C126.442 85.1841 120.091 85.1347 113.945 85.0869C112.239 85.0736 110.548 85.0605 108.932 85.0399C101.491 84.9454 88.4233 85.1762 83.4026 85.3726C80.8885 85.4709 78.7915 85.7931 77.3227 86.0908C76.5882 86.2397 76.0108 86.3824 75.6167 86.4881C75.4196 86.5409 75.2684 86.5844 75.1663 86.6148C75.1153 86.63 75.0765 86.6418 75.0505 86.65C75.0374 86.654 75.0276 86.6571 75.021 86.6593L75.0134 86.6617L75.0115 86.6623L75.011 86.6624C75.011 86.6625 75.0108 86.6625 75.0318 86.7255L75.0529 86.7885L75.0534 86.7883L75.0552 86.7878L75.0623 86.7855C75.0687 86.7835 75.0782 86.7804 75.091 86.7765C75.1165 86.7685 75.1547 86.7568 75.2052 86.7418C75.3061 86.7118 75.4561 86.6686 75.6519 86.6161C76.0436 86.5111 76.6183 86.369 77.3497 86.2207C78.8127 85.9242 80.9024 85.6031 83.408 85.5051C88.4266 85.3089 101.492 85.0781 108.93 85.1726C110.549 85.1931 112.242 85.2063 113.95 85.2196C120.094 85.2674 126.435 85.3167 130.237 85.7174C131.447 85.8451 132.819 86.1148 133.89 86.3529C134.425 86.4719 134.885 86.5829 135.21 86.6642C135.373 86.7048 135.502 86.738 135.591 86.761C135.635 86.7725 135.669 86.7814 135.692 86.7875L135.719 86.7944L135.727 86.7968C135.727 86.7968 135.727 86.7968 135.745 86.7328C135.763 86.6688 135.763 86.6688 135.763 86.6688L135.762 86.6686L135.754 86.6664L135.727 86.6594C135.704 86.6533 135.67 86.6442 135.625 86.6327C135.536 86.6096 135.407 86.5763 135.243 86.5356C134.917 86.4541 134.456 86.3428 133.92 86.2235Z" fill="white"/>
<path fill-rule="evenodd" clip-rule="evenodd" d="M139.291 90.3402L139.226 90.3583C139.291 90.3402 139.291 90.3402 139.291 90.3402L139.291 90.3397L139.29 90.3383L139.289 90.3333C139.288 90.3289 139.286 90.3225 139.283 90.314C139.278 90.2972 139.27 90.2725 139.26 90.2407C139.239 90.1769 139.207 90.0845 139.163 89.969C139.074 89.7379 138.938 89.4142 138.745 89.0426C138.358 88.3 137.742 87.3638 136.824 86.5949L136.813 86.5856L136.799 86.5816L136.799 86.5816L136.786 86.578L136.749 86.5677C136.717 86.5587 136.67 86.5457 136.611 86.5296C136.493 86.4974 136.328 86.4528 136.139 86.4032C135.76 86.3041 135.284 86.1847 134.897 86.1044L134.484 86.019L134.849 86.2267C135.675 86.6972 136.405 87.3159 137 88.0509C137.027 88.086 137.053 88.1206 137.079 88.1546C137.835 89.1473 138.242 89.6816 138.425 90.2828L138.437 90.324L139.319 90.437L139.291 90.3402ZM136.748 86.7053C137.642 87.4576 138.245 88.3732 138.625 89.1032C138.816 89.4695 138.95 89.7885 139.037 90.0156C139.079 90.1276 139.11 90.2172 139.131 90.2791L138.541 90.2035C138.345 89.5957 137.926 89.0459 137.201 88.0934C137.17 88.0531 137.139 88.0122 137.107 87.9704L137.106 87.9688C136.585 87.3253 135.963 86.7694 135.264 86.3217C135.549 86.3885 135.849 86.4645 136.104 86.5314C136.293 86.5809 136.457 86.6253 136.575 86.6574C136.634 86.6735 136.68 86.6864 136.713 86.6954L136.748 86.7053Z" fill="white"/>
<path fill-rule="evenodd" clip-rule="evenodd" d="M70.4846 91.0157C70.4846 91.0157 70.4845 91.0157 70.5192 91.0726C70.5539 91.1294 70.5539 91.1294 70.5539 91.1294L70.5541 91.1293L70.555 91.1288L70.5587 91.1266C70.562 91.1247 70.567 91.1217 70.5737 91.1179C70.5871 91.1101 70.6074 91.0985 70.6344 91.0833C70.6885 91.0528 70.7698 91.0079 70.878 90.9504C71.0946 90.8352 71.4192 90.6694 71.8506 90.4671C72.7134 90.0624 74.0033 89.5118 75.7099 88.929C79.123 87.7635 84.2029 86.4695 90.8666 85.9575L90.8561 85.8252C84.1801 86.3382 79.0889 87.6347 75.6659 88.8036C73.9544 89.3881 72.6599 89.9406 71.7929 90.3472C71.3594 90.5506 71.0327 90.7174 70.8142 90.8336C70.705 90.8917 70.6228 90.9371 70.5678 90.968C70.5403 90.9835 70.5195 90.9954 70.5057 91.0034C70.4987 91.0074 70.4935 91.0105 70.49 91.0125L70.486 91.0149L70.4849 91.0155L70.4846 91.0157Z" fill="white"/>
<path fill-rule="evenodd" clip-rule="evenodd" d="M70.8206 93.8569L70.8806 93.975C73.4311 93.0027 76.8881 92.3307 79.7108 91.9017C81.1215 91.6873 82.3725 91.5338 83.2708 91.4339C83.7199 91.3839 84.0809 91.3474 84.3295 91.3233C84.4538 91.3113 84.55 91.3024 84.6151 91.2965C84.6476 91.2935 84.6724 91.2913 84.689 91.2899L84.7078 91.2882L84.714 91.2877C84.714 91.2877 84.714 91.2877 84.7083 91.2216L84.714 91.2877L84.7068 91.1553C79.7783 91.2617 76.3094 91.9354 74.0712 92.5834C72.9521 92.9075 72.1407 93.225 71.6084 93.462C71.3423 93.5805 71.146 93.6788 71.0159 93.7477C70.9508 93.7822 70.9023 93.8093 70.8699 93.8279C70.8537 93.8372 70.8415 93.8443 70.8333 93.8492L70.824 93.8548L70.8215 93.8563L70.8209 93.8567L70.8206 93.8569C70.8205 93.857 70.8206 93.8569 70.8563 93.9131L70.8206 93.8569ZM71.935 93.4657C72.4532 93.2484 73.1722 92.982 74.1091 92.7107C76.0182 92.158 78.8323 91.5851 82.6963 91.3661C81.8662 91.4637 80.8303 91.5973 79.6904 91.7705C77.2536 92.1409 74.3369 92.6932 71.935 93.4657Z" fill="white"/>
<path fill-rule="evenodd" clip-rule="evenodd" d="M88.5133 109.536C87.9316 109.093 87.3521 108.169 86.6037 106.407C85.8592 104.655 85.5104 102.68 85.3481 101.142C85.267 100.374 85.2326 99.7149 85.2184 99.2483C85.2113 99.0151 85.2093 98.8299 85.209 98.7032C85.2089 98.6398 85.2092 98.5911 85.2096 98.5582C85.2097 98.5418 85.2099 98.5294 85.21 98.5211L85.2102 98.5117L85.2103 98.5094L85.2103 98.5088C85.2103 98.5088 85.2103 98.5087 85.143 98.5072C85.2103 98.5058 85.2103 98.5058 85.2103 98.5058L85.2103 98.5051L85.2102 98.5028L85.21 98.4934C85.2099 98.4851 85.2097 98.4727 85.2096 98.4562C85.2092 98.4234 85.2089 98.3746 85.209 98.3113C85.2093 98.1846 85.2113 97.9994 85.2184 97.7662C85.2326 97.2996 85.267 96.6408 85.3481 95.8721C85.5104 94.334 85.8592 92.3599 86.6037 90.6074C87.3521 88.8458 87.9325 87.9219 88.5146 87.4789C89.0876 87.043 89.6708 87.0674 90.461 87.2444C90.7802 87.3159 91.4083 87.4719 92.2352 87.6772C93.472 87.9843 95.1536 88.4019 96.9121 88.8126C99.8401 89.4965 102.979 90.1606 104.593 90.2518L104.593 90.2519C109.958 90.5266 115.333 90.5132 120.695 90.2119L120.688 90.0794C115.33 90.3805 109.96 90.3938 104.601 90.1194C103.001 90.0289 99.8746 89.3682 96.9431 88.6835C95.1902 88.2742 93.5062 87.856 92.2672 87.5484C91.4386 87.3426 90.8089 87.1863 90.4908 87.115C89.6907 86.9358 89.055 86.9002 88.4325 87.3739C87.8191 87.8406 87.2275 88.7958 86.4796 90.5562C85.7279 92.3257 85.3773 94.3143 85.2143 95.8584C85.1328 96.6309 85.0982 97.293 85.0839 97.7622C85.0768 97.9968 85.0747 98.1832 85.0745 98.311C85.0744 98.3749 85.0747 98.4242 85.075 98.4576C85.0752 98.4743 85.0754 98.487 85.0755 98.4956L85.0757 98.5053L85.0758 98.5072L85.0757 98.5092L85.0755 98.5189C85.0754 98.5275 85.0752 98.5402 85.075 98.5569C85.0747 98.5902 85.0744 98.6395 85.0745 98.7035C85.0747 98.8313 85.0768 99.0177 85.0839 99.2523C85.0982 99.7215 85.1328 100.384 85.2143 101.156C85.3773 102.7 85.7279 104.689 86.4796 106.458C87.2275 108.219 87.8182 109.174 88.4311 109.641C89.0532 110.115 89.689 110.08 90.4909 109.899C90.8059 109.829 91.425 109.675 92.2396 109.473C93.4817 109.166 95.1783 108.745 96.9445 108.334C99.8753 107.65 103.001 106.99 104.601 106.895C109.961 106.618 115.332 106.63 120.691 106.93L120.699 106.797C115.335 106.497 109.959 106.486 104.593 106.763L104.593 106.763C102.979 106.858 99.8411 107.522 96.9136 108.205C95.1417 108.618 93.4479 109.037 92.2081 109.344C91.3951 109.546 90.7773 109.699 90.461 109.77C89.6689 109.948 89.0857 109.972 88.5133 109.536ZM85.143 98.5072L85.2103 98.5058L85.2103 98.5072L85.2103 98.5088L85.143 98.5072Z" fill="white"/>
<path fill-rule="evenodd" clip-rule="evenodd" d="M124.511 107.549C126.707 107.744 129.399 107.895 131.369 107.72L131.4 107.717L131.418 107.693L131.363 107.654C131.418 107.693 131.418 107.693 131.418 107.693L131.418 107.693L131.418 107.692L131.42 107.69L131.425 107.683C131.429 107.677 131.435 107.668 131.444 107.656C131.46 107.631 131.484 107.595 131.515 107.547C131.576 107.451 131.663 107.308 131.768 107.117C131.977 106.734 132.254 106.161 132.532 105.397C133.087 103.868 133.642 101.574 133.642 98.5074C133.642 95.4407 133.087 93.1465 132.532 91.6177C132.254 90.8533 131.977 90.2805 131.768 89.8981C131.663 89.707 131.576 89.5634 131.515 89.4674C131.484 89.4194 131.46 89.3833 131.444 89.3591C131.435 89.3469 131.429 89.3378 131.425 89.3316L131.42 89.3245L131.418 89.3227L131.418 89.3221L131.418 89.322C131.418 89.322 131.418 89.3219 131.415 89.3236C131.411 89.3266 131.399 89.3354 131.363 89.3606L131.418 89.322L131.4 89.2973L131.369 89.2946C129.398 89.1195 126.706 89.2709 124.51 89.4654C123.412 89.5627 122.436 89.6709 121.735 89.7548C121.384 89.7968 121.102 89.8326 120.908 89.858C120.811 89.8707 120.735 89.8808 120.684 89.8877C120.659 89.8911 120.64 89.8938 120.626 89.8956L120.607 89.8983L120.607 89.8983C120.607 89.8983 120.607 89.8983 120.616 89.964L120.607 89.8983L120.52 89.9105L120.554 89.99C121.835 92.958 122.06 96.3403 122.06 98.5055C122.06 100.671 121.835 104.053 120.554 107.025L120.52 107.104L120.607 107.116L120.616 107.051C120.607 107.116 120.607 107.116 120.607 107.116L120.627 107.119C120.64 107.121 120.659 107.124 120.685 107.127C120.736 107.134 120.811 107.144 120.908 107.157C121.102 107.182 121.384 107.218 121.735 107.26C122.436 107.344 123.412 107.452 124.511 107.549ZM120.712 106.997C121.974 104.02 122.194 100.657 122.194 98.5055C122.194 96.3539 121.974 92.9912 120.712 90.0179C120.763 90.011 120.834 90.0014 120.926 89.9895C121.119 89.9642 121.401 89.9284 121.751 89.8865C122.451 89.8028 123.425 89.6947 124.522 89.5975C126.706 89.4042 129.371 89.2544 131.326 89.424C131.328 89.4268 131.33 89.4299 131.332 89.4333C131.348 89.4564 131.371 89.4913 131.401 89.5381C131.461 89.6317 131.546 89.7726 131.649 89.961C131.855 90.3379 132.13 90.9047 132.405 91.6624C132.956 93.1777 133.507 95.4568 133.507 98.5074C133.507 101.558 132.956 103.837 132.405 105.352C132.13 106.11 131.855 106.677 131.649 107.054C131.546 107.242 131.461 107.383 131.401 107.477C131.371 107.523 131.348 107.558 131.332 107.581C131.33 107.585 131.328 107.588 131.326 107.591C129.372 107.76 126.707 107.611 124.523 107.417C123.426 107.32 122.451 107.212 121.751 107.128C121.401 107.086 121.12 107.051 120.926 107.025C120.834 107.013 120.763 107.004 120.712 106.997Z" fill="white"/>
<path fill-rule="evenodd" clip-rule="evenodd" d="M121.387 106.608C122.447 103.79 122.677 100.686 122.677 98.5108C122.677 96.336 122.447 93.2312 121.387 90.4133C123.165 90.1873 127.942 89.6548 131.045 89.8767C131.507 90.6369 133.032 93.5245 133.032 98.5054C133.032 103.488 131.507 106.376 131.045 107.145C127.945 107.361 123.165 106.829 121.387 106.608ZM121.286 106.729C122.997 106.944 127.925 107.503 131.09 107.275L131.124 107.272L131.142 107.243C131.592 106.504 133.166 103.583 133.166 98.5054C133.166 93.4299 131.592 90.5086 131.142 89.7786L131.124 89.7494L131.09 89.7469C127.922 89.5137 122.997 90.0726 121.285 90.2924L121.201 90.3033L121.231 90.3816C122.309 93.1986 122.543 96.3225 122.543 98.5108C122.543 100.699 122.309 103.823 121.231 106.64L121.201 106.719L121.286 106.729Z" fill="white"/>
<path fill-rule="evenodd" clip-rule="evenodd" d="M131.37 89.2925C131.37 89.2925 131.37 89.2925 131.369 89.3588L131.367 89.4251L131.369 89.4252L131.375 89.4253C131.381 89.4255 131.389 89.4257 131.4 89.426C131.422 89.4267 131.454 89.4278 131.497 89.4295C131.584 89.4329 131.712 89.4386 131.879 89.4482C132.213 89.4673 132.703 89.5016 133.327 89.5623C134.573 89.6836 136.353 89.9105 138.481 90.3325L138.508 90.2025C136.374 89.7794 134.59 89.552 133.34 89.4302C132.714 89.3694 132.222 89.335 131.887 89.3157C131.719 89.3061 131.59 89.3003 131.503 89.2969C131.459 89.2952 131.426 89.2941 131.404 89.2934C131.393 89.2931 131.384 89.2929 131.379 89.2927L131.372 89.2926L131.37 89.2925Z" fill="white"/>
<path fill-rule="evenodd" clip-rule="evenodd" d="M139.706 104.372C139.912 102.927 140.117 100.887 140.117 98.5055C140.117 96.1238 139.912 94.0839 139.706 92.6392C139.604 91.9168 139.501 91.3432 139.424 90.9499C139.385 90.7533 139.353 90.6017 139.331 90.4993C139.319 90.448 139.311 90.409 139.305 90.3828C139.301 90.3697 139.299 90.3598 139.298 90.3531L139.296 90.3456L139.295 90.3436L139.295 90.3431C139.295 90.3431 139.295 90.3429 139.23 90.3583C139.164 90.3737 139.164 90.3737 139.164 90.3737L139.164 90.3742L139.165 90.376L139.167 90.3833C139.168 90.3897 139.17 90.3994 139.173 90.4123C139.179 90.4381 139.188 90.4766 139.199 90.5274C139.222 90.6289 139.253 90.7795 139.292 90.9751C139.368 91.3663 139.471 91.9377 139.573 92.6576C139.778 94.0975 139.982 96.1311 139.982 98.5055C139.982 100.88 139.778 102.913 139.573 104.353C139.471 105.073 139.368 105.645 139.292 106.036C139.253 106.231 139.222 106.382 139.199 106.484C139.188 106.534 139.179 106.573 139.173 106.599C139.17 106.612 139.168 106.621 139.167 106.628L139.165 106.635L139.164 106.637C139.164 106.637 139.164 106.637 139.23 106.653C139.295 106.668 139.295 106.668 139.295 106.668L139.296 106.665L139.298 106.658C139.299 106.651 139.301 106.641 139.305 106.628C139.311 106.602 139.319 106.563 139.331 106.512C139.353 106.409 139.385 106.258 139.424 106.061C139.501 105.668 139.604 105.094 139.706 104.372Z" fill="white"/>
<path fill-rule="evenodd" clip-rule="evenodd" d="M140.973 91.3847L139.458 91.1866L139.44 91.3181L140.955 91.5162L140.973 91.3847Z" fill="white"/>
<path fill-rule="evenodd" clip-rule="evenodd" d="M116.582 88.971C116.582 88.971 116.582 88.971 116.588 89.0372C116.593 89.1033 116.593 89.1033 116.593 89.1033L116.854 89.0824C117.022 89.0689 117.265 89.0494 117.566 89.0252C118.169 88.9768 119.005 88.9096 119.934 88.8345C121.794 88.6844 124.032 88.5026 125.544 88.3763C126.244 88.3178 126.791 88.2572 127.263 88.2048C127.302 88.2006 127.34 88.1963 127.377 88.1922C127.876 88.137 128.295 88.0926 128.735 88.0716C129.614 88.0296 130.583 88.0809 132.447 88.3305C134.313 88.5805 135.628 88.7355 136.476 88.828C136.901 88.8743 137.208 88.9049 137.41 88.924C137.511 88.9335 137.585 88.9402 137.634 88.9445C137.659 88.9466 137.677 88.9481 137.689 88.9491L137.703 88.9503L137.708 88.9506C137.708 88.9506 137.708 88.9506 137.713 88.8845L137.718 88.8184L137.714 88.818L137.701 88.8169C137.689 88.8159 137.671 88.8144 137.646 88.8123C137.597 88.8081 137.523 88.8014 137.423 88.7919C137.222 88.7729 136.915 88.7423 136.491 88.6961C135.644 88.6037 134.33 88.4489 132.465 88.1991C130.597 87.9489 129.619 87.8966 128.728 87.9391C128.283 87.9603 127.861 88.0052 127.362 88.0604C127.325 88.0645 127.287 88.0687 127.248 88.073C126.776 88.1254 126.23 88.1858 125.532 88.2441C124.02 88.3704 121.783 88.5522 119.923 88.7023C118.994 88.7774 118.158 88.8446 117.556 88.893C117.254 88.9172 117.011 88.9367 116.843 88.9502L116.582 88.971Z" fill="white"/>
<path fill-rule="evenodd" clip-rule="evenodd" d="M134.899 87.6413C133.592 87.4607 131.838 87.2222 130.052 86.9904C128.265 86.7585 126.623 86.6135 125.428 86.5264C124.831 86.4829 124.345 86.4538 124.008 86.4356C123.84 86.4266 123.709 86.4202 123.62 86.4161C123.576 86.4141 123.542 86.4126 123.519 86.4116L123.493 86.4105L123.484 86.4102C123.484 86.4102 123.484 86.4102 123.482 86.4765C123.479 86.5427 123.479 86.5427 123.479 86.5427L123.488 86.5431L123.513 86.5442C123.536 86.5451 123.57 86.5466 123.614 86.5486C123.703 86.5527 123.833 86.559 124.001 86.5681C124.337 86.5862 124.822 86.6152 125.418 86.6587C126.612 86.7456 128.251 86.8905 130.035 87.122C131.82 87.3536 133.573 87.5921 134.88 87.7727C135.534 87.863 136.076 87.9388 136.454 87.9921C136.643 88.0187 136.792 88.0396 136.893 88.054L137.047 88.0759C137.047 88.0759 137.048 88.0759 137.057 88.0103C137.067 87.9446 137.067 87.9446 137.067 87.9446L136.912 87.9227C136.811 87.9083 136.662 87.8873 136.473 87.8607C136.094 87.8075 135.553 87.7316 134.899 87.6413Z" fill="white"/>
<path fill-rule="evenodd" clip-rule="evenodd" d="M88.397 107.662C87.385 106.01 86.3677 103.185 86.3677 98.5055C86.3677 93.8263 87.385 91.0014 88.397 89.3486C88.9031 88.522 89.4083 87.9877 89.7856 87.6606C89.9743 87.4971 90.1311 87.3853 90.2401 87.3146C90.2946 87.2793 90.3372 87.2543 90.3658 87.2383C90.3802 87.2303 90.391 87.2245 90.3981 87.2208C90.4002 87.2197 90.4019 87.2188 90.4033 87.2181C90.4044 87.2176 90.4053 87.2171 90.406 87.2167L90.4077 87.2159L90.4081 87.2157L90.4081 87.2157C90.4081 87.2157 90.408 87.2157 90.3784 87.1562C90.3488 87.0966 90.3487 87.0966 90.3487 87.0967L90.3484 87.0968L90.3476 87.0972L90.345 87.0985C90.3427 87.0996 90.3395 87.1013 90.3353 87.1034C90.327 87.1078 90.315 87.1142 90.2994 87.1229C90.2683 87.1403 90.2233 87.1668 90.1663 87.2038C90.0523 87.2776 89.8905 87.3931 89.6968 87.561C89.3095 87.8967 88.7953 88.4414 88.2818 89.28C87.2548 90.9574 86.2332 93.8071 86.2332 98.5055C86.2332 103.204 87.2548 106.054 88.2818 107.731C88.7953 108.57 89.3095 109.114 89.6968 109.45C89.8905 109.618 90.0523 109.733 90.1663 109.807C90.2233 109.844 90.2683 109.871 90.2994 109.888C90.315 109.897 90.327 109.903 90.3353 109.908C90.3395 109.91 90.3427 109.911 90.345 109.912L90.3476 109.914L90.3484 109.914L90.3487 109.914C90.3487 109.914 90.3488 109.914 90.3784 109.855C90.408 109.795 90.4081 109.795 90.4081 109.795L90.4081 109.795L90.4077 109.795L90.406 109.794C90.4043 109.793 90.4017 109.792 90.3981 109.79C90.391 109.787 90.3802 109.781 90.3658 109.773C90.3372 109.757 90.2946 109.732 90.2401 109.696C90.1311 109.626 89.9743 109.514 89.7856 109.35C89.4083 109.023 88.9031 108.489 88.397 107.662Z" fill="white"/>
<path fill-rule="evenodd" clip-rule="evenodd" d="M68.8078 101.273C68.8053 101.245 68.8028 101.217 68.8003 101.189L68.8003 101.189C68.6311 99.4039 68.6311 97.6071 68.8003 95.822L68.8003 95.8217L68.8042 95.7784C68.8864 94.8573 68.9626 94.003 68.951 93.4744C68.948 93.3398 68.9393 93.224 68.923 93.1322C68.9072 93.0442 68.8824 92.9651 68.8372 92.9173C68.8123 92.891 68.7795 92.8722 68.7394 92.8699C68.7011 92.8678 68.6653 92.8812 68.6338 92.9007C68.5727 92.9386 68.508 93.0121 68.438 93.1146L68.5495 93.1887C68.6177 93.089 68.6694 93.0354 68.7055 93.013C68.7226 93.0023 68.7306 93.0023 68.7317 93.0024C68.732 93.0024 68.7322 93.0024 68.7327 93.0027C68.7335 93.0031 68.7355 93.0043 68.7388 93.0077C68.755 93.0249 68.7751 93.0694 68.7905 93.1552C68.8051 93.2374 68.8136 93.3456 68.8165 93.4772C68.828 93.9985 68.7522 94.8475 68.6694 95.7756L68.6663 95.8097C68.6663 95.8098 68.6663 95.8098 68.6663 95.8099C68.4964 97.6031 68.4964 99.408 68.6663 101.201C68.6686 101.226 68.6708 101.252 68.6731 101.277C68.7545 102.189 68.8287 103.02 68.8179 103.534C68.8151 103.665 68.8067 103.774 68.7921 103.856C68.7768 103.942 68.7567 103.986 68.7404 104.003C68.7372 104.007 68.735 104.008 68.7343 104.008C68.7337 104.009 68.7335 104.009 68.7331 104.009C68.7319 104.009 68.7237 104.009 68.7064 103.998C68.6701 103.976 68.618 103.922 68.5494 103.822L68.4381 103.897C68.5086 103.999 68.5736 104.073 68.635 104.11C68.6666 104.13 68.7024 104.143 68.7407 104.141C68.7808 104.139 68.8138 104.12 68.8387 104.094C68.8841 104.046 68.9089 103.967 68.9246 103.879C68.9409 103.787 68.9495 103.671 68.9524 103.537C68.9634 103.016 68.8886 102.179 68.8078 101.273Z" fill="white"/>
<path fill-rule="evenodd" clip-rule="evenodd" d="M68.8259 93.4081C68.8259 93.4081 68.8259 93.4081 68.8865 93.437L68.947 93.4658L68.9474 93.4652L68.9485 93.4628L68.9533 93.4534C68.9575 93.4449 68.9639 93.4324 68.9725 93.4162C68.9895 93.3837 69.0149 93.3364 69.0482 93.2775C69.1148 93.1596 69.2129 92.9957 69.3387 92.8119C69.5904 92.4439 69.9502 91.9999 70.387 91.6839L70.3888 91.6828C70.3917 91.6811 70.396 91.6786 70.4018 91.6752C70.4135 91.6683 70.4311 91.6581 70.4548 91.6447C70.5021 91.6177 70.5738 91.5779 70.6702 91.5266C70.8632 91.424 71.1555 91.2754 71.552 91.0922C72.3449 90.7259 73.5544 90.221 75.2187 89.6684C78.5471 88.5633 83.6946 87.2671 90.966 86.5062L90.9518 86.3742C83.671 87.1362 78.5139 88.4343 75.1757 89.5427C73.5067 90.0969 72.2924 90.6036 71.4949 90.9721C71.0961 91.1564 70.8015 91.3061 70.6064 91.4098C70.5088 91.4617 70.4361 91.5022 70.3876 91.5297C70.3634 91.5435 70.3452 91.554 70.3331 91.5611C70.327 91.5647 70.3224 91.5674 70.3193 91.5693L70.3157 91.5714L70.3148 91.5719L70.3146 91.5721C70.3145 91.5721 70.3144 91.5722 70.3496 91.6287L70.3146 91.5721L70.3121 91.5736L70.3099 91.5752C69.854 91.9043 69.4831 92.3634 69.2271 92.7377C69.0988 92.9252 68.9987 93.0924 68.9307 93.2129C68.8966 93.2731 68.8705 93.3217 68.8529 93.3553C68.8441 93.3721 68.8374 93.3852 68.8329 93.3941L68.8278 93.4044L68.8264 93.4071L68.8261 93.4078L68.8259 93.4081Z" fill="white"/>
<path fill-rule="evenodd" clip-rule="evenodd" d="M99.3723 107.429C99.3723 107.429 99.3724 107.429 99.3563 107.365L99.4198 107.343L99.419 107.341L99.4163 107.333C99.414 107.327 99.4106 107.316 99.406 107.303C99.3969 107.276 99.3836 107.236 99.3665 107.182C99.3324 107.076 99.2836 106.917 99.225 106.71C99.1077 106.296 98.9513 105.689 98.7948 104.916C98.4818 103.37 98.1686 101.161 98.1686 98.5127C98.1686 95.8645 98.4818 93.6558 98.7948 92.1096C98.9513 91.3365 99.1077 90.7291 99.225 90.3152C99.2836 90.1083 99.3324 89.9497 99.3665 89.8431C99.3836 89.7898 99.3969 89.7494 99.406 89.7225C99.4106 89.709 99.414 89.6989 99.4163 89.6922L99.419 89.6846L99.4197 89.6824L99.3563 89.6604C99.3725 89.596 99.3725 89.596 99.3724 89.596L99.3721 89.596L99.2812 89.5738C99.2217 89.5593 99.1343 89.538 99.0228 89.5111C98.7998 89.4571 98.4804 89.3802 98.095 89.2885C97.3242 89.105 96.289 88.8621 95.2317 88.6244C94.1745 88.3867 93.0947 88.1541 92.2347 87.9914C91.8047 87.91 91.4289 87.8459 91.138 87.8074C90.9926 87.7882 90.8674 87.7752 90.7669 87.7697C90.6685 87.7643 90.5868 87.7657 90.5322 87.7786C90.3359 87.8251 90.143 87.9684 89.9526 88.1812C89.7613 88.3951 89.5667 88.686 89.3684 89.0395C88.9719 89.7466 88.5559 90.7139 88.1208 91.8413C87.2462 94.1074 87.1821 96.8302 87.1821 98.5055C87.1821 100.181 87.248 102.905 88.1208 105.17C88.555 106.296 88.9724 107.263 89.3699 107.971C89.5685 108.324 89.7635 108.615 89.9547 108.829C90.1448 109.042 90.3372 109.186 90.5321 109.232C90.5863 109.245 90.6679 109.246 90.7659 109.241C90.8662 109.236 90.9911 109.223 91.1363 109.204C91.4269 109.165 91.8025 109.102 92.2322 109.021C93.092 108.86 94.172 108.629 95.2295 108.393C96.2872 108.157 97.3229 107.916 98.0941 107.734C98.4797 107.643 98.7993 107.567 99.0224 107.514C99.134 107.487 99.2215 107.466 99.281 107.452L99.3723 107.429ZM99.3563 89.6604L99.3724 89.596L99.4441 89.6136L99.4197 89.6824L99.3563 89.6604ZM99.2694 89.7075L99.249 89.7026C99.1895 89.6881 99.1022 89.6669 98.9907 89.6399C98.7679 89.586 98.4487 89.5091 98.0634 89.4174C97.293 89.234 96.2584 88.9913 95.2018 88.7537C94.1451 88.5162 93.067 88.284 92.2093 88.1216C91.7803 88.0405 91.4074 87.9769 91.1201 87.9389C90.9764 87.9199 90.8551 87.9074 90.7594 87.9022C90.6616 87.8968 90.5973 87.8996 90.5636 87.9076C90.407 87.9447 90.2367 88.0641 90.0535 88.269C89.8713 88.4727 89.6821 88.7543 89.4862 89.1037C89.0944 89.8023 88.6812 90.7623 88.2465 91.8885C87.3816 94.1293 87.3166 96.8296 87.3166 98.5055C87.3166 100.181 87.3835 102.883 88.2465 105.122C88.6802 106.248 89.0949 107.208 89.4875 107.906C89.6839 108.256 89.8735 108.538 90.0556 108.742C90.2388 108.947 90.4085 109.066 90.5637 109.103C90.597 109.111 90.661 109.114 90.7585 109.109C90.8539 109.103 90.975 109.091 91.1186 109.072C91.4055 109.034 91.7782 108.971 92.2071 108.891C93.0645 108.73 94.1428 108.499 95.1999 108.264C96.2568 108.028 97.2919 107.787 98.0628 107.605C98.4482 107.515 98.7676 107.438 98.9906 107.385C99.1021 107.358 99.1895 107.337 99.2491 107.323L99.2693 107.318C99.261 107.293 99.2505 107.261 99.2382 107.222C99.2037 107.114 99.1545 106.954 99.0954 106.746C98.9774 106.329 98.8201 105.718 98.6629 104.942C98.3484 103.389 98.0341 101.171 98.0341 98.5127C98.0341 95.8543 98.3484 93.6368 98.6629 92.0836C98.8201 91.3069 98.9774 90.6963 99.0954 90.2795C99.1545 90.0711 99.2037 89.9112 99.2382 89.8032C99.2505 89.7646 99.261 89.7327 99.2694 89.7075ZM99.3563 107.365L99.4198 107.343L99.4442 107.412L99.3723 107.429L99.3563 107.365Z" fill="white"/>
<path fill-rule="evenodd" clip-rule="evenodd" d="M100.07 89.4511C100.07 89.4511 100.07 89.4511 100.007 89.4297C99.9431 89.4083 99.9431 89.4083 99.943 89.4084L99.9425 89.41L99.9408 89.415C99.9393 89.4193 99.9371 89.4258 99.9342 89.4344C99.9285 89.4515 99.9201 89.477 99.9092 89.5106C99.8876 89.5778 99.8563 89.6773 99.8175 89.8071C99.74 90.0668 99.6328 90.4479 99.5138 90.9343C99.2757 91.9069 98.9901 93.3007 98.7997 94.9866C98.419 98.3578 98.4187 102.899 99.9427 107.576L100.071 107.536C98.5543 102.882 98.554 98.3606 98.9334 95.0013C99.1231 93.3218 99.4076 91.9335 99.6446 90.9654C99.763 90.4813 99.8696 90.1023 99.9466 89.8446C99.985 89.7157 100.016 89.6171 100.037 89.5508C100.048 89.5177 100.056 89.4927 100.062 89.476C100.063 89.472 100.064 89.4686 100.065 89.4656C100.067 89.4622 100.068 89.4594 100.068 89.4572L100.07 89.4525L100.07 89.4514L100.07 89.4511Z" fill="white"/>
<path d="M92.5032 110.571H94.1432L94.3275 111.374C94.3409 111.431 94.3733 111.481 94.4195 111.517C94.4657 111.553 94.5229 111.572 94.5818 111.572H94.6555C94.7009 111.572 94.7452 111.586 94.7824 111.612C94.8196 111.638 94.848 111.674 94.8637 111.716L95.8385 114.338C95.842 114.348 95.8431 114.359 95.8416 114.369C95.8401 114.38 95.8362 114.39 95.8301 114.398C95.824 114.407 95.8159 114.414 95.8065 114.419C95.7971 114.424 95.7866 114.427 95.7759 114.427H95.3852C95.1246 114.427 94.869 114.357 94.6463 114.223C94.4237 114.089 94.2426 113.898 94.123 113.669L92.5032 110.571Z" fill="#021216"/>
<path fill-rule="evenodd" clip-rule="evenodd" d="M95.3852 114.494C95.3852 114.494 95.3852 114.494 95.3852 114.494H95.7777C95.799 114.493 95.8198 114.487 95.8385 114.477C95.8572 114.468 95.8732 114.453 95.8853 114.436C95.8975 114.419 95.9053 114.399 95.9082 114.378C95.9112 114.358 95.909 114.336 95.9022 114.317L95.9017 114.315L94.9269 111.693L94.9268 111.693C94.9063 111.638 94.8694 111.591 94.8209 111.557C94.7725 111.524 94.7149 111.506 94.6558 111.506L94.6555 111.506H94.5818L94.5815 111.506C94.5378 111.506 94.4954 111.492 94.4612 111.465C94.427 111.438 94.403 111.401 94.3931 111.359C94.393 111.359 94.393 111.359 94.393 111.359L94.197 110.504H92.3928L94.0632 113.7C94.1885 113.939 94.3782 114.14 94.6114 114.28C94.8445 114.42 95.1123 114.494 95.3852 114.494ZM95.3852 114.361C95.1369 114.361 94.8934 114.294 94.6813 114.166C94.4692 114.039 94.2967 113.856 94.1827 113.639L92.6135 110.637H94.0895L94.2619 111.389L94.262 111.389C94.2788 111.46 94.3197 111.524 94.3778 111.569C94.4359 111.614 94.5079 111.639 94.582 111.638C94.582 111.638 94.5819 111.638 94.582 111.638H94.6554C94.6554 111.638 94.6553 111.638 94.6554 111.638C94.687 111.639 94.7179 111.648 94.7438 111.666C94.7698 111.684 94.7896 111.709 94.8006 111.739L95.775 114.36C95.775 114.36 95.775 114.36 95.775 114.36L95.8385 114.338L95.7757 114.361H95.7759V114.427L95.7741 114.361C95.7742 114.361 95.7742 114.361 95.7743 114.361H95.3852ZM95.7754 114.361L95.775 114.36C95.775 114.36 95.7751 114.36 95.7751 114.36C95.7751 114.36 95.7749 114.36 95.7748 114.36C95.7747 114.361 95.7746 114.361 95.7745 114.361C95.7744 114.361 95.7744 114.361 95.7743 114.361H95.7754Z" fill="white"/>
<path d="M92.5032 86.4401H94.1432L94.3275 85.6368C94.3409 85.5803 94.3733 85.5299 94.4195 85.4939C94.4657 85.4579 94.5229 85.4384 94.5818 85.4387H94.6555C94.7009 85.4385 94.7452 85.4247 94.7824 85.399C94.8196 85.3734 94.848 85.3371 94.8637 85.2951L95.8385 82.6727C95.842 82.6627 95.8431 82.6521 95.8416 82.6416C95.8401 82.6312 95.8362 82.6212 95.8301 82.6125C95.824 82.6039 95.8159 82.5967 95.8065 82.5917C95.7971 82.5867 95.7866 82.5839 95.7759 82.5837H95.3852C95.1246 82.5836 94.869 82.6543 94.6463 82.788C94.4237 82.9216 94.2426 83.1131 94.123 83.3415L92.5032 86.4401Z" fill="#021216"/>
<path d="M92.5032 110.571H94.1432L94.3275 111.374C94.3409 111.431 94.3733 111.481 94.4195 111.517C94.4657 111.553 94.5229 111.572 94.5818 111.572H94.6555C94.7009 111.572 94.7452 111.586 94.7824 111.612C94.8196 111.638 94.848 111.674 94.8637 111.716L95.8385 114.338C95.842 114.348 95.8431 114.359 95.8416 114.369C95.8401 114.38 95.8362 114.39 95.8301 114.398C95.824 114.407 95.8159 114.414 95.8065 114.419C95.7971 114.424 95.7866 114.427 95.7759 114.427H95.3852C95.1246 114.427 94.869 114.357 94.6463 114.223C94.4237 114.089 94.2426 113.898 94.123 113.669L92.5032 110.571Z" fill="#7000FF"/>
<path d="M92.4829 86.5055H94.123L94.3072 85.7022C94.3206 85.6457 94.353 85.5953 94.3992 85.5593C94.4454 85.5233 94.5027 85.5039 94.5615 85.5041H94.6353C94.6807 85.504 94.7249 85.4901 94.7621 85.4645C94.7993 85.4388 94.8277 85.4026 94.8435 85.3606L95.8183 82.7381C95.8218 82.7282 95.8228 82.7175 95.8213 82.7071C95.8199 82.6966 95.8159 82.6866 95.8098 82.678C95.8037 82.6693 95.7956 82.6622 95.7862 82.6572C95.7768 82.6521 95.7663 82.6494 95.7556 82.6491H95.365C95.1043 82.6491 94.8487 82.7197 94.6261 82.8534C94.4034 82.9871 94.2224 83.1786 94.1027 83.4069L92.4829 86.5055Z" fill="#7000FF"/>
<path fill-rule="evenodd" clip-rule="evenodd" d="M94.1027 83.407L92.4829 86.5056H94.1229L94.3072 85.7023C94.3409 85.5596 94.5099 85.5061 94.5573 85.5151C94.6046 85.5241 94.796 85.487 94.8434 85.3607L95.8182 82.7382C95.8217 82.7283 95.8228 82.7176 95.8213 82.7072C95.8198 82.6967 95.8159 82.6867 95.8098 82.6781C95.8037 82.6694 95.7956 82.6623 95.7862 82.6573C95.7768 82.6522 95.7663 82.6495 95.7556 82.6492H95.3649C95.2807 82.6492 95.1973 82.6568 95.1156 82.6715C95.0666 82.6803 95.0182 82.6916 94.9706 82.7054C94.8376 82.7439 94.711 82.8013 94.595 82.8751C94.5843 82.8819 94.5737 82.8888 94.5632 82.8959C94.464 82.9628 94.3731 83.0418 94.2935 83.1314C94.2287 83.2042 94.1714 83.284 94.1229 83.3698C94.116 83.3821 94.1092 83.3945 94.1027 83.407ZM95.3649 82.522C95.2728 82.522 95.1817 82.5303 95.0925 82.5463C95.039 82.5559 94.9862 82.5683 94.9343 82.5833C94.7893 82.6253 94.6514 82.6878 94.5251 82.7682C94.5134 82.7756 94.5019 82.7832 94.4904 82.7909C94.3824 82.8637 94.2834 82.9498 94.1965 83.0475C94.1259 83.127 94.0632 83.2141 94.0102 83.3079C94.0026 83.3213 93.9952 83.3349 93.9881 83.3486L92.2712 86.6328H94.226L94.4328 85.7312C94.4328 85.7311 94.4329 85.731 94.4329 85.7309C94.4393 85.7044 94.4593 85.6805 94.492 85.6617C94.5079 85.6526 94.5237 85.6466 94.5358 85.6435C94.5392 85.6426 94.5418 85.6421 94.5437 85.6417C94.5755 85.6459 94.6097 85.6425 94.6366 85.638C94.6706 85.6324 94.7097 85.6222 94.7489 85.6065C94.8228 85.5769 94.9224 85.5169 94.9644 85.4048L94.9646 85.4045L95.9398 82.7808L95.9402 82.7795C95.9503 82.7508 95.9533 82.72 95.9491 82.6897C95.9448 82.6594 95.9334 82.6306 95.9158 82.6056C95.8981 82.5805 95.8747 82.5599 95.8475 82.5453C95.8203 82.5308 95.79 82.5228 95.7591 82.522L95.7573 82.522H95.3649C95.3649 82.522 95.3649 82.522 95.3649 82.522ZM94.5467 85.6413C94.5467 85.6413 94.5467 85.6413 94.5467 85.6413Z" fill="url(#paint3_linear_260_5914)"/>
</g>
<defs>
<radialGradient id="paint0_radial_260_5914" cx="0" cy="0" r="1" gradientUnits="userSpaceOnUse" gradientTransform="translate(186.5 125) rotate(18.2904) scale(187.998 88.8788)">
<stop offset="0.0084" stop-color="#A9A3C2" stop-opacity="0.7"/>
<stop offset="1" stop-color="#A9A3C2" stop-opacity="0.055"/>
</radialGradient>
<radialGradient id="paint1_radial_260_5914" cx="0" cy="0" r="1" gradientUnits="userSpaceOnUse" gradientTransform="translate(104.742 97.8566) scale(50.9576 23.1173)">
<stop stop-color="#45009E"/>
<stop offset="0.03" stop-color="#5204B5"/>
<stop offset="0.65" stop-color="#16042D"/>
<stop offset="1" stop-color="#0D021B"/>
</radialGradient>
<radialGradient id="paint2_radial_260_5914" cx="0" cy="0" r="1" gradientUnits="userSpaceOnUse" gradientTransform="translate(104.558 98.4792) rotate(22.4063) scale(33.7751 85.8043)">
<stop stop-color="#8F4EE3"/>
<stop offset="1" stop-color="#430099"/>
</radialGradient>
<linearGradient id="paint3_linear_260_5914" x1="94.1111" y1="86.6328" x2="94.1111" y2="82.522" gradientUnits="userSpaceOnUse">
<stop stop-color="white"/>
<stop offset="1" stop-color="white" stop-opacity="0.7"/>
</linearGradient>
<clipPath id="clip0_260_5914">
<rect width="75" height="31.9853" fill="white" transform="matrix(1 0 0 -1 66.5 114.493)"/>
</clipPath>
</defs>
</svg>
