<?xml version="1.0" encoding="utf-8" ?>
<svg xmlns="http://www.w3.org/2000/svg" xmlns:xlink="http://www.w3.org/1999/xlink" width="0.5981" height="29.2637" viewBox="0 0 0.5981 29.2637">
	<path d="M0.299184 0L0.299184 0.296553L-0.299184 0.296553L-0.299184 0L0.299184 0ZM0.299184 0.922355L0.299184 1.54025L-0.299184 1.54025L-0.299184 0.922355L0.299184 0.922355ZM0.299184 2.14277L0.299184 2.71768L-0.299184 2.71768L-0.299184 2.14277L0.299184 2.14277ZM0.299184 3.348L0.299184 3.96574L-0.299184 3.96574L-0.299184 3.348L0.299184 3.348ZM0.299184 4.55556L0.299184 5.17518L-0.299184 5.17518L-0.299184 4.55556L0.299184 4.55556ZM0.299184 5.82241L0.299184 6.41913L-0.299184 6.41913L-0.299184 5.82241L0.299184 5.82241ZM0.299184 7.0344L0.299184 7.58677L-0.299184 7.58677L-0.299184 7.0344L0.299184 7.0344ZM0.299184 8.23267L0.299184 8.80947L-0.299184 8.80947L-0.299184 8.23267L0.299184 8.23267ZM0.299184 9.4806L0.299184 10.0771L-0.299184 10.0771L-0.299184 9.4806L0.299184 9.4806ZM0.299184 10.6812L0.299184 11.2918L-0.299184 11.2918L-0.299184 10.6812L0.299184 10.6812ZM0.299184 11.908L0.299184 12.5286L-0.299184 12.5286L-0.299184 11.908L0.299184 11.908ZM0.299184 13.0634L0.299184 13.6897L-0.299184 13.6897L-0.299184 13.0634L0.299184 13.0634ZM0.299184 14.3175L0.299184 14.9458L-0.299184 14.9458L-0.299184 14.3175L0.299184 14.3175ZM0.299184 15.5736L0.299184 16.1998L-0.299184 16.1998L-0.299184 15.5736L0.299184 15.5736ZM0.299184 16.7346L0.299184 17.3552L-0.299184 17.3552L-0.299184 16.7346L0.299184 16.7346ZM0.299184 17.9714L0.299184 18.582L-0.299184 18.582L-0.299184 17.9714L0.299184 17.9714ZM0.299184 19.1861L0.299184 19.7826L-0.299184 19.7826L-0.299184 19.1861L0.299184 19.1861ZM0.299184 20.4538L0.299184 21.0306L-0.299184 21.0306L-0.299184 20.4538L0.299184 20.4538ZM0.299184 21.6765L0.299184 22.2288L-0.299184 22.2288L-0.299184 21.6765L0.299184 21.6765ZM0.299184 22.8441L0.299184 23.4408L-0.299184 23.4408L-0.299184 22.8441L0.299184 22.8441ZM0.299184 24.0881L0.299184 24.7077L-0.299184 24.7077L-0.299184 24.0881L0.299184 24.0881ZM0.299184 25.2975L0.299184 25.9152L-0.299184 25.9152L-0.299184 25.2975L0.299184 25.2975ZM0.299184 26.5456L0.299184 27.1205L-0.299184 27.1205L-0.299184 26.5456L0.299184 26.5456ZM0.299184 27.723L0.299184 28.3409L-0.299184 28.3409L-0.299184 27.723L0.299184 27.723ZM-0.299184 29.2632L-0.299184 28.9667L0.299184 28.9667L0.299184 29.2632L-0.299184 29.2632Z" fill-rule="evenodd" transform="matrix(1 0 0 1 0.299072 0)" fill="rgb(94, 96, 119)"/>
</svg>
