<?xml version="1.0" encoding="utf-8" ?>
<svg xmlns="http://www.w3.org/2000/svg" xmlns:xlink="http://www.w3.org/1999/xlink" width="24" height="24" viewBox="0 0 24 24">
	<defs>
		<clipPath id="clipPath6219681008">
			<path transform="matrix(1 0 0 1 0 0)" d="M0 0L24 0L24 24L0 24L0 0Z" fill-rule="nonzero"/>
		</clipPath>
	</defs>
	<g clip-path="url(#clipPath6219681008)">
		<path transform="matrix(1 0 0 1 2 4)" d="M18 0L2 0C0.9 0 0.00999999 0.9 0.00999999 2L0 14C0 15.1 0.9 16 2 16L18 16C19.1 16 20 15.1 20 14L20 2C20 0.9 19.1 0 18 0ZM17.6 4.25L10.53 8.67C10.21 8.87 9.79 8.87 9.47 8.67L2.4 4.25C2.15 4.09 2 3.82 2 3.53C2 2.86 2.73 2.46 3.3 2.81L10 7L16.7 2.81C17.27 2.46 18 2.86 18 3.53C18 3.82 17.85 4.09 17.6 4.25Z" fill-rule="nonzero" fill="rgb(255, 255, 255)"/>
	</g>
</svg>
