<?xml version="1.0" encoding="utf-8" ?>
<svg xmlns="http://www.w3.org/2000/svg" xmlns:xlink="http://www.w3.org/1999/xlink" width="112.6665" height="5.7734" viewBox="0 0 112.6665 5.7734">
	<path d="M112.667 2.88675L107.667 0L107.667 2.38675L107.311 2.38675L107.311 3.38675L107.667 3.38675L107.667 5.7735L112.667 2.88675ZM5.28604 3.38675C5.16604 4.01538 4.85948 4.53365 4.36634 4.94156C3.8732 5.34946 3.30665 5.55342 2.66667 5.55342C1.93029 5.55342 1.30175 5.29307 0.781049 4.77237C0.26035 4.25167 1.58946e-07 3.62313 0 2.88675C1.58946e-07 2.15037 0.26035 1.52183 0.781049 1.00113C1.30175 0.480434 1.93029 0.220084 2.66667 0.220084C3.30665 0.220084 3.8732 0.424038 4.36634 0.831946C4.85948 1.23985 5.16604 1.75812 5.28604 2.38675L5.62629 2.38675L5.62629 3.38675L5.28604 3.38675ZM8.0228 3.38675L6.85424 3.38675L6.85424 2.38675L8.0228 2.38675L8.0228 3.38675ZM10.4403 3.38675L9.22737 3.38675L9.22737 2.38675L10.4403 2.38675L10.4403 3.38675ZM12.7977 3.38675L11.6375 3.38675L11.6375 2.38675L12.7977 2.38675L12.7977 3.38675ZM15.1716 3.38675L14.0159 3.38675L14.0159 2.38675L15.1716 2.38675L15.1716 3.38675ZM17.6146 3.38675L16.3718 3.38675L16.3718 2.38675L17.6146 2.38675L17.6146 3.38675ZM19.9542 3.38675L18.7684 3.38675L18.7684 2.38675L19.9542 2.38675L19.9542 3.38675ZM22.4172 3.38675L21.1709 3.38675L21.1709 2.38675L22.4172 2.38675L22.4172 3.38675ZM24.8482 3.38675L23.549 3.38675L23.549 2.38675L24.8482 2.38675L24.8482 3.38675ZM27.2216 3.38675L26.025 3.38675L26.025 2.38675L27.2216 2.38675L27.2216 3.38675ZM29.516 3.38675L28.4373 3.38675L28.4373 2.38675L29.516 2.38675L29.516 3.38675ZM32.0308 3.38675L30.7651 3.38675L30.7651 2.38675L32.0308 2.38675L32.0308 3.38675ZM34.2831 3.38675L33.1512 3.38675L33.1512 2.38675L34.2831 2.38675L34.2831 3.38675ZM36.7447 3.38675L35.5901 3.38675L35.5901 2.38675L36.7447 2.38675L36.7447 3.38675ZM39.0826 3.38675L37.9091 3.38675L37.9091 2.38675L39.0826 2.38675L39.0826 3.38675ZM41.4549 3.38675L40.2647 3.38675L40.2647 2.38675L41.4549 2.38675L41.4549 3.38675ZM43.857 3.38675L42.6525 3.38675L42.6525 2.38675L43.857 2.38675L43.857 3.38675ZM46.2844 3.38675L45.0678 3.38675L45.0678 2.38675L46.2844 2.38675L46.2844 3.38675ZM48.7327 3.38675L47.5062 3.38675L47.5062 2.38675L48.7327 2.38675L48.7327 3.38675ZM51.0208 3.38675L49.9632 3.38675L49.9632 2.38675L51.0208 2.38675L51.0208 3.38675ZM53.4964 3.38675L52.2573 3.38675L52.2573 2.38675L53.4964 2.38675L53.4964 3.38675ZM55.8021 3.38675L54.7373 3.38675L54.7373 2.38675L55.8021 2.38675L55.8021 3.38675ZM58.2883 3.38675L57.045 3.38675L57.045 2.38675L58.2883 2.38675L58.2883 3.38675ZM60.596 3.38675L59.5313 3.38675L59.5313 2.38675L60.596 2.38675L60.596 3.38675ZM63.076 3.38675L61.837 3.38675L61.837 2.38675L63.076 2.38675L63.076 3.38675ZM65.3701 3.38675L64.3126 3.38675L64.3126 2.38675L65.3701 2.38675L65.3701 3.38675ZM67.8271 3.38675L66.6007 3.38675L66.6007 2.38675L67.8271 2.38675L67.8271 3.38675ZM70.2655 3.38675L69.0489 3.38675L69.0489 2.38675L70.2655 2.38675L70.2655 3.38675ZM72.6809 3.38675L71.4763 3.38675L71.4763 2.38675L72.6809 2.38675L72.6809 3.38675ZM75.0686 3.38675L73.8785 3.38675L73.8785 2.38675L75.0686 2.38675L75.0686 3.38675ZM77.4242 3.38675L76.2507 3.38675L76.2507 2.38675L77.4242 2.38675L77.4242 3.38675ZM79.7433 3.38675L78.5886 3.38675L78.5886 2.38675L79.7433 2.38675L79.7433 3.38675ZM82.1821 3.38675L81.0502 3.38675L81.0502 2.38675L82.1821 2.38675L82.1821 3.38675ZM84.5682 3.38675L83.3026 3.38675L83.3026 2.38675L84.5682 2.38675L84.5682 3.38675ZM86.896 3.38675L85.8173 3.38675L85.8173 2.38675L86.896 2.38675L86.896 3.38675ZM89.3084 3.38675L88.1117 3.38675L88.1117 2.38675L89.3084 2.38675L89.3084 3.38675ZM91.7843 3.38675L90.4852 3.38675L90.4852 2.38675L91.7843 2.38675L91.7843 3.38675ZM94.1625 3.38675L92.9161 3.38675L92.9161 2.38675L94.1625 2.38675L94.1625 3.38675ZM96.565 3.38675L95.3792 3.38675L95.3792 2.38675L96.565 2.38675L96.565 3.38675ZM98.9616 3.38675L97.7187 3.38675L97.7187 2.38675L98.9616 2.38675L98.9616 3.38675ZM101.317 3.38675L100.162 3.38675L100.162 2.38675L101.317 2.38675L101.317 3.38675ZM103.696 3.38675L102.536 3.38675L102.536 2.38675L103.696 2.38675L103.696 3.38675ZM106.106 3.38675L104.893 3.38675L104.893 2.38675L106.106 2.38675L106.106 3.38675Z" fill-rule="evenodd" transform="matrix(1 0 0 1 0 0)" fill="rgb(155, 153, 164)"/>
</svg>
