<?xml version="1.0" encoding="utf-8" ?>
<svg xmlns="http://www.w3.org/2000/svg" xmlns:xlink="http://www.w3.org/1999/xlink" width="89.2888" height="84.1025" viewBox="0 0 89.2888 84.1025">
	<defs>
		<filter id="filter8643084539" filterUnits="userSpaceOnUse" color-interpolation-filters="sRGB">
			<feComponentTransfer in="SourceAlpha" result="componentTransfer2637015910">
				<feFuncR type="linear" slope="0" intercept="0.10999998"/>
				<feFuncG type="linear" slope="0" intercept="0.14137037"/>
				<feFuncB type="linear" slope="0" intercept="0.41249999"/>
				<feFuncA type="linear" slope="10000" intercept="0"/>
			</feComponentTransfer>
			<feComponentTransfer in="componentTransfer2637015910" result="componentTransfer8456007258">
				<feFuncA type="linear" slope="0.050000001" intercept="0"/>
			</feComponentTransfer>
			<feOffset dx="0" dy="4.1976113" in="componentTransfer8456007258" result="offset1243012999"/>
			<feGaussianBlur stdDeviation="6.9960194" in="offset1243012999" result="gaussianBlur1012336876"/>
			<feMerge>
				<feMergeNode in="gaussianBlur1012336876"/>
				<feMergeNode in="SourceGraphic"/>
			</feMerge>
		</filter>
	</defs>
	<g filter="url(#filter8643084539)">
		<defs>
			<linearGradient id="linearGradient2161567404" gradientTransform="matrix(0 55.8179 -60.4552 0 60.4552 0)" gradientUnits="userSpaceOnUse" x1="0" y1="0.5" x2="1" y2="0.5">
				<stop offset="0" stop-color="rgb(40, 29, 59)"/>
				<stop offset="1" stop-color="rgb(68, 63, 76)"/>
			</linearGradient>
		</defs>
		<rect width="60.455181" height="55.817875" rx="6" ry="6" transform="matrix(1 0 0 1 14.6916 9.94588)" fill="url(#linearGradient2161567404)"/>
		<rect width="60.455181" height="55.817875" rx="6" ry="6" stroke-width="0.30000001" transform="matrix(1 0 0 1 14.6916 9.94588)" stroke="rgb(255, 255, 255)" fill="transparent"/>
		<path d="M7.5021 10.9863Q7.5021 10.9932 7.5021 10.9966Q7.5021 11 7.49527 11L6.53024 11Q6.52341 11 6.51487 10.9966Q6.50803 10.9932 6.50803 10.9863L4.96228 6.72484L5.35513 6.72484L3.80767 10.9863Q3.80767 10.9932 3.80083 10.9966Q3.794 11 3.78717 11L2.82214 11Q2.81531 11 2.81531 10.9966Q2.81531 10.9932 2.81531 10.9863L4.689 5.82985Q4.689 5.81618 4.71121 5.81618L5.6062 5.81618Q5.6267 5.81618 5.6267 5.82985L7.5021 10.9863ZM6.31332 8.7608L6.31332 9.67117L4.00409 9.67117L4.00409 8.7608L6.31332 8.7608Z" fill-rule="nonzero" transform="matrix(1 0 0 1 22.1822 42.8015)" fill="rgb(255, 255, 255)"/>
		<path d="M8.93556 10.9863Q8.93556 10.9932 8.93215 10.9966Q8.92873 11 8.9219 11L8.01153 11Q8.00469 11 8.00128 10.9966Q7.99786 10.9932 7.99786 10.9863L7.99786 5.82985Q7.99786 5.82301 8.00128 5.8196Q8.00469 5.81618 8.01153 5.81618L8.9219 5.81618Q8.92873 5.81618 8.93215 5.8196Q8.93556 5.82301 8.93556 5.82985L8.93556 10.9863Z" fill-rule="nonzero" transform="matrix(1 0 0 1 22.1822 42.8015)" fill="rgb(255, 255, 255)"/>
		<path d="M12.3698 11Q12.363 11 12.3596 10.9966Q12.3562 10.9932 12.3562 10.9863L12.3562 5.82985Q12.3562 5.82301 12.3596 5.8196Q12.363 5.81618 12.3698 5.81618L13.2939 5.81618L13.2939 11L12.3698 11ZM12.8532 10.0913L14.0984 10.0913Q14.6295 10.0913 14.9831 9.88125Q15.3367 9.67117 15.5075 9.2937Q15.68 8.91452 15.68 8.41065Q15.68 7.89313 15.5109 7.51565Q15.3435 7.13818 14.9899 6.93151Q14.6381 6.72484 14.0984 6.72484L12.8532 6.72484L12.8532 5.81618L14.0984 5.81618Q14.8892 5.81618 15.4596 6.17316Q16.0301 6.53013 16.3239 7.12452Q16.6177 7.71891 16.6177 8.41065Q16.6177 9.09044 16.3239 9.68483Q16.0301 10.2792 15.4596 10.6396Q14.8892 11 14.0984 11L12.8532 11L12.8532 10.0913Z" fill-rule="nonzero" transform="matrix(1 0 0 1 22.1822 42.8015)" fill="rgb(255, 255, 255)"/>
		<path d="M19.897 10.1887Q20.4009 10.1887 20.7886 9.96494Q21.1763 9.74119 21.3932 9.33981Q21.6101 8.93672 21.6101 8.41919Q21.6101 7.89996 21.3932 7.49516Q21.1763 7.08865 20.7852 6.85807Q20.394 6.62749 19.897 6.62749Q19.4 6.62749 19.0071 6.85807Q18.616 7.08865 18.3991 7.49516Q18.1822 7.89996 18.1822 8.41919Q18.1822 8.93672 18.3991 9.33981Q18.616 9.74119 19.0037 9.96494Q19.3931 10.1887 19.897 10.1887ZM19.897 11.0769Q19.1694 11.0769 18.5562 10.7199Q17.9447 10.3629 17.5844 9.75486Q17.224 9.14681 17.224 8.41919Q17.224 7.69158 17.5844 7.0767Q17.9447 6.4601 18.5596 6.09971Q19.1762 5.73932 19.897 5.73932Q20.6178 5.73932 21.2327 6.09971Q21.8493 6.4601 22.2097 7.0767Q22.57 7.69158 22.57 8.41919Q22.57 9.14681 22.2097 9.75486Q21.8493 10.3629 21.2361 10.7199Q20.6246 11.0769 19.897 11.0769Z" fill-rule="nonzero" transform="matrix(1 0 0 1 22.1822 42.8015)" fill="rgb(255, 255, 255)"/>
		<path d="M29.0161 10.9863Q29.0161 10.9932 29.0127 10.9966Q29.0093 11 29.0025 11L28.0938 11Q28.087 11 28.0836 10.9966Q28.0802 10.9932 28.0802 10.9863L28.0802 7.8658L26.5481 10.9932Q26.5481 11 26.5395 11Q26.5327 11 26.5259 11L25.8819 11Q25.8751 11 25.8683 11Q25.8614 11 25.8614 10.9932L24.3294 7.8658L24.3294 10.9863Q24.3294 10.9932 24.3259 10.9966Q24.3225 11 24.3157 11L23.4053 11Q23.3985 11 23.3951 10.9966Q23.3917 10.9932 23.3917 10.9863L23.3917 5.82985Q23.3917 5.82301 23.3951 5.8196Q23.3985 5.81618 23.4053 5.81618L24.2457 5.81618Q24.2662 5.81618 24.2662 5.82301L26.2048 9.76852L28.1416 5.82301Q28.1416 5.81618 28.1638 5.81618L29.0025 5.81618Q29.0093 5.81618 29.0127 5.8196Q29.0161 5.82301 29.0161 5.82985L29.0161 10.9863Z" fill-rule="nonzero" transform="matrix(1 0 0 1 22.1822 42.8015)" fill="rgb(255, 255, 255)"/>
		<path d="M34.1968 10.9863Q34.1968 10.9932 34.1968 10.9966Q34.1968 11 34.19 11L33.2249 11Q33.2181 11 33.2096 10.9966Q33.2027 10.9932 33.2027 10.9863L31.657 6.72484L32.0498 6.72484L30.5024 10.9863Q30.5024 10.9932 30.4955 10.9966Q30.4887 11 30.4819 11L29.5168 11Q29.51 11 29.51 10.9966Q29.51 10.9932 29.51 10.9863L31.3837 5.82985Q31.3837 5.81618 31.4059 5.81618L32.3009 5.81618Q32.3214 5.81618 32.3214 5.82985L34.1968 10.9863ZM33.008 8.7608L33.008 9.67117L30.6988 9.67117L30.6988 8.7608L33.008 8.7608Z" fill-rule="nonzero" transform="matrix(1 0 0 1 22.1822 42.8015)" fill="rgb(255, 255, 255)"/>
		<path d="M35.6302 10.9863Q35.6302 10.9932 35.6268 10.9966Q35.6234 11 35.6166 11L34.7062 11Q34.6994 11 34.696 10.9966Q34.6926 10.9932 34.6926 10.9863L34.6926 5.82985Q34.6926 5.82301 34.696 5.8196Q34.6994 5.81618 34.7062 5.81618L35.6166 5.81618Q35.6234 5.81618 35.6268 5.8196Q35.6302 5.82301 35.6302 5.82985L35.6302 10.9863Z" fill-rule="nonzero" transform="matrix(1 0 0 1 22.1822 42.8015)" fill="rgb(255, 255, 255)"/>
		<path d="M39.713 5.82985Q39.713 5.82301 39.7164 5.8196Q39.7198 5.81618 39.7267 5.81618L40.637 5.81618Q40.6439 5.81618 40.6473 5.8196Q40.6507 5.82301 40.6507 5.82985L40.6507 10.9863Q40.6507 10.9932 40.6456 10.9966Q40.6422 11 40.637 11L39.8326 11Q39.8223 11 39.8155 11Q39.8103 11 39.8103 10.9932L37.6138 7.52249L37.6138 10.9863Q37.6138 10.9932 37.6104 10.9966Q37.607 11 37.6002 11L36.6898 11Q36.683 11 36.6796 10.9966Q36.6761 10.9932 36.6761 10.9863L36.6761 5.82985Q36.6761 5.82301 36.6796 5.8196Q36.683 5.81618 36.6898 5.81618L37.4943 5.81618Q37.5045 5.81618 37.5097 5.81618Q37.5165 5.81618 37.5165 5.82301L39.713 9.2937L39.713 5.82985Z" fill-rule="nonzero" transform="matrix(1 0 0 1 22.1822 42.8015)" fill="rgb(255, 255, 255)"/>
		<path d="M41.3904 9.54477Q41.3904 9.53794 41.3938 9.53452Q41.3972 9.53111 41.404 9.53111L42.3076 9.40472Q42.3144 9.40472 42.3178 9.40813Q42.3213 9.41155 42.3213 9.41838Q42.3844 9.83172 42.7483 10.0555Q43.1121 10.2792 43.5459 10.2194Q43.9797 10.1597 44.2171 9.81122Q44.3435 9.62163 44.3504 9.43034Q44.3572 9.23733 44.2411 9.08361Q44.1266 8.92989 43.9165 8.85303Q43.756 8.79666 43.2999 8.73347Q43.2094 8.72663 42.8115 8.66344Q42.3008 8.57291 41.9779 8.15616Q41.6568 7.7394 41.6568 7.20821Q41.6568 6.67702 42.0206 6.27735Q42.4186 5.82985 43.0523 5.74615Q43.686 5.66246 44.2616 5.9699Q44.8389 6.27735 45.0985 6.9281Q45.1053 6.93493 45.1019 6.93835Q45.0985 6.94176 45.0916 6.94859L44.2513 7.27141Q44.2445 7.27824 44.2411 7.27482Q44.2376 7.27141 44.2308 7.26458Q44.0839 6.89394 43.8072 6.72314Q43.5305 6.55063 43.2333 6.59674Q42.9361 6.64115 42.7192 6.87857Q42.5655 7.04766 42.5655 7.25433Q42.5655 7.45929 42.6987 7.62497Q42.8319 7.78894 43.0489 7.8453Q43.1257 7.8658 43.2504 7.88288Q43.3768 7.89996 43.5032 7.91533Q43.9934 7.95632 44.2445 8.04685Q44.7774 8.24327 45.0455 8.62245Q45.3154 8.99992 45.3051 9.45766Q45.2949 9.91541 45.008 10.3288Q44.581 10.9505 43.7509 11.0512Q42.9225 11.1537 42.2119 10.7353Q41.5031 10.3151 41.3904 9.54477Z" fill-rule="nonzero" transform="matrix(1 0 0 1 22.1822 42.8015)" fill="rgb(255, 255, 255)"/>
		<defs>
			<linearGradient id="linearGradient0721290076" gradientTransform="matrix(38.7805 38 -9.5122 154.923 5.97561 -77.4615)" gradientUnits="userSpaceOnUse" x1="0" y1="0.5" x2="1" y2="0.5">
				<stop offset="0" stop-color="rgb(112, 0, 255)"/>
				<stop offset="0.4608815" stop-color="rgb(241, 61, 212)"/>
				<stop offset="1" stop-color="rgb(248, 58, 58)"/>
			</linearGradient>
		</defs>
		<path d="M6.2237 27.2886C9.72488 27.2886 11.8648 25.1269 11.8648 21.9143C11.8648 18.9685 9.99168 17.0954 7.09491 17.0954C6.40339 17.0954 5.75543 17.1444 5.15103 17.2098L5.24359 14.0625L11.0861 14.0625L11.0861 11.389L2.23247 11.389L2.00923 19.8833C3.36505 19.3279 4.59563 19.0393 5.68464 19.0393C7.44884 19.0393 8.69576 20.1556 8.69576 21.7564C8.69576 23.3409 7.58497 24.4789 5.64108 24.4789C4.27982 24.4789 2.89677 24.1686 1.44839 23.5206L1.44839 26.5317C2.924 27.0436 4.50306 27.2886 6.2237 27.2886Z" fill-rule="nonzero" transform="matrix(1 0 0 1 25.6096 13.3608)" fill="url(#linearGradient0721290076)"/>
		<defs>
			<linearGradient id="linearGradient4848529359" gradientTransform="matrix(38.7805 38 -9.5122 154.923 5.97561 -77.4615)" gradientUnits="userSpaceOnUse" x1="0" y1="0.5" x2="1" y2="0.5">
				<stop offset="0" stop-color="rgb(112, 0, 255)"/>
				<stop offset="0.4608815" stop-color="rgb(241, 61, 212)"/>
				<stop offset="1" stop-color="rgb(248, 58, 58)"/>
			</linearGradient>
		</defs>
		<path d="M19.7328 27.2886C23.4572 27.2886 25.3303 24.5933 25.3303 19.1918C25.3303 13.7957 23.4572 11.1004 19.7328 11.1004C16.0084 11.1004 14.1353 13.7957 14.1353 19.1918C14.1353 24.5933 16.0084 27.2886 19.7328 27.2886ZM17.4132 19.1918C17.4132 17.4766 17.5929 16.2079 17.9741 15.3802C18.328 14.5526 18.9106 14.1551 19.7328 14.1551C20.5605 14.1551 21.1376 14.5526 21.5188 15.3802C21.8782 16.2079 22.0524 17.4766 22.0524 19.1918C22.0524 20.9342 21.8782 22.2029 21.5188 23.0306C21.1376 23.8528 20.5605 24.2557 19.7328 24.2557C18.9106 24.2557 18.328 23.8528 17.9741 23.0306C17.5929 22.2029 17.4132 20.9342 17.4132 19.1918Z" fill-rule="nonzero" transform="matrix(1 0 0 1 25.6096 13.3608)" fill="url(#linearGradient4848529359)"/>
		<defs>
			<linearGradient id="linearGradient5308497648" gradientTransform="matrix(38.7805 38 -9.5122 154.923 5.97561 -77.4615)" gradientUnits="userSpaceOnUse" x1="0" y1="0.5" x2="1" y2="0.5">
				<stop offset="0" stop-color="rgb(112, 0, 255)"/>
				<stop offset="0.4608815" stop-color="rgb(241, 61, 212)"/>
				<stop offset="1" stop-color="rgb(248, 58, 58)"/>
			</linearGradient>
		</defs>
		<path d="M38.5781 21.7128L38.5781 18.8814L34.1839 18.8814L34.1839 14.509L31.3525 14.509L31.3525 18.8814L26.9583 18.8814L26.9583 21.7128L31.3525 21.7128L31.3525 26.107L34.1839 26.107L34.1839 21.7128L38.5781 21.7128Z" fill-rule="nonzero" transform="matrix(1 0 0 1 25.6096 13.3608)" fill="url(#linearGradient5308497648)"/>
	</g>
</svg>
