<?xml version="1.0" encoding="utf-8" ?>
<svg xmlns="http://www.w3.org/2000/svg" xmlns:xlink="http://www.w3.org/1999/xlink" width="114.5681" height="32.9277" viewBox="0 0 114.5681 32.9277">
	<g opacity="0.87">
		<rect width="114.56812" height="32.928017" rx="8" ry="8" transform="matrix(1 0 0 1 0 0)" fill="rgb(48, 41, 61)"/>
		<defs>
			<linearGradient id="linearGradient1050188968" gradientTransform="matrix(1.24321e-15 32.928 -20.3032 2.01626e-15 67.4357 -1.03526e-14)" gradientUnits="userSpaceOnUse" x1="0" y1="0.5" x2="1" y2="0.5">
				<stop offset="0" stop-color="rgb(169, 163, 194)" stop-opacity="0.2"/>
				<stop offset="1" stop-color="rgb(169, 163, 194)" stop-opacity="0.046999998"/>
			</linearGradient>
		</defs>
		<rect width="114.56812" height="32.928017" rx="8" ry="8" transform="matrix(1 0 0 1 0 0)" fill="url(#linearGradient1050188968)"/>
		<path d="M-0 8C0 3.58172 3.58172 -0 8 -0L106.568 0C110.986 0 114.568 3.58172 114.568 8L114.568 24.928C114.568 29.3463 110.986 32.928 106.568 32.928L8 32.928C3.58172 32.928 -0 29.3463 -0 24.928L0 8ZM8 0.988003C4.12738 0.988003 0.988003 4.12738 0.988003 8L0.988003 24.928C0.988003 28.8006 4.12738 31.94 8 31.94L106.568 31.94C110.441 31.94 113.58 28.8006 113.58 24.928L113.58 8C113.58 4.12738 110.441 0.988003 106.568 0.988003L8 0.988003Z" fill-rule="nonzero" transform="matrix(1 0 0 1 0 0)" fill="rgb(255, 255, 255)" fill-opacity="0.09"/>
		<path d="M9.85087 3.92068C9.85087 6.09703 8.1059 7.84211 5.92802 7.84211C3.75088 7.84211 2.00516 6.09703 2.00516 3.92068C2.00516 1.74434 3.75088 0 5.92802 0C8.1059 0 9.85087 1.74434 9.85087 3.92068ZM5.92802 14.82C2.71383 14.82 0 14.2976 0 12.2821C0 10.2658 2.73088 9.76192 5.92802 9.76192C9.14295 9.76192 11.856 10.2843 11.856 12.2999C11.856 14.3162 9.12516 14.82 5.92802 14.82Z" fill-rule="evenodd" transform="matrix(1 0 0 1 13.832 9.05398)" fill="rgb(255, 255, 255)"/>
		<defs>
			<linearGradient id="linearGradient3810830031" gradientTransform="matrix(1.53652e-15 27 -25.0932 1.65327e-15 43.0466 -2.83614e-15)" gradientUnits="userSpaceOnUse" x1="0" y1="0.5" x2="1" y2="0.5">
				<stop offset="0" stop-color="rgb(255, 255, 255)"/>
				<stop offset="1" stop-color="rgb(255, 255, 255)" stop-opacity="0.69999999"/>
			</linearGradient>
		</defs>
		<path d="M8.61547 11.7129Q8.65356 11.7129 8.65356 11.751L8.65356 13.1396Q8.65356 15.0088 7.90942 16.5234Q7.16528 18.0381 5.47778 19.2686Q5.44262 19.2949 5.41919 19.2627L4.99731 18.6973Q4.9768 18.6709 5.01782 18.6387Q6.57348 17.5137 7.2268 16.1924Q7.88305 14.8711 7.88305 13.1396L7.88305 11.751Q7.88305 11.7129 7.92114 11.7129L8.61547 11.7129ZM6.64965 8.3584Q6.69067 8.3584 6.69067 8.39648L6.69067 9.76172L11.1174 9.76172Q11.1555 9.76172 11.1555 9.7998L11.1555 11.915Q11.1555 11.9531 11.1174 11.9531L10.4172 11.9531Q10.3791 11.9531 10.3791 11.915L10.3791 10.5234L5.94946 10.5234Q5.91137 10.5234 5.91137 10.4854L5.91137 8.39648Q5.91137 8.3584 5.94946 8.3584L6.64965 8.3584ZM8.61547 13.1396Q8.65356 13.1396 8.65356 13.1777Q8.66235 14.877 9.33618 16.1982Q10.01 17.5166 11.554 18.6387Q11.592 18.6709 11.5745 18.6973L11.1497 19.2627Q11.1262 19.2949 11.0998 19.2686Q9.41235 18.0322 8.65063 16.5322Q7.88891 15.0293 7.88305 13.1895Q7.88305 13.1396 7.92114 13.1396L8.61547 13.1396ZM5.48364 16.1953Q5.52172 16.1953 5.52172 16.2334L5.52172 16.8955Q5.52172 16.9336 5.48364 16.9336L0.605709 16.9336Q0.567623 16.9336 0.567623 16.8955L0.567623 16.2334Q0.567623 16.1953 0.605709 16.1953L5.48364 16.1953ZM3.61157 13.9307Q3.64965 13.9307 3.64965 13.9688L3.64965 19.1455Q3.64965 19.1836 3.61157 19.1836L2.92309 19.1836Q2.88501 19.1836 2.88501 19.1455L2.88501 13.9688Q2.88501 13.9307 2.92309 13.9307L3.61157 13.9307ZM5.33715 9.74707Q5.37524 9.74707 5.37524 9.78516L5.37524 10.4473Q5.37524 10.4854 5.33715 10.4854L0.711178 10.4854Q0.673092 10.4854 0.673092 10.4473L0.673092 9.78516Q0.673092 9.74707 0.711178 9.74707L5.33715 9.74707ZM3.38305 8.52832Q3.427 8.5459 3.40942 8.58691L1.55493 13.5205L5.16137 13.5205Q5.19946 13.5205 5.19946 13.5586L5.19946 14.209Q5.19946 14.2471 5.16137 14.2471L0.591061 14.2471Q0.570553 14.2471 0.561764 14.2383Q0.552975 14.2266 0.564693 14.209L2.73559 8.35254Q2.75317 8.32031 2.78833 8.33203L3.38305 8.52832ZM3.62915 11.5928Q3.66723 11.5928 3.66723 11.6309L3.66723 13.8105Q3.66723 13.8516 3.62915 13.8516L2.99926 13.8516Q2.96118 13.8516 2.96118 13.8105L2.96118 11.6309Q2.96118 11.5928 2.99926 11.5928L3.62915 11.5928Z" fill-rule="nonzero" transform="matrix(1 0 0 1 35.5681 2.96401)" fill="url(#linearGradient3810830031)"/>
		<defs>
			<linearGradient id="linearGradient6173284772" gradientTransform="matrix(1.53652e-15 27 -25.0932 1.65327e-15 43.0466 -2.83614e-15)" gradientUnits="userSpaceOnUse" x1="0" y1="0.5" x2="1" y2="0.5">
				<stop offset="0" stop-color="rgb(255, 255, 255)"/>
				<stop offset="1" stop-color="rgb(255, 255, 255)" stop-opacity="0.69999999"/>
			</linearGradient>
		</defs>
		<path d="M20.3077 8.36719Q20.3458 8.36719 20.3458 8.40527L20.3458 19.1807Q20.3458 19.2188 20.3077 19.2188L19.6104 19.2188Q19.5724 19.2188 19.5724 19.1807L19.5724 8.40527Q19.5724 8.36719 19.6104 8.36719L20.3077 8.36719ZM23.6827 15.0615Q23.7208 15.0615 23.7208 15.0996L23.7208 15.7881Q23.7208 15.8262 23.6827 15.8262L16.0099 15.8262Q15.9718 15.8262 15.9718 15.7881L15.9718 15.0996Q15.9718 15.0615 16.0099 15.0615L23.6827 15.0615ZM17.1759 9.2373Q17.214 9.2373 17.214 9.27539L17.214 10.6523L23.3634 10.6523Q23.4015 10.6523 23.4015 10.6904L23.4015 11.3672Q23.4015 11.4053 23.3634 11.4053L16.5021 11.4053Q16.464 11.4053 16.464 11.3672L16.464 9.27539Q16.464 9.2373 16.5021 9.2373L17.1759 9.2373ZM14.9552 11.9795Q14.9933 11.9795 14.9933 12.0176L14.9933 19.1865Q14.9933 19.2246 14.9552 19.2246L14.2579 19.2246Q14.2198 19.2246 14.2198 19.1865L14.2198 12.0176Q14.2198 11.9795 14.2579 11.9795L14.9552 11.9795ZM15.9659 8.54883Q15.9835 8.56055 15.9923 8.57227Q16.004 8.58105 15.9923 8.59863Q14.8146 11.9443 13.1241 14.8564Q13.1124 14.874 13.1007 14.8799Q13.089 14.8828 13.0714 14.8711L12.5968 14.2617Q12.5763 14.25 12.5733 14.2354Q12.5704 14.2178 12.5821 14.1973Q13.3937 12.791 14.0646 11.335Q14.7354 9.87891 15.2716 8.36426Q15.2833 8.34375 15.2921 8.33496Q15.3038 8.32617 15.3214 8.33789L15.9659 8.54883Z" fill-rule="nonzero" transform="matrix(1 0 0 1 35.5681 2.96401)" fill="url(#linearGradient6173284772)"/>
		<defs>
			<linearGradient id="linearGradient9032659652" gradientTransform="matrix(1.53652e-15 27 -25.0932 1.65327e-15 43.0466 -2.83614e-15)" gradientUnits="userSpaceOnUse" x1="0" y1="0.5" x2="1" y2="0.5">
				<stop offset="0" stop-color="rgb(255, 255, 255)"/>
				<stop offset="1" stop-color="rgb(255, 255, 255)" stop-opacity="0.69999999"/>
			</linearGradient>
		</defs>
		<path d="M35.3398 9.18457Q35.3779 9.18457 35.3779 9.22266L35.3779 9.9082Q35.3779 9.94922 35.3398 9.94922L25.6601 9.94922Q25.622 9.94922 25.622 9.9082L25.622 9.22266Q25.622 9.18457 25.6601 9.18457L35.3398 9.18457ZM35.8437 17.7627Q35.8818 17.7627 35.8818 17.8008L35.8818 18.4863Q35.8818 18.5244 35.8437 18.5244L25.1562 18.5244Q25.1181 18.5244 25.1181 18.4863L25.1181 17.8008Q25.1181 17.7627 25.1562 17.7627L35.8437 17.7627ZM30.8574 9.56543Q30.8955 9.56543 30.8955 9.60352L30.8955 18.1055Q30.8955 18.1436 30.8574 18.1436L30.1425 18.1436Q30.1044 18.1436 30.1044 18.1055L30.1044 9.60352Q30.1044 9.56543 30.1425 9.56543L30.8574 9.56543Z" fill-rule="nonzero" transform="matrix(1 0 0 1 35.5681 2.96401)" fill="url(#linearGradient9032659652)"/>
		<defs>
			<linearGradient id="linearGradient3885454146" gradientTransform="matrix(1.53652e-15 27 -25.0932 1.65327e-15 43.0466 -2.83614e-15)" gradientUnits="userSpaceOnUse" x1="0" y1="0.5" x2="1" y2="0.5">
				<stop offset="0" stop-color="rgb(255, 255, 255)"/>
				<stop offset="1" stop-color="rgb(255, 255, 255)" stop-opacity="0.69999999"/>
			</linearGradient>
		</defs>
		<path d="M42.0047 8.62207Q42.0047 8.60449 42.0135 8.5957Q42.0252 8.58398 42.0428 8.58398L47.618 8.58398Q47.6385 8.58398 47.6473 8.5957Q47.659 8.60449 47.659 8.62207L47.659 12.2373Q47.659 12.2578 47.6473 12.2666Q47.6385 12.2754 47.618 12.2754L42.0428 12.2754Q42.0252 12.2754 42.0135 12.2666Q42.0047 12.2578 42.0047 12.2373L42.0047 8.62207ZM46.9031 9.31348L42.7606 9.31348L42.7606 11.5459L46.9031 11.5459L46.9031 9.31348ZM38.366 13.2158Q38.4041 13.2158 38.4041 13.2539L38.4041 14.6777Q38.4041 15.665 38.3045 16.6318Q38.2078 17.5957 37.9647 18.5156Q37.9529 18.5596 37.9149 18.5508L37.3465 18.4131Q37.3084 18.4043 37.3172 18.3662Q37.5545 17.4902 37.6453 16.5645Q37.7361 15.6387 37.7361 14.6777L37.7361 13.2539Q37.7361 13.2158 37.7742 13.2158L38.366 13.2158ZM40.0975 9.11426Q40.1356 9.11426 40.1356 9.15234L40.1356 19.166Q40.1356 19.2041 40.0975 19.2041L39.4266 19.2041Q39.3885 19.2041 39.3885 19.166L39.3885 9.15234Q39.3885 9.11426 39.4266 9.11426L40.0975 9.11426ZM41.5565 14.748Q41.5887 14.7656 41.5682 14.7979L41.1463 15.3223Q41.1287 15.3516 41.0965 15.334L39.5613 14.1709Q39.5291 14.1562 39.5467 14.1211L39.9715 13.5996Q39.9861 13.5674 40.0213 13.585L41.5565 14.748ZM48.1717 18.3047Q48.2098 18.3047 48.2098 18.3428L48.2098 18.9873Q48.2098 19.0254 48.1717 19.0254L41.492 19.0254Q41.4539 19.0254 41.4539 18.9873L41.4539 18.3428Q41.4539 18.3047 41.492 18.3047L48.1717 18.3047ZM41.3719 11.5811Q41.41 11.5811 41.41 11.6191L41.41 12.2842Q41.41 12.3252 41.3719 12.3252L37.5193 12.3252Q37.4813 12.3252 37.4813 12.2842L37.4813 11.6191Q37.4813 11.5811 37.5193 11.5811L41.3719 11.5811ZM47.6912 15.9287Q47.7293 15.9287 47.7293 15.9668L47.7293 16.6113Q47.7293 16.6494 47.6912 16.6494L41.9842 16.6494Q41.9461 16.6494 41.9461 16.6113L41.9461 15.9668Q41.9461 15.9287 41.9842 15.9287L47.6912 15.9287ZM45.1834 13.8838Q45.2215 13.8838 45.2215 13.9219L45.2156 18.6299Q45.2156 18.668 45.1775 18.668L44.492 18.668Q44.4539 18.668 44.4539 18.6299L44.4598 13.9219Q44.4598 13.8838 44.4979 13.8838L45.1834 13.8838ZM41.2899 8.74219Q41.3279 8.74219 41.3279 8.78027L41.3279 9.44531Q41.3279 9.48633 41.2899 9.48633L37.6746 9.48633Q37.6365 9.48633 37.6365 9.44531L37.6365 8.78027Q37.6365 8.74219 37.6746 8.74219L41.2899 8.74219ZM47.9373 13.5205Q47.9754 13.5205 47.9754 13.5586L47.9754 14.2031Q47.9754 14.2412 47.9373 14.2412L41.7381 14.2412Q41.7 14.2412 41.7 14.2031L41.7 13.5586Q41.7 13.5205 41.7381 13.5205L47.9373 13.5205Z" fill-rule="nonzero" transform="matrix(1 0 0 1 35.5681 2.96401)" fill="url(#linearGradient3885454146)"/>
		<defs>
			<linearGradient id="linearGradient1198131093" gradientTransform="matrix(1.53652e-15 27 -25.0932 1.65327e-15 43.0466 -2.83614e-15)" gradientUnits="userSpaceOnUse" x1="0" y1="0.5" x2="1" y2="0.5">
				<stop offset="0" stop-color="rgb(255, 255, 255)"/>
				<stop offset="1" stop-color="rgb(255, 255, 255)" stop-opacity="0.69999999"/>
			</linearGradient>
		</defs>
		<path d="M52.8092 8.3877Q52.8473 8.3877 52.8473 8.42578L52.8473 13.667Q52.8473 15.498 52.3229 16.7988Q51.8014 18.0967 50.5065 19.2334Q50.4801 19.2598 50.4479 19.2275L50.0348 18.7148Q50.0231 18.7031 50.026 18.6855Q50.029 18.6709 50.0407 18.6562Q50.8434 17.959 51.2917 17.2324Q51.7428 16.5029 51.9274 15.6562Q52.112 14.8066 52.112 13.667L52.112 8.42578Q52.112 8.3877 52.1501 8.3877L52.8092 8.3877ZM50.5885 9.27246Q50.6266 9.27246 50.6266 9.31055L50.6266 16.1426Q50.6266 16.1807 50.5885 16.1807L49.9587 16.1807Q49.9206 16.1807 49.9206 16.1426L49.9206 9.31055Q49.9206 9.27246 49.9587 9.27246L50.5885 9.27246ZM60.3122 8.83301Q60.3503 8.83301 60.3503 8.87109L60.3503 9.57715Q60.3503 9.61523 60.3122 9.61523L53.82 9.61523Q53.7819 9.61523 53.7819 9.57715L53.7819 8.87109Q53.7819 8.83301 53.82 8.83301L60.3122 8.83301ZM57.403 9.22266Q57.4411 9.22266 57.4411 9.26074L57.4411 19.166Q57.4411 19.2041 57.403 19.2041L56.7438 19.2041Q56.7057 19.2041 56.7057 19.166L56.7057 9.26074Q56.7057 9.22266 56.7438 9.22266L57.403 9.22266ZM60.0426 11.4053Q60.0631 11.4053 60.0719 11.4141Q60.0807 11.4199 60.0807 11.4434L60.0807 17.7422Q60.0807 17.7627 60.0719 17.7715Q60.0631 17.7803 60.0426 17.7803L58.4196 17.7803Q58.3815 17.7803 58.3815 17.7422L58.3815 17.0566Q58.3815 17.0186 58.4196 17.0186L59.3454 17.0186L59.3454 12.167L54.7868 12.167L54.7868 17.7979Q54.7868 17.8359 54.7487 17.8359L54.0924 17.8359Q54.0544 17.8359 54.0544 17.7979L54.0544 11.4434Q54.0544 11.4229 54.0602 11.4141Q54.069 11.4053 54.0924 11.4053L60.0426 11.4053Z" fill-rule="nonzero" transform="matrix(1 0 0 1 35.5681 2.96401)" fill="url(#linearGradient1198131093)"/>
	</g>
</svg>
