<?xml version="1.0" encoding="utf-8" ?>
<svg xmlns="http://www.w3.org/2000/svg" xmlns:xlink="http://www.w3.org/1999/xlink" width="97.4893" height="72.1841" viewBox="0 0 97.4893 72.1841">
	<defs>
		<linearGradient id="linearGradient8462765891" gradientTransform="matrix(0 71.8838 -97.1888 0 97.1888 0)" gradientUnits="userSpaceOnUse" x1="0" y1="0.5" x2="1" y2="0.5">
			<stop offset="0" stop-color="rgb(40, 29, 59)"/>
			<stop offset="1" stop-color="rgb(68, 63, 76)"/>
		</linearGradient>
	</defs>
	<rect width="97.188805" height="71.88382" rx="6" ry="6" transform="matrix(1 0 0 1 0.150391 0.149902)" fill="url(#linearGradient8462765891)"/>
	<rect width="97.188805" height="71.88382" rx="6" ry="6" stroke-width="0.30000001" transform="matrix(1 0 0 1 0.150391 0.149902)" stroke="rgb(255, 255, 255)" fill="transparent"/>
	<path d="M0 4.48365C0 4.4783 0.00133769 4.47429 0.00401306 4.47161C0.00668843 4.46894 0.0107015 4.4676 0.0160522 4.4676L1.07753 4.31912C1.08288 4.31912 1.08689 4.32045 1.08957 4.32313C1.09224 4.3258 1.09358 4.32982 1.09358 4.33517C1.14308 4.6589 1.31029 4.90838 1.59522 5.08362C1.88016 5.25886 2.19251 5.32307 2.53229 5.27625C2.87207 5.22943 3.13493 5.06957 3.32087 4.79668C3.41987 4.64819 3.47204 4.49904 3.47739 4.34921C3.48274 4.19805 3.43993 4.06227 3.34897 3.94188C3.25934 3.82149 3.13226 3.73119 2.96772 3.67099C2.84197 3.62685 2.60051 3.58003 2.24334 3.53053C2.17245 3.52518 1.98115 3.49776 1.66947 3.44826C1.26949 3.37736 0.943087 3.17871 0.69026 2.85231C0.438769 2.52591 0.313024 2.15469 0.313024 1.73866C0.313024 1.32263 0.455491 0.958107 0.740423 0.645082C1.05211 0.294601 1.4561 0.0865865 1.95239 0.0210385C2.44869 -0.0445097 2.92224 0.0431105 3.37304 0.283899C3.82519 0.524688 4.15293 0.899917 4.35627 1.40959C4.36162 1.41494 4.36295 1.41895 4.36028 1.42163L4.34824 1.43366L3.361 1.81291C3.35565 1.81826 3.35164 1.8196 3.34897 1.81692L3.33693 1.80488C3.22188 1.5146 3.05601 1.30257 2.8393 1.1688C2.62259 1.03369 2.39785 0.984193 2.16509 1.02031C1.93233 1.05509 1.731 1.16545 1.56111 1.3514C1.44072 1.48383 1.38052 1.63098 1.38052 1.79284C1.38052 1.95337 1.43269 2.09851 1.53703 2.22827C1.64137 2.35669 1.77849 2.44297 1.94838 2.48712C2.00858 2.50317 2.0875 2.51788 2.18515 2.53126C2.28415 2.54464 2.38314 2.55735 2.48213 2.56938C2.86605 2.60149 3.15634 2.65299 3.35298 2.72389C3.77035 2.87773 4.08404 3.10313 4.29406 3.40011C4.50542 3.69574 4.60709 4.02281 4.59906 4.38132C4.59103 4.73983 4.47465 5.08094 4.24992 5.40467C3.91549 5.8916 3.42321 6.17453 2.77308 6.25345C2.12429 6.33371 1.52165 6.20997 0.965162 5.88223C0.410009 5.55316 0.0882886 5.08696 0 4.48365Z" fill-rule="nonzero" transform="matrix(1 0 0 1 61.627 49.4604)" fill="rgb(245, 245, 245)"/>
	<path d="M2.72894 6.07389C2.72894 6.07924 2.7276 6.08326 2.72492 6.08593C2.72225 6.08861 2.71824 6.08995 2.71288 6.08995L1.64539 6.08995C1.64004 6.08995 1.63536 6.08861 1.63134 6.08593C1.62867 6.08326 1.62733 6.07924 1.62733 6.07389L1.62733 0.493617L2.72894 0.493617L2.72894 6.07389ZM4.33219 0C4.33754 0 4.34155 0.00133769 4.34423 0.00401306C4.3469 0.00668875 4.34824 0.010702 4.34824 0.0160527L4.34824 1.05144C4.34824 1.05679 4.3469 1.06081 4.34423 1.06348C4.34155 1.06616 4.33754 1.0675 4.33219 1.0675L0.0180607 1.0675C0.0127087 1.0675 0.00802612 1.06616 0.00401306 1.06348C0.00133769 1.06081 0 1.05679 0 1.05144L0 0.0160527C0 0.010702 0.00133769 0.00668875 0.00401306 0.00401306C0.00802612 0.00133769 0.0127087 0 0.0180607 0L4.33219 0Z" fill-rule="nonzero" transform="matrix(1 0 0 1 56.8926 49.564)" fill="rgb(245, 245, 245)"/>
	<path d="M1.10161 6.07389C1.10161 6.07924 1.10027 6.08326 1.09759 6.08593C1.09492 6.08861 1.0909 6.08995 1.08555 6.08995L0.0160522 6.08995C0.0107015 6.08995 0.00668844 6.08861 0.00401306 6.08593C0.00133769 6.08326 0 6.07924 0 6.07389L0 0.0160527C0 0.010702 0.00133769 0.00668875 0.00401306 0.00401306C0.00668844 0.00133769 0.0107015 0 0.0160522 0L1.10161 0L1.10161 6.07389ZM0.559834 2.64667L2.03868 2.64667C2.22462 2.64667 2.38314 2.61122 2.51423 2.54032C2.64667 2.46808 2.74566 2.37177 2.81121 2.25137C2.87675 2.13098 2.90953 1.99654 2.90953 1.84805C2.90953 1.7009 2.87675 1.56847 2.81121 1.45075C2.74566 1.33303 2.64667 1.24006 2.51423 1.17184C2.38314 1.10228 2.22462 1.0675 2.03868 1.0675L0.740423 1.0675L0.740423 0L2.03868 0C2.4119 0 2.749 0.0889581 3.04999 0.266874C3.35097 0.44479 3.58641 0.676215 3.7563 0.961148C3.92619 1.24608 4.01114 1.54172 4.01114 1.84805C4.01114 2.15038 3.92619 2.44534 3.7563 2.73295C3.58641 3.02056 3.35097 3.256 3.04999 3.43926C2.749 3.62253 2.4119 3.71416 2.03868 3.71416L0.559834 3.71416L0.559834 2.64667ZM2.66272 3.14831L4.34021 6.07389C4.34556 6.07924 4.34556 6.08326 4.34021 6.08593C4.33486 6.08861 4.32951 6.08995 4.32416 6.08995L3.09815 6.08995L3.08009 6.08995C3.07607 6.08995 3.07407 6.08727 3.07407 6.08192L1.56111 3.14831L2.66272 3.14831Z" fill-rule="nonzero" transform="matrix(1 0 0 1 52.1504 49.564)" fill="rgb(245, 245, 245)"/>
	<path d="M0.0160522 6.08995C0.0107015 6.08995 0.00668844 6.08861 0.00401306 6.08593C0.00133769 6.08326 0 6.07924 0 6.07389L0 0.0160527C0 0.010702 0.00133769 0.00668875 0.00401306 0.00401306C0.00668844 0.00133769 0.0107015 0 0.0160522 0L1.10161 0L1.10161 6.08995L0.0160522 6.08995ZM3.69811 0C3.70346 0 3.70747 0.00133769 3.71015 0.00401306C3.71416 0.00668875 3.71617 0.010702 3.71617 0.0160527L3.71617 1.05144C3.71617 1.05679 3.71416 1.06081 3.71015 1.06348C3.70747 1.06616 3.70346 1.0675 3.69811 1.0675L0.559834 1.0675L0.559834 0L3.69811 0ZM3.69811 5.02245C3.70346 5.02245 3.70747 5.02379 3.71015 5.02646C3.71416 5.02914 3.71617 5.03315 3.71617 5.0385L3.71617 6.07389C3.71617 6.07924 3.71416 6.08326 3.71015 6.08593C3.70747 6.08861 3.70346 6.08995 3.69811 6.08995L0.559834 6.08995L0.559834 5.02245L3.69811 5.02245ZM3.42722 2.54835C3.43258 2.54835 3.43659 2.54968 3.43926 2.55236C3.44194 2.55503 3.44328 2.55905 3.44328 2.5644L3.44328 3.51752C3.44328 3.52287 3.44194 3.52688 3.43926 3.52956C3.43659 3.53223 3.43258 3.53357 3.42722 3.53357L0.559834 3.53357L0.559834 2.54835L3.42722 2.54835Z" fill-rule="nonzero" transform="matrix(1 0 0 1 47.3838 49.564)" fill="rgb(245, 245, 245)"/>
	<path d="M1.10161 6.07389C1.10161 6.07924 1.10027 6.08326 1.0976 6.08593C1.09492 6.08861 1.09091 6.08995 1.08556 6.08995L0.0160532 6.08995C0.0107018 6.08995 0.00668844 6.08861 0.00401306 6.08593C0.00133769 6.08326 0 6.07924 0 6.07389L0 0.0160527C0 0.010702 0.00133769 0.00668875 0.00401306 0.00401306C0.00668844 0.00133769 0.0107018 0 0.0160532 0L1.10161 0L1.10161 6.07389ZM0.559834 2.64667L2.03868 2.64667C2.22462 2.64667 2.38314 2.61122 2.51423 2.54032C2.64667 2.46808 2.74566 2.37177 2.81121 2.25137C2.87676 2.13098 2.90953 1.99654 2.90953 1.84805C2.90953 1.7009 2.87676 1.56847 2.81121 1.45075C2.74566 1.33303 2.64667 1.24006 2.51423 1.17184C2.38314 1.10228 2.22462 1.0675 2.03868 1.0675L0.740425 1.0675L0.740425 0L2.03868 0C2.4119 0 2.749 0.0889581 3.04999 0.266874C3.35097 0.44479 3.58641 0.676215 3.7563 0.961148C3.92619 1.24608 4.01114 1.54172 4.01114 1.84805C4.01114 2.15038 3.92619 2.44534 3.7563 2.73295C3.58641 3.02056 3.35097 3.256 3.04999 3.43926C2.749 3.62253 2.4119 3.71416 2.03868 3.71416L0.559834 3.71416L0.559834 2.64667Z" fill-rule="nonzero" transform="matrix(1 0 0 1 42.4277 49.564)" fill="rgb(245, 245, 245)"/>
	<path d="M5.75284 6.07389L5.75284 6.08593C5.75284 6.08861 5.7515 6.08995 5.74883 6.08995L5.74481 6.08995L4.45459 6.08995L4.43653 6.08995C4.43118 6.08995 4.4285 6.08727 4.4285 6.08192L0.138453 0.0160527L0.138453 0.00401306C0.138453 0.00133769 0.139791 0 0.142467 0L0.14648 0L1.43671 0L1.45476 0C1.46012 0 1.46279 0.00267553 1.46279 0.0080266L5.75284 6.07389ZM1.32233 6.08192C1.32233 6.08727 1.31966 6.08995 1.3143 6.08995L1.29825 6.08995L0.00802612 6.08995L0.00401306 6.08995C0.00133769 6.08995 0 6.08861 0 6.08593L0 6.07389L4.29005 0.0080266C4.29005 0.00267553 4.29273 0 4.29808 0L4.31413 0L5.60436 0L5.60837 0C5.61104 0 5.61238 0.00133769 5.61238 0.00401306L5.61238 0.0160527L1.32233 6.08192Z" fill-rule="nonzero" transform="matrix(1 0 0 1 36.0928 49.564)" fill="rgb(245, 245, 245)"/>
	<path d="M0.0160525 6.08995C0.0107017 6.08995 0.00668859 6.08861 0.00401306 6.08593C0.00133769 6.08326 0 6.07924 0 6.07389L0 0.0160527C0 0.010702 0.00133769 0.00668875 0.00401306 0.00401306C0.00668859 0.00133769 0.0107017 0 0.0160525 0L1.10161 0L1.10161 6.08995L0.0160525 6.08995ZM3.69811 0C3.70346 0 3.70748 0.00133769 3.71015 0.00401306C3.71416 0.00668875 3.71617 0.010702 3.71617 0.0160527L3.71617 1.05144C3.71617 1.05679 3.71416 1.06081 3.71015 1.06348C3.70748 1.06616 3.70346 1.0675 3.69811 1.0675L0.559833 1.0675L0.559833 0L3.69811 0ZM3.69811 5.02245C3.70346 5.02245 3.70748 5.02379 3.71015 5.02646C3.71416 5.02914 3.71617 5.03315 3.71617 5.0385L3.71617 6.07389C3.71617 6.07924 3.71416 6.08326 3.71015 6.08593C3.70748 6.08861 3.70346 6.08995 3.69811 6.08995L0.559833 6.08995L0.559833 5.02245L3.69811 5.02245ZM3.42722 2.54835C3.43258 2.54835 3.43659 2.54968 3.43926 2.55236C3.44194 2.55503 3.44328 2.55905 3.44328 2.5644L3.44328 3.51752C3.44328 3.52287 3.44194 3.52688 3.43926 3.52956C3.43659 3.53223 3.43258 3.53357 3.42722 3.53357L0.559833 3.53357L0.559833 2.54835L3.42722 2.54835Z" fill-rule="nonzero" transform="matrix(1 0 0 1 31.9736 49.564)" fill="rgb(245, 245, 245)"/>
	<defs>
		<linearGradient id="linearGradient2651374584" gradientTransform="matrix(11.6533 11.9972 -2.85836 48.9118 1.79564 -24.4559)" gradientUnits="userSpaceOnUse" x1="0" y1="0.5" x2="1" y2="0.5">
			<stop offset="0" stop-color="rgb(112, 0, 255)"/>
			<stop offset="0.4608815" stop-color="rgb(241, 61, 212)"/>
			<stop offset="1" stop-color="rgb(248, 58, 58)"/>
		</linearGradient>
	</defs>
	<path d="M12.0198 7.45181L12.0198 4.52291L7.47434 4.52291L7.47434 0L4.54544 0L4.54544 4.52291L0 4.52291L0 7.45181L4.54544 7.45181L4.54544 11.9972L7.47434 11.9972L7.47434 7.45181L12.0198 7.45181Z" fill-rule="nonzero" transform="matrix(1 0 0 1 76.9531 25.9497)" fill="url(#linearGradient2651374584)"/>
	<defs>
		<linearGradient id="linearGradient2986445389" gradientTransform="matrix(11.2274 16.7455 -2.75389 68.2699 1.73001 -34.135)" gradientUnits="userSpaceOnUse" x1="0" y1="0.5" x2="1" y2="0.5">
			<stop offset="0" stop-color="rgb(112, 0, 255)"/>
			<stop offset="0.4608815" stop-color="rgb(241, 61, 212)"/>
			<stop offset="1" stop-color="rgb(248, 58, 58)"/>
		</linearGradient>
	</defs>
	<path d="M5.79022 16.7455C9.64286 16.7455 11.5804 13.9574 11.5804 8.36991C11.5804 2.78809 9.64286 0 5.79022 0C1.93758 0 0 2.78809 0 8.36991C0 13.9574 1.93758 16.7455 5.79022 16.7455ZM3.39077 8.36991C3.39077 6.59567 3.57664 5.2833 3.97092 4.42715C4.33703 3.57101 4.93971 3.15984 5.79022 3.15984C6.64636 3.15984 7.24341 3.57101 7.63768 4.42715C8.00943 5.2833 8.18967 6.59567 8.18967 8.36991C8.18967 10.1723 8.00943 11.4847 7.63768 12.3408C7.24341 13.1913 6.64636 13.6081 5.79022 13.6081C4.93971 13.6081 4.33703 13.1913 3.97092 12.3408C3.57664 11.4847 3.39077 10.1723 3.39077 8.36991Z" fill-rule="nonzero" transform="matrix(1 0 0 1 63.6904 22.4238)" fill="url(#linearGradient2986445389)"/>
	<defs>
		<linearGradient id="linearGradient5518602774" gradientTransform="matrix(11.2274 16.7455 -2.75389 68.2699 1.73001 -34.135)" gradientUnits="userSpaceOnUse" x1="0" y1="0.5" x2="1" y2="0.5">
			<stop offset="0" stop-color="rgb(112, 0, 255)"/>
			<stop offset="0.4608815" stop-color="rgb(241, 61, 212)"/>
			<stop offset="1" stop-color="rgb(248, 58, 58)"/>
		</linearGradient>
	</defs>
	<path d="M5.79022 16.7455C9.64286 16.7455 11.5804 13.9574 11.5804 8.36991C11.5804 2.78809 9.64286 0 5.79022 0C1.93758 0 0 2.78809 0 8.36991C0 13.9574 1.93758 16.7455 5.79022 16.7455ZM3.39077 8.36991C3.39077 6.59567 3.57664 5.2833 3.97092 4.42715C4.33703 3.57101 4.93971 3.15984 5.79022 3.15984C6.64636 3.15984 7.24341 3.57101 7.63768 4.42715C8.00943 5.2833 8.18967 6.59567 8.18967 8.36991C8.18967 10.1723 8.00943 11.4847 7.63768 12.3408C7.24341 13.1913 6.64636 13.6081 5.79022 13.6081C4.93971 13.6081 4.33703 13.1913 3.97092 12.3408C3.57664 11.4847 3.39077 10.1723 3.39077 8.36991Z" fill-rule="nonzero" transform="matrix(1 0 0 1 50.083 22.4238)" fill="url(#linearGradient5518602774)"/>
	<defs>
		<linearGradient id="linearGradient7404088205" gradientTransform="matrix(11.2274 16.7455 -2.75389 68.2699 1.73001 -34.135)" gradientUnits="userSpaceOnUse" x1="0" y1="0.5" x2="1" y2="0.5">
			<stop offset="0" stop-color="rgb(112, 0, 255)"/>
			<stop offset="0.4608815" stop-color="rgb(241, 61, 212)"/>
			<stop offset="1" stop-color="rgb(248, 58, 58)"/>
		</linearGradient>
	</defs>
	<path d="M5.79022 16.7455C9.64286 16.7455 11.5804 13.9574 11.5804 8.36991C11.5804 2.78809 9.64286 0 5.79022 0C1.93758 0 0 2.78809 0 8.36991C0 13.9574 1.93758 16.7455 5.79022 16.7455ZM3.39077 8.36991C3.39077 6.59567 3.57664 5.2833 3.97092 4.42715C4.33703 3.57101 4.93971 3.15984 5.79022 3.15984C6.64636 3.15984 7.24341 3.57101 7.63768 4.42715C8.00943 5.2833 8.18967 6.59567 8.18967 8.36991C8.18967 10.1723 8.00943 11.4847 7.63768 12.3408C7.24341 13.1913 6.64636 13.6081 5.79022 13.6081C4.93971 13.6081 4.33703 13.1913 3.97092 12.3408C3.57664 11.4847 3.39077 10.1723 3.39077 8.36991Z" fill-rule="nonzero" transform="matrix(1 0 0 1 36.4766 22.4238)" fill="url(#linearGradient7404088205)"/>
	<defs>
		<linearGradient id="linearGradient3586798073" gradientTransform="matrix(11.2274 16.7455 -2.75389 68.2699 1.73 -34.135)" gradientUnits="userSpaceOnUse" x1="0" y1="0.5" x2="1" y2="0.5">
			<stop offset="0" stop-color="rgb(112, 0, 255)"/>
			<stop offset="0.4608815" stop-color="rgb(241, 61, 212)"/>
			<stop offset="1" stop-color="rgb(248, 58, 58)"/>
		</linearGradient>
	</defs>
	<path d="M5.79022 16.7455C9.64286 16.7455 11.5804 13.9574 11.5804 8.36991C11.5804 2.78809 9.64286 0 5.79022 0C1.93758 0 0 2.78809 0 8.36991C0 13.9574 1.93758 16.7455 5.79022 16.7455ZM3.39077 8.36991C3.39077 6.59567 3.57664 5.2833 3.97092 4.42715C4.33703 3.57101 4.93971 3.15984 5.79022 3.15984C6.64636 3.15984 7.24341 3.57101 7.63768 4.42715C8.00943 5.2833 8.18967 6.59567 8.18967 8.36991C8.18967 10.1723 8.00943 11.4847 7.63768 12.3408C7.24341 13.1913 6.64636 13.6081 5.79022 13.6081C4.93971 13.6081 4.33703 13.1913 3.97092 12.3408C3.57664 11.4847 3.39077 10.1723 3.39077 8.36991Z" fill-rule="nonzero" transform="matrix(1 0 0 1 22.8701 22.4238)" fill="url(#linearGradient3586798073)"/>
	<defs>
		<linearGradient id="linearGradient9621035022" gradientTransform="matrix(10.4465 16.4469 -2.56235 67.0529 1.60968 -33.5264)" gradientUnits="userSpaceOnUse" x1="0" y1="0.5" x2="1" y2="0.5">
			<stop offset="0" stop-color="rgb(112, 0, 255)"/>
			<stop offset="0.4608815" stop-color="rgb(241, 61, 212)"/>
			<stop offset="1" stop-color="rgb(248, 58, 58)"/>
		</linearGradient>
	</defs>
	<path d="M4.93971 16.4469C8.56141 16.4469 10.775 14.2108 10.775 10.8876C10.775 7.84045 8.83741 5.90287 5.84091 5.90287C5.12558 5.90287 4.45532 5.95356 3.83011 6.02115L3.92586 2.76556L9.96954 2.76556L9.96954 0L0.811081 0L0.580148 8.78671C1.98264 8.2122 3.25559 7.91368 4.38209 7.91368C6.20703 7.91368 7.49687 9.06834 7.49687 10.7243C7.49687 12.3634 6.34784 13.5406 4.33703 13.5406C2.92891 13.5406 1.49825 13.2195 0 12.5492L0 15.664C1.52641 16.1935 3.15984 16.4469 4.93971 16.4469Z" fill-rule="nonzero" transform="matrix(1 0 0 1 9.74707 22.7222)" fill="url(#linearGradient9621035022)"/>
</svg>
