<svg width="500" height="380" viewBox="0 0 500 380" fill="none" xmlns="http://www.w3.org/2000/svg">
<g clip-path="url(#clip0_200_5688)">
<g opacity="0.17" filter="url(#filter0_b_200_5688)">
<rect x="138" y="241" width="84" height="84" rx="6.23077" fill="white" fill-opacity="0.05"/>
<rect x="138" y="241" width="84" height="84" rx="6.23077" fill="url(#paint0_linear_200_5688)" fill-opacity="0.95"/>
<rect x="138.389" y="241.389" width="83.2212" height="83.2212" rx="5.84135" stroke="white" stroke-opacity="0.09" stroke-width="0.778846"/>
</g>
<g filter="url(#filter1_bd_200_5688)">
<rect x="70" y="49" width="64.8" height="64.8" rx="6.23077" fill="white" fill-opacity="0.05" shape-rendering="crispEdges"/>
<rect x="70" y="49" width="64.8" height="64.8" rx="6.23077" fill="url(#paint1_linear_200_5688)" fill-opacity="0.95" shape-rendering="crispEdges"/>
<rect x="70.3894" y="49.3894" width="64.0212" height="64.0212" rx="5.84135" stroke="white" stroke-opacity="0.09" stroke-width="0.778846" shape-rendering="crispEdges"/>
</g>
<path d="M91.552 98.22C91.096 98.7 90.58 99.18 90.028 99.66L89.764 98.76C91.372 97.38 92.452 96.036 92.992 94.716H90.04V93.888H91.912C91.708 93.348 91.468 92.832 91.192 92.328L92.02 92.088C92.308 92.688 92.536 93.252 92.704 93.756L92.356 93.888H93.856V94.62C93.544 95.496 93.064 96.36 92.416 97.212C93.076 97.62 93.676 98.088 94.204 98.604L93.712 99.348C93.28 98.868 92.836 98.46 92.404 98.124V103.2H91.552V98.22ZM99.844 92.676V99.312H98.968V93.504H95.596V99.312H94.744V92.676H99.844ZM99.592 103.008H98.44C97.78 103.008 97.456 102.66 97.456 101.964V99.288H98.296V101.784C98.296 102.072 98.428 102.216 98.692 102.216H99.436C99.616 102.216 99.736 102.144 99.808 102.024C99.904 101.868 99.976 101.412 100.012 100.668L100.816 100.92C100.744 101.904 100.612 102.516 100.42 102.732C100.24 102.912 99.964 103.008 99.592 103.008ZM96.844 94.356H97.684V96.648C97.636 98.448 97.324 99.876 96.748 100.944C96.172 101.94 95.248 102.72 93.952 103.272L93.484 102.516C94.744 101.964 95.62 101.244 96.112 100.332C96.568 99.396 96.82 98.16 96.844 96.648V94.356ZM104.716 92.196H105.556V93.612H107.188V94.428H105.556V95.82H107.332V96.66H102.268V95.82H102.964V93.168H103.792V95.82H104.716V92.196ZM106.696 97.668L107.452 97.836C106.924 100.512 105.388 102.276 102.844 103.116L102.352 102.336C104.764 101.592 106.216 100.032 106.696 97.668ZM103.264 97.716L104.02 98.016C103.732 99.144 103.372 100.008 102.916 100.608L102.28 100.056C102.712 99.468 103.048 98.688 103.264 97.716ZM104.692 97.128H105.52V100.26H104.692V97.128ZM107.524 92.676H113.164V93.492H110.764C110.728 93.948 110.68 94.38 110.62 94.812H112.732V100.512H111.892V95.616H108.784V100.512H107.956V94.812H109.72C109.792 94.38 109.84 93.948 109.876 93.492H107.524V92.676ZM111.22 100.572C112.036 101.256 112.732 101.928 113.296 102.6L112.66 103.236C112.168 102.576 111.496 101.868 110.644 101.124L111.22 100.572ZM109.888 96.336H110.728V98.46C110.704 99.744 110.428 100.764 109.924 101.532C109.432 102.24 108.628 102.792 107.5 103.188L107.02 102.444C108.088 102.06 108.832 101.568 109.252 100.968C109.648 100.32 109.864 99.492 109.888 98.46V96.336Z" fill="white" fill-opacity="0.6"/>
<path d="M115.5 82L112.5 82L112.5 79L115.5 79L115.5 67L112.5 67L112.5 64L115.5 64L115.5 61L88.5 61L88.5 64L91.5 64L91.5 67L88.5 67L88.5 79L91.5 79L91.5 82L88.5 82L88.5 85L115.5 85L115.5 82ZM94.5 67L94.5 64L97.5 64L97.5 67L94.5 67ZM100.5 67L100.5 64L103.5 64L103.5 67L100.5 67ZM106.5 67L106.5 64L109.5 64L109.5 67L106.5 67ZM91.5 76L91.5 70L112.5 70L112.5 76L91.5 76ZM94.5 82L94.5 79L97.5 79L97.5 82L94.5 82ZM100.5 82L100.5 79L103.5 79L103.5 82L100.5 82ZM106.5 82L106.5 79L109.5 79L109.5 82L106.5 82Z" fill="white" fill-opacity="0.7"/>
<g opacity="0.31" filter="url(#filter2_b_200_5688)">
<rect x="62" y="152" width="58" height="58" rx="6.23077" fill="white" fill-opacity="0.05"/>
<rect x="62" y="152" width="58" height="58" rx="6.23077" fill="url(#paint2_linear_200_5688)" fill-opacity="0.95"/>
<rect x="62.3894" y="152.389" width="57.2212" height="57.2212" rx="5.84135" stroke="white" stroke-opacity="0.09" stroke-width="0.778846"/>
</g>
<g opacity="0.17" filter="url(#filter3_b_200_5688)">
<rect x="365" y="210" width="57" height="57" rx="6.23077" fill="white" fill-opacity="0.05"/>
<rect x="365" y="210" width="57" height="57" rx="6.23077" fill="url(#paint3_linear_200_5688)" fill-opacity="0.95"/>
<rect x="365.389" y="210.389" width="56.2212" height="56.2212" rx="5.84135" stroke="white" stroke-opacity="0.09" stroke-width="0.778846"/>
</g>
<g filter="url(#filter4_bd_200_5688)">
<rect x="31" y="237" width="64.8" height="64.8" rx="6.23077" fill="white" fill-opacity="0.05" shape-rendering="crispEdges"/>
<rect x="31" y="237" width="64.8" height="64.8" rx="6.23077" fill="url(#paint4_linear_200_5688)" fill-opacity="0.95" shape-rendering="crispEdges"/>
<rect x="31.3894" y="237.389" width="64.0212" height="64.0212" rx="5.84135" stroke="white" stroke-opacity="0.09" stroke-width="0.778846" shape-rendering="crispEdges"/>
</g>
<path d="M55.108 281.756L55.876 281.852C55.78 282.08 55.684 282.296 55.564 282.512H58.732V283.112C58.396 283.748 57.892 284.312 57.208 284.792C58.012 285.176 58.924 285.5 59.956 285.74L59.5 286.388C58.336 286.076 57.34 285.692 56.5 285.224C55.576 285.716 54.436 286.112 53.068 286.412L52.684 285.716C53.92 285.5 54.964 285.188 55.804 284.792C55.336 284.48 54.928 284.144 54.592 283.784C54.232 284.12 53.824 284.432 53.368 284.72L52.888 284.096C53.98 283.448 54.724 282.668 55.108 281.756ZM56.5 284.42C57.088 284.06 57.544 283.64 57.868 283.16H55.144C55.096 283.208 55.06 283.256 55.036 283.304C55.456 283.712 55.948 284.084 56.5 284.42ZM54.124 287.648C55.72 287.948 57.256 288.38 58.72 288.932L58.432 289.628C56.944 289.052 55.396 288.608 53.788 288.296L54.124 287.648ZM55.372 285.968C56.308 286.28 57.172 286.664 57.952 287.096L57.544 287.72C56.716 287.216 55.864 286.832 54.976 286.544L55.372 285.968ZM61.156 280.724V291.2H60.316V290.708H52.204V291.2H51.364V280.724H61.156ZM52.204 289.94H60.316V281.492H52.204V289.94ZM66.928 283.052C66.76 283.148 66.616 283.244 66.472 283.34L65.944 282.692C67.12 282.044 68.092 281.18 68.836 280.112L69.724 280.316C69.556 280.556 69.4 280.772 69.232 280.976H72.244V281.54C71.932 281.948 71.62 282.296 71.308 282.596H73.54V285.212H69.952L69.94 285.224C70.456 285.752 70.852 286.304 71.116 286.904C71.932 286.544 72.628 286.1 73.18 285.572L73.744 286.22C73.372 286.544 72.964 286.832 72.508 287.084C72.844 288.164 73.444 289.124 74.308 289.964L73.744 290.672C72.868 289.688 72.244 288.608 71.86 287.42C71.692 287.492 71.536 287.564 71.38 287.636C71.5 288.068 71.572 288.5 71.596 288.956C71.596 289.772 71.464 290.348 71.2 290.672C70.972 290.936 70.552 291.116 69.952 291.188C69.736 291.212 69.496 291.224 69.232 291.224L68.98 290.444C69.328 290.444 69.616 290.432 69.856 290.42C70.12 290.396 70.336 290.3 70.504 290.108C70.648 289.916 70.732 289.532 70.732 288.956C70.732 288.8 70.72 288.656 70.708 288.512C69.676 289.448 68.32 290.228 66.64 290.828L66.208 290.084C68.08 289.484 69.52 288.692 70.552 287.732C70.468 287.468 70.372 287.216 70.264 286.988C69.376 287.78 68.176 288.44 66.664 288.944L66.244 288.236C67.828 287.756 69.052 287.144 69.916 286.4C69.772 286.184 69.604 285.98 69.436 285.788C68.716 286.448 67.756 286.916 66.58 287.18L66.256 286.46C67.396 286.22 68.272 285.8 68.896 285.212H66.928V283.052ZM70.216 282.596C70.564 282.308 70.9 281.984 71.236 281.648H68.632C68.284 281.996 67.924 282.308 67.564 282.596H70.216ZM72.7 284.504V283.304H70.792C70.696 283.736 70.552 284.144 70.384 284.504H72.7ZM69.472 284.504C69.688 284.132 69.856 283.736 69.952 283.304H67.768V284.504H69.472ZM64.6 284.432C64.252 284.96 63.868 285.476 63.46 285.968L63.184 285.056C64.288 283.628 65.08 281.984 65.584 280.136L66.388 280.52C66.148 281.348 65.836 282.14 65.476 282.884V291.188H64.6V284.432Z" fill="white" fill-opacity="0.6"/>
<g clip-path="url(#clip1_200_5688)">
<path d="M53 251H61.75V248.5H53C51.625 248.5 50.5 249.625 50.5 251V259.75H53V251ZM60.5 262.25L55.5 268.5H70.5L66.75 263.5L64.2125 266.888L60.5 262.25ZM69.25 256.625C69.25 255.588 68.4125 254.75 67.375 254.75C66.3375 254.75 65.5 255.588 65.5 256.625C65.5 257.663 66.3375 258.5 67.375 258.5C68.4125 258.5 69.25 257.663 69.25 256.625ZM73 248.5H64.25V251H73V259.75H75.5V251C75.5 249.625 74.375 248.5 73 248.5ZM73 271H64.25V273.5H73C74.375 273.5 75.5 272.375 75.5 271V262.25H73V271ZM53 262.25H50.5L50.5 271C50.5 272.375 51.625 273.5 53 273.5H61.75V271H53V262.25Z" fill="white" fill-opacity="0.7"/>
</g>
<g filter="url(#filter5_bd_200_5688)">
<rect x="315" y="228" width="64.8" height="64.8" rx="6.23077" fill="white" fill-opacity="0.05" shape-rendering="crispEdges"/>
<rect x="315" y="228" width="64.8" height="64.8" rx="6.23077" fill="url(#paint5_linear_200_5688)" fill-opacity="0.95" shape-rendering="crispEdges"/>
<rect x="315.389" y="228.389" width="64.0212" height="64.0212" rx="5.84135" stroke="white" stroke-opacity="0.09" stroke-width="0.778846" shape-rendering="crispEdges"/>
</g>
<path d="M335.028 273.224H339.996C339.672 272.588 339.276 271.988 338.796 271.424L339.66 271.112C340.116 271.688 340.524 272.396 340.908 273.224H345.492V274.088H343.62C343.032 275.984 342.144 277.58 340.968 278.852C342.24 279.932 343.836 280.82 345.756 281.528L345.288 282.248C343.296 281.504 341.664 280.58 340.368 279.464C339 280.724 337.296 281.648 335.256 282.236L334.8 281.48C336.816 280.94 338.472 280.088 339.768 278.912C338.376 277.544 337.416 275.936 336.876 274.088H335.028V273.224ZM337.728 274.088C338.244 275.708 339.12 277.112 340.368 278.312C341.436 277.148 342.216 275.744 342.72 274.088H337.728ZM347.604 273.404H352.296V271.232H353.184V273.404H357.864V274.232H353.952C354.756 276.14 356.196 277.844 358.26 279.344L357.672 280.088C355.56 278.36 354.096 276.404 353.28 274.232H353.184V278.912H355.752V279.74H353.184V282.2H352.296V279.74H349.824V278.912H352.296V274.232H352.212C351.324 276.668 349.812 278.672 347.676 280.244L347.184 279.44C349.2 278.096 350.64 276.356 351.528 274.232H347.604V273.404Z" fill="white" fill-opacity="0.6"/>
<path d="M357.916 245.455L351.611 239.15C351.436 238.975 351.198 238.875 350.949 238.875H336.746C336.228 238.875 335.809 239.294 335.809 239.812V264.187C335.809 264.706 336.228 265.125 336.746 265.125H349.08C349.242 265.125 349.373 264.994 349.373 264.832V263.309C349.373 263.147 349.242 263.016 349.08 263.016H337.918V240.984H348.523V247.312C348.523 247.992 349.074 248.543 349.754 248.543H356.082V255.926C356.082 256.088 356.213 256.219 356.375 256.219H357.898C358.06 256.219 358.191 256.088 358.191 255.926V246.12C358.191 245.871 358.092 245.631 357.916 245.455ZM356.029 246.551H350.516V241.037L356.029 246.551Z" fill="white" fill-opacity="0.7"/>
<path d="M340.32 250.945C340.159 250.945 340.027 251.076 340.027 251.238V252.762C340.027 252.924 340.159 253.055 340.32 253.055H353.68C353.841 253.055 353.973 252.924 353.973 252.762V251.238C353.973 251.076 353.841 250.945 353.68 250.945H340.32Z" fill="white" fill-opacity="0.7"/>
<path d="M340.027 245.789C340.027 245.627 340.159 245.496 340.32 245.496H346.121C346.283 245.496 346.414 245.627 346.414 245.789V247.312C346.414 247.474 346.283 247.605 346.121 247.605H340.32C340.159 247.605 340.027 247.474 340.027 247.312V245.789Z" fill="white" fill-opacity="0.7"/>
<path d="M340.32 256.395C340.159 256.395 340.027 256.526 340.027 256.687V258.211C340.027 258.373 340.159 258.504 340.32 258.504H346.121C346.283 258.504 346.414 258.373 346.414 258.211V256.687C346.414 256.526 346.283 256.395 346.121 256.395H340.32Z" fill="white" fill-opacity="0.7"/>
<path d="M351.248 261.174C351.248 261.335 351.379 261.467 351.541 261.467H352.274C352.436 261.467 352.567 261.598 352.567 261.76V261.821C352.567 262.843 352.197 263.5 351.46 263.79C351.337 263.838 351.248 263.952 351.248 264.083V264.806C351.248 264.978 351.396 265.113 351.565 265.089C353.698 264.786 354.764 263.302 354.764 260.635V258.387C354.764 258.225 354.633 258.094 354.471 258.094H351.541C351.379 258.094 351.248 258.225 351.248 258.387V261.174Z" fill="white" fill-opacity="0.7"/>
<path d="M356.932 261.467C356.77 261.467 356.639 261.335 356.639 261.174V258.387C356.639 258.225 356.77 258.094 356.932 258.094H359.861C360.023 258.094 360.154 258.225 360.154 258.387V260.635C360.154 263.302 359.088 264.786 356.956 265.089C356.786 265.113 356.639 264.978 356.639 264.806V264.083C356.639 263.952 356.728 263.838 356.85 263.79C357.588 263.5 357.957 262.843 357.957 261.821V261.76C357.957 261.598 357.826 261.467 357.664 261.467H356.932Z" fill="white" fill-opacity="0.7"/>
<g filter="url(#filter6_bd_200_5688)">
<rect x="293" width="64.8" height="64.8" rx="6.23077" fill="white" fill-opacity="0.05" shape-rendering="crispEdges"/>
<rect x="293" width="64.8" height="64.8" rx="6.23077" fill="url(#paint6_linear_200_5688)" fill-opacity="0.95" shape-rendering="crispEdges"/>
<rect x="293.389" y="0.389423" width="64.0212" height="64.0212" rx="5.84135" stroke="white" stroke-opacity="0.09" stroke-width="0.778846" shape-rendering="crispEdges"/>
</g>
<path d="M317.636 43.22H318.488V44.384H323.144V45.2H318.488V46.724H322.316V50.576H314.372V46.724H317.636V43.22ZM321.452 49.772V47.54H315.236V49.772H321.452ZM314.348 51.104L315.08 51.452C314.624 52.496 314.108 53.396 313.508 54.164L312.8 53.648C313.4 52.94 313.916 52.088 314.348 51.104ZM316.964 51.452C317.204 52.244 317.42 53.108 317.612 54.032L316.748 54.224C316.58 53.24 316.388 52.376 316.16 51.62L316.964 51.452ZM319.472 51.332C319.832 52.148 320.144 53.048 320.408 54.008L319.556 54.2C319.316 53.18 319.016 52.28 318.656 51.5L319.472 51.332ZM321.932 51.092C322.7 52.1 323.276 52.976 323.684 53.72L322.964 54.224C322.544 53.408 321.968 52.52 321.236 51.536L321.932 51.092ZM326.528 43.892H335.072V44.732H326.528V43.892ZM325.376 47.24H336.14V48.104H330.38C329.276 50.372 328.304 51.944 327.488 52.832C329.648 52.712 331.796 52.508 333.944 52.22C333.512 51.452 333.032 50.66 332.504 49.844L333.2 49.412C334.304 51.068 335.156 52.52 335.756 53.744L334.988 54.284C334.796 53.864 334.592 53.444 334.364 53.012C331.928 53.324 329.276 53.564 326.396 53.756L326.168 52.88C326.264 52.856 326.324 52.82 326.372 52.796C327.14 52.22 328.16 50.66 329.42 48.104H325.376V47.24Z" fill="white" fill-opacity="0.6"/>
<path d="M325.268 14.5684H331.589C334.384 14.5684 336.499 15.4841 337.958 17.3441C339.319 19.061 340 21.5505 340 24.7841C340 27.989 339.295 30.4785 337.909 32.2527C336.451 34.0841 334.336 34.9997 331.54 34.9997H325.268V14.5684ZM327.918 17.2296V32.3385H331.054C333.242 32.3385 334.87 31.709 335.891 30.4785C336.888 29.2481 337.399 27.3594 337.399 24.7841C337.399 22.1514 336.888 20.2628 335.916 19.061C334.895 17.8305 333.29 17.2296 331.102 17.2296H327.918Z" fill="white" fill-opacity="0.7"/>
<path d="M315.481 14.168C317.231 14.168 318.617 14.6544 319.686 15.656C320.707 16.6575 321.242 18.031 321.242 19.7766C321.242 22.0086 320.27 23.5252 318.374 24.2692C319.395 24.6412 320.173 25.2135 320.707 25.9575C321.291 26.7301 321.583 27.7317 321.583 28.9335C321.583 30.8221 321.023 32.3674 319.929 33.5692C318.763 34.771 317.231 35.4006 315.384 35.4006C313.609 35.4006 312.175 34.8569 311.105 33.7981C309.89 32.5963 309.209 30.8507 309.063 28.5615H311.737C311.786 29.935 312.15 30.9938 312.88 31.7378C313.512 32.4246 314.338 32.768 315.359 32.768C316.477 32.768 317.377 32.3674 318.058 31.6234C318.641 30.9366 318.957 30.1067 318.957 29.0766C318.957 27.8747 318.641 26.9877 318.009 26.4154C317.426 25.843 316.55 25.5569 315.408 25.5569H314.144V23.2104H315.384C316.453 23.2104 317.255 22.9243 317.79 22.3806C318.325 21.8369 318.617 21.0357 318.617 20.0055C318.617 18.9754 318.349 18.2027 317.863 17.659C317.328 17.0867 316.526 16.8292 315.505 16.8292C314.46 16.8292 313.633 17.144 313.05 17.7735C312.466 18.403 312.102 19.3474 312.004 20.6064H309.403C309.549 18.5747 310.181 17.0009 311.324 15.8563C312.393 14.7117 313.779 14.168 315.481 14.168Z" fill="white" fill-opacity="0.7"/>
<g filter="url(#filter7_bd_200_5688)">
<rect x="413" y="127" width="64.8" height="64.8" rx="6.23077" fill="white" fill-opacity="0.05" shape-rendering="crispEdges"/>
<rect x="413" y="127" width="64.8" height="64.8" rx="6.23077" fill="url(#paint7_linear_200_5688)" fill-opacity="0.95" shape-rendering="crispEdges"/>
<rect x="413.389" y="127.389" width="64.0212" height="64.0212" rx="5.84135" stroke="white" stroke-opacity="0.09" stroke-width="0.778846" shape-rendering="crispEdges"/>
</g>
<path d="M437.856 170.688H444.42V171.48H441.072L440.784 172.812H443.664V175.176H444.792V175.98H437.544V175.176H439.416L439.752 173.592H438.144V172.812H439.92L440.208 171.48H437.856V170.688ZM440.28 175.176H442.8V173.592H440.616L440.28 175.176ZM444 177.072V181.224H443.148V180.648H439.308V181.224H438.456V177.072H444ZM439.308 179.832H443.148V177.864H439.308V179.832ZM435.252 170.364C436.02 170.94 436.68 171.528 437.208 172.116L436.608 172.704C436.128 172.152 435.48 171.576 434.652 170.952L435.252 170.364ZM433.764 173.868H436.356V179.184C436.74 178.848 437.148 178.452 437.592 178.008L437.82 178.92C437.124 179.616 436.392 180.228 435.6 180.768L435.264 180C435.432 179.844 435.528 179.676 435.528 179.484V174.696H433.764V173.868ZM455.484 175.848V181.2H454.608V180.648H448.92V181.2H448.044V175.848H455.484ZM448.92 179.88H454.608V178.632H448.92V179.88ZM448.92 177.888H454.608V176.616H448.92V177.888ZM447.012 171.372H451.368C451.188 170.964 450.996 170.58 450.792 170.244L451.704 170.1C451.896 170.472 452.076 170.892 452.244 171.372H456.48V172.164H454.572C454.392 172.836 454.152 173.472 453.84 174.084H457.032V174.888H446.448V174.084H449.544C449.352 173.388 449.124 172.752 448.884 172.164H447.012V171.372ZM449.796 172.164C450.012 172.74 450.216 173.388 450.408 174.084H453C453.324 173.472 453.564 172.836 453.708 172.164H449.796Z" fill="white" fill-opacity="0.6"/>
<g clip-path="url(#clip2_200_5688)">
<path d="M432.625 147.875V156.125H438.125L445 163V141L438.125 147.875H432.625ZM442.25 147.641V156.359L439.266 153.375H435.375V150.625H439.266L442.25 147.641ZM451.188 152C451.188 149.566 449.785 147.476 447.75 146.459V157.528C449.785 156.524 451.188 154.434 451.188 152ZM447.75 139.941V142.774C451.724 143.956 454.625 147.641 454.625 152C454.625 156.359 451.724 160.044 447.75 161.226V164.059C453.264 162.808 457.375 157.885 457.375 152C457.375 146.115 453.264 141.193 447.75 139.941V139.941Z" fill="#C4C4C5"/>
</g>
<g opacity="0.17" filter="url(#filter8_b_200_5688)">
<rect x="266" y="319" width="103" height="103" rx="6.23077" fill="white" fill-opacity="0.05"/>
<rect x="266" y="319" width="103" height="103" rx="6.23077" fill="url(#paint8_linear_200_5688)" fill-opacity="0.95"/>
<rect x="266.389" y="319.389" width="102.221" height="102.221" rx="5.84135" stroke="white" stroke-opacity="0.09" stroke-width="0.778846"/>
</g>
<g opacity="0.92" filter="url(#filter9_b_200_5688)">
<rect x="409" y="29" width="40" height="40" rx="6.23077" fill="white" fill-opacity="0.05"/>
<rect x="409" y="29" width="40" height="40" rx="6.23077" fill="url(#paint9_linear_200_5688)" fill-opacity="0.95"/>
<rect x="409.389" y="29.3894" width="39.2212" height="39.2212" rx="5.84135" stroke="white" stroke-opacity="0.09" stroke-width="0.778846"/>
</g>
<g opacity="0.6" filter="url(#filter10_b_200_5688)">
<rect x="181" y="285" width="50" height="50" rx="6.23077" fill="white" fill-opacity="0.05"/>
<rect x="181" y="285" width="50" height="50" rx="6.23077" fill="url(#paint10_linear_200_5688)" fill-opacity="0.95"/>
<rect x="181.389" y="285.389" width="49.2212" height="49.2212" rx="5.84135" stroke="white" stroke-opacity="0.09" stroke-width="0.778846"/>
</g>
<g opacity="0.48" filter="url(#filter11_b_200_5688)">
<rect x="168" y="-15" width="40" height="40" rx="6.23077" fill="white" fill-opacity="0.05"/>
<rect x="168" y="-15" width="40" height="40" rx="6.23077" fill="url(#paint11_linear_200_5688)" fill-opacity="0.95"/>
<rect x="168.389" y="-14.6106" width="39.2212" height="39.2212" rx="5.84135" stroke="white" stroke-opacity="0.09" stroke-width="0.778846"/>
</g>
</g>
<defs>
<filter id="filter0_b_200_5688" x="132.143" y="235.143" width="95.7138" height="95.7138" filterUnits="userSpaceOnUse" color-interpolation-filters="sRGB">
<feFlood flood-opacity="0" result="BackgroundImageFix"/>
<feGaussianBlur in="BackgroundImageFix" stdDeviation="2.92846"/>
<feComposite in2="SourceAlpha" operator="in" result="effect1_backgroundBlur_200_5688"/>
<feBlend mode="normal" in="SourceGraphic" in2="effect1_backgroundBlur_200_5688" result="shape"/>
</filter>
<filter id="filter1_bd_200_5688" x="64.1431" y="43.1431" width="76.5137" height="78.6567" filterUnits="userSpaceOnUse" color-interpolation-filters="sRGB">
<feFlood flood-opacity="0" result="BackgroundImageFix"/>
<feGaussianBlur in="BackgroundImageFix" stdDeviation="2.92846"/>
<feComposite in2="SourceAlpha" operator="in" result="effect1_backgroundBlur_200_5688"/>
<feColorMatrix in="SourceAlpha" type="matrix" values="0 0 0 0 0 0 0 0 0 0 0 0 0 0 0 0 0 0 127 0" result="hardAlpha"/>
<feOffset dy="4"/>
<feGaussianBlur stdDeviation="2"/>
<feComposite in2="hardAlpha" operator="out"/>
<feColorMatrix type="matrix" values="0 0 0 0 0 0 0 0 0 0 0 0 0 0 0 0 0 0 0.25 0"/>
<feBlend mode="normal" in2="effect1_backgroundBlur_200_5688" result="effect2_dropShadow_200_5688"/>
<feBlend mode="normal" in="SourceGraphic" in2="effect2_dropShadow_200_5688" result="shape"/>
</filter>
<filter id="filter2_b_200_5688" x="56.1431" y="146.143" width="69.7138" height="69.7138" filterUnits="userSpaceOnUse" color-interpolation-filters="sRGB">
<feFlood flood-opacity="0" result="BackgroundImageFix"/>
<feGaussianBlur in="BackgroundImageFix" stdDeviation="2.92846"/>
<feComposite in2="SourceAlpha" operator="in" result="effect1_backgroundBlur_200_5688"/>
<feBlend mode="normal" in="SourceGraphic" in2="effect1_backgroundBlur_200_5688" result="shape"/>
</filter>
<filter id="filter3_b_200_5688" x="359.143" y="204.143" width="68.7138" height="68.7138" filterUnits="userSpaceOnUse" color-interpolation-filters="sRGB">
<feFlood flood-opacity="0" result="BackgroundImageFix"/>
<feGaussianBlur in="BackgroundImageFix" stdDeviation="2.92846"/>
<feComposite in2="SourceAlpha" operator="in" result="effect1_backgroundBlur_200_5688"/>
<feBlend mode="normal" in="SourceGraphic" in2="effect1_backgroundBlur_200_5688" result="shape"/>
</filter>
<filter id="filter4_bd_200_5688" x="25.1431" y="231.143" width="76.5137" height="78.6567" filterUnits="userSpaceOnUse" color-interpolation-filters="sRGB">
<feFlood flood-opacity="0" result="BackgroundImageFix"/>
<feGaussianBlur in="BackgroundImageFix" stdDeviation="2.92846"/>
<feComposite in2="SourceAlpha" operator="in" result="effect1_backgroundBlur_200_5688"/>
<feColorMatrix in="SourceAlpha" type="matrix" values="0 0 0 0 0 0 0 0 0 0 0 0 0 0 0 0 0 0 127 0" result="hardAlpha"/>
<feOffset dy="4"/>
<feGaussianBlur stdDeviation="2"/>
<feComposite in2="hardAlpha" operator="out"/>
<feColorMatrix type="matrix" values="0 0 0 0 0 0 0 0 0 0 0 0 0 0 0 0 0 0 0.25 0"/>
<feBlend mode="normal" in2="effect1_backgroundBlur_200_5688" result="effect2_dropShadow_200_5688"/>
<feBlend mode="normal" in="SourceGraphic" in2="effect2_dropShadow_200_5688" result="shape"/>
</filter>
<filter id="filter5_bd_200_5688" x="309.143" y="222.143" width="76.5137" height="78.6567" filterUnits="userSpaceOnUse" color-interpolation-filters="sRGB">
<feFlood flood-opacity="0" result="BackgroundImageFix"/>
<feGaussianBlur in="BackgroundImageFix" stdDeviation="2.92846"/>
<feComposite in2="SourceAlpha" operator="in" result="effect1_backgroundBlur_200_5688"/>
<feColorMatrix in="SourceAlpha" type="matrix" values="0 0 0 0 0 0 0 0 0 0 0 0 0 0 0 0 0 0 127 0" result="hardAlpha"/>
<feOffset dy="4"/>
<feGaussianBlur stdDeviation="2"/>
<feComposite in2="hardAlpha" operator="out"/>
<feColorMatrix type="matrix" values="0 0 0 0 0 0 0 0 0 0 0 0 0 0 0 0 0 0 0.25 0"/>
<feBlend mode="normal" in2="effect1_backgroundBlur_200_5688" result="effect2_dropShadow_200_5688"/>
<feBlend mode="normal" in="SourceGraphic" in2="effect2_dropShadow_200_5688" result="shape"/>
</filter>
<filter id="filter6_bd_200_5688" x="287.143" y="-5.85692" width="76.5137" height="78.6567" filterUnits="userSpaceOnUse" color-interpolation-filters="sRGB">
<feFlood flood-opacity="0" result="BackgroundImageFix"/>
<feGaussianBlur in="BackgroundImageFix" stdDeviation="2.92846"/>
<feComposite in2="SourceAlpha" operator="in" result="effect1_backgroundBlur_200_5688"/>
<feColorMatrix in="SourceAlpha" type="matrix" values="0 0 0 0 0 0 0 0 0 0 0 0 0 0 0 0 0 0 127 0" result="hardAlpha"/>
<feOffset dy="4"/>
<feGaussianBlur stdDeviation="2"/>
<feComposite in2="hardAlpha" operator="out"/>
<feColorMatrix type="matrix" values="0 0 0 0 0 0 0 0 0 0 0 0 0 0 0 0 0 0 0.25 0"/>
<feBlend mode="normal" in2="effect1_backgroundBlur_200_5688" result="effect2_dropShadow_200_5688"/>
<feBlend mode="normal" in="SourceGraphic" in2="effect2_dropShadow_200_5688" result="shape"/>
</filter>
<filter id="filter7_bd_200_5688" x="407.143" y="121.143" width="76.5137" height="78.6567" filterUnits="userSpaceOnUse" color-interpolation-filters="sRGB">
<feFlood flood-opacity="0" result="BackgroundImageFix"/>
<feGaussianBlur in="BackgroundImageFix" stdDeviation="2.92846"/>
<feComposite in2="SourceAlpha" operator="in" result="effect1_backgroundBlur_200_5688"/>
<feColorMatrix in="SourceAlpha" type="matrix" values="0 0 0 0 0 0 0 0 0 0 0 0 0 0 0 0 0 0 127 0" result="hardAlpha"/>
<feOffset dy="4"/>
<feGaussianBlur stdDeviation="2"/>
<feComposite in2="hardAlpha" operator="out"/>
<feColorMatrix type="matrix" values="0 0 0 0 0 0 0 0 0 0 0 0 0 0 0 0 0 0 0.25 0"/>
<feBlend mode="normal" in2="effect1_backgroundBlur_200_5688" result="effect2_dropShadow_200_5688"/>
<feBlend mode="normal" in="SourceGraphic" in2="effect2_dropShadow_200_5688" result="shape"/>
</filter>
<filter id="filter8_b_200_5688" x="260.143" y="313.143" width="114.714" height="114.714" filterUnits="userSpaceOnUse" color-interpolation-filters="sRGB">
<feFlood flood-opacity="0" result="BackgroundImageFix"/>
<feGaussianBlur in="BackgroundImageFix" stdDeviation="2.92846"/>
<feComposite in2="SourceAlpha" operator="in" result="effect1_backgroundBlur_200_5688"/>
<feBlend mode="normal" in="SourceGraphic" in2="effect1_backgroundBlur_200_5688" result="shape"/>
</filter>
<filter id="filter9_b_200_5688" x="403.143" y="23.1431" width="51.7138" height="51.7138" filterUnits="userSpaceOnUse" color-interpolation-filters="sRGB">
<feFlood flood-opacity="0" result="BackgroundImageFix"/>
<feGaussianBlur in="BackgroundImageFix" stdDeviation="2.92846"/>
<feComposite in2="SourceAlpha" operator="in" result="effect1_backgroundBlur_200_5688"/>
<feBlend mode="normal" in="SourceGraphic" in2="effect1_backgroundBlur_200_5688" result="shape"/>
</filter>
<filter id="filter10_b_200_5688" x="175.143" y="279.143" width="61.7138" height="61.7138" filterUnits="userSpaceOnUse" color-interpolation-filters="sRGB">
<feFlood flood-opacity="0" result="BackgroundImageFix"/>
<feGaussianBlur in="BackgroundImageFix" stdDeviation="2.92846"/>
<feComposite in2="SourceAlpha" operator="in" result="effect1_backgroundBlur_200_5688"/>
<feBlend mode="normal" in="SourceGraphic" in2="effect1_backgroundBlur_200_5688" result="shape"/>
</filter>
<filter id="filter11_b_200_5688" x="162.143" y="-20.8569" width="51.7138" height="51.7138" filterUnits="userSpaceOnUse" color-interpolation-filters="sRGB">
<feFlood flood-opacity="0" result="BackgroundImageFix"/>
<feGaussianBlur in="BackgroundImageFix" stdDeviation="2.92846"/>
<feComposite in2="SourceAlpha" operator="in" result="effect1_backgroundBlur_200_5688"/>
<feBlend mode="normal" in="SourceGraphic" in2="effect1_backgroundBlur_200_5688" result="shape"/>
</filter>
<linearGradient id="paint0_linear_200_5688" x1="180" y1="241" x2="180" y2="325" gradientUnits="userSpaceOnUse">
<stop stop-color="#A9A3C2" stop-opacity="0.2"/>
<stop offset="1" stop-color="#A9A3C2" stop-opacity="0.047"/>
</linearGradient>
<linearGradient id="paint1_linear_200_5688" x1="102.4" y1="49" x2="102.4" y2="113.8" gradientUnits="userSpaceOnUse">
<stop stop-color="#A9A3C2" stop-opacity="0.2"/>
<stop offset="1" stop-color="#A9A3C2" stop-opacity="0.047"/>
</linearGradient>
<linearGradient id="paint2_linear_200_5688" x1="91" y1="152" x2="91" y2="210" gradientUnits="userSpaceOnUse">
<stop stop-color="#A9A3C2" stop-opacity="0.2"/>
<stop offset="1" stop-color="#A9A3C2" stop-opacity="0.047"/>
</linearGradient>
<linearGradient id="paint3_linear_200_5688" x1="393.5" y1="210" x2="393.5" y2="267" gradientUnits="userSpaceOnUse">
<stop stop-color="#A9A3C2" stop-opacity="0.2"/>
<stop offset="1" stop-color="#A9A3C2" stop-opacity="0.047"/>
</linearGradient>
<linearGradient id="paint4_linear_200_5688" x1="63.4" y1="237" x2="63.4" y2="301.8" gradientUnits="userSpaceOnUse">
<stop stop-color="#A9A3C2" stop-opacity="0.2"/>
<stop offset="1" stop-color="#A9A3C2" stop-opacity="0.047"/>
</linearGradient>
<linearGradient id="paint5_linear_200_5688" x1="347.4" y1="228" x2="347.4" y2="292.8" gradientUnits="userSpaceOnUse">
<stop stop-color="#A9A3C2" stop-opacity="0.2"/>
<stop offset="1" stop-color="#A9A3C2" stop-opacity="0.047"/>
</linearGradient>
<linearGradient id="paint6_linear_200_5688" x1="325.4" y1="0" x2="325.4" y2="64.8" gradientUnits="userSpaceOnUse">
<stop stop-color="#A9A3C2" stop-opacity="0.2"/>
<stop offset="1" stop-color="#A9A3C2" stop-opacity="0.047"/>
</linearGradient>
<linearGradient id="paint7_linear_200_5688" x1="445.4" y1="127" x2="445.4" y2="191.8" gradientUnits="userSpaceOnUse">
<stop stop-color="#A9A3C2" stop-opacity="0.2"/>
<stop offset="1" stop-color="#A9A3C2" stop-opacity="0.047"/>
</linearGradient>
<linearGradient id="paint8_linear_200_5688" x1="317.5" y1="319" x2="317.5" y2="422" gradientUnits="userSpaceOnUse">
<stop stop-color="#A9A3C2" stop-opacity="0.2"/>
<stop offset="1" stop-color="#A9A3C2" stop-opacity="0.047"/>
</linearGradient>
<linearGradient id="paint9_linear_200_5688" x1="429" y1="29" x2="429" y2="69" gradientUnits="userSpaceOnUse">
<stop stop-color="#A9A3C2" stop-opacity="0.2"/>
<stop offset="1" stop-color="#A9A3C2" stop-opacity="0.047"/>
</linearGradient>
<linearGradient id="paint10_linear_200_5688" x1="206" y1="285" x2="206" y2="335" gradientUnits="userSpaceOnUse">
<stop stop-color="#A9A3C2" stop-opacity="0.2"/>
<stop offset="1" stop-color="#A9A3C2" stop-opacity="0.047"/>
</linearGradient>
<linearGradient id="paint11_linear_200_5688" x1="188" y1="-15" x2="188" y2="25" gradientUnits="userSpaceOnUse">
<stop stop-color="#A9A3C2" stop-opacity="0.2"/>
<stop offset="1" stop-color="#A9A3C2" stop-opacity="0.047"/>
</linearGradient>
<clipPath id="clip0_200_5688">
<rect width="500" height="380" fill="white"/>
</clipPath>
<clipPath id="clip1_200_5688">
<rect width="30" height="30" fill="white" transform="translate(48 246)"/>
</clipPath>
<clipPath id="clip2_200_5688">
<rect width="33" height="33" fill="white" transform="translate(428.5 135.5)"/>
</clipPath>
</defs>
</svg>
