<?xml version="1.0" encoding="utf-8" ?>
<svg xmlns="http://www.w3.org/2000/svg" xmlns:xlink="http://www.w3.org/1999/xlink" width="137.4558" height="37.752" viewBox="0 0 137.4558 37.752">
	<defs>
		<radialGradient id="radialGradient7815091521" gradientTransform="matrix(0.000141251 72.3452 -304.022 2.99724e-05 220.739 -36.1726)" gradientUnits="userSpaceOnUse" cx="0.5" cy="0.5" r="0.5">
			<stop offset="0" stop-color="rgb(117, 73, 255)"/>
			<stop offset="1" stop-color="rgb(178, 160, 255)"/>
		</radialGradient>
	</defs>
	<rect width="137.45587" height="37.751747" rx="8" ry="8" transform="matrix(1 0 0 1 0 0)" fill="url(#radialGradient7815091521)"/>
	<path d="M11.2197 4.46548C11.2197 6.94424 9.23226 8.93181 6.75175 8.93181C4.27208 8.93181 2.28379 6.94424 2.28379 4.46548C2.28379 1.98672 4.27208 0 6.75175 0C9.23226 0 11.2197 1.98672 11.2197 4.46548ZM6.75175 16.8794C3.09093 16.8794 0 16.2844 0 13.9888C0 11.6923 3.11035 11.1184 6.75175 11.1184C10.4134 11.1184 13.5035 11.7134 13.5035 14.009C13.5035 16.3055 10.3932 16.8794 6.75175 16.8794Z" fill-rule="evenodd" transform="matrix(1 0 0 1 15.7541 10.4362)" fill="rgb(255, 255, 255)"/>
	<defs>
		<linearGradient id="linearGradient7959623736" gradientTransform="matrix(2.04029e-15 31 -33.3205 1.8982e-15 57.1602 -3.25631e-15)" gradientUnits="userSpaceOnUse" x1="0" y1="0.5" x2="1" y2="0.5">
			<stop offset="0" stop-color="rgb(255, 255, 255)"/>
			<stop offset="1" stop-color="rgb(255, 255, 255)" stop-opacity="0.69999999"/>
		</linearGradient>
	</defs>
	<path d="M15.3875 21.0885Q15.4298 21.0885 15.4298 21.1308L15.4298 22.3039Q15.4298 22.35 15.3875 22.35L1.35654 22.35Q1.31423 22.35 1.31423 22.3039L1.31423 21.1308Q1.31423 21.0885 1.35654 21.0885L15.3875 21.0885ZM12.2836 12.5729Q12.3259 12.5729 12.3259 12.6153L12.3259 13.7884Q12.3259 13.8307 12.2836 13.8307L4.46043 13.8307Q4.41812 13.8307 4.41812 13.7884L4.41812 12.6153Q4.41812 12.5729 4.46043 12.5729L12.2836 12.5729ZM14.6452 16.0999Q14.6875 16.0999 14.6875 16.1461L14.6875 17.3153Q14.6875 17.3615 14.6452 17.3615L2.09886 17.3615Q2.05655 17.3615 2.05655 17.3153L2.05655 16.1461Q2.05655 16.0999 2.09886 16.0999L14.6452 16.0999ZM8.97589 13.1691Q9.02204 13.1691 9.02204 13.2153L9.02204 21.7Q9.02204 21.7423 8.97589 21.7423L7.76818 21.7423Q7.72202 21.7423 7.72202 21.7L7.72202 13.2153Q7.72202 13.1691 7.76818 13.1691L8.97589 13.1691ZM4.37197 18.0115Q4.40659 17.9923 4.43351 18.0384L5.21044 20.3346Q5.22583 20.3692 5.18352 20.3961L4.04119 20.7731Q4.00658 20.7885 3.9835 20.7461L3.20657 18.4461Q3.18734 18.4115 3.23349 18.3884L4.37197 18.0115ZM13.5106 18.3884Q13.5567 18.4115 13.5375 18.4461L12.7606 20.7461Q12.7375 20.7885 12.7029 20.7731L11.5605 20.3961Q11.5182 20.3692 11.5336 20.3346L12.3106 18.0384Q12.3375 17.9923 12.3721 18.0115L13.5106 18.3884ZM6.60662 8.44212Q6.63739 8.41135 6.69124 8.41135L10.0528 8.41135Q10.099 8.42289 10.1259 8.44981Q12.4413 11.2499 15.7337 12.9268Q15.776 12.9537 15.7529 12.9922L15.2298 14.0384Q15.2067 14.0845 15.1644 14.0614Q13.5298 13.2191 12.099 12.0999Q10.6721 10.9806 9.52205 9.6729L7.22201 9.6729Q6.0643 10.9806 4.62967 12.1076Q3.19887 13.2345 1.57962 14.0614Q1.53731 14.0845 1.51423 14.0384L0.991149 12.9922Q0.968072 12.9537 1.01038 12.9268Q2.69887 12.0691 4.09889 10.9345Q5.49891 9.79983 6.60662 8.44212Z" fill-rule="nonzero" transform="matrix(1 0 0 1 40.5105 3.37587)" fill="url(#linearGradient7959623736)"/>
	<defs>
		<linearGradient id="linearGradient7166586578" gradientTransform="matrix(2.04029e-15 31 -33.3205 1.8982e-15 57.1602 -3.25631e-15)" gradientUnits="userSpaceOnUse" x1="0" y1="0.5" x2="1" y2="0.5">
			<stop offset="0" stop-color="rgb(255, 255, 255)"/>
			<stop offset="1" stop-color="rgb(255, 255, 255)" stop-opacity="0.69999999"/>
		</linearGradient>
	</defs>
	<path d="M25.5025 10.6652Q25.5025 10.6229 25.5448 10.6229L31.3256 10.6229Q31.3679 10.6229 31.3679 10.6652L31.3679 17.4192Q31.3679 17.4615 31.3256 17.4615L25.5448 17.4615Q25.5025 17.4615 25.5025 17.4192L25.5025 10.6652ZM30.241 11.8614L26.6294 11.8614L26.6294 16.2192L30.241 16.2192L30.241 11.8614ZM21.5985 19.4423Q21.6409 19.4423 21.6409 19.4884L21.6409 22.2962Q21.6409 22.3385 21.5985 22.3385L20.5755 22.3385Q20.5331 22.3385 20.5331 22.2962L20.5331 19.4884Q20.5331 19.4423 20.5755 19.4423L21.5985 19.4423ZM23.0524 18.8692Q23.0947 18.8692 23.0947 18.9154L23.0947 19.9731Q23.0947 20.0154 23.0524 20.0154L19.1216 20.0154Q19.0793 20.0154 19.0793 19.9731L19.0793 18.9154Q19.0793 18.8692 19.1216 18.8692L23.0524 18.8692ZM24.6486 15.1422Q24.6717 15.1422 24.6794 15.1538Q24.6909 15.1614 24.6909 15.1884L24.6909 22.5077Q24.6909 22.5308 24.6794 22.5385Q24.6717 22.55 24.6486 22.55L22.6101 22.55Q22.5639 22.55 22.5639 22.5077L22.5639 21.4462Q22.5639 21.4039 22.6101 21.4039L23.5255 21.4039L23.5255 16.2884L18.6331 16.2884L18.6331 22.55Q18.6331 22.5962 18.5908 22.5962L17.51 22.5962Q17.4677 22.5962 17.4677 22.55L17.4677 15.1884Q17.4677 15.1614 17.4754 15.1538Q17.4869 15.1422 17.51 15.1422L24.6486 15.1422ZM20.4562 16.7961Q20.4985 16.7961 20.4985 16.8422L20.7062 19.0923Q20.7062 19.1384 20.6639 19.1384L19.737 19.2077Q19.6908 19.2077 19.6908 19.1615L19.4831 16.9115Q19.4831 16.8653 19.5293 16.8653L20.4562 16.7961ZM22.6639 16.8653Q22.7063 16.8653 22.7063 16.9115L22.4986 19.1615Q22.4986 19.2077 22.4563 19.2077L21.5293 19.1384Q21.4832 19.1384 21.4832 19.0923L21.6909 16.8422Q21.6909 16.7961 21.737 16.7961L22.6639 16.8653ZM30.4102 19.4384Q30.4102 19.3923 30.4564 19.3923L31.4949 19.3923Q31.5372 19.3923 31.5372 19.4384L31.5372 22.2Q31.5372 22.2231 31.5295 22.2346Q31.5218 22.2462 31.4949 22.2462L25.2601 22.2462Q25.214 22.2462 25.214 22.2L25.214 21.0269Q25.214 20.9846 25.2601 20.9846L30.4102 20.9846L30.4102 19.4384ZM17.9985 10.8191Q17.9985 10.796 18.0062 10.7883Q18.0177 10.7768 18.0408 10.7768L24.137 10.7768Q24.1601 10.7768 24.1717 10.7883Q24.1832 10.796 24.1832 10.8191L24.1832 14.2076Q24.1832 14.2307 24.1717 14.2422Q24.164 14.2499 24.137 14.2499L18.0408 14.2499Q18.0177 14.2499 18.0062 14.2422Q17.9985 14.2307 17.9985 14.2076L17.9985 10.8191ZM22.9409 11.8076L19.237 11.8076L19.237 13.2191L22.9409 13.2191L22.9409 11.8076ZM24.7948 8.66904Q24.8409 8.66904 24.8409 8.71135L24.8409 9.76906Q24.8409 9.81522 24.7948 9.81522L17.3946 9.81522Q17.3523 9.81522 17.3523 9.76906L17.3523 8.71135Q17.3523 8.66904 17.3946 8.66904L24.7948 8.66904ZM28.9717 8.32673Q29.014 8.32673 29.014 8.37288L29.014 21.5692Q29.014 21.6154 28.9717 21.6154L27.8948 21.6154Q27.8486 21.6154 27.8486 21.5692L27.8486 8.37288Q27.8486 8.32673 27.8948 8.32673L28.9717 8.32673Z" fill-rule="nonzero" transform="matrix(1 0 0 1 40.5105 3.37587)" fill="url(#linearGradient7166586578)"/>
	<defs>
		<linearGradient id="linearGradient2315403266" gradientTransform="matrix(2.04029e-15 31 -33.3205 1.8982e-15 57.1602 -3.25631e-15)" gradientUnits="userSpaceOnUse" x1="0" y1="0.5" x2="1" y2="0.5">
			<stop offset="0" stop-color="rgb(255, 255, 255)"/>
			<stop offset="1" stop-color="rgb(255, 255, 255)" stop-opacity="0.69999999"/>
		</linearGradient>
	</defs>
	<path d="M39.3597 8.87674Q39.3982 8.89982 39.379 8.94212Q38.3713 10.6652 37.0213 12.2229Q35.6751 13.7768 34.002 15.1576Q33.9751 15.1884 33.9404 15.1499L33.1673 14.2461Q33.1443 14.2191 33.1827 14.1807Q34.7943 12.8422 36.0559 11.3845Q37.3213 9.92291 38.2751 8.28827Q38.2982 8.24211 38.3328 8.26519L39.3597 8.87674ZM45.6598 14.7038Q45.6829 14.7038 45.6945 14.7153Q45.706 14.7268 45.706 14.7499L45.706 22.4577Q45.706 22.4808 45.6945 22.4923Q45.6829 22.5039 45.6598 22.5039L42.8213 22.5039Q42.7752 22.5039 42.7752 22.4577L42.7752 21.2692Q42.7752 21.2231 42.8213 21.2231L44.406 21.2231L44.406 15.9845L35.2828 15.9845Q35.2405 15.9845 35.2405 15.9384L35.2405 14.7499Q35.2405 14.7038 35.2828 14.7038L45.6598 14.7038ZM39.179 15.3615Q39.2213 15.3615 39.2213 15.4076Q39.1328 17.823 37.8636 19.6769Q36.5982 21.5308 34.2674 22.6423Q34.2443 22.6577 34.2289 22.65Q34.2174 22.6423 34.202 22.6193L33.7135 21.5154Q33.6943 21.4769 33.7366 21.45Q35.7712 20.4769 36.8097 18.9654Q37.8482 17.4499 37.9251 15.3845Q37.9251 15.3576 37.9366 15.3422Q37.9482 15.3268 37.9674 15.3268L39.179 15.3615ZM42.6713 8.26519Q42.706 8.24211 42.729 8.28827Q44.6175 11.5075 47.8214 14.1807Q47.8599 14.2191 47.8368 14.2461L47.0637 15.1499Q47.0291 15.1884 47.0022 15.1576Q45.3291 13.7691 43.9752 12.2114Q42.6213 10.6537 41.6252 8.94212Q41.6059 8.89982 41.6444 8.87674L42.6713 8.26519Z" fill-rule="nonzero" transform="matrix(1 0 0 1 40.5105 3.37587)" fill="url(#linearGradient2315403266)"/>
	<defs>
		<linearGradient id="linearGradient4296395958" gradientTransform="matrix(2.04029e-15 31 -33.3205 1.8982e-15 57.1602 -3.25631e-15)" gradientUnits="userSpaceOnUse" x1="0" y1="0.5" x2="1" y2="0.5">
			<stop offset="0" stop-color="rgb(255, 255, 255)"/>
			<stop offset="1" stop-color="rgb(255, 255, 255)" stop-opacity="0.69999999"/>
		</linearGradient>
	</defs>
	<path d="M50.9362 13.1768Q50.9824 13.1768 50.9824 13.2191L50.9824 15.5422Q50.9824 17.0038 50.867 18.3423Q50.7516 19.6769 50.5016 20.9192Q50.4862 20.9731 50.4401 20.9654L49.3631 20.75Q49.3208 20.7461 49.3285 20.7Q49.5824 19.5231 49.6939 18.2577Q49.8055 16.9884 49.8055 15.5422L49.8055 13.2191Q49.8055 13.1768 49.8478 13.1768L50.9362 13.1768ZM54.9709 10.6729Q55.0132 10.6729 55.0132 10.7152L55.0132 11.9268Q55.0132 11.9691 54.9709 11.9691L49.4785 11.9691Q49.4324 11.9691 49.4324 11.9268L49.4324 10.7152Q49.4324 10.6729 49.4785 10.6729L54.9709 10.6729ZM53.3709 8.29211Q53.4132 8.29211 53.4132 8.33827L53.4132 22.6116Q53.4132 22.6539 53.3709 22.6539L52.1786 22.6539Q52.1324 22.6539 52.1324 22.6116L52.1324 8.33827Q52.1324 8.29211 52.1786 8.29211L53.3709 8.29211ZM55.3132 15.5268Q55.3517 15.5538 55.3286 15.5884L54.6978 16.6153Q54.6748 16.6499 54.6401 16.6307L52.4786 15.3345Q52.444 15.3115 52.4632 15.273L53.094 14.2461Q53.1209 14.2114 53.1555 14.2307L55.3132 15.5268ZM58.8979 8.82674Q61.2556 8.82674 63.0903 8.5075Q63.1441 8.48058 63.148 8.53443L63.371 9.70752Q63.3749 9.74983 63.3326 9.75752Q61.4902 10.1075 58.8979 10.1075L57.3056 10.1075L57.3056 15.3768Q57.3056 17.3153 56.8863 19.2Q56.4709 21.0808 55.5517 22.6923Q55.5286 22.7346 55.494 22.7154L54.4478 22.1231Q54.4094 22.0962 54.4324 22.0539Q56.0055 19.3307 56.0055 15.3768L56.0055 8.87289Q56.0055 8.84982 56.0171 8.83828Q56.0286 8.82674 56.0517 8.82674L58.8979 8.82674ZM61.8441 14.2576Q61.8903 14.2576 61.8903 14.2999L61.8903 22.6308Q61.8903 22.6769 61.8441 22.6769L60.6364 22.6769Q60.5902 22.6769 60.5902 22.6308L60.5902 14.2999Q60.5902 14.2576 60.6364 14.2576L61.8441 14.2576ZM63.6557 13.6191Q63.7018 13.6191 63.7018 13.6614L63.7018 14.8538Q63.7018 14.8961 63.6557 14.8961L56.7171 14.8961Q56.6709 14.8961 56.6709 14.8538L56.6709 13.6614Q56.6709 13.6191 56.7171 13.6191L63.6557 13.6191Z" fill-rule="nonzero" transform="matrix(1 0 0 1 40.5105 3.37587)" fill="url(#linearGradient4296395958)"/>
	<defs>
		<linearGradient id="linearGradient5340033861" gradientTransform="matrix(2.04029e-15 31 -33.3205 1.8982e-15 57.1602 -3.25631e-15)" gradientUnits="userSpaceOnUse" x1="0" y1="0.5" x2="1" y2="0.5">
			<stop offset="0" stop-color="rgb(255, 255, 255)"/>
			<stop offset="1" stop-color="rgb(255, 255, 255)" stop-opacity="0.69999999"/>
		</linearGradient>
	</defs>
	<path d="M69.9205 8.33442Q69.9667 8.33442 69.9667 8.37673L69.9667 15.2807Q69.9667 17.7153 69.2436 19.4538Q68.5205 21.1885 66.7359 22.7039Q66.7089 22.7346 66.6705 22.6962L65.9512 21.7923Q65.9359 21.7769 65.9397 21.7577Q65.9436 21.7423 65.9628 21.7269Q67.0359 20.8192 67.632 19.8846Q68.232 18.95 68.4782 17.8576Q68.7244 16.7615 68.7244 15.2807L68.7244 8.37673Q68.7244 8.33442 68.7705 8.33442L69.9205 8.33442ZM66.9936 9.45367Q67.0359 9.45367 67.0359 9.49983L67.0359 18.6038Q67.0359 18.6461 66.9936 18.6461L65.8974 18.6461Q65.8512 18.6461 65.8512 18.6038L65.8512 9.49983Q65.8512 9.45367 65.8974 9.45367L66.9936 9.45367ZM79.6976 8.85366Q79.7438 8.85366 79.7438 8.89597L79.7438 10.146Q79.7438 10.1883 79.6976 10.1883L71.1129 10.1883Q71.0706 10.1883 71.0706 10.146L71.0706 8.89597Q71.0706 8.85366 71.1129 8.85366L79.6976 8.85366ZM75.9899 9.5229Q76.036 9.5229 76.036 9.56521L76.036 22.5885Q76.036 22.6308 75.9899 22.6308L74.836 22.6308Q74.7937 22.6308 74.7937 22.5885L74.7937 9.56521Q74.7937 9.5229 74.836 9.5229L75.9899 9.5229ZM79.4091 12.296Q79.4322 12.296 79.4438 12.3076Q79.4553 12.3153 79.4553 12.3422L79.4553 20.6615Q79.4553 20.6846 79.4438 20.6961Q79.4322 20.7038 79.4091 20.7038L77.113 20.7038Q77.0668 20.7038 77.0668 20.6615L77.0668 19.45Q77.0668 19.4038 77.113 19.4038L78.213 19.4038L78.213 13.596L72.6013 13.596L72.6013 20.7615Q72.6013 20.8038 72.5552 20.8038L71.4052 20.8038Q71.359 20.8038 71.359 20.7615L71.359 12.3422Q71.359 12.3191 71.3667 12.3076Q71.3783 12.296 71.4052 12.296L79.4091 12.296Z" fill-rule="nonzero" transform="matrix(1 0 0 1 40.5105 3.37587)" fill="url(#linearGradient5340033861)"/>
</svg>
