<?xml version="1.0" encoding="utf-8" ?>
<svg xmlns="http://www.w3.org/2000/svg" xmlns:xlink="http://www.w3.org/1999/xlink" width="102.5681" height="32.9277" viewBox="0 0 102.5681 32.9277">
	<g opacity="0.87">
		<rect width="102.56812" height="32.928017" rx="8" ry="8" transform="matrix(1 0 0 1 0 0)" fill="rgb(48, 41, 61)"/>
		<defs>
			<linearGradient id="linearGradient3717561707" gradientTransform="matrix(1.113e-15 32.928 -18.1766 2.01626e-15 60.3724 -1.03526e-14)" gradientUnits="userSpaceOnUse" x1="0" y1="0.5" x2="1" y2="0.5">
				<stop offset="0" stop-color="rgb(169, 163, 194)" stop-opacity="0.2"/>
				<stop offset="1" stop-color="rgb(169, 163, 194)" stop-opacity="0.046999998"/>
			</linearGradient>
		</defs>
		<rect width="102.56812" height="32.928017" rx="8" ry="8" transform="matrix(1 0 0 1 0 0)" fill="url(#linearGradient3717561707)"/>
		<path d="M-0 8C0 3.58172 3.58172 -0 8 -0L94.5681 0C98.9864 0 102.568 3.58172 102.568 8L102.568 24.928C102.568 29.3463 98.9864 32.928 94.5681 32.928L8 32.928C3.58172 32.928 -0 29.3463 -0 24.928L0 8ZM8 0.988003C4.12738 0.988003 0.988003 4.12738 0.988003 8L0.988003 24.928C0.988003 28.8006 4.12738 31.94 8 31.94L94.5681 31.94C98.4407 31.94 101.58 28.8006 101.58 24.928L101.58 8C101.58 4.12738 98.4407 0.988003 94.5681 0.988003L8 0.988003Z" fill-rule="nonzero" transform="matrix(1 0 0 1 0 0)" fill="rgb(255, 255, 255)" fill-opacity="0.09"/>
		<path d="M9.85087 3.92068C9.85087 6.09703 8.1059 7.84211 5.92802 7.84211C3.75088 7.84211 2.00516 6.09703 2.00516 3.92068C2.00516 1.74434 3.75088 0 5.92802 0C8.1059 0 9.85087 1.74434 9.85087 3.92068ZM5.92802 14.82C2.71383 14.82 0 14.2976 0 12.2821C0 10.2658 2.73088 9.76192 5.92802 9.76192C9.14295 9.76192 11.856 10.2843 11.856 12.2999C11.856 14.3162 9.12516 14.82 5.92802 14.82Z" fill-rule="evenodd" transform="matrix(1 0 0 1 13.832 9.05398)" fill="rgb(255, 255, 255)"/>
		<defs>
			<linearGradient id="linearGradient5330431106" gradientTransform="matrix(1.23425e-15 27 -20.1568 1.65327e-15 34.5784 -2.83614e-15)" gradientUnits="userSpaceOnUse" x1="0" y1="0.5" x2="1" y2="0.5">
				<stop offset="0" stop-color="rgb(255, 255, 255)"/>
				<stop offset="1" stop-color="rgb(255, 255, 255)" stop-opacity="0.69999999"/>
			</linearGradient>
		</defs>
		<path d="M9.00212 12.4541Q9.04021 12.4541 9.04021 12.4922L9.04021 14.2793Q9.04021 15.4512 8.76775 16.3594Q8.49822 17.2676 7.84197 18.0059Q7.18865 18.7441 6.06072 19.3213Q6.0197 19.3418 6.00212 19.3037L5.70622 18.7266Q5.68572 18.6855 5.7238 18.6709Q6.73747 18.1553 7.29997 17.5371Q7.8654 16.916 8.08806 16.1396Q8.31072 15.3633 8.31072 14.2793L8.31072 12.4922Q8.31072 12.4541 8.3488 12.4541L9.00212 12.4541ZM11.5685 8.73047Q11.6066 8.73047 11.6066 8.76855L11.6066 9.39844Q11.6066 9.43652 11.5685 9.43652L5.85271 9.43652Q5.81462 9.43652 5.81462 9.39844L5.81462 8.76855Q5.81462 8.73047 5.85271 8.73047L11.5685 8.73047ZM11.6388 18.8613Q11.6652 18.8877 11.6388 18.9141L11.1877 19.3857Q11.1613 19.4121 11.1349 19.3857L9.1779 17.4111Q9.15154 17.3848 9.1779 17.3584L9.62908 16.8896Q9.65544 16.8633 9.68181 16.8896L11.6388 18.8613ZM8.99333 9.08496Q9.03142 9.08496 9.03142 9.12305L9.03142 11.25Q9.03142 11.2881 8.99333 11.2881L8.35466 11.2881Q8.31658 11.2881 8.31658 11.25L8.31658 9.12305Q8.31658 9.08496 8.35466 9.08496L8.99333 9.08496ZM11.2023 10.9336Q11.2199 10.9336 11.2287 10.9453Q11.2404 10.9541 11.2404 10.9717L11.2404 16.8105Q11.2404 16.8486 11.2023 16.8486L10.549 16.8486Q10.5109 16.8486 10.5109 16.8105L10.5109 11.6396L6.83415 11.6396L6.83415 16.8105Q6.83415 16.8486 6.79607 16.8486L6.14275 16.8486Q6.10466 16.8486 6.10466 16.8105L6.10466 10.9717Q6.10466 10.9541 6.11345 10.9453Q6.12224 10.9336 6.14275 10.9336L11.2023 10.9336ZM3.46794 11.1768Q3.50603 11.1768 3.50603 11.2148L3.50603 13.1953Q3.50603 13.2334 3.46794 13.2334L2.85857 13.2334Q2.82048 13.2334 2.82048 13.1953L2.82048 11.2148Q2.82048 11.1768 2.85857 11.1768L3.46794 11.1768ZM4.91521 18.5156Q4.95329 18.5332 4.93572 18.5742L4.67204 19.1982Q4.65447 19.2363 4.61345 19.2158L1.36443 17.7979Q1.32634 17.7803 1.34392 17.7422L1.60759 17.1182Q1.62517 17.0771 1.66619 17.0977L4.91521 18.5156ZM5.50701 13.96Q5.52458 13.96 5.53044 13.9717Q5.5363 13.9805 5.52458 13.998L3.50896 18.2314Q3.49138 18.2725 3.45329 18.252L2.83806 17.9531Q2.79997 17.9385 2.81755 17.8975L4.32927 14.7246L0.96892 14.7246Q0.930834 14.7246 0.930834 14.6865L0.930834 13.998Q0.930834 13.96 0.96892 13.96L5.50701 13.96ZM4.03337 8.55176Q4.07146 8.55176 4.07732 8.58984Q4.37908 9.55664 4.85662 10.5557Q5.33708 11.5518 5.87322 12.3604Q5.89372 12.4014 5.8615 12.4189L5.28435 12.7676Q5.25212 12.7881 5.23454 12.75Q4.74236 12.0029 4.29119 11.0889Q3.84001 10.1748 3.52947 9.2959L2.79997 9.2959Q2.4865 10.1719 2.03533 11.0859Q1.58415 11.9971 1.09197 12.7441Q1.07439 12.7822 1.04216 12.7617L0.465014 12.4219Q0.435717 12.4043 0.453295 12.3662Q1.00408 11.5312 1.47576 10.5322Q1.95037 9.5332 2.23747 8.58984Q2.25505 8.55469 2.29607 8.55176L4.03337 8.55176Z" fill-rule="nonzero" transform="matrix(1 0 0 1 35.5681 2.96401)" fill="url(#linearGradient5330431106)"/>
		<defs>
			<linearGradient id="linearGradient5092502342" gradientTransform="matrix(1.23425e-15 27 -20.1568 1.65327e-15 34.5784 -2.83614e-15)" gradientUnits="userSpaceOnUse" x1="0" y1="0.5" x2="1" y2="0.5">
				<stop offset="0" stop-color="rgb(255, 255, 255)"/>
				<stop offset="1" stop-color="rgb(255, 255, 255)" stop-opacity="0.69999999"/>
			</linearGradient>
		</defs>
		<path d="M16.6221 11.7686Q16.6221 11.751 16.6309 11.7422Q16.6397 11.7305 16.6602 11.7305L19.6748 11.7305Q19.6924 11.7305 19.7012 11.7422Q19.7129 11.751 19.7129 11.7686L19.7129 15.876Q19.7129 15.8965 19.7012 15.9053Q19.6924 15.9141 19.6748 15.9141L16.6602 15.9141Q16.6397 15.9141 16.6309 15.9053Q16.6221 15.8965 16.6221 15.876L16.6221 11.7686ZM19.0157 12.4277L17.3164 12.4277L17.3164 15.2197L19.0157 15.2197L19.0157 12.4277ZM16.0215 17.127Q16.0596 17.127 16.0596 17.165L16.0596 17.8506Q16.0596 17.8887 16.0215 17.8887L12.9483 17.8887Q12.9102 17.8887 12.9102 17.8506L12.9102 17.165Q12.9102 17.127 12.9483 17.127L16.0215 17.127ZM19.9649 17.0186Q20.003 17.0186 20.003 17.0566L20.003 17.7041Q20.003 17.7422 19.9649 17.7422L16.3057 17.7422Q16.2676 17.7422 16.2676 17.7041L16.2676 17.0566Q16.2676 17.0186 16.3057 17.0186L19.9649 17.0186ZM14.8496 8.42285Q14.8877 8.42285 14.8877 8.46094L14.8877 17.4551Q14.8877 17.4932 14.8496 17.4932L14.1729 17.4932Q14.1348 17.4932 14.1348 17.4551L14.1348 8.46094Q14.1348 8.42285 14.1729 8.42285L14.8496 8.42285ZM15.9483 11.4053Q15.9864 11.4053 15.9864 11.4434L15.9864 12.1289Q15.9864 12.167 15.9483 12.167L13.0508 12.167Q13.0127 12.167 13.0127 12.1289L13.0127 11.4434Q13.0127 11.4053 13.0508 11.4053L15.9483 11.4053ZM23.6914 12.2666Q23.7295 12.2725 23.7237 12.3105Q23.2725 14.2939 22.3467 16.002Q21.4209 17.71 20.0616 19.1602Q20.0264 19.1895 20 19.1631L19.5489 18.75Q19.5166 18.7207 19.5489 18.6943Q20.8555 17.2939 21.7315 15.6855Q22.6104 14.0742 23.0352 12.1875Q23.044 12.1436 23.0821 12.1523L23.6914 12.2666ZM21.3975 8.36719Q21.4356 8.36719 21.4356 8.40527L21.4356 12.4951Q21.4356 14.1328 22.0801 15.6943Q22.7276 17.2559 23.9463 18.7266Q23.9727 18.7529 23.9405 18.7852L23.4278 19.1865Q23.4014 19.2158 23.3692 19.1836Q22.0918 17.6279 21.4004 15.9375Q20.709 14.2441 20.709 12.4951L20.709 8.40527Q20.709 8.36719 20.75 8.36719L21.3975 8.36719ZM23.041 8.87402Q23.041 8.83301 23.0791 8.83301L23.6504 8.83301Q23.6885 8.83301 23.6885 8.87402L23.6885 10.4531Q23.6885 10.4707 23.6797 10.4824Q23.6709 10.4912 23.6504 10.4912L16.3701 10.4912Q16.3321 10.4912 16.3321 10.4531L16.3321 9.82324Q16.3321 9.78516 16.3701 9.78516L23.041 9.78516L23.041 8.87402Z" fill-rule="nonzero" transform="matrix(1 0 0 1 35.5681 2.96401)" fill="url(#linearGradient5092502342)"/>
		<defs>
			<linearGradient id="linearGradient9587972309" gradientTransform="matrix(1.23425e-15 27 -20.1568 1.65327e-15 34.5784 -2.83614e-15)" gradientUnits="userSpaceOnUse" x1="0" y1="0.5" x2="1" y2="0.5">
				<stop offset="0" stop-color="rgb(255, 255, 255)"/>
				<stop offset="1" stop-color="rgb(255, 255, 255)" stop-opacity="0.69999999"/>
			</linearGradient>
		</defs>
		<path d="M35.8729 12.1494Q35.911 12.1494 35.911 12.1875L35.911 12.8438Q35.911 12.8818 35.8729 12.8818L25.3671 12.8818Q25.329 12.8818 25.329 12.8438L25.329 12.1875Q25.329 12.1494 25.3671 12.1494L35.8729 12.1494ZM35.2196 9.66504Q35.2577 9.66504 35.2577 9.70312L35.2577 10.3623Q35.2577 10.4004 35.2196 10.4004L26.0204 10.4004Q25.9823 10.4004 25.9823 10.3623L25.9823 9.70312Q25.9823 9.66504 26.0204 9.66504L35.2196 9.66504ZM34.0419 18.5771Q34.08 18.5859 34.0741 18.624L33.91 19.2715Q33.9042 19.3096 33.8661 19.3037L27.0546 17.5283Q27.0165 17.5225 27.0223 17.4844L27.1864 16.8369Q27.1923 16.7988 27.2304 16.8047L34.0419 18.5771ZM30.5145 8.46387Q30.5526 8.47852 30.535 8.51953L27.8778 14.5811L35.2987 14.5811Q35.3163 14.5811 35.3192 14.5898Q35.3222 14.5986 35.3104 14.6104L31.9149 18.4629Q31.8856 18.4951 31.8593 18.4688L31.3173 18.0469Q31.285 18.0146 31.3114 17.9883L33.705 15.3193L26.7528 15.3193Q26.7352 15.3193 26.7294 15.3105Q26.7235 15.2988 26.7352 15.2812L29.8026 8.23828Q29.8202 8.19727 29.8612 8.21777L30.5145 8.46387Z" fill-rule="nonzero" transform="matrix(1 0 0 1 35.5681 2.96401)" fill="url(#linearGradient9587972309)"/>
		<defs>
			<linearGradient id="linearGradient2004333041" gradientTransform="matrix(1.23425e-15 27 -20.1568 1.65327e-15 34.5784 -2.83614e-15)" gradientUnits="userSpaceOnUse" x1="0" y1="0.5" x2="1" y2="0.5">
				<stop offset="0" stop-color="rgb(255, 255, 255)"/>
				<stop offset="1" stop-color="rgb(255, 255, 255)" stop-opacity="0.69999999"/>
			</linearGradient>
		</defs>
		<path d="M41.7908 12.4834Q42.6638 12.8496 43.2322 13.5879Q43.8005 14.3262 43.8005 15.3105L43.8005 19.1484Q43.8005 19.166 43.7917 19.1748Q43.7829 19.1865 43.7624 19.1865L41.7468 19.1865Q41.7087 19.1865 41.7087 19.1484L41.7087 18.5273Q41.7087 18.4893 41.7468 18.4893L43.0476 18.4893L43.0476 15.3105Q43.0476 14.5254 42.6316 13.9805Q42.2156 13.4326 41.5095 13.1338Q41.4714 13.1162 41.489 13.0752L41.7351 12.5098Q41.7527 12.4775 41.7908 12.4834ZM40.3845 12.8145Q41.2341 12.5332 41.7702 12.1846Q42.3093 11.833 42.6667 11.2588Q42.6814 11.2383 42.6931 11.2324Q42.7077 11.2266 42.7195 11.2383L43.2556 11.5811Q43.2878 11.5957 43.2673 11.6367Q42.8308 12.3311 42.1775 12.7559Q41.5242 13.1807 40.6042 13.4766L37.8445 14.3818Q37.8093 14.3936 37.7947 14.3555L37.5984 13.7695Q37.5837 13.7344 37.6218 13.7197L40.3845 12.8145ZM42.9949 13.9424Q43.0359 13.9219 43.0535 13.9688L43.2585 14.5547Q43.2702 14.5869 43.238 14.6045L37.8679 16.6055Q37.8357 16.6172 37.8093 16.5791L37.6042 15.9932Q37.5925 15.9609 37.6218 15.9434L42.9949 13.9424ZM43.3376 16.0225Q43.3786 16.002 43.3962 16.0488L43.6013 16.6348Q43.613 16.667 43.5837 16.6846L37.7361 18.835Q37.7038 18.8555 37.6775 18.8086L37.4724 18.2227Q37.4607 18.1904 37.49 18.1729L43.3376 16.0225ZM45.5349 14.0039Q45.5759 13.998 45.5818 14.0361Q45.9128 15.3105 46.616 16.3594Q47.322 17.4053 48.4001 18.2842Q48.4294 18.3164 48.4118 18.3428L47.99 18.8555Q47.9636 18.8877 47.9372 18.8613Q46.7859 17.918 46.0007 16.7578Q45.2185 15.5977 44.8611 14.2119Q44.8493 14.1943 44.8581 14.1855Q44.8699 14.1738 44.8874 14.168L45.5349 14.0039ZM47.3191 12.6797Q47.3601 12.6592 47.3777 12.6973L47.656 13.2832Q47.6736 13.3242 47.6355 13.3418L43.5193 15.3018Q43.4783 15.3223 43.4636 15.2842L43.1853 14.6982Q43.1648 14.6572 43.2029 14.6396L47.3191 12.6797ZM43.2117 8.24414Q43.2527 8.24414 43.2527 8.28223L43.2527 9.49219Q43.2527 9.53027 43.2117 9.53027L42.5085 9.53027Q42.4704 9.53027 42.4704 9.49219L42.4704 8.28223Q42.4704 8.24414 42.5085 8.24414L43.2117 8.24414ZM48.0193 9.17871Q48.0398 9.17871 48.0486 9.1875Q48.0574 9.19629 48.0574 9.2168L48.0574 11.2207Q48.0574 11.2588 48.0193 11.2588L47.3542 11.2588Q47.3132 11.2588 47.3132 11.2207L47.3132 9.88184L38.407 9.88184L38.407 11.2207Q38.407 11.2588 38.366 11.2588L37.7009 11.2588Q37.6628 11.2588 37.6628 11.2207L37.6628 9.2168Q37.6628 9.19629 37.6716 9.1875Q37.6804 9.17871 37.7009 9.17871L48.0193 9.17871ZM46.5779 11.0889Q46.616 11.0889 46.616 11.127L46.616 11.7451Q46.616 11.7832 46.5779 11.7832L39.1423 11.7832Q39.1042 11.7832 39.1042 11.7451L39.1042 11.127Q39.1042 11.0889 39.1423 11.0889L46.5779 11.0889Z" fill-rule="nonzero" transform="matrix(1 0 0 1 35.5681 2.96401)" fill="url(#linearGradient2004333041)"/>
	</g>
</svg>
