<svg width="389" height="482" viewBox="0 0 389 482" fill="none" xmlns="http://www.w3.org/2000/svg">
<g opacity="0.72" filter="url(#filter0_b_200_6553)">
<rect x="207.064" y="333.716" width="58.1034" height="29" rx="14.5" fill="#471432"/>
<rect x="207.567" y="334.218" width="57.0982" height="27.9948" rx="13.9974" stroke="url(#paint0_radial_200_6553)" stroke-width="1.00517"/>
<path d="M218.129 342.668H222.463C223.462 342.668 224.25 342.893 224.827 343.358C225.418 343.836 225.728 344.54 225.728 345.469C225.728 346.032 225.573 346.524 225.264 346.96C224.926 347.411 224.476 347.692 223.899 347.833V347.861C224.856 348.072 225.39 348.677 225.503 349.69L225.658 351.238C225.714 351.857 225.897 352.35 226.192 352.716H224.94C224.715 352.378 224.574 351.942 224.532 351.379L224.405 350.042C224.349 349.451 224.138 349.015 223.772 348.762C223.434 348.508 222.956 348.396 222.322 348.396H219.283V352.716H218.129V342.668ZM219.283 343.667V347.397H222.322C223.054 347.397 223.631 347.214 224.025 346.876C224.377 346.552 224.56 346.102 224.56 345.511C224.56 344.892 224.377 344.427 224.039 344.132C223.673 343.822 223.096 343.667 222.322 343.667H219.283ZM228.202 342.668H229.342V351.717H235.153V352.716H228.202V342.668ZM237.038 342.668H238.191V347.031H244.003V342.668H245.157V352.716H244.003V348.03H238.191V352.716H237.038V342.668ZM247.729 342.668H254.455V343.667H248.883V347.045H254.16V348.044H248.883V352.716H247.729V342.668Z" fill="white"/>
</g>
<g opacity="0.72" filter="url(#filter1_b_200_6553)">
<rect x="97.5005" y="253.302" width="70.1034" height="29" rx="14.5" fill="#471432"/>
<rect x="98.0031" y="253.805" width="69.0982" height="27.9948" rx="13.9974" stroke="url(#paint1_radial_200_6553)" stroke-width="1.00517"/>
<path d="M115.489 264.126L115.332 264.753C115.634 266.164 116.02 267.382 116.502 268.396C116.973 267.177 117.226 265.754 117.274 264.126H115.489ZM116.104 269.264C115.634 268.335 115.236 267.274 114.91 266.068C114.693 266.622 114.452 267.117 114.198 267.551L113.656 266.888C114.367 265.537 114.85 263.715 115.091 261.424L115.935 261.568C115.863 262.184 115.766 262.763 115.67 263.293H118.854V264.126H118.07C118.01 266.14 117.636 267.865 116.961 269.288C117.588 270.374 118.324 271.206 119.192 271.797L118.722 272.509C117.877 271.906 117.154 271.085 116.551 270.072C115.972 271.037 115.224 271.845 114.319 272.497L113.873 271.773C114.814 271.122 115.549 270.289 116.104 269.264ZM110.387 267.057L111.195 267.153C111.111 267.382 111.026 267.599 110.954 267.817H113.475V268.528C113.209 269.324 112.763 270.012 112.136 270.591C112.715 270.856 113.27 271.122 113.8 271.411L113.33 272.087C112.799 271.773 112.184 271.447 111.472 271.134C110.676 271.688 109.675 272.135 108.469 272.473L108.059 271.749C109.048 271.483 109.904 271.158 110.604 270.76C110.073 270.531 109.518 270.301 108.927 270.084C109.241 269.553 109.518 269.059 109.76 268.576H108.336V267.817H110.097C110.206 267.551 110.302 267.298 110.387 267.057ZM111.34 270.253C111.943 269.771 112.401 269.204 112.691 268.576H110.616C110.423 268.987 110.206 269.373 109.965 269.734C110.447 269.903 110.905 270.072 111.34 270.253ZM109.289 261.677C109.579 262.147 109.82 262.654 110.037 263.185L109.41 263.474C109.156 262.883 108.891 262.365 108.602 261.906L109.289 261.677ZM112.956 261.641L113.583 261.93C113.342 262.461 113.04 262.98 112.654 263.486L112.039 263.173C112.425 262.654 112.739 262.147 112.956 261.641ZM108.36 263.764H110.712V261.46H111.521V263.764H113.716V264.524H111.521V264.656C112.172 264.982 112.847 265.356 113.523 265.766L113.077 266.441C112.474 265.959 111.955 265.573 111.521 265.284V266.852H110.712V264.56C110.314 265.513 109.591 266.333 108.553 267.033L108.131 266.333C109.06 265.79 109.711 265.187 110.073 264.524H108.36V263.764ZM122.075 272.4H121.05L120.869 271.58C121.182 271.616 121.496 271.64 121.785 271.64C122.087 271.64 122.244 271.459 122.244 271.122V268.166C121.761 268.347 121.291 268.516 120.82 268.661L120.603 267.817C121.158 267.684 121.713 267.515 122.244 267.322V264.596H120.796V263.764H122.244V261.484H123.088V263.764H124.246V264.596H123.088V266.972C123.474 266.803 123.848 266.622 124.21 266.429V267.286C123.836 267.479 123.462 267.648 123.088 267.817V271.339C123.088 272.038 122.75 272.4 122.075 272.4ZM125.681 267.069C125.537 269.131 125.066 270.941 124.27 272.509L123.595 271.906C124.451 270.313 124.885 268.239 124.897 265.706V261.93H131.254V264.861H128.986V266.285H131.568V267.069H128.986V268.552H131.013V272.509H130.205V271.918H126.936V272.509H126.128V268.552H128.142V267.069H125.681ZM128.142 264.861H125.742V265.706C125.742 265.899 125.73 266.092 125.73 266.285H128.142V264.861ZM126.936 271.146H130.205V269.324H126.936V271.146ZM130.41 262.738H125.742V264.077H130.41V262.738ZM135.548 264.536C135.066 265.633 134.451 266.55 133.703 267.298L133.148 266.586C134.282 265.404 135.054 263.8 135.452 261.786L136.332 261.942C136.2 262.57 136.043 263.149 135.862 263.691H138.443V261.544H139.324V263.691H143.292V264.536H139.324V267.322H143.051V268.166H139.324V271.23H144.064V272.099H133.437V271.23H138.443V268.166H134.897V267.322H138.443V264.536H135.548ZM154.16 261.412C154.739 261.846 155.233 262.292 155.644 262.738L155.089 263.293H156.56V264.126H152.845C152.93 265.621 153.086 266.803 153.303 267.672C153.376 267.973 153.46 268.251 153.545 268.516C154.148 267.551 154.63 266.417 155.004 265.127L155.788 265.464C155.306 267.057 154.679 268.408 153.907 269.493C154.075 269.879 154.256 270.217 154.449 270.494C154.847 271.073 155.173 271.363 155.414 271.363C155.631 271.351 155.836 270.724 156.017 269.481L156.801 269.915C156.512 271.52 156.102 272.328 155.559 272.328C155.052 272.328 154.51 271.966 153.931 271.242C153.714 270.953 153.509 270.615 153.328 270.241C152.483 271.23 151.494 271.966 150.36 272.473L149.878 271.749C151.084 271.206 152.109 270.41 152.942 269.361C152.773 268.914 152.616 268.432 152.483 267.913C152.218 266.9 152.049 265.633 151.953 264.126H147.815V266.128H150.77C150.746 268.166 150.65 269.481 150.493 270.072C150.336 270.591 149.962 270.856 149.359 270.88C149.07 270.88 148.72 270.856 148.334 270.832L148.069 270.048C148.539 270.072 148.937 270.084 149.263 270.084C149.528 270.072 149.697 269.891 149.769 269.553C149.842 269.143 149.878 268.275 149.902 266.948H147.815V267.31C147.767 269.469 147.285 271.206 146.392 272.509L145.729 271.918C146.5 270.808 146.899 269.276 146.935 267.31V263.293H151.916C151.892 262.69 151.88 262.075 151.88 261.424H152.773C152.773 262.099 152.785 262.714 152.809 263.293H155.065C154.703 262.859 154.22 262.413 153.605 261.942L154.16 261.412Z" fill="white" fill-opacity="0.84"/>
</g>
<g opacity="0.72" filter="url(#filter2_b_200_6553)">
<rect x="65.3352" y="409.104" width="70.1034" height="29" rx="14.5" fill="#471432"/>
<rect x="65.8378" y="409.606" width="69.0982" height="27.9948" rx="13.9974" stroke="url(#paint2_radial_200_6553)" stroke-width="1.00517"/>
<path d="M79.5966 418.25H81.3577V417.285H82.1658V418.25H84.1078V417.285H84.928V418.25H86.7976V419.022H84.928V419.927H84.1078V419.022H82.1658V419.927H81.3577V419.022H79.5966V418.25ZM82.986 425.825C82.8413 426.126 82.6604 426.404 82.4674 426.645C81.9125 427.345 80.9476 427.888 79.5604 428.286L79.2468 427.562C80.453 427.236 81.3094 426.766 81.8401 426.151C81.9608 425.994 82.0814 425.837 82.1779 425.668H79.3674V424.872H82.5397C82.6362 424.583 82.7086 424.269 82.7689 423.955H80.2359V420.301H86.0136V423.955H83.5409C83.4926 424.293 83.4203 424.595 83.3479 424.872H86.8218V425.668H83.7701C84.4697 426.488 85.5311 427.152 86.9544 427.658L86.3755 428.346C84.8074 427.67 83.6856 426.838 82.986 425.825ZM78.4266 422.134V428.274H77.6064V422.267C77.2325 423.4 76.762 424.438 76.1831 425.367L75.8091 424.426C76.6414 423.268 77.2445 421.965 77.6064 420.494V420.421H76.2072V419.637H77.6064V417.297H78.4266V419.637H79.6931V420.421H78.4266V421.217C78.9453 421.844 79.476 422.568 80.0308 423.376L79.5725 424.064C79.1262 423.268 78.7402 422.629 78.4266 422.134ZM85.2296 423.28V422.46H81.0199V423.28H85.2296ZM81.0199 421.808H85.2296V421H81.0199V421.808ZM89.0532 417.792H94.7224V418.564H93.5041V420.373H94.9877V421.169H93.5041V423.823H92.6598V421.169H91.0796C90.947 422.411 90.4886 423.34 89.6925 423.967L89.0412 423.4C89.7166 422.894 90.1147 422.158 90.2353 421.169H88.7396V420.373H90.2836V418.564H89.0532V417.792ZM91.1158 418.564V420.373H92.6598V418.564H91.1158ZM95.6994 418.069H96.5317V422.218H95.6994V418.069ZM89.3427 425.005H93.5765V423.955H94.4449V425.005H98.5943V425.801H94.4449V427.212H99.2577V428.008H88.6672V427.212H93.5765V425.801H89.3427V425.005ZM97.7499 423.931H96.1336L95.9527 423.111C96.4834 423.147 96.978 423.171 97.4605 423.171C97.7379 423.171 97.8826 422.978 97.8826 422.616V417.406H98.7149V422.821C98.7149 423.557 98.3892 423.931 97.7499 423.931ZM105.168 417.804H111.706V418.624H108.847V423.171H112.068V424.004H108.847V428.31H108.003V424.004H104.83V423.171H108.003V418.624H105.168V417.804ZM110.608 419.227L111.368 419.432C111.115 420.602 110.789 421.627 110.403 422.508L109.667 422.255C110.029 421.458 110.343 420.445 110.608 419.227ZM106.097 419.299C106.459 420.18 106.772 421.193 107.062 422.339L106.314 422.532C106.073 421.495 105.747 420.494 105.349 419.541L106.097 419.299ZM102.43 417.369C103.25 417.985 103.938 418.6 104.493 419.227L103.902 419.83C103.395 419.239 102.695 418.612 101.827 417.961L102.43 417.369ZM100.983 420.94H103.588V426.283C103.974 425.946 104.384 425.56 104.83 425.113L105.072 426.03C104.36 426.73 103.612 427.345 102.816 427.888L102.478 427.116C102.659 426.947 102.756 426.778 102.756 426.585V421.772H100.983V420.94ZM116.157 417.189L116.977 417.575C116.663 418.539 116.265 419.456 115.783 420.313V428.334H114.914V421.651C114.54 422.158 114.13 422.653 113.684 423.135L113.406 422.218C114.661 420.759 115.578 419.082 116.157 417.189ZM116.929 419.649H120.221V417.261H121.114V419.649H124.552V420.481H121.114V423.002H123.768V428.298H122.911V427.767H118.509V428.298H117.64V423.002H120.221V420.481H116.929V419.649ZM118.509 426.935H122.911V423.835H118.509V426.935Z" fill="white" fill-opacity="0.84"/>
</g>
<defs>
<filter id="filter0_b_200_6553" x="200.128" y="326.78" width="71.9746" height="42.8713" filterUnits="userSpaceOnUse" color-interpolation-filters="sRGB">
<feFlood flood-opacity="0" result="BackgroundImageFix"/>
<feGaussianBlur in="BackgroundImageFix" stdDeviation="3.46783"/>
<feComposite in2="SourceAlpha" operator="in" result="effect1_backgroundBlur_200_6553"/>
<feBlend mode="normal" in="SourceGraphic" in2="effect1_backgroundBlur_200_6553" result="shape"/>
</filter>
<filter id="filter1_b_200_6553" x="90.5648" y="246.367" width="83.9746" height="42.8713" filterUnits="userSpaceOnUse" color-interpolation-filters="sRGB">
<feFlood flood-opacity="0" result="BackgroundImageFix"/>
<feGaussianBlur in="BackgroundImageFix" stdDeviation="3.46783"/>
<feComposite in2="SourceAlpha" operator="in" result="effect1_backgroundBlur_200_6553"/>
<feBlend mode="normal" in="SourceGraphic" in2="effect1_backgroundBlur_200_6553" result="shape"/>
</filter>
<filter id="filter2_b_200_6553" x="58.3995" y="402.168" width="83.9746" height="42.8713" filterUnits="userSpaceOnUse" color-interpolation-filters="sRGB">
<feFlood flood-opacity="0" result="BackgroundImageFix"/>
<feGaussianBlur in="BackgroundImageFix" stdDeviation="3.46783"/>
<feComposite in2="SourceAlpha" operator="in" result="effect1_backgroundBlur_200_6553"/>
<feBlend mode="normal" in="SourceGraphic" in2="effect1_backgroundBlur_200_6553" result="shape"/>
</filter>
<radialGradient id="paint0_radial_200_6553" cx="0" cy="0" r="1" gradientUnits="userSpaceOnUse" gradientTransform="translate(207.936 362.455) scale(56.3603 28.42)">
<stop stop-color="#F13DD4"/>
<stop offset="0.96214" stop-color="#38072F"/>
</radialGradient>
<radialGradient id="paint1_radial_200_6553" cx="0" cy="0" r="1" gradientUnits="userSpaceOnUse" gradientTransform="translate(98.552 282.041) scale(68.0003 28.42)">
<stop stop-color="#F13DD4"/>
<stop offset="0.96214" stop-color="#38072F"/>
</radialGradient>
<radialGradient id="paint2_radial_200_6553" cx="0" cy="0" r="1" gradientUnits="userSpaceOnUse" gradientTransform="translate(66.3868 437.843) scale(68.0003 28.42)">
<stop stop-color="#F13DD4"/>
<stop offset="0.96214" stop-color="#38072F"/>
</radialGradient>
</defs>
</svg>
