<svg width="500" height="380" viewBox="0 0 500 380" fill="none" xmlns="http://www.w3.org/2000/svg">
<g filter="url(#filter0_b_200_4796)">
<rect x="35.625" y="122" width="80" height="36" rx="18" fill="white" fill-opacity="0.05"/>
<rect x="35.625" y="122" width="80" height="36" rx="18" fill="url(#paint0_linear_200_4796)"/>
<rect x="36.25" y="122.625" width="78.75" height="34.75" rx="17.375" stroke="#713DFF" stroke-opacity="0.53" stroke-width="1.25"/>
<path d="M57.9942 135.004H62.3062C63.3002 135.004 64.0842 135.228 64.6582 135.69C65.2462 136.166 65.5542 136.866 65.5542 137.79C65.5542 138.35 65.4002 138.84 65.0922 139.274C64.7562 139.722 64.3082 140.002 63.7342 140.142V140.17C64.6862 140.38 65.2182 140.982 65.3302 141.99L65.4842 143.53C65.5402 144.146 65.7222 144.636 66.0162 145H64.7702C64.5462 144.664 64.4062 144.23 64.3642 143.67L64.2382 142.34C64.1822 141.752 63.9722 141.318 63.6082 141.066C63.2722 140.814 62.7962 140.702 62.1662 140.702H59.1422V145H57.9942V135.004ZM59.1422 135.998V139.708H62.1662C62.8942 139.708 63.4682 139.526 63.8602 139.19C64.2102 138.868 64.3922 138.42 64.3922 137.832C64.3922 137.216 64.2102 136.754 63.8742 136.46C63.5102 136.152 62.9362 135.998 62.1662 135.998H59.1422ZM68.0151 135.004H69.1491V144.006H74.9311V145H68.0151V135.004ZM76.8056 135.004H77.9536V139.344H83.7356V135.004H84.8836V145H83.7356V140.338H77.9536V145H76.8056V135.004ZM87.4418 135.004H94.1338V135.998H88.5898V139.358H93.8398V140.352H88.5898V145H87.4418V135.004Z" fill="white" fill-opacity="0.6"/>
</g>
<g filter="url(#filter1_b_200_4796)">
<rect x="125.625" y="56" width="115" height="36" rx="18" fill="white" fill-opacity="0.05"/>
<rect x="125.625" y="56" width="115" height="36" rx="18" fill="url(#paint1_linear_200_4796)"/>
<rect x="126.25" y="56.625" width="113.75" height="34.75" rx="17.375" stroke="#713DFF" stroke-opacity="0.53" stroke-width="1.25"/>
<path d="M160.579 79.816H159.081L158.829 78.878L160.369 78.906C160.901 78.906 161.167 78.598 161.167 77.982V68.854H155.735V67.874H162.189V78.248C162.189 79.284 161.643 79.816 160.579 79.816ZM150.821 69.386H151.843V79.914H150.821V69.386ZM153.957 71.402H158.997V76.666H153.957V71.402ZM157.975 75.7V72.368H154.979V75.7H157.975ZM152.907 66.95C153.551 67.72 154.139 68.56 154.643 69.484L153.747 69.946C153.215 68.966 152.613 68.112 151.969 67.356L152.907 66.95ZM166.823 69.162C166.473 69.82 166.081 70.422 165.633 70.968L164.779 70.422C165.661 69.358 166.305 68.196 166.697 66.922L167.663 67.132C167.537 67.51 167.397 67.874 167.257 68.238H171.023V69.162H169.049C169.315 69.61 169.539 70.03 169.707 70.422L168.797 70.758C168.573 70.198 168.307 69.666 168.027 69.162H166.823ZM172.605 69.162C172.353 69.596 172.073 70.002 171.779 70.394L170.939 69.876C171.667 68.994 172.185 68.014 172.507 66.936L173.473 67.146C173.347 67.538 173.207 67.902 173.067 68.238H177.267V69.162H174.999C175.335 69.694 175.615 70.198 175.825 70.646L174.915 70.968C174.635 70.338 174.313 69.736 173.949 69.162H172.605ZM175.251 75.462V79.886H174.285V79.256H167.845V79.886H166.879V75.462H175.251ZM167.845 78.332H174.285V76.386H167.845V78.332ZM167.845 73.53C167.033 73.964 166.151 74.37 165.213 74.748L164.737 73.866C167.131 72.97 169.119 71.85 170.715 70.52H171.387C173.151 71.948 175.181 73.068 177.477 73.894L176.987 74.762C176.035 74.398 175.139 73.978 174.313 73.53V74.16H167.845V73.53ZM173.767 73.222C172.773 72.648 171.863 72.004 171.051 71.304C170.281 71.99 169.399 72.634 168.391 73.222H173.767ZM185.303 69.778H189.363V67.034H190.371V69.778H191.925V70.744H190.371V78.444C190.371 79.382 189.881 79.858 188.929 79.858H186.731L186.521 78.864C187.249 78.906 187.935 78.934 188.579 78.934C189.097 78.934 189.363 78.682 189.363 78.192V70.744H185.303V69.778ZM180.291 70.688C181.173 71.64 181.985 72.606 182.741 73.558C183.259 72.298 183.567 70.926 183.665 69.442H179.829V68.462H184.575V69.204C184.505 71.108 184.113 72.844 183.385 74.398C183.973 75.182 184.519 75.98 185.009 76.764L184.281 77.492C183.861 76.792 183.399 76.092 182.895 75.378C182.125 76.722 181.089 77.926 179.801 78.99L179.213 78.108C180.529 77.1 181.551 75.91 182.279 74.538C181.495 73.488 180.599 72.41 179.619 71.318L180.291 70.688ZM186.059 72.396C186.997 73.544 187.725 74.566 188.229 75.462L187.431 76.022C186.871 75.056 186.157 74.034 185.289 72.956L186.059 72.396ZM196.559 70.646C195.999 71.92 195.285 72.984 194.417 73.852L193.773 73.026C195.089 71.654 195.985 69.792 196.447 67.454L197.469 67.636C197.315 68.364 197.133 69.036 196.923 69.666H199.919V67.174H200.941V69.666H205.547V70.646H200.941V73.88H205.267V74.86H200.941V78.416H206.443V79.424H194.109V78.416H199.919V74.86H195.803V73.88H199.919V70.646H196.559ZM218.161 67.02C218.833 67.524 219.407 68.042 219.883 68.56L219.239 69.204H220.947V70.17H216.635C216.733 71.906 216.915 73.278 217.167 74.286C217.251 74.636 217.349 74.958 217.447 75.266C218.147 74.146 218.707 72.83 219.141 71.332L220.051 71.724C219.491 73.572 218.763 75.14 217.867 76.4C218.063 76.848 218.273 77.24 218.497 77.562C218.959 78.234 219.337 78.57 219.617 78.57C219.869 78.556 220.107 77.828 220.317 76.386L221.227 76.89C220.891 78.752 220.415 79.69 219.785 79.69C219.197 79.69 218.567 79.27 217.895 78.43C217.643 78.094 217.405 77.702 217.195 77.268C216.215 78.416 215.067 79.27 213.751 79.858L213.191 79.018C214.591 78.388 215.781 77.464 216.747 76.246C216.551 75.728 216.369 75.168 216.215 74.566C215.907 73.39 215.711 71.92 215.599 70.17H210.797V72.494H214.227C214.199 74.86 214.087 76.386 213.905 77.072C213.723 77.674 213.289 77.982 212.589 78.01C212.253 78.01 211.847 77.982 211.399 77.954L211.091 77.044C211.637 77.072 212.099 77.086 212.477 77.086C212.785 77.072 212.981 76.862 213.065 76.47C213.149 75.994 213.191 74.986 213.219 73.446H210.797V73.866C210.741 76.372 210.181 78.388 209.145 79.9L208.375 79.214C209.271 77.926 209.733 76.148 209.775 73.866V69.204H215.557C215.529 68.504 215.515 67.79 215.515 67.034H216.551C216.551 67.818 216.565 68.532 216.593 69.204H219.211C218.791 68.7 218.231 68.182 217.517 67.636L218.161 67.02Z" fill="white" fill-opacity="0.6"/>
</g>
<g filter="url(#filter2_b_200_4796)">
<rect x="240.875" y="140.75" width="100" height="36" rx="18" fill="white" fill-opacity="0.05"/>
<rect x="240.875" y="140.75" width="100" height="36" rx="18" fill="url(#paint2_linear_200_4796)"/>
<rect x="241.5" y="141.375" width="98.75" height="34.75" rx="17.375" stroke="#713DFF" stroke-opacity="0.53" stroke-width="1.25"/>
<path d="M267.671 151.974H269.715V150.854H270.653V151.974H272.907V150.854H273.859V151.974H276.029V152.87H273.859V153.92H272.907V152.87H270.653V153.92H269.715V152.87H267.671V151.974ZM271.605 160.766C271.437 161.116 271.227 161.438 271.003 161.718C270.359 162.53 269.239 163.16 267.629 163.622L267.265 162.782C268.665 162.404 269.659 161.858 270.275 161.144C270.415 160.962 270.555 160.78 270.667 160.584H267.405V159.66H271.087C271.199 159.324 271.283 158.96 271.353 158.596H268.413V154.354H275.119V158.596H272.249C272.193 158.988 272.109 159.338 272.025 159.66H276.057V160.584H272.515C273.327 161.536 274.559 162.306 276.211 162.894L275.539 163.692C273.719 162.908 272.417 161.942 271.605 160.766ZM266.313 156.482V163.608H265.361V156.636C264.927 157.952 264.381 159.156 263.709 160.234L263.275 159.142C264.241 157.798 264.941 156.286 265.361 154.578V154.494H263.737V153.584H265.361V150.868H266.313V153.584H267.783V154.494H266.313V155.418C266.915 156.146 267.531 156.986 268.175 157.924L267.643 158.722C267.125 157.798 266.677 157.056 266.313 156.482ZM274.209 157.812V156.86H269.323V157.812H274.209ZM269.323 156.104H274.209V155.166H269.323V156.104ZM278.647 151.442H285.227V152.338H283.813V154.438H285.535V155.362H283.813V158.442H282.833V155.362H280.999C280.845 156.804 280.313 157.882 279.389 158.61L278.633 157.952C279.417 157.364 279.879 156.51 280.019 155.362H278.283V154.438H280.075V152.338H278.647V151.442ZM281.041 152.338V154.438H282.833V152.338H281.041ZM286.361 151.764H287.327V156.58H286.361V151.764ZM278.983 159.814H283.897V158.596H284.905V159.814H289.721V160.738H284.905V162.376H290.491V163.3H278.199V162.376H283.897V160.738H278.983V159.814ZM288.741 158.568H286.865L286.655 157.616C287.271 157.658 287.845 157.686 288.405 157.686C288.727 157.686 288.895 157.462 288.895 157.042V150.994H289.861V157.28C289.861 158.134 289.483 158.568 288.741 158.568ZM297.351 151.456H304.939V152.408H301.621V157.686H305.359V158.652H301.621V163.65H300.641V158.652H296.959V157.686H300.641V152.408H297.351V151.456ZM303.665 153.108L304.547 153.346C304.253 154.704 303.875 155.894 303.427 156.916L302.573 156.622C302.993 155.698 303.357 154.522 303.665 153.108ZM298.429 153.192C298.849 154.214 299.213 155.39 299.549 156.72L298.681 156.944C298.401 155.74 298.023 154.578 297.561 153.472L298.429 153.192ZM294.173 150.952C295.125 151.666 295.923 152.38 296.567 153.108L295.881 153.808C295.293 153.122 294.481 152.394 293.473 151.638L294.173 150.952ZM292.493 155.096H295.517V161.298C295.965 160.906 296.441 160.458 296.959 159.94L297.239 161.004C296.413 161.816 295.545 162.53 294.621 163.16L294.229 162.264C294.439 162.068 294.551 161.872 294.551 161.648V156.062H292.493V155.096ZM310.105 150.742L311.057 151.19C310.693 152.31 310.231 153.374 309.671 154.368V163.678H308.663V155.922C308.229 156.51 307.753 157.084 307.235 157.644L306.913 156.58C308.369 154.886 309.433 152.94 310.105 150.742ZM311.001 153.598H314.823V150.826H315.859V153.598H319.849V154.564H315.859V157.49H318.939V163.636H317.945V163.02H312.835V163.636H311.827V157.49H314.823V154.564H311.001V153.598ZM312.835 162.054H317.945V158.456H312.835V162.054Z" fill="white" fill-opacity="0.6"/>
</g>
<g filter="url(#filter3_b_200_4796)">
<rect x="350.625" y="102" width="100" height="36" rx="18" fill="white" fill-opacity="0.05"/>
<rect x="350.625" y="102" width="100" height="36" rx="18" fill="url(#paint3_linear_200_4796)"/>
<rect x="351.25" y="102.625" width="98.75" height="34.75" rx="17.375" stroke="#713DFF" stroke-opacity="0.53" stroke-width="1.25"/>
<path d="M386.345 114.434V117.444H385.309V115.414H375.747V117.43H374.711V114.434H380.031C379.835 113.958 379.625 113.538 379.387 113.146L380.507 112.95C380.731 113.398 380.941 113.888 381.137 114.434H386.345ZM374.375 118.326H378.295C378.715 117.556 379.121 116.8 379.499 116.044L380.535 116.352C380.171 117.052 379.821 117.71 379.485 118.326H386.723V119.306H383.965C383.391 120.79 382.733 121.952 381.991 122.82C383.433 123.436 384.903 124.164 386.387 125.004L385.715 125.886C384.231 125.018 382.747 124.234 381.263 123.562C379.695 124.962 377.623 125.69 375.019 125.774L374.431 124.836C376.811 124.822 378.757 124.248 380.241 123.114C378.925 122.554 377.623 122.064 376.321 121.644C376.825 120.86 377.301 120.076 377.749 119.306H374.375V118.326ZM378.939 119.306C378.519 120.034 378.127 120.678 377.763 121.238C378.827 121.546 379.905 121.938 381.011 122.4C381.767 121.574 382.383 120.538 382.859 119.306H378.939ZM394.731 113.104H395.459C397.223 114.952 399.253 116.394 401.549 117.458L401.045 118.354C398.721 117.234 396.747 115.792 395.095 114.014C393.569 115.708 391.567 117.178 389.089 118.424L388.599 117.542C391.063 116.352 393.107 114.868 394.731 113.104ZM391.189 117.528H399.001V118.494H395.613V120.93H399.659V121.896H395.613V124.486H400.933V125.48H389.271V124.486H394.577V121.896H390.517V120.93H394.577V118.494H391.189V117.528ZM408.101 113.706H415.689V114.658H412.371V119.936H416.109V120.902H412.371V125.9H411.391V120.902H407.709V119.936H411.391V114.658H408.101V113.706ZM414.415 115.358L415.297 115.596C415.003 116.954 414.625 118.144 414.177 119.166L413.323 118.872C413.743 117.948 414.107 116.772 414.415 115.358ZM409.179 115.442C409.599 116.464 409.963 117.64 410.299 118.97L409.431 119.194C409.151 117.99 408.773 116.828 408.311 115.722L409.179 115.442ZM404.923 113.202C405.875 113.916 406.673 114.63 407.317 115.358L406.631 116.058C406.043 115.372 405.231 114.644 404.223 113.888L404.923 113.202ZM403.243 117.346H406.267V123.548C406.715 123.156 407.191 122.708 407.709 122.19L407.989 123.254C407.163 124.066 406.295 124.78 405.371 125.41L404.979 124.514C405.189 124.318 405.301 124.122 405.301 123.898V118.312H403.243V117.346ZM418.727 113.356C419.511 113.972 420.169 114.602 420.701 115.218L420.043 115.89C419.567 115.302 418.895 114.672 418.041 114.014L418.727 113.356ZM418.503 116.8C419.259 117.472 419.903 118.13 420.421 118.802L419.763 119.46C419.287 118.83 418.643 118.158 417.817 117.444L418.503 116.8ZM419.735 120.566L420.589 120.902C420.057 122.61 419.455 124.22 418.811 125.732L417.887 125.34C418.587 123.786 419.203 122.19 419.735 120.566ZM425.951 113.748V122.288H425.055V114.616H422.157V122.372H421.261V113.748H425.951ZM424.453 122.946C425.307 123.702 426.021 124.472 426.595 125.228L425.923 125.9C425.419 125.158 424.733 124.374 423.837 123.534L424.453 122.946ZM423.193 115.582H424.033V120.02C424.005 121.616 423.753 122.89 423.277 123.842C422.815 124.71 422.059 125.41 421.023 125.914L420.491 125.074C421.499 124.598 422.199 123.968 422.591 123.184C422.955 122.372 423.165 121.322 423.193 120.02V115.582ZM428.975 125.788H427.435L427.225 124.85C427.715 124.892 428.191 124.92 428.639 124.92C428.961 124.92 429.129 124.724 429.129 124.36V113.146H430.081V124.598C430.081 125.382 429.703 125.788 428.975 125.788ZM427.057 114.294H427.939V123.03H427.057V114.294Z" fill="white" fill-opacity="0.6"/>
</g>
<defs>
<filter id="filter0_b_200_4796" x="31.375" y="117.75" width="88.5" height="44.5" filterUnits="userSpaceOnUse" color-interpolation-filters="sRGB">
<feFlood flood-opacity="0" result="BackgroundImageFix"/>
<feGaussianBlur in="BackgroundImageFix" stdDeviation="2.125"/>
<feComposite in2="SourceAlpha" operator="in" result="effect1_backgroundBlur_200_4796"/>
<feBlend mode="normal" in="SourceGraphic" in2="effect1_backgroundBlur_200_4796" result="shape"/>
</filter>
<filter id="filter1_b_200_4796" x="121.375" y="51.75" width="123.5" height="44.5" filterUnits="userSpaceOnUse" color-interpolation-filters="sRGB">
<feFlood flood-opacity="0" result="BackgroundImageFix"/>
<feGaussianBlur in="BackgroundImageFix" stdDeviation="2.125"/>
<feComposite in2="SourceAlpha" operator="in" result="effect1_backgroundBlur_200_4796"/>
<feBlend mode="normal" in="SourceGraphic" in2="effect1_backgroundBlur_200_4796" result="shape"/>
</filter>
<filter id="filter2_b_200_4796" x="236.625" y="136.5" width="108.5" height="44.5" filterUnits="userSpaceOnUse" color-interpolation-filters="sRGB">
<feFlood flood-opacity="0" result="BackgroundImageFix"/>
<feGaussianBlur in="BackgroundImageFix" stdDeviation="2.125"/>
<feComposite in2="SourceAlpha" operator="in" result="effect1_backgroundBlur_200_4796"/>
<feBlend mode="normal" in="SourceGraphic" in2="effect1_backgroundBlur_200_4796" result="shape"/>
</filter>
<filter id="filter3_b_200_4796" x="346.375" y="97.75" width="108.5" height="44.5" filterUnits="userSpaceOnUse" color-interpolation-filters="sRGB">
<feFlood flood-opacity="0" result="BackgroundImageFix"/>
<feGaussianBlur in="BackgroundImageFix" stdDeviation="2.125"/>
<feComposite in2="SourceAlpha" operator="in" result="effect1_backgroundBlur_200_4796"/>
<feBlend mode="normal" in="SourceGraphic" in2="effect1_backgroundBlur_200_4796" result="shape"/>
</filter>
<linearGradient id="paint0_linear_200_4796" x1="75.625" y1="122" x2="75.625" y2="158" gradientUnits="userSpaceOnUse">
<stop stop-color="#A9A3C2" stop-opacity="0.2"/>
<stop offset="1" stop-color="#A9A3C2" stop-opacity="0.047"/>
</linearGradient>
<linearGradient id="paint1_linear_200_4796" x1="183.125" y1="56" x2="183.125" y2="92" gradientUnits="userSpaceOnUse">
<stop stop-color="#A9A3C2" stop-opacity="0.2"/>
<stop offset="1" stop-color="#A9A3C2" stop-opacity="0.047"/>
</linearGradient>
<linearGradient id="paint2_linear_200_4796" x1="290.875" y1="140.75" x2="290.875" y2="176.75" gradientUnits="userSpaceOnUse">
<stop stop-color="#A9A3C2" stop-opacity="0.2"/>
<stop offset="1" stop-color="#A9A3C2" stop-opacity="0.047"/>
</linearGradient>
<linearGradient id="paint3_linear_200_4796" x1="400.625" y1="102" x2="400.625" y2="138" gradientUnits="userSpaceOnUse">
<stop stop-color="#A9A3C2" stop-opacity="0.2"/>
<stop offset="1" stop-color="#A9A3C2" stop-opacity="0.047"/>
</linearGradient>
</defs>
</svg>
