<svg width="389" height="333" viewBox="0 0 389 333" fill="none" xmlns="http://www.w3.org/2000/svg">
<g clip-path="url(#clip0_200_7251)">
<path opacity="0.48" fill-rule="evenodd" clip-rule="evenodd" d="M32.3786 -15.7645L32.2792 -50.752L30.2133 -50.7461L30.3127 -15.7586L-3.75195 -15.6619L-3.74608 -13.596L30.3186 -13.6927L30.4445 30.6354L-3.75195 30.7326L-3.74608 32.7985L30.4504 32.7013L30.5764 77.0483L-3.75195 77.1458L-3.74608 79.2117L30.5822 79.1142L30.7082 123.442L-3.75195 123.54L-3.74608 125.606L30.714 125.508L30.84 169.846L-3.75195 169.944L-3.74608 172.01L30.8459 171.912L30.9718 216.249L-3.75195 216.348L-3.74608 218.414L30.9777 218.315L31.1037 262.653L-3.75195 262.752L-3.74608 264.818L31.1095 264.719L31.2355 309.056L-3.75195 309.155L-3.74608 311.221L31.2413 311.122L31.3397 345.752L33.4056 345.746L33.3072 311.116L77.6359 310.99L77.7347 345.752L79.8006 345.746L79.7018 310.984L124.048 310.858L124.147 345.752L126.213 345.746L126.114 310.852L170.443 310.727L170.542 345.752L172.608 345.746L172.509 310.721L216.846 310.595L216.946 345.752L219.012 345.746L218.912 310.589L263.25 310.463L263.35 345.752L265.416 345.746L265.316 310.457L309.653 310.331L309.754 345.752L311.82 345.746L311.719 310.325L356.057 310.199L356.158 345.752L358.223 345.746L358.122 310.193L392.752 310.095L392.746 308.029L358.117 308.127L357.991 263.79L392.752 263.691L392.746 261.625L357.985 261.724L357.859 217.386L392.752 217.287L392.746 215.221L357.853 215.321L357.727 170.983L392.752 170.883L392.746 168.818L357.721 168.917L357.595 124.58L392.752 124.48L392.746 122.414L357.589 122.514L357.463 78.1855L392.752 78.0853L392.746 76.0194L357.457 76.1196L357.332 31.7727L392.752 31.6721L392.746 29.6062L357.326 29.7068L357.2 -14.6214L392.752 -14.7224L392.746 -16.7883L357.194 -16.6873L357.097 -50.752L355.031 -50.7461L355.128 -16.6814L310.79 -16.5554L310.693 -50.752L308.627 -50.7461L308.725 -16.5496L264.387 -16.4236L264.289 -50.752L262.224 -50.7461L262.321 -16.4177L217.984 -16.2918L217.886 -50.752L215.82 -50.7461L215.918 -16.2859L171.58 -16.16L171.482 -50.752L169.416 -50.7461L169.514 -16.1541L125.185 -16.0282L125.087 -50.752L123.021 -50.7461L123.12 -16.0223L78.7732 -15.8963L78.6742 -50.752L76.6083 -50.7461L76.7073 -15.8904L32.3786 -15.7645ZM310.922 29.8386L310.796 -14.4895L355.134 -14.6155L355.26 29.7126L310.922 29.8386ZM264.519 29.9704L264.393 -14.3577L308.73 -14.4837L308.856 29.8445L264.519 29.9704ZM218.115 30.1023L217.989 -14.2259L262.327 -14.3519L262.453 29.9763L218.115 30.1023ZM171.712 30.2341L171.586 -14.0941L215.923 -14.22L216.049 30.1081L171.712 30.2341ZM125.317 30.3659L125.191 -13.9623L169.52 -14.0882L169.646 30.24L125.317 30.3659ZM78.905 30.4977L78.7791 -13.8304L123.125 -13.9564L123.251 30.3718L78.905 30.4977ZM32.5104 30.6295L32.3845 -13.6986L76.7132 -13.8245L76.8391 30.5036L32.5104 30.6295ZM311.054 76.2514L310.928 31.9045L355.266 31.7785L355.392 76.1255L311.054 76.2514ZM264.651 76.3833L264.525 32.0363L308.862 31.9104L308.988 76.2573L264.651 76.3833ZM218.247 76.5151L218.121 32.1682L262.459 32.0422L262.585 76.3891L218.247 76.5151ZM171.844 76.6469L171.718 32.3L216.055 32.174L216.181 76.521L171.844 76.6469ZM125.449 76.7787L125.323 32.4318L169.652 32.3058L169.778 76.6528L125.449 76.7787ZM79.0368 76.9106L78.9109 32.5636L123.257 32.4377L123.383 76.7846L79.0368 76.9106ZM32.6423 77.0424L32.5163 32.6954L76.845 32.5695L76.971 76.9165L32.6423 77.0424ZM311.186 122.645L311.06 78.3173L355.397 78.1914L355.523 122.52L311.186 122.645ZM264.782 122.777L264.656 78.4492L308.994 78.3232L309.12 122.651L264.782 122.777ZM218.379 122.909L218.253 78.581L262.591 78.455L262.716 122.783L218.379 122.909ZM171.976 123.041L171.85 78.7128L216.187 78.5869L216.313 122.915L171.976 123.041ZM125.581 123.173L125.455 78.8446L169.784 78.7187L169.91 123.047L125.581 123.173ZM79.1687 123.305L79.0427 78.9765L123.389 78.8505L123.515 123.179L79.1687 123.305ZM32.7741 123.436L32.6481 79.1083L76.9768 78.9823L77.1028 123.31L32.7741 123.436ZM311.318 169.049L311.192 124.711L355.529 124.585L355.655 168.923L311.318 169.049ZM264.914 169.181L264.788 124.843L309.126 124.717L309.252 169.055L264.914 169.181ZM218.511 169.313L218.385 124.975L262.722 124.849L262.848 169.187L218.511 169.313ZM172.107 169.444L171.981 125.107L216.319 124.981L216.445 169.318L172.107 169.444ZM125.713 169.576L125.587 125.239L169.915 125.113L170.041 169.45L125.713 169.576ZM79.3005 169.708L79.1745 125.37L123.521 125.245L123.647 169.582L79.3005 169.708ZM32.9059 169.84L32.7799 125.502L77.1086 125.376L77.2346 169.714L32.9059 169.84ZM311.45 215.452L311.324 171.115L355.661 170.989L355.787 215.326L311.45 215.452ZM265.046 215.584L264.92 171.247L309.258 171.121L309.384 215.458L265.046 215.584ZM218.643 215.716L218.517 171.378L262.854 171.253L262.98 215.59L218.643 215.716ZM172.239 215.848L172.113 171.51L216.451 171.384L216.577 215.722L172.239 215.848ZM125.845 215.98L125.719 171.642L170.047 171.516L170.173 215.854L125.845 215.98ZM79.4323 216.111L79.3064 171.774L123.653 171.648L123.779 215.986L79.4323 216.111ZM33.0377 216.243L32.9117 171.906L77.2404 171.78L77.3664 216.117L33.0377 216.243ZM311.581 261.856L311.455 217.518L355.793 217.392L355.919 261.73L311.581 261.856ZM265.178 261.988L265.052 217.65L309.389 217.524L309.515 261.862L265.178 261.988ZM218.774 262.119L218.649 217.782L262.986 217.656L263.112 261.993L218.774 262.119ZM172.371 262.251L172.245 217.914L216.583 217.788L216.709 262.125L172.371 262.251ZM125.976 262.383L125.85 218.046L170.179 217.92L170.305 262.257L125.976 262.383ZM79.5641 262.515L79.4382 218.177L123.785 218.051L123.911 262.389L79.5641 262.515ZM33.1695 262.647L33.0436 218.309L77.3723 218.183L77.4982 262.521L33.1695 262.647ZM311.713 308.259L311.587 263.922L355.925 263.796L356.051 308.133L311.713 308.259ZM265.31 308.391L265.184 264.053L309.521 263.928L309.647 308.265L265.31 308.391ZM218.906 308.523L218.78 264.185L263.118 264.059L263.244 308.397L218.906 308.523ZM172.503 308.655L172.377 264.317L216.714 264.191L216.84 308.529L172.503 308.655ZM126.108 308.787L125.982 264.449L170.311 264.323L170.437 308.661L126.108 308.787ZM79.696 308.918L79.57 264.581L123.916 264.455L124.042 308.792L79.696 308.918ZM33.3014 309.05L33.1754 264.713L77.5041 264.587L77.6301 308.924L33.3014 309.05Z" fill="url(#paint0_radial_200_7251)" fill-opacity="0.25"/>
</g>
<defs>
<radialGradient id="paint0_radial_200_7251" cx="0" cy="0" r="1" gradientUnits="userSpaceOnUse" gradientTransform="translate(190 176) rotate(-90) scale(189)">
<stop stop-color="white"/>
<stop offset="0.21519" stop-color="#F13DD4"/>
<stop offset="0.650314" stop-color="#7000FF"/>
<stop offset="0.932172" stop-color="#270540" stop-opacity="0.05"/>
</radialGradient>
<clipPath id="clip0_200_7251">
<rect width="389" height="333" rx="14" fill="white"/>
</clipPath>
</defs>
</svg>
