<?xml version="1.0" encoding="utf-8" ?>
<svg xmlns="http://www.w3.org/2000/svg" xmlns:xlink="http://www.w3.org/1999/xlink" width="410" height="353" viewBox="0 0 410 353">
	<g opacity="0.25">
		<defs>
			<linearGradient id="linearGradient9833200129" gradientTransform="matrix(3.63519e-15 335 -59.3671 2.05128e-14 197.184 -1.05324e-13)" gradientUnits="userSpaceOnUse" x1="0" y1="0.5" x2="1" y2="0.5">
				<stop offset="0" stop-color="rgb(169, 163, 194)" stop-opacity="0.2"/>
				<stop offset="1" stop-color="rgb(169, 163, 194)" stop-opacity="0.046999998"/>
			</linearGradient>
		</defs>
		<path d="M167.5 0C260.008 0 335 74.9923 335 167.5C335 260.008 260.008 335 167.5 335C74.9923 335 0 260.008 0 167.5C0 74.9923 74.9923 0 167.5 0Z" fill-rule="nonzero" transform="matrix(1 0 0 1 37.5 9)" fill="url(#linearGradient9833200129)"/>
		<defs>
			<linearGradient id="linearGradient4261500732" gradientTransform="matrix(113.239 335 -335 116.861 286.469 -58.4307)" gradientUnits="userSpaceOnUse" x1="0" y1="0.5" x2="1" y2="0.5">
				<stop offset="0" stop-color="rgb(112, 0, 255)"/>
				<stop offset="1" stop-color="rgb(193, 173, 219)"/>
			</linearGradient>
		</defs>
		<path d="M170.584 0.0278194C169.558 0.0092996 168.53 0 167.5 0C166.47 0 165.442 0.00929978 164.416 0.02782L164.425 1.02778L167.491 1.00012L170.575 1.02778L170.584 0.0278194ZM152.825 0.634009C154.638 0.476604 156.46 0.348095 158.289 0.248945L158.344 1.24748C156.525 1.34604 154.714 1.47379 152.911 1.63026L152.825 0.634009ZM140.863 2.10639C142.834 1.79134 144.817 1.51069 146.811 1.26508L146.933 2.25758C144.951 2.50172 142.98 2.78069 141.02 3.09386L140.863 2.10639ZM129.176 4.40448C131.099 3.95435 133.035 3.53736 134.983 3.15413L135.176 4.13532C133.24 4.51625 131.316 4.93074 129.404 5.37816L129.176 4.40448ZM117.235 7.67279C119.289 7.02765 121.359 6.42098 123.446 5.85364L123.708 6.81861C121.634 7.38254 119.576 7.98556 117.535 8.62682L117.235 7.67279ZM106.209 11.5683C108.017 10.8571 109.84 10.1765 111.678 9.52706L112.011 10.4699C110.184 11.1155 108.372 11.792 106.575 12.4989L106.209 11.5683ZM95.0286 16.4467C96.9433 15.5264 98.8781 14.6415 100.832 13.7927L101.231 14.71C99.2882 15.5536 97.365 16.4332 95.4618 17.348L95.0286 16.4467ZM84.7906 21.8115C86.4619 20.8607 88.1511 19.9377 89.8577 19.0434L90.3219 19.9291C88.6255 20.8181 86.9464 21.7355 85.2851 22.6807L84.7906 21.8115ZM74.5052 28.1654C76.0982 27.1001 77.7105 26.0613 79.3415 25.0498L79.8686 25.8996C78.2473 26.9051 76.6446 27.9377 75.0611 28.9967L74.5052 28.1654ZM64.7302 35.223C66.2394 34.0488 67.7692 32.8998 69.3191 31.7767L69.9058 32.5865C68.3652 33.7029 66.8445 34.845 65.3443 36.0123L64.7302 35.223ZM55.5009 42.949C57.0627 41.5437 58.651 40.1674 60.2651 38.8209L60.9057 39.5887C59.3012 40.9273 57.7223 42.2954 56.1698 43.6924L55.5009 42.949ZM46.8527 51.3081C48.31 49.7954 49.7954 48.31 51.3081 46.8527L52.0019 47.5729C50.4981 49.0215 49.0215 50.4981 47.5729 52.0019L46.8527 51.3081ZM38.8209 60.2651C40.1674 58.651 41.5437 57.0627 42.949 55.5009L43.6924 56.1698C42.2954 57.7223 40.9273 59.3012 39.5887 60.9057L38.8209 60.2651ZM31.7767 69.3191C32.8998 67.7692 34.0488 66.2394 35.223 64.7302L36.0123 65.3443C34.845 66.8445 33.7029 68.3652 32.5865 69.9058L31.7767 69.3191ZM25.0498 79.3415C26.0613 77.7106 27.1001 76.0982 28.1654 74.5052L28.9967 75.0611C27.9377 76.6446 26.9051 78.2473 25.8996 79.8686L25.0498 79.3415ZM19.0434 89.8577C19.9377 88.1511 20.8607 86.4619 21.8115 84.7907L22.6807 85.2852C21.7355 86.9464 20.8181 88.6255 19.9291 90.3219L19.0434 89.8577ZM13.7927 100.832C14.6415 98.878 15.5264 96.9432 16.4467 95.0286L17.348 95.4618C16.4332 97.365 15.5536 99.2881 14.71 101.231L13.7927 100.832ZM9.52705 111.678C10.1765 109.84 10.8571 108.017 11.5683 106.209L12.4989 106.575C11.792 108.372 11.1155 110.184 10.4699 112.011L9.52705 111.678ZM5.85364 123.446C6.42098 121.359 7.02765 119.289 7.6728 117.235L8.62682 117.535C7.98555 119.576 7.38254 121.634 6.81861 123.708L5.85364 123.446ZM3.15413 134.983C3.53736 133.035 3.95435 131.099 4.40449 129.176L5.37817 129.404C4.93074 131.316 4.51625 133.24 4.13532 135.176L3.15413 134.983ZM1.26508 146.811C1.51069 144.817 1.79134 142.834 2.10639 140.863L3.09386 141.02C2.78069 142.98 2.50172 144.951 2.25758 146.933L1.26508 146.811ZM0.248946 158.289C0.348096 156.46 0.476606 154.638 0.634012 152.825L1.63026 152.911C1.47379 154.714 1.34604 156.525 1.24748 158.344L0.248946 158.289ZM0.0278194 170.584C0.0092996 169.558 0 168.53 0 167.5C0 166.47 0.00929978 165.442 0.02782 164.416L1.02778 164.425L1.00012 167.509L1.02778 170.575L0.0278194 170.584ZM0.634011 182.175C0.476606 180.362 0.348097 178.54 0.248947 176.711L1.24748 176.656C1.34604 178.475 1.47379 180.286 1.63026 182.089L0.634011 182.175ZM2.10639 194.137C1.79134 192.166 1.51069 190.183 1.26508 188.189L2.25758 188.067C2.50172 190.049 2.78069 192.02 3.09386 193.98L2.10639 194.137ZM4.40448 205.824C3.95435 203.901 3.53735 201.965 3.15412 200.017L4.13532 199.824C4.51625 201.76 4.93074 203.684 5.37816 205.596L4.40448 205.824ZM7.6728 217.765C7.02766 215.711 6.42099 213.641 5.85365 211.554L6.81861 211.292C7.38254 213.366 7.98556 215.424 8.62682 217.465L7.6728 217.765ZM11.5683 228.791C10.8571 226.983 10.1765 225.16 9.52705 223.322L10.4699 222.989C11.1155 224.816 11.792 226.628 12.4989 228.425L11.5683 228.791ZM16.4467 239.971C15.5264 238.057 14.6415 236.122 13.7927 234.168L14.71 233.769C15.5536 235.712 16.4332 237.635 17.348 239.538L16.4467 239.971ZM21.8115 250.209C20.8607 248.538 19.9377 246.849 19.0434 245.142L19.9291 244.678C20.8181 246.374 21.7355 248.054 22.6807 249.715L21.8115 250.209ZM28.1654 260.495C27.1001 258.902 26.0613 257.289 25.0498 255.658L25.8996 255.131C26.9051 256.753 27.9377 258.355 28.9967 259.939L28.1654 260.495ZM35.223 270.27C34.0488 268.761 32.8998 267.231 31.7767 265.681L32.5865 265.094C33.7029 266.635 34.845 268.155 36.0123 269.656L35.223 270.27ZM42.949 279.499C41.5437 277.937 40.1674 276.349 38.8209 274.735L39.5887 274.094C40.9273 275.699 42.2954 277.278 43.6924 278.83L42.949 279.499ZM51.3082 288.147C49.7954 286.69 48.31 285.205 46.8528 283.692L47.5729 282.998C49.0215 284.502 50.4981 285.978 52.0019 287.427L51.3082 288.147ZM60.2651 296.179C58.651 294.833 57.0627 293.456 55.501 292.051L56.1698 291.308C57.7223 292.705 59.3012 294.073 60.9057 295.411L60.2651 296.179ZM69.3191 303.223C67.7692 302.1 66.2394 300.951 64.7302 299.777L65.3443 298.988C66.8445 300.155 68.3652 301.297 69.9058 302.414L69.3191 303.223ZM79.3415 309.95C77.7106 308.939 76.0982 307.9 74.5052 306.835L75.0611 306.003C76.6446 307.062 78.2473 308.095 79.8686 309.1L79.3415 309.95ZM89.8577 315.957C88.1511 315.062 86.4619 314.139 84.7907 313.189L85.2852 312.319C86.9464 313.265 88.6255 314.182 90.3219 315.071L89.8577 315.957ZM100.832 321.207C98.878 320.358 96.9432 319.474 95.0286 318.553L95.4618 317.652C97.365 318.567 99.2881 319.446 101.231 320.29L100.832 321.207ZM111.678 325.473C109.84 324.823 108.017 324.143 106.209 323.432L106.575 322.501C108.372 323.208 110.184 323.884 112.011 324.53L111.678 325.473ZM123.446 329.146C121.359 328.579 119.289 327.972 117.235 327.327L117.535 326.373C119.576 327.014 121.634 327.617 123.708 328.181L123.446 329.146ZM134.983 331.846C133.035 331.463 131.099 331.046 129.176 330.596L129.404 329.622C131.316 330.069 133.24 330.484 135.176 330.865L134.983 331.846ZM146.811 333.735C144.817 333.489 142.834 333.209 140.863 332.894L141.02 331.906C142.98 332.219 144.951 332.498 146.933 332.742L146.811 333.735ZM158.289 334.751C156.46 334.652 154.638 334.523 152.825 334.366L152.911 333.37C154.714 333.526 156.525 333.654 158.344 333.753L158.289 334.751ZM170.584 334.972C169.558 334.991 168.53 335 167.5 335C166.47 335 165.442 334.991 164.416 334.972L164.425 333.972L167.509 334L170.575 333.972L170.584 334.972ZM182.175 334.366C180.362 334.523 178.54 334.652 176.711 334.751L176.656 333.753C178.475 333.654 180.286 333.526 182.089 333.37L182.175 334.366ZM194.137 332.894C192.166 333.209 190.183 333.489 188.189 333.735L188.067 332.742C190.049 332.498 192.02 332.219 193.98 331.906L194.137 332.894ZM205.824 330.596C203.901 331.046 201.965 331.463 200.017 331.846L199.824 330.865C201.76 330.484 203.684 330.069 205.596 329.622L205.824 330.596ZM217.765 327.327C215.711 327.972 213.641 328.579 211.554 329.146L211.292 328.181C213.366 327.618 215.424 327.014 217.465 326.373L217.765 327.327ZM228.791 323.432C226.983 324.143 225.16 324.823 223.322 325.473L222.989 324.53C224.816 323.885 226.628 323.208 228.425 322.501L228.791 323.432ZM239.971 318.553C238.057 319.474 236.122 320.358 234.168 321.207L233.769 320.29C235.712 319.446 237.635 318.567 239.538 317.652L239.971 318.553ZM250.209 313.189C248.538 314.139 246.849 315.062 245.142 315.957L244.678 315.071C246.374 314.182 248.054 313.264 249.715 312.319L250.209 313.189ZM260.495 306.835C258.902 307.9 257.289 308.939 255.658 309.95L255.131 309.1C256.753 308.095 258.355 307.062 259.939 306.003L260.495 306.835ZM270.27 299.777C268.761 300.951 267.231 302.1 265.681 303.223L265.094 302.413C266.635 301.297 268.155 300.155 269.656 298.988L270.27 299.777ZM279.499 292.051C277.937 293.456 276.349 294.833 274.735 296.179L274.094 295.411C275.699 294.073 277.278 292.705 278.83 291.308L279.499 292.051ZM288.147 283.692C286.69 285.205 285.205 286.69 283.692 288.147L282.998 287.427C284.502 285.979 285.979 284.502 287.427 282.998L288.147 283.692ZM296.179 274.735C294.833 276.349 293.456 277.937 292.051 279.499L291.308 278.83C292.705 277.278 294.073 275.699 295.411 274.094L296.179 274.735ZM303.223 265.681C302.1 267.231 300.951 268.761 299.777 270.27L298.988 269.656C300.155 268.155 301.297 266.635 302.414 265.094L303.223 265.681ZM309.95 255.658C308.939 257.289 307.9 258.902 306.835 260.495L306.003 259.939C307.062 258.355 308.095 256.753 309.1 255.131L309.95 255.658ZM315.957 245.142C315.062 246.849 314.139 248.538 313.188 250.209L312.319 249.715C313.265 248.054 314.182 246.374 315.071 244.678L315.957 245.142ZM321.207 234.168C320.358 236.122 319.474 238.057 318.553 239.971L317.652 239.538C318.567 237.635 319.446 235.712 320.29 233.769L321.207 234.168ZM325.473 223.322C324.823 225.16 324.143 226.983 323.432 228.791L322.501 228.425C323.208 226.628 323.884 224.816 324.53 222.989L325.473 223.322ZM329.146 211.554C328.579 213.641 327.972 215.711 327.327 217.765L326.373 217.465C327.014 215.424 327.617 213.366 328.181 211.292L329.146 211.554ZM331.846 200.017C331.463 201.965 331.046 203.901 330.596 205.824L329.622 205.596C330.069 203.684 330.484 201.76 330.865 199.824L331.846 200.017ZM333.735 188.189C333.489 190.183 333.209 192.166 332.894 194.137L331.906 193.98C332.219 192.02 332.498 190.049 332.742 188.067L333.735 188.189ZM334.751 176.711C334.652 178.54 334.523 180.362 334.366 182.175L333.37 182.089C333.526 180.286 333.654 178.475 333.753 176.656L334.751 176.711ZM334.972 164.416C334.991 165.442 335 166.47 335 167.5C335 168.53 334.991 169.558 334.972 170.584L333.972 170.575L334 167.509L333.972 164.425L334.972 164.416ZM334.366 152.825C334.523 154.638 334.652 156.46 334.751 158.289L333.753 158.344C333.654 156.525 333.526 154.714 333.37 152.911L334.366 152.825ZM332.894 140.863C333.209 142.834 333.489 144.817 333.735 146.811L332.742 146.933C332.498 144.951 332.219 142.98 331.906 141.02L332.894 140.863ZM330.596 129.176C331.046 131.099 331.463 133.035 331.846 134.983L330.865 135.176C330.484 133.24 330.069 131.316 329.622 129.404L330.596 129.176ZM327.327 117.235C327.972 119.289 328.579 121.359 329.146 123.446L328.181 123.708C327.618 121.634 327.014 119.576 326.373 117.535L327.327 117.235ZM323.432 106.209C324.143 108.017 324.823 109.84 325.473 111.678L324.53 112.011C323.885 110.184 323.208 108.372 322.501 106.575L323.432 106.209ZM318.553 95.0286C319.474 96.9433 320.358 98.8781 321.207 100.832L320.29 101.231C319.446 99.2882 318.567 97.365 317.652 95.4618L318.553 95.0286ZM313.189 84.7906C314.139 86.4619 315.062 88.1511 315.957 89.8577L315.071 90.3219C314.182 88.6255 313.264 86.9464 312.319 85.2851L313.189 84.7906ZM306.835 74.5052C307.9 76.0982 308.939 77.7105 309.95 79.3415L309.1 79.8686C308.095 78.2473 307.062 76.6446 306.003 75.0611L306.835 74.5052ZM299.777 64.7302C300.951 66.2394 302.1 67.7692 303.223 69.319L302.413 69.9058C301.297 68.3652 300.155 66.8445 298.988 65.3443L299.777 64.7302ZM292.051 55.5009C293.456 57.0627 294.833 58.651 296.179 60.2651L295.411 60.9057C294.073 59.3012 292.705 57.7223 291.308 56.1698L292.051 55.5009ZM283.692 46.8528C285.205 48.31 286.69 49.7954 288.147 51.3082L287.427 52.0019C285.978 50.4981 284.502 49.0215 282.998 47.5729L283.692 46.8528ZM274.735 38.8209C276.349 40.1674 277.937 41.5437 279.499 42.949L278.83 43.6924C277.278 42.2954 275.699 40.9273 274.094 39.5887L274.735 38.8209ZM265.681 31.7767C267.231 32.8998 268.761 34.0488 270.27 35.223L269.656 36.0123C268.155 34.845 266.635 33.7029 265.094 32.5865L265.681 31.7767ZM255.658 25.0498C257.289 26.0613 258.902 27.1001 260.495 28.1654L259.939 28.9967C258.355 27.9377 256.753 26.9051 255.131 25.8996L255.658 25.0498ZM245.142 19.0434C246.849 19.9378 248.538 20.8607 250.209 21.8115L249.715 22.6807C248.054 21.7355 246.374 20.8181 244.678 19.9291L245.142 19.0434ZM234.168 13.7927C236.122 14.6415 238.057 15.5264 239.971 16.4467L239.538 17.348C237.635 16.4332 235.712 15.5536 233.769 14.71L234.168 13.7927ZM223.322 9.52705C225.16 10.1765 226.983 10.8571 228.791 11.5683L228.425 12.4989C226.628 11.792 224.816 11.1155 222.989 10.4699L223.322 9.52705ZM211.554 5.85365C213.641 6.42099 215.711 7.02766 217.765 7.6728L217.465 8.62682C215.424 7.98556 213.366 7.38254 211.292 6.81861L211.554 5.85365ZM200.017 3.15413C201.965 3.53735 203.901 3.95435 205.824 4.40448L205.596 5.37817C203.684 4.93074 201.76 4.51625 199.824 4.13532L200.017 3.15413ZM188.189 1.26508C190.183 1.51069 192.166 1.79134 194.137 2.10639L193.98 3.09386C192.02 2.78069 190.049 2.50172 188.067 2.25758L188.189 1.26508ZM176.711 0.248946C178.54 0.348096 180.362 0.476604 182.175 0.634009L182.089 1.63026C180.286 1.47379 178.475 1.34604 176.656 1.24748L176.711 0.248946Z" fill-rule="evenodd" transform="matrix(1 0 0 1 37.5 9)" fill="url(#linearGradient4261500732)"/>
	</g>
	<g opacity="0.42">
		<defs>
			<linearGradient id="linearGradient2215998606" gradientTransform="matrix(2.9407e-15 271 -48.0253 1.6594e-14 159.513 -8.52027e-14)" gradientUnits="userSpaceOnUse" x1="0" y1="0.5" x2="1" y2="0.5">
				<stop offset="0" stop-color="rgb(169, 163, 194)" stop-opacity="0.2"/>
				<stop offset="1" stop-color="rgb(169, 163, 194)" stop-opacity="0.046999998"/>
			</linearGradient>
		</defs>
		<path d="M135.5 0C210.335 0 271 60.6654 271 135.5C271 210.335 210.335 271 135.5 271C60.6654 271 0 210.335 0 135.5C0 60.6654 60.6654 0 135.5 0Z" fill-rule="nonzero" transform="matrix(1 0 0 1 69.5 41)" fill="url(#linearGradient2215998606)"/>
		<defs>
			<linearGradient id="linearGradient1796742601" gradientTransform="matrix(91.6057 271 -271 94.5357 231.74 -47.2678)" gradientUnits="userSpaceOnUse" x1="0" y1="0.5" x2="1" y2="0.5">
				<stop offset="0" stop-color="rgb(112, 0, 255)"/>
				<stop offset="1" stop-color="rgb(193, 173, 219)"/>
			</linearGradient>
		</defs>
		<path d="M138.534 0.0332999C137.525 0.0111385 136.514 0 135.5 0C134.486 0 133.475 0.0111388 132.466 0.0333006L132.488 1.03306Q133.993 1 135.5 1Q137.007 1 138.512 1.03306L138.534 0.0332999ZM120.499 0.820932C122.47 0.603946 124.452 0.429199 126.447 0.297619L126.513 1.29545C124.533 1.42606 122.565 1.59953 120.609 1.81492L120.499 0.820932ZM108.838 2.62234C110.754 2.24009 112.684 1.89823 114.628 1.59769L114.781 2.58595C112.851 2.88426 110.935 3.22359 109.034 3.603L108.838 2.62234ZM97.5264 5.3931C99.3801 4.85299 101.25 4.35142 103.136 3.88932L103.374 4.86058C101.502 5.31925 99.646 5.81709 97.8061 6.35317L97.5264 5.3931ZM86.6089 9.08879C88.3932 8.39823 90.1957 7.74436 92.0156 7.12811L92.3363 8.07527C90.53 8.68695 88.7408 9.33596 86.9698 10.0214L86.6089 9.08879ZM75.6183 13.9161C77.3218 13.0756 79.0454 12.2697 80.7884 11.4996L81.1925 12.4143C79.4625 13.1787 77.7516 13.9786 76.0608 14.8129L75.6183 13.9161ZM65.1626 19.6628C66.7771 18.6804 68.4137 17.7308 70.0716 16.8149L70.5551 17.6902C68.9095 18.5993 67.285 19.5419 65.6825 20.5171L65.1626 19.6628ZM55.2933 26.2774C56.9623 25.0497 58.6605 23.8593 60.3867 22.7075L60.9417 23.5394C59.2283 24.6827 57.5426 25.8643 55.8858 27.083L55.2933 26.2774ZM46.0617 33.7085C47.6149 32.3427 49.1996 31.0119 50.8146 29.7174L51.44 30.4976C49.8369 31.7827 48.2638 33.1037 46.722 34.4595L46.0617 33.7085ZM37.5192 41.9047C38.9476 40.4098 40.4098 38.9476 41.9047 37.5192L42.5956 38.2422C41.1116 39.6601 39.6601 41.1116 38.2422 42.5956L37.5192 41.9047ZM29.7174 50.8146C31.0119 49.1996 32.3427 47.6149 33.7085 46.0617L34.4595 46.722C33.1037 48.2638 31.7827 49.8369 30.4976 51.44L29.7174 50.8146ZM22.7075 60.3866C23.8593 58.6605 25.0497 56.9623 26.2774 55.2933L27.083 55.8858C25.8643 57.5426 24.6827 59.2283 23.5394 60.9417L22.7075 60.3866ZM16.8149 70.0716C17.7308 68.4137 18.6804 66.7771 19.6628 65.1626L20.5171 65.6825C19.5419 67.285 18.5993 68.9095 17.6902 70.5551L16.8149 70.0716ZM11.4996 80.7884C12.2697 79.0454 13.0756 77.3218 13.9161 75.6183L14.8129 76.0608C13.9786 77.7516 13.1787 79.4625 12.4143 81.1925L11.4996 80.7884ZM7.1281 92.0156C7.74436 90.1957 8.39824 88.3932 9.0888 86.6089L10.0214 86.9698C9.33596 88.7408 8.68695 90.53 8.07528 92.3363L7.1281 92.0156ZM3.88933 103.136C4.35143 101.25 4.85299 99.3801 5.3931 97.5264L6.35318 97.8061C5.81709 99.646 5.31925 101.502 4.86058 103.374L3.88933 103.136ZM1.59769 114.628C1.89823 112.684 2.24009 110.754 2.62234 108.838L3.603 109.034C3.22359 110.935 2.88426 112.851 2.58595 114.781L1.59769 114.628ZM0.297618 126.447C0.429199 124.452 0.603946 122.469 0.820934 120.499L1.81492 120.609C1.59953 122.565 1.42606 124.533 1.29545 126.513L0.297618 126.447ZM0.0332999 138.534C0.0111385 137.525 0 136.514 0 135.5C0 134.486 0.0111388 133.475 0.0333006 132.466L1.03306 132.488Q1 133.992 1 135.5Q1 137.007 1.03306 138.512L0.0332999 138.534ZM0.820931 150.501C0.603943 148.53 0.429197 146.548 0.297617 144.553L1.29545 144.487C1.42606 146.467 1.59953 148.435 1.81492 150.391L0.820931 150.501ZM2.62234 162.162C2.24009 160.246 1.89823 158.316 1.59769 156.372L2.58595 156.22C2.88426 158.149 3.22359 160.065 3.603 161.966L2.62234 162.162ZM5.3931 173.474C4.85299 171.62 4.35143 169.75 3.88932 167.864L4.86058 167.626C5.31925 169.498 5.81709 171.354 6.35317 173.194L5.3931 173.474ZM9.08879 184.391C8.39823 182.607 7.74436 180.804 7.1281 178.984L8.07527 178.664C8.68695 180.47 9.33596 182.259 10.0214 184.03L9.08879 184.391ZM13.9161 195.382C13.0756 193.678 12.2697 191.955 11.4996 190.212L12.4143 189.807C13.1787 191.537 13.9786 193.248 14.8129 194.939L13.9161 195.382ZM19.6628 205.837C18.6804 204.223 17.7308 202.586 16.8149 200.928L17.6902 200.445C18.5993 202.09 19.5419 203.715 20.5171 205.318L19.6628 205.837ZM26.2774 215.707C25.0497 214.038 23.8593 212.339 22.7075 210.613L23.5394 210.058C24.6827 211.772 25.8643 213.457 27.083 215.114L26.2774 215.707ZM33.7085 224.938C32.3428 223.385 31.012 221.8 29.7174 220.185L30.4976 219.56C31.7827 221.163 33.1037 222.736 34.4595 224.278L33.7085 224.938ZM41.9047 233.481C40.4098 232.052 38.9476 230.59 37.5192 229.095L38.2422 228.404C39.6601 229.888 41.1116 231.34 42.5956 232.758L41.9047 233.481ZM50.8146 241.283C49.1996 239.988 47.6149 238.657 46.0617 237.291L46.722 236.541C48.2638 237.896 49.8369 239.217 51.44 240.502L50.8146 241.283ZM60.3866 248.292C58.6605 247.141 56.9623 245.95 55.2933 244.723L55.8858 243.917C57.5426 245.136 59.2283 246.317 60.9417 247.461L60.3866 248.292ZM70.0715 254.185C68.4137 253.269 66.7771 252.32 65.1626 251.337L65.6825 250.483C67.285 251.458 68.9095 252.401 70.5551 253.31L70.0715 254.185ZM80.7884 259.5C79.0454 258.73 77.3218 257.924 75.6183 257.084L76.0608 256.187C77.7516 257.021 79.4625 257.821 81.1925 258.586L80.7884 259.5ZM92.0156 263.872C90.1957 263.256 88.3932 262.602 86.6089 261.911L86.9698 260.979C88.7408 261.664 90.53 262.313 92.3363 262.925L92.0156 263.872ZM103.136 267.111C101.25 266.649 99.3801 266.147 97.5264 265.607L97.8061 264.647C99.646 265.183 101.502 265.681 103.374 266.139L103.136 267.111ZM114.628 269.402C112.684 269.102 110.754 268.76 108.838 268.378L109.034 267.397C110.935 267.776 112.851 268.116 114.781 268.414L114.628 269.402ZM126.447 270.702C124.452 270.571 122.469 270.396 120.499 270.179L120.609 269.185C122.565 269.4 124.533 269.574 126.513 269.705L126.447 270.702ZM138.534 270.967C137.525 270.989 136.514 271 135.5 271C134.486 271 133.475 270.989 132.466 270.967L132.488 269.967Q133.992 270 135.5 270Q137.008 270 138.512 269.967L138.534 270.967ZM150.501 270.179C148.53 270.396 146.548 270.571 144.553 270.702L144.487 269.705C146.467 269.574 148.435 269.4 150.391 269.185L150.501 270.179ZM162.162 268.378C160.246 268.76 158.316 269.102 156.372 269.402L156.22 268.414C158.149 268.116 160.065 267.776 161.966 267.397L162.162 268.378ZM173.474 265.607C171.62 266.147 169.75 266.649 167.864 267.111L167.626 266.139C169.498 265.681 171.354 265.183 173.194 264.647L173.474 265.607ZM184.391 261.911C182.607 262.602 180.804 263.256 178.984 263.872L178.664 262.925C180.47 262.313 182.259 261.664 184.03 260.979L184.391 261.911ZM195.382 257.084C193.678 257.924 191.955 258.73 190.212 259.5L189.807 258.586C191.537 257.821 193.248 257.021 194.939 256.187L195.382 257.084ZM205.837 251.337C204.223 252.32 202.586 253.269 200.928 254.185L200.445 253.31C202.09 252.401 203.715 251.458 205.318 250.483L205.837 251.337ZM215.707 244.723C214.038 245.95 212.339 247.141 210.613 248.292L210.058 247.461C211.772 246.317 213.457 245.136 215.114 243.917L215.707 244.723ZM224.938 237.291C223.385 238.657 221.8 239.988 220.185 241.283L219.56 240.502C221.163 239.217 222.736 237.896 224.278 236.541L224.938 237.291ZM233.481 229.095C232.052 230.59 230.59 232.052 229.095 233.481L228.404 232.758C229.888 231.34 231.34 229.888 232.758 228.404L233.481 229.095ZM241.283 220.185C239.988 221.8 238.657 223.385 237.291 224.938L236.541 224.278C237.896 222.736 239.217 221.163 240.502 219.56L241.283 220.185ZM248.292 210.613C247.141 212.339 245.95 214.038 244.723 215.707L243.917 215.114C245.136 213.457 246.317 211.772 247.461 210.058L248.292 210.613ZM254.185 200.928C253.269 202.586 252.32 204.223 251.337 205.837L250.483 205.318C251.458 203.715 252.401 202.09 253.31 200.445L254.185 200.928ZM259.5 190.212C258.73 191.955 257.924 193.678 257.084 195.382L256.187 194.939C257.021 193.248 257.821 191.537 258.586 189.807L259.5 190.212ZM263.872 178.984C263.256 180.804 262.602 182.607 261.911 184.391L260.979 184.03C261.664 182.259 262.313 180.47 262.925 178.664L263.872 178.984ZM267.111 167.864C266.649 169.75 266.147 171.62 265.607 173.474L264.647 173.194C265.183 171.354 265.681 169.498 266.139 167.626L267.111 167.864ZM269.402 156.372C269.102 158.316 268.76 160.246 268.378 162.162L267.397 161.966C267.776 160.065 268.116 158.149 268.414 156.219L269.402 156.372ZM270.702 144.553C270.571 146.548 270.396 148.53 270.179 150.501L269.185 150.391C269.4 148.435 269.574 146.467 269.705 144.487L270.702 144.553ZM270.967 132.466C270.989 133.475 271 134.486 271 135.5C271 136.514 270.989 137.525 270.967 138.534L269.967 138.512Q270 137.008 270 135.5Q270 133.992 269.967 132.488L270.967 132.466ZM270.179 120.499C270.396 122.469 270.571 124.452 270.702 126.447L269.705 126.513C269.574 124.533 269.4 122.565 269.185 120.609L270.179 120.499ZM268.378 108.838C268.76 110.754 269.102 112.684 269.402 114.628L268.414 114.781C268.116 112.851 267.776 110.935 267.397 109.034L268.378 108.838ZM265.607 97.5264C266.147 99.3801 266.649 101.25 267.111 103.136L266.139 103.374C265.681 101.502 265.183 99.646 264.647 97.8061L265.607 97.5264ZM261.911 86.6089C262.602 88.3932 263.256 90.1957 263.872 92.0156L262.925 92.3363C262.313 90.53 261.664 88.7408 260.979 86.9698L261.911 86.6089ZM257.084 75.6183C257.924 77.3218 258.73 79.0454 259.5 80.7884L258.586 81.1925C257.821 79.4625 257.021 77.7516 256.187 76.0608L257.084 75.6183ZM251.337 65.1626C252.32 66.7771 253.269 68.4137 254.185 70.0716L253.31 70.5551C252.401 68.9095 251.458 67.285 250.483 65.6825L251.337 65.1626ZM244.723 55.2933C245.95 56.9623 247.141 58.6605 248.292 60.3866L247.461 60.9417C246.317 59.2283 245.136 57.5426 243.917 55.8858L244.723 55.2933ZM237.291 46.0617C238.657 47.6149 239.988 49.1996 241.283 50.8146L240.502 51.44C239.217 49.8369 237.896 48.2638 236.541 46.722L237.291 46.0617ZM229.095 37.5192C230.59 38.9476 232.052 40.4098 233.481 41.9047L232.758 42.5956C231.34 41.1116 229.888 39.6601 228.404 38.2422L229.095 37.5192ZM220.185 29.7174C221.8 31.0119 223.385 32.3427 224.938 33.7085L224.278 34.4595C222.736 33.1037 221.163 31.7827 219.56 30.4976L220.185 29.7174ZM210.613 22.7075C212.339 23.8593 214.038 25.0497 215.707 26.2774L215.114 27.083C213.457 25.8643 211.772 24.6827 210.058 23.5394L210.613 22.7075ZM200.928 16.8149C202.586 17.7308 204.223 18.6804 205.837 19.6628L205.318 20.5171C203.715 19.5419 202.09 18.5993 200.445 17.6902L200.928 16.8149ZM190.212 11.4996C191.955 12.2697 193.678 13.0756 195.382 13.9161L194.939 14.8129C193.248 13.9786 191.537 13.1787 189.807 12.4143L190.212 11.4996ZM178.984 7.12811C180.804 7.74436 182.607 8.39823 184.391 9.08879L184.03 10.0214C182.259 9.33596 180.47 8.68695 178.664 8.07528L178.984 7.12811ZM167.864 3.88932C169.75 4.35143 171.62 4.85299 173.474 5.3931L173.194 6.35318C171.354 5.81709 169.498 5.31925 167.626 4.86058L167.864 3.88932ZM156.372 1.59769C158.316 1.89823 160.246 2.24009 162.162 2.62234L161.966 3.603C160.065 3.22359 158.149 2.88426 156.219 2.58595L156.372 1.59769ZM144.553 0.297618C146.548 0.429198 148.53 0.603944 150.501 0.820931L150.391 1.81492C148.435 1.59953 146.467 1.42606 144.487 1.29545L144.553 0.297618Z" fill-rule="evenodd" transform="matrix(1 0 0 1 69.5 41)" fill="url(#linearGradient1796742601)"/>
	</g>
	<g opacity="0.7">
		<path d="M105.5 0C163.766 0 211 47.234 211 105.5C211 163.766 163.766 211 105.5 211C47.234 211 0 163.766 0 105.5C0 47.234 47.234 0 105.5 0Z" fill-rule="nonzero" transform="matrix(1 0 0 1 99.5 71)" fill="rgb(48, 41, 61)"/>
		<defs>
			<linearGradient id="linearGradient9948634422" gradientTransform="matrix(2.28962e-15 211 -37.3924 1.292e-14 124.196 -6.63386e-14)" gradientUnits="userSpaceOnUse" x1="0" y1="0.5" x2="1" y2="0.5">
				<stop offset="0" stop-color="rgb(169, 163, 194)" stop-opacity="0.2"/>
				<stop offset="1" stop-color="rgb(169, 163, 194)" stop-opacity="0.046999998"/>
			</linearGradient>
		</defs>
		<path d="M105.5 0C163.766 0 211 47.234 211 105.5C211 163.766 163.766 211 105.5 211C47.234 211 0 163.766 0 105.5C0 47.234 47.234 0 105.5 0Z" fill-rule="nonzero" transform="matrix(1 0 0 1 99.5 71)" fill="url(#linearGradient9948634422)"/>
		<defs>
			<linearGradient id="linearGradient7173161628" gradientTransform="matrix(71.324 211 -211 73.6053 180.433 -36.8026)" gradientUnits="userSpaceOnUse" x1="0" y1="0.5" x2="1" y2="0.5">
				<stop offset="0" stop-color="rgb(112, 0, 255)"/>
				<stop offset="1" stop-color="rgb(193, 173, 219)"/>
			</linearGradient>
		</defs>
		<path d="M108.514 0.0422277C107.513 0.0141384 106.508 0 105.5 0C104.492 0 103.487 0.0141384 102.486 0.0422277L102.514 1.04183Q104.005 1 105.5 1Q106.995 1 108.486 1.04183L108.514 0.0422277ZM90.6501 1.03694C92.5909 0.763549 94.5485 0.542959 96.5217 0.376674L96.6056 1.37314C94.6512 1.53785 92.712 1.75636 90.7896 2.02716L90.6501 1.03694ZM79.2214 3.29895C81.0883 2.82034 82.9751 2.39153 84.8804 2.01403L85.0748 2.99496C83.1876 3.36886 81.3188 3.79358 79.4697 4.26762L79.2214 3.29895ZM67.738 6.95921C69.6921 6.20992 71.6741 5.51708 73.6821 4.88269L73.9834 5.83623C71.9946 6.46456 70.0315 7.15078 68.096 7.89292L67.738 6.95921ZM56.8661 11.8539C58.7061 10.8964 60.5779 9.99147 62.4795 9.14119L62.8877 10.0541C61.0042 10.8963 59.1502 11.7926 57.3277 12.741L56.8661 11.8539ZM46.6889 17.8998C48.4003 16.7486 50.1474 15.6461 51.928 14.5945L52.4365 15.4555C50.6728 16.4972 48.9423 17.5892 47.247 18.7296L46.6889 17.8998ZM37.2898 25.0135C38.8581 23.6831 40.4658 22.3976 42.1109 21.1592L42.7124 21.9582C41.0828 23.1849 39.4902 24.4582 37.9367 25.7761L37.2898 25.0135ZM28.7521 33.1117C30.1628 31.6166 31.6166 30.1628 33.1117 28.7521L33.7979 29.4795C32.317 30.8768 30.8768 32.317 29.4795 33.7979L28.7521 33.1117ZM21.1592 42.1109C22.3976 40.4658 23.6831 38.8581 25.0135 37.2898L25.7761 37.9367C24.4582 39.4902 23.1849 41.0828 21.9582 42.7124L21.1592 42.1109ZM14.5945 51.928C15.6461 50.1474 16.7486 48.4003 17.8998 46.6889L18.7296 47.247C17.5892 48.9423 16.4972 50.6728 15.4555 52.4365L14.5945 51.928ZM9.14119 62.4795C9.99147 60.5779 10.8964 58.7061 11.8539 56.8661L12.741 57.3277C11.7926 59.1502 10.8963 61.0042 10.0541 62.8877L9.14119 62.4795ZM4.88269 73.6821C5.51708 71.6741 6.20992 69.6921 6.95921 67.738L7.89292 68.096C7.15078 70.0314 6.46456 71.9946 5.83623 73.9834L4.88269 73.6821ZM2.01403 84.8804C2.39153 82.9751 2.82034 81.0883 3.29895 79.2214L4.26762 79.4697C3.79358 81.3188 3.36886 83.1876 2.99496 85.0747L2.01403 84.8804ZM0.376674 96.5217C0.542959 94.5485 0.763548 92.5909 1.03694 90.6502L2.02716 90.7896C1.75636 92.712 1.53785 94.6512 1.37314 96.6056L0.376674 96.5217ZM0.0422275 108.514C0.0141383 107.513 0 106.508 0 105.5C0 104.492 0.0141383 103.487 0.0422275 102.486L1.04183 102.514Q1 104.005 1 105.5Q1 106.995 1.04183 108.486L0.0422275 108.514ZM1.03694 120.35C0.763549 118.409 0.54296 116.451 0.376674 114.478L1.37314 114.394C1.53785 116.349 1.75636 118.288 2.02716 120.21L1.03694 120.35ZM3.29895 131.779C2.82034 129.912 2.39154 128.025 2.01404 126.12L2.99496 125.925C3.36886 127.812 3.79358 129.681 4.26762 131.53L3.29895 131.779ZM6.95921 143.262C6.20992 141.308 5.51708 139.326 4.88269 137.318L5.83623 137.017C6.46456 139.005 7.15078 140.969 7.89292 142.904L6.95921 143.262ZM11.8539 154.134C10.8964 152.294 9.99147 150.422 9.14119 148.52L10.0541 148.112C10.8963 149.996 11.7926 151.85 12.741 153.672L11.8539 154.134ZM17.8998 164.311C16.7486 162.6 15.6461 160.853 14.5945 159.072L15.4555 158.563C16.4972 160.327 17.5892 162.058 18.7296 163.753L17.8998 164.311ZM25.0135 173.71C23.6831 172.142 22.3976 170.534 21.1592 168.889L21.9582 168.288C23.1849 169.917 24.4582 171.51 25.7761 173.063L25.0135 173.71ZM33.1117 182.248C31.6166 180.837 30.1628 179.383 28.7521 177.888L29.4795 177.202C30.8768 178.683 32.317 180.123 33.7979 181.521L33.1117 182.248ZM42.1109 189.841C40.4658 188.602 38.8581 187.317 37.2898 185.986L37.9367 185.224C39.4902 186.542 41.0828 187.815 42.7124 189.042L42.1109 189.841ZM51.928 196.406C50.1474 195.354 48.4003 194.251 46.6889 193.1L47.247 192.27C48.9423 193.411 50.6728 194.503 52.4365 195.544L51.928 196.406ZM62.4795 201.859C60.5779 201.009 58.7061 200.104 56.866 199.146L57.3277 198.259C59.1502 199.207 61.0042 200.104 62.8877 200.946L62.4795 201.859ZM73.6821 206.117C71.6741 205.483 69.6921 204.79 67.738 204.041L68.096 203.107C70.0314 203.849 71.9946 204.535 73.9834 205.164L73.6821 206.117ZM84.8804 208.986C82.9751 208.608 81.0883 208.18 79.2214 207.701L79.4697 206.732C81.3188 207.206 83.1876 207.631 85.0747 208.005L84.8804 208.986ZM96.5217 210.623C94.5485 210.457 92.5909 210.236 90.6502 209.963L90.7896 208.973C92.712 209.244 94.6512 209.462 96.6056 209.627L96.5217 210.623ZM108.514 210.958C107.513 210.986 106.508 211 105.5 211C104.492 211 103.487 210.986 102.486 210.958L102.514 209.958Q104.005 210 105.5 210Q106.995 210 108.486 209.958L108.514 210.958ZM120.35 209.963C118.409 210.236 116.451 210.457 114.478 210.623L114.394 209.627C116.349 209.462 118.288 209.244 120.21 208.973L120.35 209.963ZM131.779 207.701C129.912 208.18 128.025 208.608 126.12 208.986L125.925 208.005C127.812 207.631 129.681 207.206 131.53 206.732L131.779 207.701ZM143.262 204.041C141.308 204.79 139.326 205.483 137.318 206.117L137.017 205.164C139.005 204.535 140.969 203.849 142.904 203.107L143.262 204.041ZM154.134 199.146C152.294 200.104 150.422 201.009 148.52 201.859L148.112 200.946C149.996 200.104 151.85 199.207 153.672 198.259L154.134 199.146ZM164.311 193.1C162.6 194.251 160.853 195.354 159.072 196.406L158.563 195.544C160.327 194.503 162.058 193.411 163.753 192.27L164.311 193.1ZM173.71 185.986C172.142 187.317 170.534 188.602 168.889 189.841L168.288 189.042C169.917 187.815 171.51 186.542 173.063 185.224L173.71 185.986ZM182.248 177.888C180.837 179.383 179.383 180.837 177.888 182.248L177.202 181.521C178.683 180.123 180.123 178.683 181.521 177.202L182.248 177.888ZM189.841 168.889C188.602 170.534 187.317 172.142 185.986 173.71L185.224 173.063C186.542 171.51 187.815 169.917 189.042 168.288L189.841 168.889ZM196.406 159.072C195.354 160.853 194.251 162.6 193.1 164.311L192.27 163.753C193.411 162.058 194.503 160.327 195.544 158.563L196.406 159.072ZM201.859 148.52C201.009 150.422 200.104 152.294 199.146 154.134L198.259 153.672C199.207 151.85 200.104 149.996 200.946 148.112L201.859 148.52ZM206.117 137.318C205.483 139.326 204.79 141.308 204.041 143.262L203.107 142.904C203.849 140.969 204.535 139.005 205.164 137.017L206.117 137.318ZM208.986 126.12C208.608 128.025 208.18 129.912 207.701 131.779L206.732 131.53C207.206 129.681 207.631 127.812 208.005 125.925L208.986 126.12ZM210.623 114.478C210.457 116.451 210.236 118.409 209.963 120.35L208.973 120.21C209.244 118.288 209.462 116.349 209.627 114.394L210.623 114.478ZM210.958 102.486C210.986 103.487 211 104.492 211 105.5C211 106.508 210.986 107.513 210.958 108.514L209.958 108.486Q210 106.995 210 105.5Q210 104.005 209.958 102.514L210.958 102.486ZM209.963 90.6501C210.236 92.5909 210.457 94.5485 210.623 96.5217L209.627 96.6056C209.462 94.6512 209.244 92.712 208.973 90.7896L209.963 90.6501ZM207.701 79.2214C208.18 81.0883 208.608 82.9751 208.986 84.8804L208.005 85.0748C207.631 83.1876 207.206 81.3188 206.732 79.4697L207.701 79.2214ZM204.041 67.738C204.79 69.6921 205.483 71.6741 206.117 73.6821L205.164 73.9834C204.535 71.9946 203.849 70.0315 203.107 68.096L204.041 67.738ZM199.146 56.866C200.104 58.7061 201.009 60.5779 201.859 62.4795L200.946 62.8877C200.104 61.0042 199.207 59.1502 198.259 57.3277L199.146 56.866ZM193.1 46.6889C194.251 48.4003 195.354 50.1474 196.406 51.928L195.544 52.4365C194.503 50.6728 193.411 48.9423 192.27 47.247L193.1 46.6889ZM185.986 37.2898C187.317 38.8581 188.602 40.4658 189.841 42.1109L189.042 42.7124C187.815 41.0828 186.542 39.4902 185.224 37.9367L185.986 37.2898ZM177.888 28.7521C179.383 30.1628 180.837 31.6166 182.248 33.1117L181.521 33.7979C180.123 32.317 178.683 30.8768 177.202 29.4795L177.888 28.7521ZM168.889 21.1592C170.534 22.3976 172.142 23.6831 173.71 25.0135L173.063 25.7761C171.51 24.4582 169.917 23.1849 168.288 21.9582L168.889 21.1592ZM159.072 14.5945C160.853 15.6461 162.6 16.7485 164.311 17.8998L163.753 18.7296C162.058 17.5892 160.327 16.4972 158.563 15.4555L159.072 14.5945ZM148.52 9.14118C150.422 9.99146 152.294 10.8964 154.134 11.8539L153.672 12.741C151.85 11.7926 149.996 10.8963 148.112 10.0541L148.52 9.14118ZM137.318 4.88268C139.326 5.51707 141.308 6.20991 143.262 6.9592L142.904 7.89292C140.969 7.15078 139.005 6.46456 137.017 5.83623L137.318 4.88268ZM126.12 2.01403C128.025 2.39153 129.912 2.82034 131.779 3.29895L131.53 4.26762C129.681 3.79358 127.812 3.36886 125.925 2.99496L126.12 2.01403ZM114.478 0.376674C116.451 0.542959 118.409 0.763548 120.35 1.03694L120.21 2.02716C118.288 1.75636 116.349 1.53785 114.394 1.37314L114.478 0.376674Z" fill-rule="evenodd" transform="matrix(1 0 0 1 99.5 71)" fill="url(#linearGradient7173161628)"/>
	</g>
	<circle cx="77.5" cy="77.5" r="77.5" transform="matrix(1 0 0 1 127.5 99)" fill="rgb(48, 41, 61)"/>
	<circle cx="77.5" cy="77.5" r="77.5" transform="matrix(1 0 0 1 127.5 99)" fill="rgb(12, 0, 40)"/>
	<defs>
		<linearGradient id="linearGradient6253434882" gradientTransform="matrix(52.3944 155 -155 54.0702 132.545 -27.0351)" gradientUnits="userSpaceOnUse" x1="0" y1="0.5" x2="1" y2="0.5">
			<stop offset="0" stop-color="rgb(112, 0, 255)"/>
			<stop offset="1" stop-color="rgb(193, 173, 219)"/>
		</linearGradient>
	</defs>
	<path d="M155 77.5C155 34.6979 120.302 0 77.5 0C34.6979 0 0 34.6979 0 77.5C0 120.302 34.6979 155 77.5 155C120.302 155 155 120.302 155 77.5ZM62.282 3.53391Q69.7781 1.99999 77.5 1.99999Q85.2219 2 92.718 3.53392Q100.022 5.02854 106.887 7.93234Q113.629 10.7837 119.711 14.893Q125.737 18.9638 130.887 24.1134Q136.036 29.263 140.107 35.2886Q144.216 41.3713 147.068 48.1126Q149.971 54.978 151.466 62.282Q153 69.778 153 77.5Q153 85.222 151.466 92.718Q149.971 100.022 147.068 106.887Q144.216 113.629 140.107 119.711Q136.036 125.737 130.887 130.887Q125.737 136.036 119.711 140.107Q113.629 144.216 106.887 147.068Q100.022 149.971 92.718 151.466Q85.222 153 77.5 153Q69.778 153 62.282 151.466Q54.978 149.971 48.1126 147.068Q41.3713 144.216 35.2886 140.107Q29.2631 136.036 24.1134 130.887Q18.9638 125.737 14.893 119.711Q10.7837 113.629 7.93234 106.887Q5.02853 100.022 3.53391 92.718Q1.99999 85.2219 1.99999 77.5Q2 69.7781 3.53392 62.282Q5.02854 54.978 7.93234 48.1126Q10.7837 41.3712 14.893 35.2886Q18.9638 29.263 24.1134 24.1134Q29.263 18.9638 35.2886 14.893Q41.3712 10.7837 48.1126 7.93234Q54.978 5.02852 62.282 3.53391Z" fill-rule="evenodd" transform="matrix(1 0 0 1 127.5 99)" fill="url(#linearGradient6253434882)"/>
	<g opacity="0.1"/>
	<defs>
		<linearGradient id="linearGradient0920611673" gradientTransform="matrix(39.6748 54.4467 -53.6455 184.13 33.0872 -97.0149)" gradientUnits="userSpaceOnUse" x1="0" y1="0.5" x2="1" y2="0.5">
			<stop offset="0" stop-color="rgb(112, 0, 255)"/>
			<stop offset="0.57526344" stop-color="rgb(241, 61, 212)"/>
			<stop offset="1" stop-color="rgb(248, 58, 58)"/>
		</linearGradient>
	</defs>
	<path d="M44.0228 3.73981L44.0239 3.74051L38.6699 9.09295L38.6689 4.64013L24.7481 4.64013C13.6429 4.64013 4.6403 13.6426 4.6403 24.7478C4.6403 29.86 6.5478 34.5266 9.68984 38.0742L6.40376 41.3601C2.42433 36.9685 0 31.1412 0 24.7478C0 11.0802 11.0801 0 24.7481 0L47.7626 0L44.0228 3.73981ZM51.0436 24.7485C51.0436 35.8537 42.041 44.8562 30.9358 44.8562L17.015 44.8562L17.015 40.402L7.92003 49.497L30.9358 49.4963C44.6038 49.4963 55.6839 38.4161 55.6839 24.7485C55.6839 18.3551 53.2596 12.5278 49.2802 8.13624L45.9941 11.4221C49.1361 14.9704 51.0436 19.6363 51.0436 24.7485Z" fill-rule="evenodd" transform="matrix(1 0 0 1 177.158 151.752)" fill="url(#linearGradient0920611673)"/>
	<path d="M13.9515 5.55274C13.9515 8.63503 11.4801 11.1065 8.39566 11.1065C5.31225 11.1065 2.83985 8.63503 2.83985 5.55274C2.83985 2.47045 5.31225 0 8.39566 0C11.4801 0 13.9515 2.47045 13.9515 5.55274ZM8.39566 20.9892C3.84351 20.9892 0 20.2493 0 17.3947C0 14.5391 3.86765 13.8255 8.39566 13.8255C12.9489 13.8255 16.7913 14.5654 16.7913 17.4199C16.7913 20.2755 12.9237 20.9892 8.39566 20.9892Z" fill-rule="evenodd" transform="matrix(1 0 0 1 196.198 166.099)" fill="rgb(255, 255, 255)"/>
	<defs>
		<clipPath id="clipPath1493253493">
			<path d="M0 0L11 0L11 11L0 11L0 0Z" fill-rule="nonzero" transform="matrix(1 0 0 1 206.547 177.474)"/>
		</clipPath>
	</defs>
	<g clip-path="url(#clipPath1493253493)">
		<path d="M4.58334 9.16667C7.11464 9.16667 9.16667 7.11464 9.16667 4.58334C9.16667 2.05203 7.11464 0 4.58334 0C2.05203 0 0 2.05203 0 4.58334C0 7.11464 2.05203 9.16667 4.58334 9.16667Z" fill-rule="nonzero" transform="matrix(1 0 0 1 207.464 178.39)" fill="rgb(255, 255, 255)"/>
		<path d="M4.58334 8.70834Q5.42287 8.70834 6.18883 8.38436Q6.92901 8.07129 7.50015 7.50015Q8.07129 6.92901 8.38436 6.18883Q8.70834 5.42287 8.70834 4.58333Q8.70834 3.7438 8.38436 2.97784Q8.07129 2.23766 7.50015 1.66652Q6.92901 1.09538 6.18883 0.782308Q5.42287 0.458333 4.58333 0.458333Q3.7438 0.458333 2.97784 0.782308Q2.23766 1.09538 1.66652 1.66652Q1.09538 2.23766 0.782308 2.97784Q0.458333 3.7438 0.458333 4.58334Q0.458333 5.42287 0.782308 6.18883Q1.09538 6.92901 1.66652 7.50015Q2.23766 8.07129 2.97784 8.38436Q3.7438 8.70834 4.58334 8.70834ZM4.58334 9.625Q3.55791 9.625 2.62075 9.22862Q1.7159 8.84589 1.01834 8.14833Q0.320771 7.45077 -0.0619461 6.54592Q-0.458333 5.60876 -0.458333 4.58334Q-0.458333 3.55791 -0.0619463 2.62075Q0.320772 1.7159 1.01834 1.01834Q1.7159 0.320772 2.62075 -0.061946Q3.55791 -0.458333 4.58333 -0.458333Q5.60876 -0.458333 6.54592 -0.0619463Q7.45077 0.320772 8.14833 1.01834Q8.8459 1.7159 9.22862 2.62075Q9.625 3.55791 9.625 4.58333Q9.625 5.60876 9.22862 6.54592Q8.8459 7.45078 8.14833 8.14833Q7.45077 8.8459 6.54592 9.22862Q5.60876 9.625 4.58334 9.625Z" fill-rule="nonzero" transform="matrix(1 0 0 1 207.464 178.39)" fill="rgb(62, 55, 77)"/>
		<path d="M0 -0.458333C-0.253128 -0.458333 -0.458333 -0.253128 -0.458333 0L-0.458333 3.66667C-0.458333 3.9198 -0.253128 4.125 0 4.125C0.253128 4.125 0.458333 3.9198 0.458333 3.66667L0.458333 0C0.458333 -0.253128 0.253128 -0.458333 0 -0.458333Z" fill-rule="evenodd" transform="matrix(1 0 0 1 212.047 181.14)" fill="rgb(63, 56, 78)"/>
		<path d="M-0.458333 0C-0.458333 0.253128 -0.253128 0.458333 0 0.458333L3.66667 0.458333C3.9198 0.458333 4.125 0.253128 4.125 0C4.125 -0.253128 3.9198 -0.458333 3.66667 -0.458333L0 -0.458333C-0.253128 -0.458333 -0.458333 -0.253128 -0.458333 0Z" fill-rule="evenodd" transform="matrix(1 0 0 1 210.214 182.974)" fill="rgb(63, 56, 78)"/>
	</g>
</svg>
