<?xml version="1.0" encoding="utf-8" ?>
<svg xmlns="http://www.w3.org/2000/svg" xmlns:xlink="http://www.w3.org/1999/xlink" width="24" height="24" viewBox="0 0 24 24">
	<defs>
		<clipPath id="clipPath1220120975">
			<path transform="matrix(1 0 0 1 0 0)" d="M4 0C1.79086 0 0 1.79086 0 4L0 20C0 22.2091 1.79086 24 4 24L20 24C22.2091 24 24 22.2091 24 20L24 4C24 1.79086 22.2091 0 20 0L4 0Z" fill-rule="nonzero"/>
		</clipPath>
	</defs>
	<g clip-path="url(#clipPath1220120975)">
		<path transform="matrix(1 0 0 1 5.4075 5.4075)" d="M12.8925 0.3025C12.5025 -0.0874998 11.8725 -0.0874998 11.4825 0.3025L6.5925 5.1825L1.7025 0.2925C1.3125 -0.0975 0.6825 -0.0975 0.2925 0.2925C-0.0975 0.6825 -0.0975 1.3125 0.2925 1.7025L5.1825 6.5925L0.2925 11.4825C-0.0975 11.8725 -0.0975 12.5025 0.2925 12.8925C0.6825 13.2825 1.3125 13.2825 1.7025 12.8925L6.5925 8.0025L11.4825 12.8925C11.8725 13.2825 12.5025 13.2825 12.8925 12.8925C13.2825 12.5025 13.2825 11.8725 12.8925 11.4825L8.0025 6.5925L12.8925 1.7025C13.2725 1.3225 13.2725 0.6825 12.8925 0.3025L12.8925 0.3025Z" fill-rule="nonzero" fill="rgb(112, 0, 255)"/>
	</g>
</svg>
