<?xml version="1.0" encoding="utf-8" ?>
<svg xmlns="http://www.w3.org/2000/svg" xmlns:xlink="http://www.w3.org/1999/xlink" width="102.5681" height="32.9277" viewBox="0 0 102.5681 32.9277">
	<g opacity="0.87">
		<rect width="102.56812" height="32.928017" rx="8" ry="8" transform="matrix(1 0 0 1 0 0)" fill="rgb(48, 41, 61)"/>
		<defs>
			<linearGradient id="linearGradient1149673864" gradientTransform="matrix(1.113e-15 32.928 -18.1766 2.01626e-15 60.3724 -1.03526e-14)" gradientUnits="userSpaceOnUse" x1="0" y1="0.5" x2="1" y2="0.5">
				<stop offset="0" stop-color="rgb(169, 163, 194)" stop-opacity="0.2"/>
				<stop offset="1" stop-color="rgb(169, 163, 194)" stop-opacity="0.046999998"/>
			</linearGradient>
		</defs>
		<rect width="102.56812" height="32.928017" rx="8" ry="8" transform="matrix(1 0 0 1 0 0)" fill="url(#linearGradient1149673864)"/>
		<path d="M-0 8C0 3.58172 3.58172 -0 8 -0L94.5681 0C98.9864 0 102.568 3.58172 102.568 8L102.568 24.928C102.568 29.3463 98.9864 32.928 94.5681 32.928L8 32.928C3.58172 32.928 -0 29.3463 -0 24.928L0 8ZM8 0.988003C4.12738 0.988003 0.988003 4.12738 0.988003 8L0.988003 24.928C0.988003 28.8006 4.12738 31.94 8 31.94L94.5681 31.94C98.4407 31.94 101.58 28.8006 101.58 24.928L101.58 8C101.58 4.12738 98.4407 0.988003 94.5681 0.988003L8 0.988003Z" fill-rule="nonzero" transform="matrix(1 0 0 1 0 0)" fill="rgb(255, 255, 255)" fill-opacity="0.09"/>
		<path d="M9.85087 3.92068C9.85087 6.09703 8.1059 7.84211 5.92802 7.84211C3.75088 7.84211 2.00516 6.09703 2.00516 3.92068C2.00516 1.74434 3.75088 0 5.92802 0C8.1059 0 9.85087 1.74434 9.85087 3.92068ZM5.92802 14.82C2.71383 14.82 0 14.2976 0 12.2821C0 10.2658 2.73088 9.76192 5.92802 9.76192C9.14295 9.76192 11.856 10.2843 11.856 12.2999C11.856 14.3162 9.12516 14.82 5.92802 14.82Z" fill-rule="evenodd" transform="matrix(1 0 0 1 13.832 9.05398)" fill="rgb(255, 255, 255)"/>
		<defs>
			<linearGradient id="linearGradient6458889054" gradientTransform="matrix(1.23425e-15 27 -20.1568 1.65327e-15 34.5784 -2.83614e-15)" gradientUnits="userSpaceOnUse" x1="0" y1="0.5" x2="1" y2="0.5">
				<stop offset="0" stop-color="rgb(255, 255, 255)"/>
				<stop offset="1" stop-color="rgb(255, 255, 255)" stop-opacity="0.69999999"/>
			</linearGradient>
		</defs>
		<path d="M11.2843 8.61621Q11.3224 8.61621 11.3224 8.6543L11.3224 9.31641Q11.3224 9.35449 11.2843 9.35449L2.03533 9.35449L2.03533 18.2461L11.3488 18.2461Q11.3898 18.2461 11.3898 18.2842L11.3898 18.9463Q11.3898 18.9844 11.3488 18.9844L1.32927 18.9844Q1.31169 18.9844 1.29997 18.9727Q1.29119 18.9639 1.29119 18.9463L1.29119 8.6543Q1.29119 8.63379 1.29997 8.625Q1.31169 8.61621 1.32927 8.61621L11.2843 8.61621ZM11.1701 13.4092Q11.2082 13.4092 11.2082 13.4473L11.2082 14.1006Q11.2082 14.1387 11.1701 14.1387L3.25994 14.1387Q3.22185 14.1387 3.22185 14.1006L3.22185 13.4473Q3.22185 13.4092 3.25994 13.4092L11.1701 13.4092ZM7.63103 11.165Q7.66912 11.165 7.66912 11.2031Q7.57244 13.5674 6.52947 15.126Q5.48943 16.6816 3.39763 17.4287Q3.3654 17.4404 3.34783 17.4023L3.12224 16.7988Q3.11052 16.7637 3.14861 16.7461Q5.0324 16.0693 5.92595 14.707Q6.82244 13.3447 6.91619 11.1826Q6.91619 11.1299 6.95427 11.1299L7.63103 11.165ZM4.45525 10.1924Q4.49333 10.1924 4.49333 10.2305L4.49333 10.8311L10.8537 10.8311Q10.8918 10.8311 10.8918 10.8691L10.8918 11.5225Q10.8918 11.5605 10.8537 11.5605L3.78728 11.5605Q3.74919 11.5605 3.74919 11.5225L3.74919 10.2305Q3.74919 10.1924 3.78728 10.1924L4.45525 10.1924ZM8.04119 13.6875Q8.07927 13.6787 8.08513 13.7197Q8.299 14.8506 9.09001 15.5859Q9.88396 16.3184 11.2814 16.7432Q11.3195 16.7578 11.3078 16.793L11.1115 17.4082Q11.0968 17.4404 11.0588 17.4375Q9.49431 16.9629 8.53044 16.0664Q7.56658 15.167 7.34685 13.8486Q7.33513 13.8281 7.34392 13.8164Q7.35564 13.8047 7.37322 13.7988L8.04119 13.6875Z" fill-rule="nonzero" transform="matrix(1 0 0 1 35.5681 2.96401)" fill="url(#linearGradient6458889054)"/>
		<defs>
			<linearGradient id="linearGradient9052081301" gradientTransform="matrix(1.23425e-15 27 -20.1568 1.65327e-15 34.5784 -2.83614e-15)" gradientUnits="userSpaceOnUse" x1="0" y1="0.5" x2="1" y2="0.5">
				<stop offset="0" stop-color="rgb(255, 255, 255)"/>
				<stop offset="1" stop-color="rgb(255, 255, 255)" stop-opacity="0.69999999"/>
			</linearGradient>
		</defs>
		<path d="M15.0694 8.31152Q15.1016 8.2998 15.1192 8.33789L15.6729 9.92285Q15.6846 9.95508 15.6465 9.97266L15.002 10.1895Q14.9698 10.2012 14.9522 10.1602L14.3985 8.57812Q14.3867 8.54297 14.4248 8.52832L15.0694 8.31152ZM18.7227 8.31445Q18.7608 8.31445 18.7608 8.35254L18.7608 9.99316Q18.7608 10.0312 18.7227 10.0312L18.0371 10.0312Q17.9991 10.0312 17.9991 9.99316L17.9991 8.35254Q17.9991 8.31445 18.0371 8.31445L18.7227 8.31445ZM22.4346 12.4482Q22.4405 12.4482 22.4492 12.4541Q22.461 12.457 22.4551 12.4629Q22.4522 12.4688 22.4463 12.4688L18.8721 15.0732L18.8721 19.1777Q18.8721 19.2158 18.834 19.2158L16.7393 19.2158Q16.7012 19.2158 16.7012 19.1777L16.7012 18.5215Q16.7012 18.4834 16.7393 18.4834L18.0987 18.4834L18.0987 14.8623Q18.0987 14.8184 18.125 14.8066L20.4571 13.1836L14.9991 13.1836Q14.961 13.1836 14.961 13.1455L14.961 12.4863Q14.961 12.4482 14.9991 12.4482L22.4346 12.4482ZM23.7295 15.4043Q23.7676 15.4043 23.7676 15.4424L23.7676 16.1074Q23.7676 16.1484 23.7295 16.1484L13.0303 16.1484Q12.9922 16.1484 12.9922 16.1074L12.9922 15.4424Q12.9922 15.4043 13.0303 15.4043L23.7295 15.4043ZM23.4717 10.4033Q23.4922 10.4033 23.501 10.415Q23.5098 10.4238 23.5098 10.4414L23.5098 12.7529Q23.5098 12.791 23.4717 12.791L22.8155 12.791Q22.7774 12.791 22.7774 12.7529L22.7774 11.1182L13.9824 11.1182L13.9824 12.7529Q13.9824 12.791 13.9444 12.791L13.2881 12.791Q13.25 12.791 13.25 12.7529L13.25 10.4414Q13.25 10.4238 13.2588 10.415Q13.2676 10.4033 13.2881 10.4033L23.4717 10.4033ZM22.335 8.52832Q22.3731 8.54297 22.3614 8.57812L21.8076 10.1602Q21.7901 10.2012 21.7578 10.1895L21.1133 9.97266Q21.0752 9.95508 21.0869 9.92285L21.6407 8.33789Q21.6582 8.2998 21.6905 8.31152L22.335 8.52832Z" fill-rule="nonzero" transform="matrix(1 0 0 1 35.5681 2.96401)" fill="url(#linearGradient9052081301)"/>
		<defs>
			<linearGradient id="linearGradient4926022443" gradientTransform="matrix(1.23425e-15 27 -20.1568 1.65327e-15 34.5784 -2.83614e-15)" gradientUnits="userSpaceOnUse" x1="0" y1="0.5" x2="1" y2="0.5">
				<stop offset="0" stop-color="rgb(255, 255, 255)"/>
				<stop offset="1" stop-color="rgb(255, 255, 255)" stop-opacity="0.69999999"/>
			</linearGradient>
		</defs>
		<path d="M35.8729 12.1494Q35.911 12.1494 35.911 12.1875L35.911 12.8438Q35.911 12.8818 35.8729 12.8818L25.3671 12.8818Q25.329 12.8818 25.329 12.8438L25.329 12.1875Q25.329 12.1494 25.3671 12.1494L35.8729 12.1494ZM35.2196 9.66504Q35.2577 9.66504 35.2577 9.70312L35.2577 10.3623Q35.2577 10.4004 35.2196 10.4004L26.0204 10.4004Q25.9823 10.4004 25.9823 10.3623L25.9823 9.70312Q25.9823 9.66504 26.0204 9.66504L35.2196 9.66504ZM34.0419 18.5771Q34.08 18.5859 34.0741 18.624L33.91 19.2715Q33.9042 19.3096 33.8661 19.3037L27.0546 17.5283Q27.0165 17.5225 27.0223 17.4844L27.1864 16.8369Q27.1923 16.7988 27.2304 16.8047L34.0419 18.5771ZM30.5145 8.46387Q30.5526 8.47852 30.535 8.51953L27.8778 14.5811L35.2987 14.5811Q35.3163 14.5811 35.3192 14.5898Q35.3222 14.5986 35.3104 14.6104L31.9149 18.4629Q31.8856 18.4951 31.8593 18.4688L31.3173 18.0469Q31.285 18.0146 31.3114 17.9883L33.705 15.3193L26.7528 15.3193Q26.7352 15.3193 26.7294 15.3105Q26.7235 15.2988 26.7352 15.2812L29.8026 8.23828Q29.8202 8.19727 29.8612 8.21777L30.5145 8.46387Z" fill-rule="nonzero" transform="matrix(1 0 0 1 35.5681 2.96401)" fill="url(#linearGradient4926022443)"/>
		<defs>
			<linearGradient id="linearGradient4136293354" gradientTransform="matrix(1.23425e-15 27 -20.1568 1.65327e-15 34.5784 -2.83614e-15)" gradientUnits="userSpaceOnUse" x1="0" y1="0.5" x2="1" y2="0.5">
				<stop offset="0" stop-color="rgb(255, 255, 255)"/>
				<stop offset="1" stop-color="rgb(255, 255, 255)" stop-opacity="0.69999999"/>
			</linearGradient>
		</defs>
		<path d="M41.7908 12.4834Q42.6638 12.8496 43.2322 13.5879Q43.8005 14.3262 43.8005 15.3105L43.8005 19.1484Q43.8005 19.166 43.7917 19.1748Q43.7829 19.1865 43.7624 19.1865L41.7468 19.1865Q41.7087 19.1865 41.7087 19.1484L41.7087 18.5273Q41.7087 18.4893 41.7468 18.4893L43.0476 18.4893L43.0476 15.3105Q43.0476 14.5254 42.6316 13.9805Q42.2156 13.4326 41.5095 13.1338Q41.4714 13.1162 41.489 13.0752L41.7351 12.5098Q41.7527 12.4775 41.7908 12.4834ZM40.3845 12.8145Q41.2341 12.5332 41.7702 12.1846Q42.3093 11.833 42.6667 11.2588Q42.6814 11.2383 42.6931 11.2324Q42.7077 11.2266 42.7195 11.2383L43.2556 11.5811Q43.2878 11.5957 43.2673 11.6367Q42.8308 12.3311 42.1775 12.7559Q41.5242 13.1807 40.6042 13.4766L37.8445 14.3818Q37.8093 14.3936 37.7947 14.3555L37.5984 13.7695Q37.5837 13.7344 37.6218 13.7197L40.3845 12.8145ZM42.9949 13.9424Q43.0359 13.9219 43.0535 13.9688L43.2585 14.5547Q43.2702 14.5869 43.238 14.6045L37.8679 16.6055Q37.8357 16.6172 37.8093 16.5791L37.6042 15.9932Q37.5925 15.9609 37.6218 15.9434L42.9949 13.9424ZM43.3376 16.0225Q43.3786 16.002 43.3962 16.0488L43.6013 16.6348Q43.613 16.667 43.5837 16.6846L37.7361 18.835Q37.7038 18.8555 37.6775 18.8086L37.4724 18.2227Q37.4607 18.1904 37.49 18.1729L43.3376 16.0225ZM45.5349 14.0039Q45.5759 13.998 45.5818 14.0361Q45.9128 15.3105 46.616 16.3594Q47.322 17.4053 48.4001 18.2842Q48.4294 18.3164 48.4118 18.3428L47.99 18.8555Q47.9636 18.8877 47.9372 18.8613Q46.7859 17.918 46.0007 16.7578Q45.2185 15.5977 44.8611 14.2119Q44.8493 14.1943 44.8581 14.1855Q44.8699 14.1738 44.8874 14.168L45.5349 14.0039ZM47.3191 12.6797Q47.3601 12.6592 47.3777 12.6973L47.656 13.2832Q47.6736 13.3242 47.6355 13.3418L43.5193 15.3018Q43.4783 15.3223 43.4636 15.2842L43.1853 14.6982Q43.1648 14.6572 43.2029 14.6396L47.3191 12.6797ZM43.2117 8.24414Q43.2527 8.24414 43.2527 8.28223L43.2527 9.49219Q43.2527 9.53027 43.2117 9.53027L42.5085 9.53027Q42.4704 9.53027 42.4704 9.49219L42.4704 8.28223Q42.4704 8.24414 42.5085 8.24414L43.2117 8.24414ZM48.0193 9.17871Q48.0398 9.17871 48.0486 9.1875Q48.0574 9.19629 48.0574 9.2168L48.0574 11.2207Q48.0574 11.2588 48.0193 11.2588L47.3542 11.2588Q47.3132 11.2588 47.3132 11.2207L47.3132 9.88184L38.407 9.88184L38.407 11.2207Q38.407 11.2588 38.366 11.2588L37.7009 11.2588Q37.6628 11.2588 37.6628 11.2207L37.6628 9.2168Q37.6628 9.19629 37.6716 9.1875Q37.6804 9.17871 37.7009 9.17871L48.0193 9.17871ZM46.5779 11.0889Q46.616 11.0889 46.616 11.127L46.616 11.7451Q46.616 11.7832 46.5779 11.7832L39.1423 11.7832Q39.1042 11.7832 39.1042 11.7451L39.1042 11.127Q39.1042 11.0889 39.1423 11.0889L46.5779 11.0889Z" fill-rule="nonzero" transform="matrix(1 0 0 1 35.5681 2.96401)" fill="url(#linearGradient4136293354)"/>
	</g>
</svg>
